0
SECTION
2
HEADER
9
$INSUNITS
70
4
9
$ACADVER
1
AC1014
9
$HANDSEED
5
FFFF
0
ENDSEC
0
SECTION
2
TABLES
0
TABLE
2
VPORT
5
8
100
AcDbSymbolTable
0
ENDTAB
0
TABLE
2
LTYPE
5
5
100
AcDbSymbolTable
0
LTYPE
5
14
100
AcDbSymbolTableRecord
100
AcDbLinetypeTableRecord
2
BYBLOCK
70
0
0
LTYPE
5
15
100
AcDbSymbolTableRecord
100
AcDbLinetypeTableRecord
2
BYLAYER
70
0
0
ENDTAB
0
TABLE
2
LAYER
5
2
100
AcDbSymbolTable
70
2
0
LAYER
5
50
100
AcDbSymbolTableRecord
100
AcDbLayerTableRecord
2
0
70
0
6
CONTINUOUS
0
ENDTAB
0
TABLE
2
STYLE
5
3
100
AcDbSymbolTable
70
1
0
STYLE
5
11
100
AcDbSymbolTableRecord
100
AcDbTextStyleTableRecord
2
STANDARD
70
0
0
ENDTAB
0
TABLE
2
VIEW
5
6
100
AcDbSymbolTable
70
0
0
ENDTAB
0
TABLE
2
UCS
5
7
100
AcDbSymbolTable
70
0
0
ENDTAB
0
TABLE
2
APPID
5
9
100
AcDbSymbolTable
70
2
0
APPID
5
12
100
AcDbSymbolTableRecord
100
AcDbRegAppTableRecord
2
ACAD
70
0
0
ENDTAB
0
TABLE
2
DIMSTYLE
5
A
100
AcDbSymbolTable
70
1
0
ENDTAB
0
TABLE
2
BLOCK_RECORD
5
1
100
AcDbSymbolTable
70
1
0
BLOCK_RECORD
5
1F
100
AcDbSymbolTableRecord
100
AcDbBlockTableRecord
2
*MODEL_SPACE
0
BLOCK_RECORD
5
1B
100
AcDbSymbolTableRecord
100
AcDbBlockTableRecord
2
*PAPER_SPACE
0
ENDTAB
0
ENDSEC
0
SECTION
2
BLOCKS
0
BLOCK
5
20
100
AcDbEntity
100
AcDbBlockBegin
2
*MODEL_SPACE
0
ENDBLK
5
21
100
AcDbEntity
100
AcDbBlockEnd
0
BLOCK
5
1C
100
AcDbEntity
100
AcDbBlockBegin
2
*PAPER_SPACE
0
ENDBLK
5
1D
100
AcDbEntity
100
AcDbBlockEnd
0
ENDSEC
0
SECTION
2
ENTITIES
0
CIRCLE
5
100
100
AcDbEntity
8
0
100
AcDbCircle
10
121.74999999999999
20
-39.549999999999997
30
0
40
1.0500000000000043
210
0
220
-0
230
1
0
CIRCLE
5
101
100
AcDbEntity
8
0
100
AcDbCircle
10
121.74999999999997
20
-3.5000000000001168
30
0
40
1.0500000000000043
210
0
220
-0
230
1
0
CIRCLE
5
102
100
AcDbEntity
8
0
100
AcDbCircle
10
3.4999999999999942
20
-39.549999999999997
30
0
40
1.0499999999999998
210
0
220
-0
230
1
0
CIRCLE
5
103
100
AcDbEntity
8
0
100
AcDbCircle
10
3.4999999999999942
20
-3.4999999999999956
30
0
40
1.0499999999999998
210
0
220
-0
230
1
0
LWPOLYLINE
5
104
100
AcDbEntity
8
0
100
AcDbPolyline
90
8
70
1
43
0.0
10
120.2499999999999
20
-43.04999999999999
42
0.41421356237309737
10
125.2499999999999
20
-38.049999999999983
10
125.24999999999999
20
-5.0000000000000222
42
0.41421356237309243
10
120.24999999999999
20
4.4408920985006262e-15
10
5
20
0
42
0.41421356237309492
10
-3.3306690738754696e-15
20
-4.9999999999999991
10
-9.9920072216264089e-15
20
-38.049999999999997
42
0.41421356237309537
10
4.9999999999999902
20
-43.049999999999997
0
SPLINE
5
105
100
AcDbEntity
8
0
100
AcDbSpline
70
4
71
3
72
8
73
4
74
0
42
0.000000001
43
0.0000000001
44
0.0000000001
40
0
40
0
40
0
40
0
40
1
40
1
40
1
40
1
41
1
41
1
41
1
41
1
10
55.815260631271869
20
-6.6398825120930631
30
0
10
54.143783199020902
20
-6.7803766012196505
30
0
10
52.917121154495746
20
-6.9888147020344693
30
0
10
51.155472385117086
20
-7.4318860101704569
30
0
0
SPLINE
5
106
100
AcDbEntity
8
0
100
AcDbSpline
70
4
71
3
72
8
73
4
74
0
42
0.000000001
43
0.0000000001
44
0.0000000001
40
0
40
0
40
0
40
0
40
1
40
1
40
1
40
1
41
1
41
1
41
1
41
1
10
51.155472385117086
20
-7.4318860101704569
30
0
10
49.460022336670434
20
-7.8581305837635966
30
0
10
48.183037540146387
20
-8.5769505643849335
30
0
10
47.606615602203881
20
-9.4291199636464089
30
0
0
SPLINE
5
107
100
AcDbEntity
8
0
100
AcDbSpline
70
4
71
3
72
8
73
4
74
0
42
0.000000001
43
0.0000000001
44
0.0000000001
40
0
40
0
40
0
40
0
40
1
40
1
40
1
40
1
41
1
41
1
41
1
41
1
10
47.606615602203881
20
-9.4291199636464089
30
0
10
47.364204284378559
20
-9.7875779771809555
30
0
10
47.251174604126483
20
-9.8861620759968716
30
0
10
46.760955011078387
20
-10.166673054695604
30
0
0
SPLINE
5
108
100
AcDbEntity
8
0
100
AcDbSpline
70
4
71
3
72
8
73
4
74
0
42
0.000000001
43
0.0000000001
44
0.0000000001
40
0
40
0
40
0
40
0
40
1
40
1
40
1
40
1
41
1
41
1
41
1
41
1
10
46.760955011078387
20
-10.166673054695604
30
0
10
41.812558533379104
20
-12.997503170967576
30
0
10
39.571484691330461
20
-17.543625874519822
30
0
10
41.010395166107685
20
-21.831147599220749
30
0
0
SPLINE
5
109
100
AcDbEntity
8
0
100
AcDbSpline
70
4
71
3
72
8
73
4
74
0
42
0.000000001
43
0.0000000001
44
0.0000000001
40
0
40
0
40
0
40
0
40
1
40
1
40
1
40
1
41
1
41
1
41
1
41
1
10
41.010395166107685
20
-21.831147599220749
30
0
10
41.22311958474782
20
-22.465353074074265
30
0
10
41.254235054680379
20
-22.626801552772996
30
0
10
41.227405902573139
20
-22.959540448189255
30
0
0
SPLINE
5
110
100
AcDbEntity
8
0
100
AcDbSpline
70
4
71
3
72
8
73
4
74
0
42
0.000000001
43
0.0000000001
44
0.0000000001
40
0
40
0
40
0
40
0
40
1
40
1
40
1
40
1
41
1
41
1
41
1
41
1
10
41.227405902573139
20
-22.959540448189255
30
0
10
41.129457666107683
20
-24.178899159431928
30
0
10
42.567573615738425
20
-26.001825680733202
30
0
10
44.827062637039688
20
-27.522493519783495
30
0
0
SPLINE
5
111
100
AcDbEntity
8
0
100
AcDbSpline
70
4
71
3
72
8
73
4
74
0
42
0.000000001
43
0.0000000001
44
0.0000000001
40
0
40
0
40
0
40
0
40
1
40
1
40
1
40
1
41
1
41
1
41
1
41
1
10
44.827062637039688
20
-27.522493519783495
30
0
10
45.047407714554346
20
-27.670764508247849
30
0
10
45.118686067291769
20
-27.746489052772993
30
0
10
45.037723228165177
20
-27.746489052772993
30
0
0
SPLINE
5
112
100
AcDbEntity
8
0
100
AcDbSpline
70
4
71
3
72
8
73
4
74
0
42
0.000000001
43
0.0000000001
44
0.0000000001
40
0
40
0
40
0
40
0
40
1
40
1
40
1
40
1
41
1
41
1
41
1
41
1
10
45.037723228165177
20
-27.746489052772993
30
0
10
44.574966832825211
20
-27.746489052772993
30
0
10
44.565442220398452
20
-28.023984227180954
30
0
10
44.974700185486341
20
-29.572114052772992
30
0
0
LINE
5
113
100
AcDbEntity
8
0
100
AcDbLine
10
44.974700185486341
20
-29.572114052772992
30
0
11
45.264259788223775
21
-30.667488083839885
31
0
0
LINE
5
114
100
AcDbEntity
8
0
100
AcDbLine
10
45.264259788223775
20
-30.667488083839885
30
0
11
45.090269681641139
21
-30.667488083839885
31
0
0
SPLINE
5
115
100
AcDbEntity
8
0
100
AcDbSpline
70
4
71
3
72
8
73
4
74
0
42
0.000000001
43
0.0000000001
44
0.0000000001
40
0
40
0
40
0
40
0
40
1
40
1
40
1
40
1
41
1
41
1
41
1
41
1
10
45.090269681641132
20
-30.667488083839885
30
0
10
44.838968402573144
20
-30.667488083839885
30
0
10
44.283343402573138
20
-30.843543229103567
30
0
10
43.859481193253067
20
-31.057536950111864
30
0
0
SPLINE
5
116
100
AcDbEntity
8
0
100
AcDbSpline
70
4
71
3
72
8
73
4
74
0
42
0.000000001
43
0.0000000001
44
0.0000000001
40
0
40
0
40
0
40
0
40
1
40
1
40
1
40
1
41
1
41
1
41
1
41
1
10
43.859481193253067
20
-31.057536950111864
30
0
10
41.923842317291772
20
-32.03432810306596
30
0
10
42.364849797913102
20
-34.439389634132866
30
0
10
44.417011357971703
20
-34.097283577919484
30
0
0
SPLINE
5
117
100
AcDbEntity
8
0
100
AcDbSpline
70
4
71
3
72
8
73
4
74
0
42
0.000000001
43
0.0000000001
44
0.0000000001
40
0
40
0
40
0
40
0
40
1
40
1
40
1
40
1
41
1
41
1
41
1
41
1
10
44.417011357971703
20
-34.097283577919484
30
0
10
44.626561309525044
20
-34.062358384132864
30
0
10
44.814996997543844
20
-34.033624672890184
30
0
10
44.835635272690325
20
-34.033304924965378
30
0
0
SPLINE
5
118
100
AcDbEntity
8
0
100
AcDbSpline
70
4
71
3
72
8
73
4
74
0
42
0.000000001
43
0.0000000001
44
0.0000000001
40
0
40
0
40
0
40
0
40
1
40
1
40
1
40
1
41
1
41
1
41
1
41
1
10
44.835635272690325
20
-34.033304924965378
30
0
10
44.856272336670429
20
-34.033149895668508
30
0
10
44.906437637039701
20
-34.140144333839892
30
0
10
44.947077113815809
20
-34.271115021706102
30
0
0
SPLINE
5
119
100
AcDbEntity
8
0
100
AcDbSpline
70
4
71
3
72
8
73
4
74
0
42
0.000000001
43
0.0000000001
44
0.0000000001
40
0
40
0
40
0
40
0
40
1
40
1
40
1
40
1
41
1
41
1
41
1
41
1
10
44.947077113815809
20
-34.271115021706102
30
0
10
45.326806842514543
20
-35.494601387978079
30
0
10
46.625381890961194
20
-35.861473374367236
30
0
10
47.436277162262471
20
-34.974376358986376
30
0
0
LINE
5
120
100
AcDbEntity
8
0
100
AcDbLine
10
47.436277162262471
20
-34.974376358986376
30
0
11
47.661384545990501
21
-34.727996048927778
31
0
0
LINE
5
121
100
AcDbEntity
8
0
100
AcDbLine
10
47.661384545990501
20
-34.727996048927778
30
0
11
47.936339904495746
21
-34.824991097450727
31
0
0
SPLINE
5
122
100
AcDbEntity
8
0
100
AcDbSpline
70
4
71
3
72
8
73
4
74
0
42
0.000000001
43
0.0000000001
44
0.0000000001
40
0
40
0
40
0
40
0
40
1
40
1
40
1
40
1
41
1
41
1
41
1
41
1
10
47.936339904495746
20
-34.824991097450734
30
0
10
49.413984691330469
20
-35.346325554848192
30
0
10
50.356484090515643
20
-33.648812890053264
30
0
10
49.354294778534452
20
-32.270864052772993
30
0
0
SPLINE
5
123
100
AcDbEntity
8
0
100
AcDbSpline
70
4
71
3
72
8
73
4
74
0
42
0.000000001
43
0.0000000001
44
0.0000000001
40
0
40
0
40
0
40
0
40
1
40
1
40
1
40
1
41
1
41
1
41
1
41
1
10
49.354294778534452
20
-32.270864052772993
30
0
10
49.174113189407862
20
-32.023214440346237
30
0
10
48.983772336670427
20
-31.717777657509323
30
0
10
48.931225883194486
20
-31.592208771706105
30
0
0
SPLINE
5
124
100
AcDbEntity
8
0
100
AcDbSpline
70
4
71
3
72
8
73
4
74
0
42
0.000000001
43
0.0000000001
44
0.0000000001
40
0
40
0
40
0
40
0
40
1
40
1
40
1
40
1
41
1
41
1
41
1
41
1
10
48.931225883194486
20
-31.592208771706105
30
0
10
48.770094730087791
20
-31.20628756046343
30
0
10
48.383380204865006
20
-31.167869362831588
30
0
10
48.096200544067891
20
-31.509180893898481
30
0
0
SPLINE
5
125
100
AcDbEntity
8
0
100
AcDbSpline
70
4
71
3
72
8
73
4
74
0
42
0.000000001
43
0.0000000001
44
0.0000000001
40
0
40
0
40
0
40
0
40
1
40
1
40
1
40
1
41
1
41
1
41
1
41
1
10
48.096200544067891
20
-31.509180893898481
30
0
10
47.898557569214375
20
-31.743972764015673
30
0
10
47.930307084747824
20
-32.000512337685109
30
0
10
48.192244826981103
20
-32.286740021706102
30
0
0
SPLINE
5
126
100
AcDbEntity
8
0
100
AcDbSpline
70
4
71
3
72
8
73
4
74
0
42
0.000000001
43
0.0000000001
44
0.0000000001
40
0
40
0
40
0
40
0
40
1
40
1
40
1
40
1
41
1
41
1
41
1
41
1
10
48.192244826981103
20
-32.286740021706102
30
0
10
48.686116086670438
20
-32.826489052772992
30
0
10
48.830260631271869
20
-33.086361756325246
30
0
10
48.830260631271869
20
-33.437357773781294
30
0
0
SPLINE
5
127
100
AcDbEntity
8
0
100
AcDbSpline
70
4
71
3
72
8
73
4
74
0
42
0.000000001
43
0.0000000001
44
0.0000000001
40
0
40
0
40
0
40
0
40
1
40
1
40
1
40
1
41
1
41
1
41
1
41
1
10
48.830260631271869
20
-33.437357773781294
30
0
10
48.830260631271869
20
-34.059974808693411
30
0
10
48.268445359894308
20
-34.138400254250044
30
0
10
47.744411212631732
20
-33.588806862831589
30
0
0
SPLINE
5
128
100
AcDbEntity
8
0
100
AcDbSpline
70
4
71
3
72
8
73
4
74
0
42
0.000000001
43
0.0000000001
44
0.0000000001
40
0
40
0
40
0
40
0
40
1
40
1
40
1
40
1
41
1
41
1
41
1
41
1
10
47.744411212631732
20
-33.588806862831589
30
0
10
47.224187394806414
20
-33.043501000404831
30
0
10
46.616969129272974
20
-33.229555535316933
30
0
10
46.8147707669225
20
-33.873920273781295
30
0
0
SPLINE
5
129
100
AcDbEntity
8
0
100
AcDbSpline
70
4
71
3
72
8
73
4
74
0
42
0.000000001
43
0.0000000001
44
0.0000000001
40
0
40
0
40
0
40
0
40
1
40
1
40
1
40
1
41
1
41
1
41
1
41
1
10
46.8147707669225
20
-33.873920273781295
30
0
10
46.868110534378559
20
-34.047911591530315
30
0
10
46.857792607971696
20
-34.12347868442582
30
0
10
46.756510030457051
20
-34.297465157509322
30
0
0
SPLINE
5
130
100
AcDbEntity
8
0
100
AcDbSpline
70
4
71
3
72
8
73
4
74
0
42
0.000000001
43
0.0000000001
44
0.0000000001
40
0
40
0
40
0
40
0
40
1
40
1
40
1
40
1
41
1
41
1
41
1
41
1
10
46.756510030457051
20
-34.297465157509322
30
0
10
46.43107204599049
20
-34.856902909279341
30
0
10
45.840999051758324
20
-34.38636476993608
30
0
10
45.688121997543838
20
-33.445298180580608
30
0
0
SPLINE
5
131
100
AcDbEntity
8
0
100
AcDbSpline
70
4
71
3
72
8
73
4
74
0
42
0.000000001
43
0.0000000001
44
0.0000000001
40
0
40
0
40
0
40
0
40
1
40
1
40
1
40
1
41
1
41
1
41
1
41
1
10
45.688121997543838
20
-33.445298180580608
30
0
10
45.607953683563736
20
-32.951583161354534
30
0
10
45.360304071136987
20
-32.876810593605512
30
0
10
44.5757613579717
20
-33.10938360691118
30
0
0
SPLINE
5
132
100
AcDbEntity
8
0
100
AcDbSpline
70
4
71
3
72
8
73
4
74
0
42
0.000000001
43
0.0000000001
44
0.0000000001
40
0
40
0
40
0
40
0
40
1
40
1
40
1
40
1
41
1
41
1
41
1
41
1
10
44.5757613579717
20
-33.10938360691118
30
0
10
43.920917607971703
20
-33.303533577919481
30
0
10
43.511818305679824
20
-33.14684740543413
30
0
10
43.579763528534443
20
-32.728064827919482
30
0
0
SPLINE
5
133
100
AcDbEntity
8
0
100
AcDbSpline
70
4
71
3
72
8
73
4
74
0
42
0.000000001
43
0.0000000001
44
0.0000000001
40
0
40
0
40
0
40
0
40
1
40
1
40
1
40
1
41
1
41
1
41
1
41
1
10
43.579763528534443
20
-32.728064827919482
30
0
10
43.682792607971699
20
-32.093379731178757
30
0
10
44.307156144806413
20
-31.691427521706103
30
0
10
45.306011115738428
20
-31.616814827919484
30
0
0
SPLINE
5
134
100
AcDbEntity
8
0
100
AcDbSpline
70
4
71
3
72
8
73
4
74
0
42
0.000000001
43
0.0000000001
44
0.0000000001
40
0
40
0
40
0
40
0
40
1
40
1
40
1
40
1
41
1
41
1
41
1
41
1
10
45.306011115738428
20
-31.616814827919484
30
0
10
46.436152888962297
20
-31.532357773781293
30
0
10
46.435834352203869
20
-31.533627076149457
30
0
10
45.871319390961204
20
-29.313827977180953
30
0
0
SPLINE
5
135
100
AcDbEntity
8
0
100
AcDbSpline
70
4
71
3
72
8
73
4
74
0
42
0.000000001
43
0.0000000001
44
0.0000000001
40
0
40
0
40
0
40
0
40
1
40
1
40
1
40
1
41
1
41
1
41
1
41
1
10
45.871319390961204
20
-29.313827977180953
30
0
10
45.709712249466449
20
-28.678827977180955
30
0
10
45.547946445175675
20
-28.103199353218553
30
0
10
45.511750737854513
20
-28.034620690346237
30
0
0
SPLINE
5
136
100
AcDbEntity
8
0
100
AcDbSpline
70
4
71
3
72
8
73
4
74
0
42
0.000000001
43
0.0000000001
44
0.0000000001
40
0
40
0
40
0
40
0
40
1
40
1
40
1
40
1
41
1
41
1
41
1
41
1
10
45.511750737854513
20
-28.034620690346237
30
0
10
45.44666386766103
20
-27.911430535316942
30
0
10
45.447933170029195
20
-27.911430535316942
30
0
10
45.629861261078389
20
-28.03081036090898
30
0
0
SPLINE
5
137
100
AcDbEntity
8
0
100
AcDbSpline
70
4
71
3
72
8
73
4
74
0
42
0.000000001
43
0.0000000001
44
0.0000000001
40
0
40
0
40
0
40
0
40
1
40
1
40
1
40
1
41
1
41
1
41
1
41
1
10
45.629861261078389
20
-28.03081036090898
30
0
10
47.064644080826312
20
-28.97299122333574
30
0
10
47.870775834747825
20
-29.158253655434127
30
0
10
47.962692462631729
20
-28.567068810463425
30
0
0
SPLINE
5
138
100
AcDbEntity
8
0
100
AcDbSpline
70
4
71
3
72
8
73
4
74
0
42
0.000000001
43
0.0000000001
44
0.0000000001
40
0
40
0
40
0
40
0
40
1
40
1
40
1
40
1
41
1
41
1
41
1
41
1
10
47.962692462631729
20
-28.567068810463425
30
0
10
48.006031629272968
20
-28.287667260170455
30
0
10
47.883158799835712
20
-28.165271630287645
30
0
10
47.255143596359765
20
-27.86237587451982
30
0
0
SPLINE
5
139
100
AcDbEntity
8
0
100
AcDbSpline
70
4
71
3
72
8
73
4
74
0
42
0.000000001
43
0.0000000001
44
0.0000000001
40
0
40
0
40
0
40
0
40
1
40
1
40
1
40
1
41
1
41
1
41
1
41
1
10
47.255143596359765
20
-27.86237587451982
30
0
10
46.617921106049096
20
-27.555037560463425
30
0
10
45.563345214554339
20
-26.928132996559615
30
0
10
45.608271009155779
20
-26.883365864754197
30
0
0
SPLINE
5
140
100
AcDbEntity
8
0
100
AcDbSpline
70
4
71
3
72
8
73
4
74
0
42
0.000000001
43
0.0000000001
44
0.0000000001
40
0
40
0
40
0
40
0
40
1
40
1
40
1
40
1
41
1
41
1
41
1
41
1
10
45.608271009155779
20
-26.883365864754197
30
0
10
45.622240602203874
20
-26.869236397743698
30
0
10
45.802898179718525
20
-26.891938500404834
30
0
10
46.009590989777116
20
-26.933529953957077
30
0
0
SPLINE
5
141
100
AcDbEntity
8
0
100
AcDbSpline
70
4
71
3
72
8
73
4
74
0
42
0.000000001
43
0.0000000001
44
0.0000000001
40
0
40
0
40
0
40
0
40
1
40
1
40
1
40
1
41
1
41
1
41
1
41
1
10
46.009590989777116
20
-26.933529953957077
30
0
10
48.906937152573136
20
-27.516619362831591
30
0
10
51.464399749466452
20
-26.02865543842363
30
0
10
50.960368014999901
20
-24.053487725258343
30
0
0
SPLINE
5
142
100
AcDbEntity
8
0
100
AcDbSpline
70
4
71
3
72
8
73
4
74
0
42
0.000000001
43
0.0000000001
44
0.0000000001
40
0
40
0
40
0
40
0
40
1
40
1
40
1
40
1
41
1
41
1
41
1
41
1
10
50.960368014999901
20
-24.053487725258343
30
0
10
50.247898179718518
20
-21.261867909431928
30
0
10
44.56798203630116
20
-19.573722405434125
30
0
10
42.134185582825211
20
-21.430144944191451
30
0
0
SPLINE
5
143
100
AcDbEntity
8
0
100
AcDbSpline
70
4
71
3
72
8
73
4
74
0
42
0.000000001
43
0.0000000001
44
0.0000000001
40
0
40
0
40
0
40
0
40
1
40
1
40
1
40
1
41
1
41
1
41
1
41
1
10
42.134185582825211
20
-21.430144944191451
30
0
10
41.882090989777119
20
-21.622390961647508
30
0
10
41.911301294991048
20
-21.651599450111863
30
0
10
41.71635619325307
20
-21.011679692268842
30
0
0
SPLINE
5
144
100
AcDbEntity
8
0
100
AcDbSpline
70
4
71
3
72
8
73
4
74
0
42
0.000000001
43
0.0000000001
44
0.0000000001
40
0
40
0
40
0
40
0
40
1
40
1
40
1
40
1
41
1
41
1
41
1
41
1
10
41.71635619325307
20
-21.011679692268842
30
0
10
41.040398785301718
20
-18.791718297005172
30
0
10
42.073067704865011
20
-15.460191998482223
30
0
10
44.0944305149999
20
-13.339766678810591
30
0
0
SPLINE
5
145
100
AcDbEntity
8
0
100
AcDbSpline
70
4
71
3
72
8
73
4
74
0
42
0.000000001
43
0.0000000001
44
0.0000000001
40
0
40
0
40
0
40
0
40
1
40
1
40
1
40
1
41
1
41
1
41
1
41
1
10
44.0944305149999
20
-13.339766678810591
30
0
10
45.390624410339868
20
-11.979915089607713
30
0
10
47.763778974243671
20
-10.477029595375535
30
0
10
49.274285127350353
20
-10.059198994637008
30
0
0
SPLINE
5
146
100
AcDbEntity
8
0
100
AcDbSpline
70
4
71
3
72
8
73
4
74
0
42
0.000000001
43
0.0000000001
44
0.0000000001
40
0
40
0
40
0
40
0
40
1
40
1
40
1
40
1
41
1
41
1
41
1
41
1
10
49.274285127350353
20
-10.059198994637008
30
0
10
49.605754720398458
20
-9.9674410295491178
30
0
10
49.895155660339867
20
-9.8631426477436985
30
0
10
49.917221900650532
20
-9.8274241399769746
30
0
0
SPLINE
5
147
100
AcDbEntity
8
0
100
AcDbSpline
70
4
71
3
72
8
73
4
74
0
42
0.000000001
43
0.0000000001
44
0.0000000001
40
0
40
0
40
0
40
0
40
1
40
1
40
1
40
1
41
1
41
1
41
1
41
1
10
49.917221900650532
20
-9.8274241399769746
30
0
10
50.044698373505142
20
-9.6212073183064426
30
0
10
52.687726241776019
20
-8.9611252737050009
30
0
10
53.923595573135884
20
-8.8269813299183788
30
0
0
SPLINE
5
148
100
AcDbEntity
8
0
100
AcDbSpline
70
4
71
3
72
8
73
4
74
0
42
0.000000001
43
0.0000000001
44
0.0000000001
40
0
40
0
40
0
40
0
40
1
40
1
40
1
40
1
41
1
41
1
41
1
41
1
10
53.923595573135884
20
-8.8269813299183788
30
0
10
56.734581939407853
20
-8.5217056322102493
30
0
10
60.82795127076772
20
-9.2487797117238006
30
0
10
62.927261115738418
20
-10.42607098102617
30
0
0
SPLINE
5
149
100
AcDbEntity
8
0
100
AcDbSpline
70
4
71
3
72
8
73
4
74
0
42
0.000000001
43
0.0000000001
44
0.0000000001
40
0
40
0
40
0
40
0
40
1
40
1
40
1
40
1
41
1
41
1
41
1
41
1
10
62.927261115738418
20
-10.42607098102617
30
0
10
66.126867171951801
20
-12.220581116676804
30
0
10
69.433947288223777
20
-16.62509909153032
30
0
10
69.397118140884913
20
-19.043020787239548
30
0
0
SPLINE
5
150
100
AcDbEntity
8
0
100
AcDbSpline
70
4
71
3
72
8
73
4
74
0
42
0.000000001
43
0.0000000001
44
0.0000000001
40
0
40
0
40
0
40
0
40
1
40
1
40
1
40
1
41
1
41
1
41
1
41
1
10
69.397118140884913
20
-19.043020787239548
30
0
10
69.391878635117081
20
-19.384809517860884
30
0
10
69.418391067215467
20
-19.524350419044968
30
0
10
69.514116813370265
20
-19.662462143898484
30
0
0
SPLINE
5
151
100
AcDbEntity
8
0
100
AcDbSpline
70
4
71
3
72
8
73
4
74
0
42
0.000000001
43
0.0000000001
44
0.0000000001
40
0
40
0
40
0
40
0
40
1
40
1
40
1
40
1
41
1
41
1
41
1
41
1
10
69.514116813370265
20
-19.662462143898484
30
0
10
69.699219371506246
20
-19.929003529549117
30
0
10
70.148322288223781
20
-22.269136853218548
30
0
10
70.389305640884899
20
-24.222239537239545
30
0
0
SPLINE
5
152
100
AcDbEntity
8
0
100
AcDbSpline
70
4
71
3
72
8
73
4
74
0
42
0.000000001
43
0.0000000001
44
0.0000000001
40
0
40
0
40
0
40
0
40
1
40
1
40
1
40
1
41
1
41
1
41
1
41
1
10
70.389305640884899
20
-24.222239537239545
30
0
10
70.445343887039684
20
-24.676264634132856
30
0
10
70.530433170029198
20
-25.219189343452925
30
0
10
70.578693305679835
20
-25.428738083839889
30
0
0
SPLINE
5
153
100
AcDbEntity
8
0
100
AcDbSpline
70
4
71
3
72
8
73
4
74
0
42
0.000000001
43
0.0000000001
44
0.0000000001
40
0
40
0
40
0
40
0
40
1
40
1
40
1
40
1
41
1
41
1
41
1
41
1
10
70.578693305679835
20
-25.428738083839889
30
0
10
70.626795989700824
20
-25.638289246559616
30
0
10
70.685372840591938
20
-26.009763665199756
30
0
10
70.708709594437153
20
-26.254240021706103
30
0
0
SPLINE
5
154
100
AcDbEntity
8
0
100
AcDbSpline
70
4
71
3
72
8
73
4
74
0
42
0.000000001
43
0.0000000001
44
0.0000000001
40
0
40
0
40
0
40
0
40
1
40
1
40
1
40
1
41
1
41
1
41
1
41
1
10
70.708709594437153
20
-26.254240021706103
30
0
10
70.824756290146382
20
-27.470263180733202
30
0
10
71.635016910263573
20
-27.549003529549118
30
0
10
73.664793693253074
20
-26.541417260170455
30
0
0
SPLINE
5
155
100
AcDbEntity
8
0
100
AcDbSpline
70
4
71
3
72
8
73
4
74
0
42
0.000000001
43
0.0000000001
44
0.0000000001
40
0
40
0
40
0
40
0
40
1
40
1
40
1
40
1
41
1
41
1
41
1
41
1
10
73.664793693253074
20
-26.541417260170455
30
0
10
75.350243140884913
20
-25.704806504250044
30
0
10
76.13034087342885
20
-24.932804207802292
30
0
10
76.649926406570941
20
-23.587239537239547
30
0
0
SPLINE
5
156
100
AcDbEntity
8
0
100
AcDbSpline
70
4
71
3
72
8
73
4
74
0
42
0.000000001
43
0.0000000001
44
0.0000000001
40
0
40
0
40
0
40
0
40
1
40
1
40
1
40
1
41
1
41
1
41
1
41
1
10
76.649926406570941
20
-23.587239537239547
30
0
10
77.460506774612938
20
-21.488087143898483
30
0
10
76.147166396805318
20
-18.165768132210253
30
0
10
74.125327598282368
20
-17.200885167122362
30
0
0
SPLINE
5
157
100
AcDbEntity
8
0
100
AcDbSpline
70
4
71
3
72
8
73
4
74
0
42
0.000000001
43
0.0000000001
44
0.0000000001
40
0
40
0
40
0
40
0
40
1
40
1
40
1
40
1
41
1
41
1
41
1
41
1
10
74.125327598282368
20
-17.200885167122362
30
0
10
73.758295737930808
20
-17.025784420967575
30
0
10
73.70257723970083
20
-16.972444653511523
30
0
10
73.531284400650534
20
-16.633037075996874
30
0
0
SPLINE
5
158
100
AcDbEntity
8
0
100
AcDbSpline
70
4
71
3
72
8
73
4
74
0
42
0.000000001
43
0.0000000001
44
0.0000000001
40
0
40
0
40
0
40
0
40
1
40
1
40
1
40
1
41
1
41
1
41
1
41
1
10
73.531284400650534
20
-16.633037075996874
30
0
10
72.681176406570941
20
-14.949016804695603
30
0
10
71.534051658340957
20
-13.414062047005171
30
0
10
69.961950427719614
20
-11.857042260170454
30
0
0
LINE
5
159
100
AcDbEntity
8
0
100
AcDbLine
10
69.961950427719628
20
-11.857042260170454
30
0
11
68.953569633194476
21
-10.858188500404829
31
0
0
LINE
5
160
100
AcDbEntity
8
0
100
AcDbLine
10
68.953569633194476
20
-10.858188500404829
30
0
11
69.671120311447652
21
-11.105995564461226
31
0
0
SPLINE
5
161
100
AcDbEntity
8
0
100
AcDbSpline
70
4
71
3
72
8
73
4
74
0
42
0.000000001
43
0.0000000001
44
0.0000000001
40
0
40
0
40
0
40
0
40
1
40
1
40
1
40
1
41
1
41
1
41
1
41
1
10
69.671120311447652
20
-11.105995564461226
30
0
10
75.044806358047992
20
-12.962100777626508
30
0
10
80.042417976089979
20
-17.472506184578414
30
0
10
81.460369216629545
20
-21.746215767860882
30
0
0
SPLINE
5
162
100
AcDbEntity
8
0
100
AcDbSpline
70
4
71
3
72
8
73
4
74
0
42
0.000000001
43
0.0000000001
44
0.0000000001
40
0
40
0
40
0
40
0
40
1
40
1
40
1
40
1
41
1
41
1
41
1
41
1
10
81.460369216629545
20
-21.746215767860882
30
0
10
82.626073257156889
20
-25.259671368599413
30
0
10
82.207450553604644
20
-29.722608742714399
30
0
10
80.485806609818013
20
-32.133546853065965
30
0
0
SPLINE
5
163
100
AcDbEntity
8
0
100
AcDbSpline
70
4
71
3
72
8
73
4
74
0
42
0.000000001
43
0.0000000001
44
0.0000000001
40
0
40
0
40
0
40
0
40
1
40
1
40
1
40
1
41
1
41
1
41
1
41
1
10
80.485806609818013
20
-32.133546853065965
30
0
10
80.114172317215491
20
-32.653926911354539
30
0
10
80.028286086746732
20
-32.928566155434133
30
0
10
80.092579642960104
20
-33.390049614906786
30
0
0
SPLINE
5
164
100
AcDbEntity
8
0
100
AcDbSpline
70
4
71
3
72
8
73
4
74
0
42
0.000000001
43
0.0000000001
44
0.0000000001
40
0
40
0
40
0
40
0
40
1
40
1
40
1
40
1
41
1
41
1
41
1
41
1
10
80.092579642960104
20
-33.390049614906786
30
0
10
80.148937637039694
20
-33.795024895668504
30
0
10
80.087817336746724
20
-34.096489052772995
30
0
10
79.949070960709122
20
-34.096489052772995
30
0
0
SPLINE
5
165
100
AcDbEntity
8
0
100
AcDbSpline
70
4
71
3
72
8
73
4
74
0
42
0.000000001
43
0.0000000001
44
0.0000000001
40
0
40
0
40
0
40
0
40
1
40
1
40
1
40
1
41
1
41
1
41
1
41
1
10
79.949070960709122
20
-34.096489052772995
30
0
10
79.879540321060688
20
-34.096489052772995
30
0
10
79.691262084671536
20
-33.515463471413128
30
0
10
79.691262084671536
20
-33.300994973183151
30
0
0
SPLINE
5
166
100
AcDbEntity
8
0
100
AcDbSpline
70
4
71
3
72
8
73
4
74
0
42
0.000000001
43
0.0000000001
44
0.0000000001
40
0
40
0
40
0
40
0
40
1
40
1
40
1
40
1
41
1
41
1
41
1
41
1
10
79.691262084671536
20
-33.300994973183151
30
0
10
79.691262084671536
20
-32.988732056618211
30
0
10
79.345503150650529
20
-32.783468422890181
30
0
10
79.036893111893207
20
-32.912530312538621
30
0
0
SPLINE
5
167
100
AcDbEntity
8
0
100
AcDbSpline
70
4
71
3
72
8
73
4
74
0
42
0.000000001
43
0.0000000001
44
0.0000000001
40
0
40
0
40
0
40
0
40
1
40
1
40
1
40
1
41
1
41
1
41
1
41
1
10
79.036893111893207
20
-32.912530312538621
30
0
10
78.825437995621229
20
-33.000955147743696
30
0
10
78.795275108048003
20
-33.046359353065967
30
0
10
78.510796348282369
20
-33.702787308693409
30
0
0
SPLINE
5
168
100
AcDbEntity
8
0
100
AcDbSpline
70
4
71
3
72
8
73
4
74
0
42
0.000000001
43
0.0000000001
44
0.0000000001
40
0
40
0
40
0
40
0
40
1
40
1
40
1
40
1
41
1
41
1
41
1
41
1
10
78.510796348282369
20
-33.702787308693409
30
0
10
78.358872482010398
20
-34.053628296852587
30
0
10
78.214729148575344
20
-34.223487114906781
30
0
10
78.068677016922507
20
-34.223487114906781
30
0
0
SPLINE
5
169
100
AcDbEntity
8
0
100
AcDbSpline
70
4
71
3
72
8
73
4
74
0
42
0.000000001
43
0.0000000001
44
0.0000000001
40
0
40
0
40
0
40
0
40
1
40
1
40
1
40
1
41
1
41
1
41
1
41
1
10
78.068677016922507
20
-34.223487114906781
30
0
10
78.04486548585561
20
-34.223487114906781
30
0
10
78.04486548585561
20
-33.987111039162158
30
0
10
78.068996764847313
20
-33.69802500248003
30
0
0
SPLINE
5
170
100
AcDbEntity
8
0
100
AcDbSpline
70
4
71
3
72
8
73
4
74
0
42
0.000000001
43
0.0000000001
44
0.0000000001
40
0
40
0
40
0
40
0
40
1
40
1
40
1
40
1
41
1
41
1
41
1
41
1
10
78.068996764847313
20
-33.69802500248003
30
0
10
78.142335311600249
20
-32.816964440346233
30
0
10
77.994384071060693
20
-32.722822899818894
30
0
10
76.891544410416159
20
-32.949044556618212
30
0
0
SPLINE
5
171
100
AcDbEntity
8
0
100
AcDbSpline
70
4
71
3
72
8
73
4
74
0
42
0.000000001
43
0.0000000001
44
0.0000000001
40
0
40
0
40
0
40
0
40
1
40
1
40
1
40
1
41
1
41
1
41
1
41
1
10
76.891544410416159
20
-32.949044556618212
30
0
10
76.562935592361953
20
-33.016511368751999
30
0
10
76.122560340591946
20
-33.091758713722697
30
0
10
75.913009177872212
20
-33.116364769936084
30
0
0
LINE
5
172
100
AcDbEntity
8
0
100
AcDbLine
10
75.913009177872212
20
-33.116364769936084
30
0
11
75.532010146805305
21
-33.160974450111866
31
0
0
LINE
5
173
100
AcDbEntity
8
0
100
AcDbLine
10
75.532010146805305
20
-33.160974450111866
30
0
11
75.656154700943503
21
-33.021908326149457
31
0
0
SPLINE
5
174
100
AcDbEntity
8
0
100
AcDbSpline
70
4
71
3
72
8
73
4
74
0
42
0.000000001
43
0.0000000001
44
0.0000000001
40
0
40
0
40
0
40
0
40
1
40
1
40
1
40
1
41
1
41
1
41
1
41
1
10
75.656154700943503
20
-33.021908326149465
30
0
10
75.801092559525046
20
-32.859670166969778
30
0
10
77.106652404495748
20
-32.191489052773001
30
0
10
77.278894797989409
20
-32.191489052773001
30
0
0
SPLINE
5
175
100
AcDbEntity
8
0
100
AcDbSpline
70
4
71
3
72
8
73
4
74
0
42
0.000000001
43
0.0000000001
44
0.0000000001
40
0
40
0
40
0
40
0
40
1
40
1
40
1
40
1
41
1
41
1
41
1
41
1
10
77.278894797989409
20
-32.191489052773001
30
0
10
77.480985175797016
20
-32.191489052773001
30
0
10
77.661642753311668
20
-31.893672928810595
30
0
10
77.620051299759425
20
-31.629037919044968
30
0
0
SPLINE
5
176
100
AcDbEntity
8
0
100
AcDbSpline
70
4
71
3
72
8
73
4
74
0
42
0.000000001
43
0.0000000001
44
0.0000000001
40
0
40
0
40
0
40
0
40
1
40
1
40
1
40
1
41
1
41
1
41
1
41
1
10
77.620051299759425
20
-31.629037919044968
30
0
10
77.573058044144176
20
-31.329792618751995
30
0
10
77.52226172608998
20
-31.273119721413131
30
0
10
77.003625747391254
20
-30.940378403664113
30
0
0
SPLINE
5
177
100
AcDbEntity
8
0
100
AcDbSpline
70
4
71
3
72
8
73
4
74
0
42
0.000000001
43
0.0000000001
44
0.0000000001
40
0
40
0
40
0
40
0
40
1
40
1
40
1
40
1
41
1
41
1
41
1
41
1
10
77.003625747391254
20
-30.940378403664113
30
0
10
75.879673034378555
20
-30.219019818306442
30
0
10
75.83681227845814
20
-27.478835816383835
30
0
10
76.933455611893208
20
-26.444579663277143
30
0
0
SPLINE
5
178
100
AcDbEntity
8
0
100
AcDbSpline
70
4
71
3
72
8
73
4
74
0
42
0.000000001
43
0.0000000001
44
0.0000000001
40
0
40
0
40
0
40
0
40
1
40
1
40
1
40
1
41
1
41
1
41
1
41
1
10
76.933455611893208
20
-26.444579663277143
30
0
10
77.275401794144187
20
-26.122159905434124
30
0
10
77.123003150650533
20
-25.650989537239546
30
0
10
76.676596290298974
20
-25.650989537239546
30
0
0
SPLINE
5
179
100
AcDbEntity
8
0
100
AcDbSpline
70
4
71
3
72
8
73
4
74
0
42
0.000000001
43
0.0000000001
44
0.0000000001
40
0
40
0
40
0
40
0
40
1
40
1
40
1
40
1
41
1
41
1
41
1
41
1
10
76.676596290298974
20
-25.650989537239546
30
0
10
75.927455970474753
20
-25.650989537239546
30
0
10
75.135454894730117
20
-27.428829178810595
30
0
10
75.192922317215476
20
-28.981086659431931
30
0
0
SPLINE
5
180
100
AcDbEntity
8
0
100
AcDbSpline
70
4
71
3
72
8
73
4
74
0
42
0.000000001
43
0.0000000001
44
0.0000000001
40
0
40
0
40
0
40
0
40
1
40
1
40
1
40
1
41
1
41
1
41
1
41
1
10
75.192922317215476
20
-28.981086659431931
30
0
10
75.212446319290663
20
-29.506868519783495
30
0
10
75.198953925797014
20
-29.656093907356738
30
0
10
75.130057937332666
20
-29.682446465492724
30
0
0
SPLINE
5
181
100
AcDbEntity
8
0
100
AcDbSpline
70
4
71
3
72
8
73
4
74
0
42
0.000000001
43
0.0000000001
44
0.0000000001
40
0
40
0
40
0
40
0
40
1
40
1
40
1
40
1
41
1
41
1
41
1
41
1
10
75.130057937332666
20
-29.682446465492724
30
0
10
75.024327956863914
20
-29.723085942268845
30
0
10
73.033921348282377
20
-29.933111882210252
30
0
10
71.239728538223773
20
-30.093131184578414
30
0
0
SPLINE
5
182
100
AcDbEntity
8
0
100
AcDbSpline
70
4
71
3
72
8
73
4
74
0
42
0.000000001
43
0.0000000001
44
0.0000000001
40
0
40
0
40
0
40
0
40
1
40
1
40
1
40
1
41
1
41
1
41
1
41
1
10
71.239728538223773
20
-30.093131184578414
30
0
10
70.520431358048
20
-30.157267289162153
30
0
10
69.877495795914214
20
-30.241244721413132
30
0
10
69.810978538223779
20
-30.279820370674607
30
0
0
SPLINE
5
183
100
AcDbEntity
8
0
100
AcDbSpline
70
4
71
3
72
8
73
4
74
0
42
0.000000001
43
0.0000000001
44
0.0000000001
40
0
40
0
40
0
40
0
40
1
40
1
40
1
40
1
41
1
41
1
41
1
41
1
10
69.810978538223779
20
-30.279820370674607
30
0
10
69.744461280533343
20
-30.318398442268844
30
0
10
69.612858363815803
20
-30.377295041084764
30
0
10
69.518719245621241
20
-30.410631184578413
30
0
0
SPLINE
5
184
100
AcDbEntity
8
0
100
AcDbSpline
70
4
71
3
72
8
73
4
74
0
42
0.000000001
43
0.0000000001
44
0.0000000001
40
0
40
0
40
0
40
0
40
1
40
1
40
1
40
1
41
1
41
1
41
1
41
1
10
69.518719245621241
20
-30.410631184578413
30
0
10
69.195662414261378
20
-30.525091252327439
30
0
10
69.157086764999903
20
-30.669077134132863
30
0
10
69.14534087342885
20
-31.808900971413134
30
0
0
LINE
5
185
100
AcDbEntity
8
0
100
AcDbLine
10
69.14534087342885
20
-31.808900971413131
30
0
11
69.134387084671516
21
-32.854747986793996
31
0
0
LINE
5
186
100
AcDbEntity
8
0
100
AcDbLine
10
69.134387084671516
20
-32.854747986793996
30
0
11
69.364574100204976
21
-33.053660264015669
31
0
0
SPLINE
5
187
100
AcDbEntity
8
0
100
AcDbSpline
70
4
71
3
72
8
73
4
74
0
42
0.000000001
43
0.0000000001
44
0.0000000001
40
0
40
0
40
0
40
0
40
1
40
1
40
1
40
1
41
1
41
1
41
1
41
1
10
69.364574100204976
20
-33.053660264015676
30
0
10
69.925596057602434
20
-33.538640351295939
30
0
10
69.503480350204981
20
-34.147450089455127
30
0
10
68.9092797009435
20
-33.710407967567917
30
0
0
SPLINE
5
188
100
AcDbEntity
8
0
100
AcDbSpline
70
4
71
3
72
8
73
4
74
0
42
0.000000001
43
0.0000000001
44
0.0000000001
40
0
40
0
40
0
40
0
40
1
40
1
40
1
40
1
41
1
41
1
41
1
41
1
10
68.9092797009435
20
-33.710407967567917
30
0
10
68.429694148727918
20
-33.357667870522015
30
0
10
67.951222869583631
20
-33.696440796852585
30
0
10
68.178551532455955
20
-34.227934517860888
30
0
0
SPLINE
5
189
100
AcDbEntity
8
0
100
AcDbSpline
70
4
71
3
72
8
73
4
74
0
42
0.000000001
43
0.0000000001
44
0.0000000001
40
0
40
0
40
0
40
0
40
1
40
1
40
1
40
1
41
1
41
1
41
1
41
1
10
68.178551532455955
20
-34.227934517860888
30
0
10
68.282849914261377
20
-34.471931252480026
30
0
10
68.26078488511709
20
-35.011365380287643
30
0
10
68.141405059525056
20
-35.130747628212447
30
0
0
SPLINE
5
190
100
AcDbEntity
8
0
100
AcDbSpline
70
4
71
3
72
8
73
4
74
0
42
0.000000001
43
0.0000000001
44
0.0000000001
40
0
40
0
40
0
40
0
40
1
40
1
40
1
40
1
41
1
41
1
41
1
41
1
10
68.141405059525056
20
-35.130747628212447
30
0
10
67.96106480760244
20
-35.311085457802292
30
0
10
67.607052985855617
20
-34.765779595375534
30
0
10
67.540695602127585
20
-34.205392289162155
30
0
0
SPLINE
5
191
100
AcDbEntity
8
0
100
AcDbSpline
70
4
71
3
72
8
73
4
74
0
42
0.000000001
43
0.0000000001
44
0.0000000001
40
0
40
0
40
0
40
0
40
1
40
1
40
1
40
1
41
1
41
1
41
1
41
1
10
67.540695602127585
20
-34.205392289162155
30
0
10
67.459891425797011
20
-33.523244004250046
30
0
10
67.076508819290666
20
-33.410528016090872
30
0
10
66.542156745621241
20
-33.911863694191453
30
0
0
SPLINE
5
192
100
AcDbEntity
8
0
100
AcDbSpline
70
4
71
3
72
8
73
4
74
0
42
0.000000001
43
0.0000000001
44
0.0000000001
40
0
40
0
40
0
40
0
40
1
40
1
40
1
40
1
41
1
41
1
41
1
41
1
10
66.542156745621241
20
-33.911863694191453
30
0
10
65.953512927719629
20
-34.464155564308641
30
0
10
65.368836890884907
20
-34.636238083839892
30
0
10
64.83400761766103
20
-34.414623703957076
30
0
0
SPLINE
5
193
100
AcDbEntity
8
0
100
AcDbSpline
70
4
71
3
72
8
73
4
74
0
42
0.000000001
43
0.0000000001
44
0.0000000001
40
0
40
0
40
0
40
0
40
1
40
1
40
1
40
1
41
1
41
1
41
1
41
1
10
64.83400761766103
20
-34.414623703957076
30
0
10
64.249806358047991
20
-34.172690796852585
30
0
10
64.979897453018694
20
-33.286228432655811
30
0
10
66.067018596359759
20
-32.917612366676806
30
0
0
SPLINE
5
194
100
AcDbEntity
8
0
100
AcDbSpline
70
4
71
3
72
8
73
4
74
0
42
0.000000001
43
0.0000000001
44
0.0000000001
40
0
40
0
40
0
40
0
40
1
40
1
40
1
40
1
41
1
41
1
41
1
41
1
10
66.067018596359759
20
-32.917612366676806
30
0
10
66.92966700715688
20
-32.625033326149463
30
0
10
66.959510146805314
20
-32.576935486793992
30
0
10
66.959510146805314
20
-31.472826523781301
30
0
0
SPLINE
5
195
100
AcDbEntity
8
0
100
AcDbSpline
70
4
71
3
72
8
73
4
74
0
42
0.000000001
43
0.0000000001
44
0.0000000001
40
0
40
0
40
0
40
0
40
1
40
1
40
1
40
1
41
1
41
1
41
1
41
1
10
66.959510146805314
20
-31.472826523781301
30
0
10
66.959510146805314
20
-30.18822227954912
30
0
10
66.846639129349256
20
-29.839132637978075
30
0
10
66.433096057602441
20
-29.844052395821091
30
0
0
SPLINE
5
196
100
AcDbEntity
8
0
100
AcDbSpline
70
4
71
3
72
8
73
4
74
0
42
0.000000001
43
0.0000000001
44
0.0000000001
40
0
40
0
40
0
40
0
40
1
40
1
40
1
40
1
41
1
41
1
41
1
41
1
10
66.433096057602441
20
-29.844052395821091
30
0
10
66.041460563370265
20
-29.848657250404834
30
0
10
66.007010146805314
20
-29.941367192268842
30
0
10
66.007010146805314
20
-30.989750390053274
30
0
0
LINE
5
197
100
AcDbEntity
8
0
100
AcDbLine
10
66.007010146805314
20
-30.989750390053274
30
0
11
66.007010146805314
21
-31.940821213722707
31
0
0
LINE
5
198
100
AcDbEntity
8
0
100
AcDbLine
10
66.007010146805314
20
-31.940821213722707
30
0
11
65.483771735855612
21
-32.15243620395708
31
0
0
SPLINE
5
199
100
AcDbEntity
8
0
100
AcDbSpline
70
4
71
3
72
8
73
4
74
0
42
0.000000001
43
0.0000000001
44
0.0000000001
40
0
40
0
40
0
40
0
40
1
40
1
40
1
40
1
41
1
41
1
41
1
41
1
10
65.483771735855612
20
-32.152436203957073
30
0
10
64.690973712631731
20
-32.473109459877492
30
0
10
64.081691619583637
20
-33.012543587685101
30
0
10
63.800863315292858
20
-33.642621407509324
30
0
0
SPLINE
5
200
100
AcDbEntity
8
0
100
AcDbSpline
70
4
71
3
72
8
73
4
74
0
42
0.000000001
43
0.0000000001
44
0.0000000001
40
0
40
0
40
0
40
0
40
1
40
1
40
1
40
1
41
1
41
1
41
1
41
1
10
63.800863315292858
20
-33.642621407509324
30
0
10
63.179355708786517
20
-35.036446213722705
30
0
10
65.014822646805314
20
-36.0133972406392
30
0
10
66.534218761154676
20
-35.097406640053272
30
0
0
SPLINE
5
201
100
AcDbEntity
8
0
100
AcDbSpline
70
4
71
3
72
8
73
4
74
0
42
0.000000001
43
0.0000000001
44
0.0000000001
40
0
40
0
40
0
40
0
40
1
40
1
40
1
40
1
41
1
41
1
41
1
41
1
10
66.534218761154676
20
-35.097406640053272
30
0
10
66.649630805679834
20
-35.027876000404831
30
0
10
66.753137084671522
20
-34.981362366676805
30
0
10
66.764565650650539
20
-34.994060235023966
30
0
0
SPLINE
5
202
100
AcDbEntity
8
0
100
AcDbSpline
70
4
71
3
72
8
73
4
74
0
42
0.000000001
43
0.0000000001
44
0.0000000001
40
0
40
0
40
0
40
0
40
1
40
1
40
1
40
1
41
1
41
1
41
1
41
1
10
66.764565650650539
20
-34.994060235023966
30
0
10
66.775836764999895
20
-35.006762948036673
30
0
10
66.845209953018696
20
-35.131537308693403
30
0
10
66.918553344437157
20
-35.27123808383989
30
0
0
SPLINE
5
203
100
AcDbEntity
8
0
100
AcDbSpline
70
4
71
3
72
8
73
4
74
0
42
0.000000001
43
0.0000000001
44
0.0000000001
40
0
40
0
40
0
40
0
40
1
40
1
40
1
40
1
41
1
41
1
41
1
41
1
10
66.918553344437157
20
-35.27123808383989
30
0
10
67.52212115449575
20
-36.42090628147173
30
0
10
68.804661571213273
20
-36.351850419044965
30
0
10
69.167088576981101
20
-35.149951882362842
30
0
0
SPLINE
5
204
100
AcDbEntity
8
0
100
AcDbSpline
70
4
71
3
72
8
73
4
74
0
42
0.000000001
43
0.0000000001
44
0.0000000001
40
0
40
0
40
0
40
0
40
1
40
1
40
1
40
1
41
1
41
1
41
1
41
1
10
69.167088576981101
20
-35.149951882362842
30
0
10
69.237096416183988
20
-34.918338112831584
30
0
10
69.268848354050192
20
-34.888335099220747
30
0
10
69.462046348282371
20
-34.872778878212443
30
0
0
SPLINE
5
205
100
AcDbEntity
8
0
100
AcDbSpline
70
4
71
3
72
8
73
4
74
0
42
0.000000001
43
0.0000000001
44
0.0000000001
40
0
40
0
40
0
40
0
40
1
40
1
40
1
40
1
41
1
41
1
41
1
41
1
10
69.462046348282371
20
-34.872778878212443
30
0
10
70.411213218399553
20
-34.796102356911184
30
0
10
70.939056483933001
20
-33.182567124367239
30
0
10
70.225950786301169
20
-32.537247986793993
30
0
0
SPLINE
5
206
100
AcDbEntity
8
0
100
AcDbSpline
70
4
71
3
72
8
73
4
74
0
42
0.000000001
43
0.0000000001
44
0.0000000001
40
0
40
0
40
0
40
0
40
1
40
1
40
1
40
1
41
1
41
1
41
1
41
1
10
70.225950786301169
20
-32.537247986793993
30
0
10
70.119428703018684
20
-32.440887589455123
30
0
10
70.102760631271877
20
-32.33849073886919
30
0
10
70.102760631271877
20
-31.778263306618211
30
0
0
LINE
5
207
100
AcDbEntity
8
0
100
AcDbLine
10
70.102760631271877
20
-31.778263306618211
30
0
11
70.102760631271877
21
-31.130720467567915
31
0
0
LINE
5
208
100
AcDbEntity
8
0
100
AcDbLine
10
70.102760631271877
20
-31.130720467567915
30
0
11
70.721887084671536
21
-31.088654236793992
31
0
0
SPLINE
5
209
100
AcDbEntity
8
0
100
AcDbSpline
70
4
71
3
72
8
73
4
74
0
42
0.000000001
43
0.0000000001
44
0.0000000001
40
0
40
0
40
0
40
0
40
1
40
1
40
1
40
1
41
1
41
1
41
1
41
1
10
70.721887084671536
20
-31.088654236793989
30
0
10
71.799481193253058
20
-31.015470719337941
30
0
10
74.626023780533345
20
-30.724795632362838
30
0
10
75.065129729935208
20
-30.642087502480024
30
0
0
LINE
5
210
100
AcDbEntity
8
0
100
AcDbLine
10
75.065129729935208
20
-30.642087502480027
30
0
11
75.48724543733266
21
-30.562555050850385
31
0
0
LINE
5
211
100
AcDbEntity
8
0
100
AcDbLine
10
75.48724543733266
20
-30.562555050850385
30
0
11
75.589637443253082
21
-30.777025971413131
31
0
0
SPLINE
5
212
100
AcDbEntity
8
0
100
AcDbSpline
70
4
71
3
72
8
73
4
74
0
42
0.000000001
43
0.0000000001
44
0.0000000001
40
0
40
0
40
0
40
0
40
1
40
1
40
1
40
1
41
1
41
1
41
1
41
1
10
75.589637443253082
20
-30.777025971413128
30
0
10
75.645835563370255
20
-30.895138916969771
30
0
10
75.817603179642234
20
-31.125958161354539
30
0
10
75.971271125504046
20
-31.290264992714398
30
0
0
LINE
5
213
100
AcDbEntity
8
0
100
AcDbLine
10
75.971271125504046
20
-31.290264992714395
30
0
11
76.250512801834617
21
-31.588875641823286
31
0
0
LINE
5
214
100
AcDbEntity
8
0
100
AcDbLine
10
76.250512801834617
20
-31.588875641823286
30
0
11
75.732511474319963
21
-31.874308800697797
31
0
0
SPLINE
5
215
100
AcDbEntity
8
0
100
AcDbSpline
70
4
71
3
72
8
73
4
74
0
42
0.000000001
43
0.0000000001
44
0.0000000001
40
0
40
0
40
0
40
0
40
1
40
1
40
1
40
1
41
1
41
1
41
1
41
1
10
75.732511474319963
20
-31.874308800697797
30
0
10
75.447557937332661
20
-32.031309876442428
30
0
10
75.03591639680532
20
-32.332459130287646
30
0
10
74.817635146805316
20
-32.54343946933794
30
0
0
SPLINE
5
216
100
AcDbEntity
8
0
100
AcDbSpline
70
4
71
3
72
8
73
4
74
0
42
0.000000001
43
0.0000000001
44
0.0000000001
40
0
40
0
40
0
40
0
40
1
40
1
40
1
40
1
41
1
41
1
41
1
41
1
10
74.817635146805316
20
-32.54343946933794
30
0
10
73.722420989700822
20
-33.602299256325239
30
0
10
75.055760146805312
20
-34.424308190346238
30
0
10
76.968220931717426
20
-33.869157967567915
30
0
0
SPLINE
5
217
100
AcDbEntity
8
0
100
AcDbSpline
70
4
71
3
72
8
73
4
74
0
42
0.000000001
43
0.0000000001
44
0.0000000001
40
0
40
0
40
0
40
0
40
1
40
1
40
1
40
1
41
1
41
1
41
1
41
1
10
76.968220931717426
20
-33.869157967567915
30
0
10
77.048550330826316
20
-33.845821213722701
30
0
10
77.077598945328262
20
-33.898686203957084
30
0
10
77.101730224319965
20
-34.113314576149456
30
0
0
SPLINE
5
218
100
AcDbEntity
8
0
100
AcDbSpline
70
4
71
3
72
8
73
4
74
0
42
0.000000001
43
0.0000000001
44
0.0000000001
40
0
40
0
40
0
40
0
40
1
40
1
40
1
40
1
41
1
41
1
41
1
41
1
10
77.101730224319965
20
-34.113314576149456
30
0
10
77.217144691177879
20
-35.137094140053264
30
0
10
78.079315902420547
20
-35.485231804848198
30
0
10
78.854966232010398
20
-34.821183190346233
30
0
0
LINE
5
219
100
AcDbEntity
8
0
100
AcDbLine
10
78.854966232010398
20
-34.821183190346233
30
0
11
79.121665069290671
21
-34.593057579994671
31
0
0
LINE
5
220
100
AcDbEntity
8
0
100
AcDbLine
10
79.121665069290671
20
-34.593057579994671
30
0
11
79.303751823135883
21
-34.788002076149461
31
0
0
SPLINE
5
221
100
AcDbEntity
8
0
100
AcDbSpline
70
4
71
3
72
8
73
4
74
0
42
0.000000001
43
0.0000000001
44
0.0000000001
40
0
40
0
40
0
40
0
40
1
40
1
40
1
40
1
41
1
41
1
41
1
41
1
10
79.303751823135883
20
-34.788002076149461
30
0
10
80.061147453018691
20
-35.598742318153853
30
0
10
81.319084235855598
20
-34.561150612831582
30
0
10
81.019679061600243
20
-33.372429566383836
30
0
0
SPLINE
5
222
100
AcDbEntity
8
0
100
AcDbSpline
70
4
71
3
72
8
73
4
74
0
42
0.000000001
43
0.0000000001
44
0.0000000001
40
0
40
0
40
0
40
0
40
1
40
1
40
1
40
1
41
1
41
1
41
1
41
1
10
81.019679061600243
20
-33.372429566383836
30
0
10
80.951892501541636
20
-33.103032250404837
30
0
10
80.954910728165174
20
-33.094776940346236
30
0
10
81.315431358047988
20
-32.566456475258349
30
0
0
SPLINE
5
223
100
AcDbEntity
8
0
100
AcDbSpline
70
4
71
3
72
8
73
4
74
0
42
0.000000001
43
0.0000000001
44
0.0000000001
40
0
40
0
40
0
40
0
40
1
40
1
40
1
40
1
41
1
41
1
41
1
41
1
10
81.315431358047988
20
-32.566456475258349
30
0
10
81.668176299759409
20
-32.049884324074263
30
0
10
81.940591842361954
20
-31.520294556618211
30
0
10
82.080132743546045
20
-31.080239052772995
30
0
0
SPLINE
5
224
100
AcDbEntity
8
0
100
AcDbSpline
70
4
71
3
72
8
73
4
74
0
42
0.000000001
43
0.0000000001
44
0.0000000001
40
0
40
0
40
0
40
0
40
1
40
1
40
1
40
1
41
1
41
1
41
1
41
1
10
82.080132743546045
20
-31.080239052772995
30
0
10
82.091086532303365
20
-31.045313858986372
30
0
10
82.203003150650531
20
-30.730987114906789
30
0
10
82.328731910416167
20
-30.381740021706101
30
0
0
SPLINE
5
225
100
AcDbEntity
8
0
100
AcDbSpline
70
4
71
3
72
8
73
4
74
0
42
0.000000001
43
0.0000000001
44
0.0000000001
40
0
40
0
40
0
40
0
40
1
40
1
40
1
40
1
41
1
41
1
41
1
41
1
10
82.328731910416167
20
-30.381740021706101
30
0
10
84.725063354202774
20
-23.722812657356734
30
0
10
81.540063964554349
20
-16.622240738869184
30
0
10
74.198511115738427
20
-12.256775612831587
30
0
0
SPLINE
5
226
100
AcDbEntity
8
0
100
AcDbSpline
70
4
71
3
72
8
73
4
74
0
42
0.000000001
43
0.0000000001
44
0.0000000001
40
0
40
0
40
0
40
0
40
1
40
1
40
1
40
1
41
1
41
1
41
1
41
1
10
74.198511115738427
20
-12.256775612831587
30
0
10
71.807419177719623
20
-10.835009198189255
30
0
10
68.48779622239735
20
-9.521988568306444
30
0
10
67.284156028458156
20
-9.521988568306444
30
0
0
SPLINE
5
227
100
AcDbEntity
8
0
100
AcDbSpline
70
4
71
3
72
8
73
4
74
0
42
0.000000001
43
0.0000000001
44
0.0000000001
40
0
40
0
40
0
40
0
40
1
40
1
40
1
40
1
41
1
41
1
41
1
41
1
10
67.284156028458156
20
-9.521988568306444
30
0
10
67.229069759079479
20
-9.521988568306444
30
0
10
67.004914352127571
20
-9.4129278802876435
30
0
10
66.785998450943509
20
-9.2794185876851039
30
0
0
SPLINE
5
228
100
AcDbEntity
8
0
100
AcDbSpline
70
4
71
3
72
8
73
4
74
0
42
0.000000001
43
0.0000000001
44
0.0000000001
40
0
40
0
40
0
40
0
40
1
40
1
40
1
40
1
41
1
41
1
41
1
41
1
10
66.785998450943509
20
-9.2794185876851039
30
0
10
65.23659690065054
20
-8.3353325605397188
30
0
10
63.705135146805318
20
-7.696204905510422
30
0
10
61.974761115738417
20
-7.2713907194142298
30
0
0
SPLINE
5
229
100
AcDbEntity
8
0
100
AcDbSpline
70
4
71
3
72
8
73
4
74
0
42
0.000000001
43
0.0000000001
44
0.0000000001
40
0
40
0
40
0
40
0
40
1
40
1
40
1
40
1
41
1
41
1
41
1
41
1
10
61.974761115738417
20
-7.2713907194142298
30
0
10
61.154975883194481
20
-7.0700948667530987
30
0
10
60.708094245621226
20
-6.9883387136464066
30
0
10
59.149010631271878
20
-6.7549760198597859
30
0
0
SPLINE
5
230
100
AcDbEntity
8
0
100
AcDbSpline
70
4
71
3
72
8
73
4
74
0
42
0.000000001
43
0.0000000001
44
0.0000000001
40
0
40
0
40
0
40
0
40
1
40
1
40
1
40
1
41
1
41
1
41
1
41
1
10
59.149010631271878
20
-6.7549760198597859
30
0
10
58.488769923874401
20
-6.6560758066182091
30
0
10
56.456929313370253
20
-6.5859080934529253
30
0
10
55.815260631271869
20
-6.6398825120930631
30
0
0
SPLINE
5
231
100
AcDbEntity
8
0
100
AcDbSpline
70
4
71
3
72
8
73
4
74
0
42
0.000000001
43
0.0000000001
44
0.0000000001
40
0
40
0
40
0
40
0
40
1
40
1
40
1
40
1
41
1
41
1
41
1
41
1
10
58.811826755234272
20
-7.6687417078022913
30
0
10
63.474156028458147
20
-8.1138768434529283
30
0
10
66.791078082748925
20
-9.7993250799183826
30
0
10
70.157689449020893
20
-13.434223122597215
30
0
0
SPLINE
5
232
100
AcDbEntity
8
0
100
AcDbSpline
70
4
71
3
72
8
73
4
74
0
42
0.000000001
43
0.0000000001
44
0.0000000001
40
0
40
0
40
0
40
0
40
1
40
1
40
1
40
1
41
1
41
1
41
1
41
1
10
70.157689449020893
20
-13.434223122597215
30
0
10
71.107171222397355
20
-14.45943186283159
30
0
10
71.778685466476944
20
-15.404628529549118
30
0
10
72.661332656570949
20
-16.957520661354536
30
0
0
LINE
5
233
100
AcDbEntity
8
0
100
AcDbLine
10
72.661332656570949
20
-16.957520661354536
30
0
11
72.827068664261375
21
-17.249305176735398
31
0
0
LINE
5
234
100
AcDbEntity
8
0
100
AcDbLine
10
72.827068664261375
20
-17.249305176735398
30
0
11
72.257791396805317
21
-17.529021630287641
31
0
0
SPLINE
5
235
100
AcDbEntity
8
0
100
AcDbSpline
70
4
71
3
72
8
73
4
74
0
42
0.000000001
43
0.0000000001
44
0.0000000001
40
0
40
0
40
0
40
0
40
1
40
1
40
1
40
1
41
1
41
1
41
1
41
1
10
72.257791396805317
20
-17.529021630287644
30
0
10
71.579930640884896
20
-17.862077851295943
30
0
10
71.404827472397358
20
-18.139890351295946
30
0
10
71.685023547836821
20
-18.438183674812791
30
0
0
SPLINE
5
236
100
AcDbEntity
8
0
100
AcDbSpline
70
4
71
3
72
8
73
4
74
0
42
0.000000001
43
0.0000000001
44
0.0000000001
40
0
40
0
40
0
40
0
40
1
40
1
40
1
40
1
41
1
41
1
41
1
41
1
10
71.685023547836821
20
-18.438183674812791
30
0
10
71.931401435562648
20
-18.700437531471724
30
0
10
72.091580611893207
20
-18.682340283394332
30
0
10
72.839771377274062
20
-18.307850060463426
30
0
0
SPLINE
5
237
100
AcDbEntity
8
0
100
AcDbSpline
70
4
71
3
72
8
73
4
74
0
42
0.000000001
43
0.0000000001
44
0.0000000001
40
0
40
0
40
0
40
0
40
1
40
1
40
1
40
1
41
1
41
1
41
1
41
1
10
72.839771377274062
20
-18.307850060463426
30
0
10
73.642251464554334
20
-17.906212754250042
30
0
10
73.676701881119286
20
-17.907322182655811
30
0
10
74.202958518692526
20
-18.352299866676805
30
0
0
SPLINE
5
238
100
AcDbEntity
8
0
100
AcDbSpline
70
4
71
3
72
8
73
4
74
0
42
0.000000001
43
0.0000000001
44
0.0000000001
40
0
40
0
40
0
40
0
40
1
40
1
40
1
40
1
41
1
41
1
41
1
41
1
10
74.202958518692526
20
-18.352299866676805
30
0
10
76.371639129349262
20
-20.186020302772995
30
0
10
76.535626212784322
20
-23.479130825996872
30
0
10
74.533316261002099
20
-24.985191998482222
30
0
0
SPLINE
5
239
100
AcDbEntity
8
0
100
AcDbSpline
70
4
71
3
72
8
73
4
74
0
42
0.000000001
43
0.0000000001
44
0.0000000001
40
0
40
0
40
0
40
0
40
1
40
1
40
1
40
1
41
1
41
1
41
1
41
1
10
74.533316261002099
20
-24.985191998482222
30
0
10
73.747501823135892
20
-25.576216969490524
30
0
10
71.780431968399554
20
-26.430610070229047
30
0
10
71.665337249466447
20
-26.230743393898482
30
0
0
SPLINE
5
240
100
AcDbEntity
8
0
100
AcDbSpline
70
4
71
3
72
8
73
4
74
0
42
0.000000001
43
0.0000000001
44
0.0000000001
40
0
40
0
40
0
40
0
40
1
40
1
40
1
40
1
41
1
41
1
41
1
41
1
10
71.665337249466447
20
-26.230743393898482
30
0
10
71.652636958786516
20
-26.208835816383832
30
0
10
71.621999293991593
20
-25.962138180733199
30
0
10
71.597233363815818
20
-25.682739052772995
30
0
0
SPLINE
5
241
100
AcDbEntity
8
0
100
AcDbSpline
70
4
71
3
72
8
73
4
74
0
42
0.000000001
43
0.0000000001
44
0.0000000001
40
0
40
0
40
0
40
0
40
1
40
1
40
1
40
1
41
1
41
1
41
1
41
1
10
71.597233363815818
20
-25.682739052772995
30
0
10
71.572467433640043
20
-25.403339924812791
30
0
10
71.514682685562647
20
-25.046152424812789
30
0
10
71.468803703018693
20
-24.888989052772995
30
0
0
SPLINE
5
242
100
AcDbEntity
8
0
100
AcDbSpline
70
4
71
3
72
8
73
4
74
0
42
0.000000001
43
0.0000000001
44
0.0000000001
40
0
40
0
40
0
40
0
40
1
40
1
40
1
40
1
41
1
41
1
41
1
41
1
10
71.468803703018693
20
-24.888989052772995
30
0
10
71.422767268845107
20
-24.731825680733198
30
0
10
71.322596542068993
20
-24.13175087451982
30
0
10
71.245920020767727
20
-23.555490021706103
30
0
0
SPLINE
5
243
100
AcDbEntity
8
0
100
AcDbSpline
70
4
71
3
72
8
73
4
74
0
42
0.000000001
43
0.0000000001
44
0.0000000001
40
0
40
0
40
0
40
0
40
1
40
1
40
1
40
1
41
1
41
1
41
1
41
1
10
71.245920020767727
20
-23.555490021706103
30
0
10
71.122569991776018
20
-22.628070855141157
30
0
10
70.550119468399558
20
-19.489107899666305
30
0
10
70.348506290146389
20
-18.634240021706102
30
0
0
SPLINE
5
244
100
AcDbEntity
8
0
100
AcDbSpline
70
4
71
3
72
8
73
4
74
0
42
0.000000001
43
0.0000000001
44
0.0000000001
40
0
40
0
40
0
40
0
40
1
40
1
40
1
40
1
41
1
41
1
41
1
41
1
10
70.348506290146389
20
-18.634240021706102
30
0
10
69.335840388962296
20
-14.342750515938278
30
0
10
65.499645282455958
20
-10.099998345375534
30
0
10
61.393735534378564
20
-8.7306197214131309
30
0
0
SPLINE
5
245
100
AcDbEntity
8
0
100
AcDbSpline
70
4
71
3
72
8
73
4
74
0
42
0.000000001
43
0.0000000001
44
0.0000000001
40
0
40
0
40
0
40
0
40
1
40
1
40
1
40
1
41
1
41
1
41
1
41
1
10
61.393735534378564
20
-8.7306197214131309
30
0
10
59.245373450943504
20
-8.0140222311024623
30
0
10
56.14466639680532
20
-7.6762024927144008
30
0
10
53.783260146805318
20
-7.9016272020344687
30
0
0
SPLINE
5
246
100
AcDbEntity
8
0
100
AcDbSpline
70
4
71
3
72
8
73
4
74
0
42
0.000000001
43
0.0000000001
44
0.0000000001
40
0
40
0
40
0
40
0
40
1
40
1
40
1
40
1
41
1
41
1
41
1
41
1
10
53.783260146805318
20
-7.9016272020344687
30
0
10
53.556566135117087
20
-7.9232174539570766
30
0
10
53.58291869325307
20
-7.909723849297043
30
0
10
53.910260631271868
20
-7.8368576574330291
30
0
0
SPLINE
5
247
100
AcDbEntity
8
0
100
AcDbSpline
70
4
71
3
72
8
73
4
74
0
42
0.000000001
43
0.0000000001
44
0.0000000001
40
0
40
0
40
0
40
0
40
1
40
1
40
1
40
1
41
1
41
1
41
1
41
1
10
53.910260631271868
20
-7.8368576574330291
30
0
10
55.010716716476949
20
-7.5917478609089812
30
0
10
57.212738315292867
20
-7.5161831903462373
30
0
10
58.811826755234272
20
-7.6687417078022913
30
0
0
SPLINE
5
248
100
AcDbEntity
8
0
100
AcDbSpline
70
4
71
3
72
8
73
4
74
0
42
0.000000001
43
0.0000000001
44
0.0000000001
40
0
40
0
40
0
40
0
40
1
40
1
40
1
40
1
41
1
41
1
41
1
41
1
10
46.068011600204969
20
-21.680493035316939
30
0
10
48.673415795990493
20
-22.104195370674606
30
0
10
50.713353053757224
20
-23.917914605141156
30
0
10
49.935001823135885
20
-25.118541417122362
30
0
0
SPLINE
5
249
100
AcDbEntity
8
0
100
AcDbSpline
70
4
71
3
72
8
73
4
74
0
42
0.000000001
43
0.0000000001
44
0.0000000001
40
0
40
0
40
0
40
0
40
1
40
1
40
1
40
1
41
1
41
1
41
1
41
1
10
49.935001823135885
20
-25.118541417122362
30
0
10
48.785969487854508
20
-26.890509324074262
30
0
10
43.755341474243671
20
-26.107235913277144
30
0
10
42.389614516922506
20
-23.943792386055467
30
0
0
SPLINE
5
250
100
AcDbEntity
8
0
100
AcDbSpline
70
4
71
3
72
8
73
4
74
0
42
0.000000001
43
0.0000000001
44
0.0000000001
40
0
40
0
40
0
40
0
40
1
40
1
40
1
40
1
41
1
41
1
41
1
41
1
10
42.389614516922506
20
-23.943792386055467
30
0
10
41.426319996544393
20
-22.417887463570114
30
0
10
43.344814206787618
20
-21.237579178810591
30
0
10
46.068011600204969
20
-21.680493035316939
30
0
0
SPLINE
5
251
100
AcDbEntity
8
0
100
AcDbSpline
70
4
71
3
72
8
73
4
74
0
42
0.000000001
43
0.0000000001
44
0.0000000001
40
0
40
0
40
0
40
0
40
1
40
1
40
1
40
1
41
1
41
1
41
1
41
1
10
61.07703005952505
20
-22.667283577919481
30
0
10
56.323897220322166
20
-23.415946698189252
30
0
10
55.721438838669329
20
-27.079422211647504
30
0
10
60.133260146805313
20
-28.405937657356738
30
0
0
SPLINE
5
252
100
AcDbEntity
8
0
100
AcDbSpline
70
4
71
3
72
8
73
4
74
0
42
0.000000001
43
0.0000000001
44
0.0000000001
40
0
40
0
40
0
40
0
40
1
40
1
40
1
40
1
41
1
41
1
41
1
41
1
10
60.133260146805313
20
-28.405937657356738
30
0
10
65.042287055679836
20
-29.881835942268843
30
0
10
70.123239032455956
20
-27.140540089607711
30
0
10
67.708175689407852
20
-24.319077134132861
30
0
0
SPLINE
5
253
100
AcDbEntity
8
0
100
AcDbSpline
70
4
71
3
72
8
73
4
74
0
42
0.000000001
43
0.0000000001
44
0.0000000001
40
0
40
0
40
0
40
0
40
1
40
1
40
1
40
1
41
1
41
1
41
1
41
1
10
67.708175689407852
20
-24.319077134132861
30
0
10
66.667570602127583
20
-23.103368878365039
30
0
10
63.429229022690322
20
-22.296761136055466
30
0
10
61.07703005952505
20
-22.667283577919481
30
0
0
SPLINE
5
254
100
AcDbEntity
8
0
100
AcDbSpline
70
4
71
3
72
8
73
4
74
0
42
0.000000001
43
0.0000000001
44
0.0000000001
40
0
40
0
40
0
40
0
40
1
40
1
40
1
40
1
41
1
41
1
41
1
41
1
10
46.31010438127187
20
-23.559775128365036
30
0
10
45.614145166107683
20
-23.768689217567918
30
0
10
45.712410728165182
20
-24.615781407356735
30
0
10
46.460441619583641
20
-24.854698510170454
30
0
0
SPLINE
5
255
100
AcDbEntity
8
0
100
AcDbSpline
70
4
71
3
72
8
73
4
74
0
42
0.000000001
43
0.0000000001
44
0.0000000001
40
0
40
0
40
0
40
0
40
1
40
1
40
1
40
1
41
1
41
1
41
1
41
1
10
46.460441619583641
20
-24.854698510170454
30
0
10
47.548037540146382
20
-25.202044072151658
30
0
10
48.369092075058489
20
-24.640070137978075
30
0
10
47.836803828903705
20
-23.912360196114058
30
0
0
SPLINE
5
256
100
AcDbEntity
8
0
100
AcDbSpline
70
4
71
3
72
8
73
4
74
0
42
0.000000001
43
0.0000000001
44
0.0000000001
40
0
40
0
40
0
40
0
40
1
40
1
40
1
40
1
41
1
41
1
41
1
41
1
10
47.836803828903705
20
-23.912360196114058
30
0
10
47.621062394806415
20
-23.617242550850385
30
0
10
46.771750137039696
20
-23.421186203957078
30
0
10
46.31010438127187
20
-23.559775128365036
30
0
0
SPLINE
5
257
100
AcDbEntity
8
0
100
AcDbSpline
70
4
71
3
72
8
73
4
74
0
42
0.000000001
43
0.0000000001
44
0.0000000001
40
0
40
0
40
0
40
0
40
1
40
1
40
1
40
1
41
1
41
1
41
1
41
1
10
63.56829272431996
20
-23.555647473335739
30
0
10
66.565016299912003
20
-23.899025254250045
30
0
10
68.241735660263572
20
-25.539387822151657
30
0
10
66.84489262742666
20
-26.761287560463423
30
0
0
SPLINE
5
258
100
AcDbEntity
8
0
100
AcDbSpline
70
4
71
3
72
8
73
4
74
0
42
0.000000001
43
0.0000000001
44
0.0000000001
40
0
40
0
40
0
40
0
40
1
40
1
40
1
40
1
41
1
41
1
41
1
41
1
10
66.84489262742666
20
-26.761287560463423
30
0
10
64.727802859970595
20
-28.613265118599411
30
0
10
58.678317462631725
20
-27.984454178810591
30
0
10
58.104277888962301
20
-25.852920041084761
30
0
0
SPLINE
5
259
100
AcDbEntity
8
0
100
AcDbSpline
70
4
71
3
72
8
73
4
74
0
42
0.000000001
43
0.0000000001
44
0.0000000001
40
0
40
0
40
0
40
0
40
1
40
1
40
1
40
1
41
1
41
1
41
1
41
1
10
58.104277888962301
20
-25.852920041084761
30
0
10
57.721529933640028
20
-24.43131350040483
30
0
10
60.610464545914198
20
-23.216557221413133
30
0
10
63.56829272431996
20
-23.555647473335739
30
0
0
SPLINE
5
260
100
AcDbEntity
8
0
100
AcDbSpline
70
4
71
3
72
8
73
4
74
0
42
0.000000001
43
0.0000000001
44
0.0000000001
40
0
40
0
40
0
40
0
40
1
40
1
40
1
40
1
41
1
41
1
41
1
41
1
10
61.623922549912002
20
-25.485570855141159
30
0
10
61.298644439407859
20
-25.627335457802292
30
0
10
61.163391067215471
20
-26.16010090351152
30
0
10
61.375798160263564
20
-26.463313984871384
30
0
0
SPLINE
5
261
100
AcDbEntity
8
0
100
AcDbSpline
70
4
71
3
72
8
73
4
74
0
42
0.000000001
43
0.0000000001
44
0.0000000001
40
0
40
0
40
0
40
0
40
1
40
1
40
1
40
1
41
1
41
1
41
1
41
1
10
61.375798160263564
20
-26.463313984871384
30
0
10
61.704726726242569
20
-26.933055176735397
30
0
10
63.050608722397357
20
-26.976867909431931
30
0
10
63.283971416183974
20
-26.525543713570112
30
0
0
SPLINE
5
262
100
AcDbEntity
8
0
100
AcDbSpline
70
4
71
3
72
8
73
4
74
0
42
0.000000001
43
0.0000000001
44
0.0000000001
40
0
40
0
40
0
40
0
40
1
40
1
40
1
40
1
41
1
41
1
41
1
41
1
10
63.283971416183974
20
-26.525543713570112
30
0
10
63.642113315292868
20
-25.833076291084765
30
0
10
62.487048160263569
20
-25.109651455879685
30
0
10
61.623922549912002
20
-25.485570855141159
30
0
0
SPLINE
5
263
100
AcDbEntity
8
0
100
AcDbSpline
70
4
71
3
72
8
73
4
74
0
42
0.000000001
43
0.0000000001
44
0.0000000001
40
0
40
0
40
0
40
0
40
1
40
1
40
1
40
1
41
1
41
1
41
1
41
1
10
50.925761357971702
20
-28.590245690346237
30
0
10
50.723830854126476
20
-28.691845593452925
30
0
10
50.669539109894302
20
-29.09268837451982
30
0
10
50.833368741699729
20
-29.273663277626511
30
0
0
SPLINE
5
264
100
AcDbEntity
8
0
100
AcDbSpline
70
4
71
3
72
8
73
4
74
0
42
0.000000001
43
0.0000000001
44
0.0000000001
40
0
40
0
40
0
40
0
40
1
40
1
40
1
40
1
41
1
41
1
41
1
41
1
10
50.833368741699729
20
-29.273663277626511
30
0
10
50.973862830826313
20
-29.428922696114061
30
0
10
53.495605708786513
20
-29.841988568306444
30
0
10
54.303167850204979
20
-29.841988568306444
30
0
0
SPLINE
5
265
100
AcDbEntity
8
0
100
AcDbSpline
70
4
71
3
72
8
73
4
74
0
42
0.000000001
43
0.0000000001
44
0.0000000001
40
0
40
0
40
0
40
0
40
1
40
1
40
1
40
1
41
1
41
1
41
1
41
1
10
54.303167850204979
20
-29.841988568306444
30
0
10
54.454297191330461
20
-29.841988568306444
30
0
10
54.485889255234277
20
-29.877073636055464
30
0
10
54.546212608047995
20
-30.111863083839889
30
0
0
SPLINE
5
266
100
AcDbEntity
8
0
100
AcDbSpline
70
4
71
3
72
8
73
4
74
0
42
0.000000001
43
0.0000000001
44
0.0000000001
40
0
40
0
40
0
40
0
40
1
40
1
40
1
40
1
41
1
41
1
41
1
41
1
10
54.546212608047995
20
-30.111863083839889
30
0
10
55.305674487778219
20
-33.066518006325239
30
0
10
56.573293334671533
20
-34.028702492714402
30
0
10
57.422129604050191
20
-32.294995331764696
30
0
0
SPLINE
5
267
100
AcDbEntity
8
0
100
AcDbSpline
70
4
71
3
72
8
73
4
74
0
42
0.000000001
43
0.0000000001
44
0.0000000001
40
0
40
0
40
0
40
0
40
1
40
1
40
1
40
1
41
1
41
1
41
1
41
1
10
57.422129604050191
20
-32.294995331764696
30
0
10
57.835830127426661
20
-31.449969391823291
30
0
10
58.000296832748923
20
-29.397488083839889
30
0
10
57.654380447098283
20
-29.397488083839889
30
0
0
SPLINE
5
268
100
AcDbEntity
8
0
100
AcDbSpline
70
4
71
3
72
8
73
4
74
0
42
0.000000001
43
0.0000000001
44
0.0000000001
40
0
40
0
40
0
40
0
40
1
40
1
40
1
40
1
41
1
41
1
41
1
41
1
10
57.654380447098283
20
-29.397488083839889
30
0
10
57.620724555679828
20
-29.397488083839889
30
0
10
57.593260146805321
20
-29.358117909431929
30
0
10
57.593260146805321
20
-29.310017647743699
30
0
0
SPLINE
5
269
100
AcDbEntity
8
0
100
AcDbSpline
70
4
71
3
72
8
73
4
74
0
42
0.000000001
43
0.0000000001
44
0.0000000001
40
0
40
0
40
0
40
0
40
1
40
1
40
1
40
1
41
1
41
1
41
1
41
1
10
57.593260146805321
20
-29.310017647743699
30
0
10
57.593260146805321
20
-29.150790448189255
30
0
10
57.256393596359764
20
-29.090784420967573
30
0
10
56.15990771455435
20
-29.054907250404831
30
0
0
SPLINE
5
270
100
AcDbEntity
8
0
100
AcDbSpline
70
4
71
3
72
8
73
4
74
0
42
0.000000001
43
0.0000000001
44
0.0000000001
40
0
40
0
40
0
40
0
40
1
40
1
40
1
40
1
41
1
41
1
41
1
41
1
10
56.15990771455435
20
-29.054907250404831
30
0
10
55.166131164261373
20
-29.022203335762494
30
0
10
53.344159042068995
20
-28.832815670967573
30
0
10
51.799362346359757
20
-28.60119947910356
30
0
0
SPLINE
5
271
100
AcDbEntity
8
0
100
AcDbSpline
70
4
71
3
72
8
73
4
74
0
42
0.000000001
43
0.0000000001
44
0.0000000001
40
0
40
0
40
0
40
0
40
1
40
1
40
1
40
1
41
1
41
1
41
1
41
1
10
51.799362346359757
20
-28.60119947910356
30
0
10
51.061015941330467
20
-28.490549740791792
30
0
10
51.12229369325307
20
-28.491344265938277
30
0
10
50.925761357971702
20
-28.590245690346237
30
0
0
SPLINE
5
272
100
AcDbEntity
8
0
100
AcDbSpline
70
4
71
3
72
8
73
4
74
0
42
0.000000001
43
0.0000000001
44
0.0000000001
40
0
40
0
40
0
40
0
40
1
40
1
40
1
40
1
41
1
41
1
41
1
41
1
10
56.868248683640033
20
-30.048364052772996
30
0
10
57.024777404495744
20
-30.204890351295948
30
0
10
56.613932811447647
20
-32.043852715492719
30
0
10
56.407397453018703
20
-32.11115965366411
30
0
0
SPLINE
5
273
100
AcDbEntity
8
0
100
AcDbSpline
70
4
71
3
72
8
73
4
74
0
42
0.000000001
43
0.0000000001
44
0.0000000001
40
0
40
0
40
0
40
0
40
1
40
1
40
1
40
1
41
1
41
1
41
1
41
1
10
56.407397453018703
20
-32.11115965366411
30
0
10
56.257220088669335
20
-32.160056862831595
30
0
10
55.497760631271866
20
-30.442540574074268
30
0
10
55.497760631271866
20
-30.053603558540818
30
0
0
SPLINE
5
274
100
AcDbEntity
8
0
100
AcDbSpline
70
4
71
3
72
8
73
4
74
0
42
0.000000001
43
0.0000000001
44
0.0000000001
40
0
40
0
40
0
40
0
40
1
40
1
40
1
40
1
41
1
41
1
41
1
41
1
10
55.497760631271866
20
-30.053603558540818
30
0
10
55.497760631271866
20
-29.949462628365037
30
0
10
56.764584953018691
20
-29.944700322151657
30
0
10
56.868248683640033
20
-30.048364052772996
30
0
0
ENDSEC
0
SECTION
2
OBJECTS
0
DICTIONARY
5
C
100
AcDbDictionary
3
ACAD_GROUP
350
D
3
ACAD_MLINESTYLE
350
17
0
DICTIONARY
5
D
100
AcDbDictionary
0
DICTIONARY
5
1A
330
C
100
AcDbDictionary
0
DICTIONARY
5
17
100
AcDbDictionary
0
ENDSEC
0
EOF
