999
dxfrw 0.6.3
  0
SECTION
  2
HEADER
  9
$ACADVER
  1
AC1021
  9
$DWGCODEPAGE
  3
ANSI_1252
  9
$INSBASE
 10
0
 20
0
 30
0
  9
$EXTMIN
 10
0
 20
-337.8054969217239
 30
0
  9
$EXTMAX
 10
265.9908522997501
 20
0
 30
0
  9
$LIMMIN
 10
0
 20
0
  9
$LIMMAX
 10
420
 20
297
  9
$ORTHOMODE
 70
    0
  9
$REGENMODE
 70
    1
  9
$FILLMODE
 70
    1
  9
$QTEXTMODE
 70
    0
  9
$MIRRTEXT
 70
    0
  9
$LTSCALE
 40
1
  9
$ATTMODE
 70
    0
  9
$TEXTSIZE
 40
2.5
  9
$TRACEWID
 40
15.68
  9
$TEXTSTYLE
  7
STANDARD
  9
$CLAYER
  8
0
  9
$CELTYPE
  6
BYLAYER
  9
$CECOLOR
 62
  256
  9
$CELTSCALE
 40
1
  9
$DISPSILH
 70
    0
  9
$DIMSCALE
 40
2.5
  9
$DIMASZ
 40
2.5
  9
$DIMEXO
 40
0.625
  9
$DIMDLI
 40
3.75
  9
$DIMRND
 40
0
  9
$DIMDLE
 40
0
  9
$DIMEXE
 40
1.25
  9
$DIMTP
 40
0
  9
$DIMTM
 40
0
  9
$DIMTXT
 40
2.5
  9
$DIMCEN
 40
2.5
  9
$DIMTSZ
 40
0
  9
$DIMTOL
 70
    0
  9
$DIMLIM
 70
    0
  9
$DIMTIH
 70
    0
  9
$DIMTOH
 70
    0
  9
$DIMSE1
 70
    0
  9
$DIMSE2
 70
    0
  9
$DIMTAD
 70
    1
  9
$DIMZIN
 70
    8
  9
$DIMBLK
  1

  9
$DIMASO
 70
    1
  9
$DIMSHO
 70
    1
  9
$DIMPOST
  1

  9
$DIMAPOST
  1

  9
$DIMALT
 70
    0
  9
$DIMALTD
 70
    3
  9
$DIMALTF
 40
0.03937
  9
$DIMLFAC
 40
1
  9
$DIMTOFL
 70
    1
  9
$DIMTVP
 40
0
  9
$DIMTIX
 70
    0
  9
$DIMSOXD
 70
    0
  9
$DIMSAH
 70
    0
  9
$DIMBLK1
  1

  9
$DIMBLK2
  1

  9
$DIMSTYLE
  2
STANDARD
  9
$DIMCLRD
 70
    0
  9
$DIMCLRE
 70
    0
  9
$DIMCLRT
 70
    0
  9
$DIMTFAC
 40
1
  9
$DIMGAP
 40
0.625
  9
$DIMJUST
 70
    0
  9
$DIMSD1
 70
    0
  9
$DIMSD2
 70
    0
  9
$DIMTOLJ
 70
    0
  9
$DIMTZIN
 70
    8
  9
$DIMALTZ
 70
    0
  9
$DIMALTTZ
 70
    0
  9
$DIMUPT
 70
    0
  9
$DIMDEC
 70
    2
  9
$DIMTDEC
 70
    2
  9
$DIMALTU
 70
    2
  9
$DIMALTTD
 70
    3
  9
$DIMTXSTY
  7
STANDARD
  9
$DIMAUNIT
 70
    0
  9
$DIMADEC
 70
    0
  9
$DIMALTRND
 40
0
  9
$DIMAZIN
 70
    0
  9
$DIMDSEP
 70
   44
  9
$DIMATFIT
 70
    3
  9
$DIMFRAC
 70
    0
  9
$DIMLDRBLK
  1
STANDARD
  9
$DIMLUNIT
 70
    2
  9
$DIMLWD
 70
   -2
  9
$DIMLWE
 70
   -2
  9
$DIMTMOVE
 70
    0
  9
$DIMFXL
 40
1
  9
$DIMFXLON
 70
    0
  9
$DIMJOGANG
 40
0.7854
  9
$DIMTFILL
 70
    0
  9
$DIMTFILLCLR
 70
    0
  9
$DIMARCSYM
 70
    0
  9
$DIMLTYPE
  6

  9
$DIMLTEX1
  6

  9
$DIMLTEX2
  6

  9
$LUNITS
 70
    2
  9
$LUPREC
 70
    4
  9
$SKETCHINC
 40
1
  9
$FILLETRAD
 40
0
  9
$AUNITS
 70
    0
  9
$AUPREC
 70
    2
  9
$MENU
  1
.
  9
$ELEVATION
 40
0
  9
$PELEVATION
 40
0
  9
$THICKNESS
 40
0
  9
$LIMCHECK
 70
    0
  9
$CHAMFERA
 40
0
  9
$CHAMFERB
 40
0
  9
$CHAMFERC
 40
0
  9
$CHAMFERD
 40
0
  9
$SKPOLY
 70
    0
  9
$USRTIMER
 70
    1
  9
$ANGBASE
 50
0
  9
$ANGDIR
 70
    0
  9
$PDMODE
 70
   34
  9
$PDSIZE
 40
0
  9
$PLINEWID
 40
0
  9
$SPLFRAME
 70
    0
  9
$SPLINETYPE
 70
    2
  9
$SPLINESEGS
 70
    8
  9
$HANDSEED
  5
20000
  9
$SURFTAB1
 70
    6
  9
$SURFTAB2
 70
    6
  9
$SURFTYPE
 70
    6
  9
$SURFU
 70
    6
  9
$SURFV
 70
    6
  9
$UCSBASE
  2

  9
$UCSNAME
  2

  9
$UCSORG
 10
0
 20
0
 30
0
  9
$UCSXDIR
 10
1
 20
0
 30
0
  9
$UCSYDIR
 10
0
 20
1
 30
0
  9
$UCSORTHOREF
  2

  9
$UCSORTHOVIEW
 70
    0
  9
$UCSORGTOP
 10
0
 20
0
 30
0
  9
$UCSORGBOTTOM
 10
0
 20
0
 30
0
  9
$UCSORGLEFT
 10
0
 20
0
 30
0
  9
$UCSORGRIGHT
 10
0
 20
0
 30
0
  9
$UCSORGFRONT
 10
0
 20
0
 30
0
  9
$UCSORGBACK
 10
0
 20
0
 30
0
  9
$PUCSBASE
  2

  9
$PUCSNAME
  2

  9
$PUCSORG
 10
0
 20
0
 30
0
  9
$PUCSXDIR
 10
1
 20
0
 30
0
  9
$PUCSYDIR
 10
0
 20
1
 30
0
  9
$PUCSORTHOREF
  2

  9
$PUCSORTHOVIEW
 70
    0
  9
$PUCSORGTOP
 10
0
 20
0
 30
0
  9
$PUCSORGBOTTOM
 10
0
 20
0
 30
0
  9
$PUCSORGLEFT
 10
0
 20
0
 30
0
  9
$PUCSORGRIGHT
 10
0
 20
0
 30
0
  9
$PUCSORGFRONT
 10
0
 20
0
 30
0
  9
$PUCSORGBACK
 10
0
 20
0
 30
0
  9
$USERI1
 70
    0
  9
$USERI2
 70
    0
  9
$USERI3
 70
    0
  9
$USERI4
 70
    0
  9
$USERI5
 70
    0
  9
$USERR1
 40
0
  9
$USERR2
 40
0
  9
$USERR3
 40
0
  9
$USERR4
 40
0
  9
$USERR5
 40
0
  9
$WORLDVIEW
 70
    1
  9
$SHADEDGE
 70
    3
  9
$SHADEDIF
 70
   70
  9
$TILEMODE
 70
    1
  9
$MAXACTVP
 70
   64
  9
$PINSBASE
 10
0
 20
0
 30
0
  9
$PLIMCHECK
 70
    0
  9
$PEXTMIN
 10
0
 20
0
 30
0
  9
$PEXTMAX
 10
0
 20
0
 30
0
  9
$SNAPSTYLE
 70
    0
  9
$PLIMMIN
 10
0
 20
0
  9
$PLIMMAX
 10
210
 20
297
  9
$UNITMODE
 70
    0
  9
$VISRETAIN
 70
    1
  9
$PLINEGEN
 70
    0
  9
$PSLTSCALE
 70
    1
  9
$TREEDEPTH
 70
 3020
  9
$CMLSTYLE
  2
Standard
  9
$CMLJUST
 70
    0
  9
$CMLSCALE
 40
20
  9
$PROXYGRAPHICS
 70
    1
  9
$MEASUREMENT
 70
    1
  9
$CELWEIGHT
370
   -1
  9
$ENDCAPS
280
    0
  9
$JOINSTYLE
280
    0
  9
$LWDISPLAY
290
    0
  9
$INSUNITS
 70
    4
  9
$HYPERLINKBASE
  1

  9
$STYLESHEET
  1

  9
$XEDIT
290
    1
  9
$CEPSNTYPE
380
    0
  9
$PSTYLEMODE
290
    1
  9
$EXTNAMES
290
    1
  9
$PSVPSCALE
 40
1
  9
$OLESTARTUP
290
    0
  9
$SORTENTS
280
  127
  9
$INDEXCTL
280
    0
  9
$HIDETEXT
280
    1
  9
$XCLIPFRAME
290
    0
  9
$HALOGAP
280
    0
  9
$OBSCOLOR
 70
  257
  9
$OBSLTYPE
280
    0
  9
$INTERSECTIONDISPLAY
280
    0
  9
$INTERSECTIONCOLOR
 70
  257
  9
$DIMASSOC
280
    1
  9
$PROJECTNAME
  1

  9
$CAMERADISPLAY
290
    0
  9
$LENSLENGTH
 40
50
  9
$CAMERAHEIGHT
 40
0
  9
$STEPSPERSEC
 40
2
  9
$STEPSIZE
 40
50
  9
$3DDWFPREC
 40
2
  9
$PSOLWIDTH
 40
5
  9
$PSOLHEIGHT
 40
80
  9
$LOFTANG1
 40
1.570796326794897
  9
$LOFTANG2
 40
1.570796326794897
  9
$LOFTMAG1
 40
0
  9
$LOFTMAG2
 40
0
  9
$LOFTPARAM
 70
    7
  9
$LOFTNORMALS
280
    1
  9
$LATITUDE
 40
1
  9
$LONGITUDE
 40
1
  9
$NORTHDIRECTION
 40
0
  9
$TIMEZONE
 70
-8000
  9
$LIGHTGLYPHDISPLAY
280
    1
  9
$TILEMODELIGHTSYNCH
280
    1
  9
$SOLIDHIST
280
    1
  9
$SHOWHIST
280
    1
  9
$DWFFRAME
280
    2
  9
$DGNFRAME
280
    0
  9
$REALWORLDSCALE
290
    1
  9
$INTERFERECOLOR
 62
    1
  9
$CSHADOW
280
    0
  9
$SHADOWPLANELOCATION
 40
0
  0
ENDSEC
  0
SECTION
  2
CLASSES
  0
ENDSEC
  0
SECTION
  2
TABLES
  0
TABLE
  2
VPORT
  5
8
330
0
100
AcDbSymbolTable
 70
    1
  0
VPORT
  5
31
330
2
100
AcDbSymbolTableRecord
100
AcDbViewportTableRecord
  2
*ACTIVE
 70
    0
 10
0
 20
0
 11
1
 21
1
 12
262.9244903928753
 22
24.43672761862503
 13
0
 23
0
 14
10
 24
10
 15
10
 25
10
 16
0
 26
0
 36
1
 17
0
 27
0
 37
0
 40
443.9032626060005
 41
1.855960264900662
 42
50
 43
0
 44
0
 50
0
 51
0
 71
    0
 72
  100
 73
    1
 74
    3
 75
    0
 76
    1
 77
    0
 78
    0
281
    0
 65
    1
110
0
120
0
130
0
111
1
121
0
131
0
112
0
122
1
132
0
 79
    0
146
0
348
10020
 60
    7
 61
    5
292
1
282
    1
141
0
142
0
 63
  250
421
3358443
  0
ENDTAB
  0
TABLE
  2
LTYPE
  5
5
330
0
100
AcDbSymbolTable
 70
    4
  0
LTYPE
  5
14
330
5
100
AcDbSymbolTableRecord
100
AcDbLinetypeTableRecord
  2
ByBlock
 70
    0
  3

 72
   65
 73
    0
 40
0
  0
LTYPE
  5
15
330
5
100
AcDbSymbolTableRecord
100
AcDbLinetypeTableRecord
  2
ByLayer
 70
    0
  3

 72
   65
 73
    0
 40
0
  0
LTYPE
  5
16
330
5
100
AcDbSymbolTableRecord
100
AcDbLinetypeTableRecord
  2
Continuous
 70
    0
  3
Solid line
 72
   65
 73
    0
 40
0
  0
LTYPE
  5
32
330
5
100
AcDbSymbolTableRecord
100
AcDbLinetypeTableRecord
  2
DOT
 70
    0
  3
Dot . . . . . . . . . . . . . . . . . . . . . .
 72
   65
 73
    2
 40
6.35
 49
0
 74
    0
 49
-6.35
 74
    0
  0
LTYPE
  5
33
330
5
100
AcDbSymbolTableRecord
100
AcDbLinetypeTableRecord
  2
DOTTINY
 70
    0
  3
Dot (.15x) .....................................
 72
   65
 73
    2
 40
0.9525
 49
0
 74
    0
 49
-0.9525
 74
    0
  0
LTYPE
  5
34
330
5
100
AcDbSymbolTableRecord
100
AcDbLinetypeTableRecord
  2
DOT2
 70
    0
  3
Dot (.5x) .....................................
 72
   65
 73
    2
 40
3.175
 49
0
 74
    0
 49
-3.175
 74
    0
  0
LTYPE
  5
35
330
5
100
AcDbSymbolTableRecord
100
AcDbLinetypeTableRecord
  2
DOTX2
 70
    0
  3
Dot (2x) .  .  .  .  .  .  .  .  .  .  .  .  .
 72
   65
 73
    2
 40
12.7
 49
0
 74
    0
 49
-12.7
 74
    0
  0
LTYPE
  5
36
330
5
100
AcDbSymbolTableRecord
100
AcDbLinetypeTableRecord
  2
DASHED
 70
    0
  3
Dashed _ _ _ _ _ _ _ _ _ _ _ _ _ _ _ _ _
 72
   65
 73
    2
 40
19.05
 49
12.7
 74
    0
 49
-6.35
 74
    0
  0
LTYPE
  5
37
330
5
100
AcDbSymbolTableRecord
100
AcDbLinetypeTableRecord
  2
DASHEDTINY
 70
    0
  3
Dashed (.15x) _ _ _ _ _ _ _ _ _ _ _ _ _ _ _ _ _
 72
   65
 73
    2
 40
2.8575
 49
1.905
 74
    0
 49
-0.9525
 74
    0
  0
LTYPE
  5
38
330
5
100
AcDbSymbolTableRecord
100
AcDbLinetypeTableRecord
  2
DASHED2
 70
    0
  3
Dashed (.5x) _ _ _ _ _ _ _ _ _ _ _ _ _ _ _ _ _
 72
   65
 73
    2
 40
9.524999999999999
 49
6.35
 74
    0
 49
-3.175
 74
    0
  0
LTYPE
  5
39
330
5
100
AcDbSymbolTableRecord
100
AcDbLinetypeTableRecord
  2
DASHEDX2
 70
    0
  3
Dashed (2x) ____  ____  ____  ____  ____  ___
 72
   65
 73
    2
 40
38.09999999999999
 49
25.4
 74
    0
 49
-12.7
 74
    0
  0
LTYPE
  5
3A
330
5
100
AcDbSymbolTableRecord
100
AcDbLinetypeTableRecord
  2
DASHDOT
 70
    0
  3
Dash dot __ . __ . __ . __ . __ . __ . __ . __
 72
   65
 73
    4
 40
25.4
 49
12.7
 74
    0
 49
-6.35
 74
    0
 49
0
 74
    0
 49
-6.35
 74
    0
  0
LTYPE
  5
3B
330
5
100
AcDbSymbolTableRecord
100
AcDbLinetypeTableRecord
  2
DASHDOTTINY
 70
    0
  3
Dash dot (.15x) _._._._._._._._._._._._._._._.
 72
   65
 73
    4
 40
3.81
 49
1.905
 74
    0
 49
-0.9525
 74
    0
 49
0
 74
    0
 49
-0.9525
 74
    0
  0
LTYPE
  5
3C
330
5
100
AcDbSymbolTableRecord
100
AcDbLinetypeTableRecord
  2
DASHDOT2
 70
    0
  3
Dash dot (.5x) _._._._._._._._._._._._._._._.
 72
   65
 73
    4
 40
12.7
 49
6.35
 74
    0
 49
-3.175
 74
    0
 49
0
 74
    0
 49
-3.175
 74
    0
  0
LTYPE
  5
3D
330
5
100
AcDbSymbolTableRecord
100
AcDbLinetypeTableRecord
  2
DASHDOTX2
 70
    0
  3
Dash dot (2x) ____  .  ____  .  ____  .  ___
 72
   65
 73
    4
 40
50.8
 49
25.4
 74
    0
 49
-12.7
 74
    0
 49
0
 74
    0
 49
-12.7
 74
    0
  0
LTYPE
  5
3E
330
5
100
AcDbSymbolTableRecord
100
AcDbLinetypeTableRecord
  2
DIVIDE
 70
    0
  3
Divide ____ . . ____ . . ____ . . ____ . . ____
 72
   65
 73
    6
 40
31.75
 49
12.7
 74
    0
 49
-6.35
 74
    0
 49
0
 74
    0
 49
-6.35
 74
    0
 49
0
 74
    0
 49
-6.35
 74
    0
  0
LTYPE
  5
3F
330
5
100
AcDbSymbolTableRecord
100
AcDbLinetypeTableRecord
  2
DIVIDETINY
 70
    0
  3
Divide (.15x) __..__..__..__..__..__..__..__.._
 72
   65
 73
    6
 40
4.7625
 49
1.905
 74
    0
 49
-0.9525
 74
    0
 49
0
 74
    0
 49
-0.9525
 74
    0
 49
0
 74
    0
 49
-0.9525
 74
    0
  0
LTYPE
  5
40
330
5
100
AcDbSymbolTableRecord
100
AcDbLinetypeTableRecord
  2
DIVIDE2
 70
    0
  3
Divide (.5x) __..__..__..__..__..__..__..__.._
 72
   65
 73
    6
 40
15.875
 49
6.35
 74
    0
 49
-3.175
 74
    0
 49
0
 74
    0
 49
-3.175
 74
    0
 49
0
 74
    0
 49
-3.175
 74
    0
  0
LTYPE
  5
41
330
5
100
AcDbSymbolTableRecord
100
AcDbLinetypeTableRecord
  2
DIVIDEX2
 70
    0
  3
Divide (2x) ________  .  .  ________  .  .  _
 72
   65
 73
    6
 40
63.5
 49
25.4
 74
    0
 49
-12.7
 74
    0
 49
0
 74
    0
 49
-12.7
 74
    0
 49
0
 74
    0
 49
-12.7
 74
    0
  0
LTYPE
  5
42
330
5
100
AcDbSymbolTableRecord
100
AcDbLinetypeTableRecord
  2
BORDER
 70
    0
  3
Border __ __ . __ __ . __ __ . __ __ . __ __ .
 72
   65
 73
    6
 40
44.45
 49
12.7
 74
    0
 49
-6.35
 74
    0
 49
12.7
 74
    0
 49
-6.35
 74
    0
 49
0
 74
    0
 49
-6.35
 74
    0
  0
LTYPE
  5
43
330
5
100
AcDbSymbolTableRecord
100
AcDbLinetypeTableRecord
  2
BORDERTINY
 70
    0
  3
Border (.15x) __.__.__.__.__.__.__.__.__.__.__.
 72
   65
 73
    6
 40
6.6675
 49
1.905
 74
    0
 49
-0.9525
 74
    0
 49
1.905
 74
    0
 49
-0.9525
 74
    0
 49
0
 74
    0
 49
-0.9525
 74
    0
  0
LTYPE
  5
44
330
5
100
AcDbSymbolTableRecord
100
AcDbLinetypeTableRecord
  2
BORDER2
 70
    0
  3
Border (.5x) __.__.__.__.__.__.__.__.__.__.__.
 72
   65
 73
    6
 40
22.225
 49
6.35
 74
    0
 49
-3.175
 74
    0
 49
6.35
 74
    0
 49
-3.175
 74
    0
 49
0
 74
    0
 49
-3.175
 74
    0
  0
LTYPE
  5
45
330
5
100
AcDbSymbolTableRecord
100
AcDbLinetypeTableRecord
  2
BORDERX2
 70
    0
  3
Border (2x) ____  ____  .  ____  ____  .  ___
 72
   65
 73
    6
 40
88.89999999999999
 49
25.4
 74
    0
 49
-12.7
 74
    0
 49
25.4
 74
    0
 49
-12.7
 74
    0
 49
0
 74
    0
 49
-12.7
 74
    0
  0
LTYPE
  5
46
330
5
100
AcDbSymbolTableRecord
100
AcDbLinetypeTableRecord
  2
CENTER
 70
    0
  3
Center ____ _ ____ _ ____ _ ____ _ ____ _ ____
 72
   65
 73
    4
 40
50.8
 49
31.75
 74
    0
 49
-6.35
 74
    0
 49
6.35
 74
    0
 49
-6.35
 74
    0
  0
LTYPE
  5
47
330
5
100
AcDbSymbolTableRecord
100
AcDbLinetypeTableRecord
  2
CENTERTINY
 70
    0
  3
Center (.15x) ___ _ ___ _ ___ _ ___ _ ___ _ ___
 72
   65
 73
    4
 40
7.62
 49
4.7625
 74
    0
 49
-0.9525
 74
    0
 49
0.9525
 74
    0
 49
-0.9525
 74
    0
  0
LTYPE
  5
48
330
5
100
AcDbSymbolTableRecord
100
AcDbLinetypeTableRecord
  2
CENTER2
 70
    0
  3
Center (.5x) ___ _ ___ _ ___ _ ___ _ ___ _ ___
 72
   65
 73
    4
 40
28.575
 49
19.05
 74
    0
 49
-3.175
 74
    0
 49
3.175
 74
    0
 49
-3.175
 74
    0
  0
LTYPE
  5
49
330
5
100
AcDbSymbolTableRecord
100
AcDbLinetypeTableRecord
  2
CENTERX2
 70
    0
  3
Center (2x) ________  __  ________  __  _____
 72
   65
 73
    4
 40
101.6
 49
63.5
 74
    0
 49
-12.7
 74
    0
 49
12.7
 74
    0
 49
-12.7
 74
    0
  0
ENDTAB
  0
TABLE
  2
LAYER
  5
2
330
0
100
AcDbSymbolTable
 70
    1
  0
LAYER
  5
10
330
2
100
AcDbSymbolTableRecord
100
AcDbLayerTableRecord
  2
0
 70
    0
 62
    7
  6
CONTINUOUS
370
    0
390
F
  0
ENDTAB
  0
TABLE
  2
STYLE
  5
3
330
0
100
AcDbSymbolTable
 70
    3
  0
STYLE
  5
4A
330
2
100
AcDbSymbolTableRecord
100
AcDbTextStyleTableRecord
  2
Standard
 70
    0
 40
0
 41
1
 50
0
 71
    0
 42
1
  3
txt
  4

  0
ENDTAB
  0
TABLE
  2
VIEW
  5
6
330
0
100
AcDbSymbolTable
 70
    0
  0
ENDTAB
  0
TABLE
  2
UCS
  5
7
330
0
100
AcDbSymbolTable
 70
    0
  0
ENDTAB
  0
TABLE
  2
APPID
  5
9
330
0
100
AcDbSymbolTable
 70
    1
  0
APPID
  5
12
330
9
100
AcDbSymbolTableRecord
100
AcDbRegAppTableRecord
  2
ACAD
 70
    0
  0
APPID
  5
4B
330
9
100
AcDbSymbolTableRecord
100
AcDbRegAppTableRecord
  2
LibreCad
 70
    0
  0
ENDTAB
  0
TABLE
  2
DIMSTYLE
  5
A
330
0
100
AcDbSymbolTable
 70
    1
100
AcDbDimStyleTable
 71
    1
  0
DIMSTYLE
105
4C
330
A
100
AcDbSymbolTableRecord
100
AcDbDimStyleTableRecord
  2
Standard
 70
    0
 40
1
 41
2.5
 42
0.625
 43
0.38
 44
1.25
 45
0
 46
0
 47
0
 48
0
 49
1
140
2.5
141
0.09
142
2.5
143
25.4
144
1
145
0
146
1
147
0.625
148
0
 71
    0
 72
    0
 73
    0
 74
    1
 75
    0
 76
    0
 77
    0
 78
    1
 79
    0
170
    0
171
    2
172
    0
173
    0
174
    0
175
    0
176
    0
177
    0
178
    0
179
    0
271
    2
272
    4
273
    2
274
    2
275
    0
276
    0
277
    2
278
    0
279
    0
280
    0
281
    0
282
    0
283
    1
284
    0
285
    0
286
    0
288
    0
289
    3
340
standard
341

371
   -2
372
   -2
  0
ENDTAB
  0
TABLE
  2
BLOCK_RECORD
  5
1
330
0
100
AcDbSymbolTable
 70
    2
  0
BLOCK_RECORD
  5
1F
330
1
100
AcDbSymbolTableRecord
100
AcDbBlockTableRecord
  2
*Model_Space
 70
    0
280
    1
281
    0
  0
BLOCK_RECORD
  5
1E
330
1
100
AcDbSymbolTableRecord
100
AcDbBlockTableRecord
  2
*Paper_Space
 70
    0
280
    1
281
    0
  0
BLOCK_RECORD
  5
4D
330
1
100
AcDbSymbolTableRecord
100
AcDbBlockTableRecord
  2
bottom
 70
    0
280
    1
281
    0
  0
BLOCK_RECORD
  5
50
330
1
100
AcDbSymbolTableRecord
100
AcDbBlockTableRecord
  2
plate
 70
    0
280
    1
281
    0
  0
BLOCK_RECORD
  5
53
330
1
100
AcDbSymbolTableRecord
100
AcDbBlockTableRecord
  2
open3
 70
    0
280
    1
281
    0
  0
BLOCK_RECORD
  5
56
330
1
100
AcDbSymbolTableRecord
100
AcDbBlockTableRecord
  2
open2_1
 70
    0
280
    1
281
    0
  0
BLOCK_RECORD
  5
59
330
1
100
AcDbSymbolTableRecord
100
AcDbBlockTableRecord
  2
open2
 70
    0
280
    1
281
    0
  0
BLOCK_RECORD
  5
5C
330
1
100
AcDbSymbolTableRecord
100
AcDbBlockTableRecord
  2
open1_2
 70
    0
280
    1
281
    0
  0
BLOCK_RECORD
  5
5F
330
1
100
AcDbSymbolTableRecord
100
AcDbBlockTableRecord
  2
open1_1
 70
    0
280
    1
281
    0
  0
BLOCK_RECORD
  5
62
330
1
100
AcDbSymbolTableRecord
100
AcDbBlockTableRecord
  2
open1
 70
    0
280
    1
281
    0
  0
BLOCK_RECORD
  5
65
330
1
100
AcDbSymbolTableRecord
100
AcDbBlockTableRecord
  2
bottom-0
 70
    0
280
    1
281
    0
  0
ENDTAB
  0
ENDSEC
  0
SECTION
  2
BLOCKS
  0
BLOCK
  5
20
330
1F
100
AcDbEntity
  8
0
100
AcDbBlockBegin
  2
*Model_Space
 70
    0
 10
0
 20
0
 30
0
  3
*Model_Space
  1

  0
ENDBLK
  5
21
330
1F
100
AcDbEntity
  8
0
100
AcDbBlockEnd
  0
BLOCK
  5
1C
330
1B
100
AcDbEntity
  8
0
100
AcDbBlockBegin
  2
*Paper_Space
 70
    0
 10
0
 20
0
 30
0
  3
*Paper_Space
  1

  0
ENDBLK
  5
1D
330
1F
100
AcDbEntity
  8
0
100
AcDbBlockEnd
  0
BLOCK
  5
4E
330
4D
100
AcDbEntity
  8
0
100
AcDbBlockBegin
  2
bottom
 70
    0
 10
0
 20
0
  3
bottom
  1

  0
SPLINE
  5
68
100
AcDbEntity
  8
0
  6
ByLayer
 62
  256
370
   -1
100
AcDbSpline
210
0
220
0
230
0
 70
    8
 71
    3
 72
    8
 73
    4
 74
    0
 42
1e-007
 43
1e-007
 40
-1
 40
-1
 40
-1
 40
-1
 40
0
 40
0
 40
0
 40
0
 10
61.07035357788079
 20
-22.66125363463851
 30
0
 10
63.42255254104608
 20
-22.2907311927745
 30
0
 10
66.66089412048335
 20
-23.09733893508407
 30
0
 10
67.70149920776362
 20
-24.31304719085189
 30
0
  0
SPLINE
  5
69
100
AcDbEntity
  8
0
  6
ByLayer
 62
  256
370
   -1
100
AcDbSpline
210
0
220
0
230
0
 70
    8
 71
    3
 72
    8
 73
    4
 74
    0
 42
1e-007
 43
1e-007
 40
-1
 40
-1
 40
-1
 40
-1
 40
0
 40
0
 40
0
 40
0
 10
67.70149920776362
 20
-24.31304719085189
 30
0
 10
70.11656255081171
 20
-27.13451014632674
 30
0
 10
65.03561057403559
 20
-29.87580599898788
 30
0
 10
60.12658366516107
 20
-28.39990771407577
 30
0
  0
SPLINE
  5
6A
100
AcDbEntity
  8
0
  6
ByLayer
 62
  256
370
   -1
100
AcDbSpline
210
0
220
0
230
0
 70
    8
 71
    3
 72
    8
 73
    4
 74
    0
 42
1e-007
 43
1e-007
 40
-1
 40
-1
 40
-1
 40
-1
 40
0
 40
0
 40
0
 40
0
 10
60.12658366516107
 20
-28.39990771407577
 30
0
 10
55.71476235702509
 20
-27.07339226836654
 30
0
 10
56.31722073867792
 20
-23.40991675490828
 30
0
 10
61.07035357788079
 20
-22.66125363463851
 30
0
  0
SPLINE
  5
6B
100
AcDbEntity
  8
0
  6
ByLayer
 62
  256
370
   -1
100
AcDbSpline
210
0
220
0
230
0
 70
    8
 71
    3
 72
    8
 73
    4
 74
    0
 42
1e-007
 43
1e-007
 40
-1
 40
-1
 40
-1
 40
-1
 40
0
 40
0
 40
0
 40
0
 10
50.91908487632746
 20
-28.58421574706527
 30
0
 10
51.11561721160883
 20
-28.48531432265731
 30
0
 10
51.05433945968622
 20
-28.48451979751082
 30
0
 10
51.79268586471552
 20
-28.59516953582259
 30
0
  0
SPLINE
  5
6C
100
AcDbEntity
  8
0
  6
ByLayer
 62
  256
370
   -1
100
AcDbSpline
210
0
220
0
230
0
 70
    8
 71
    3
 72
    8
 73
    4
 74
    0
 42
1e-007
 43
1e-007
 40
-1
 40
-1
 40
-1
 40
-1
 40
0
 40
0
 40
0
 40
0
 10
51.79268586471552
 20
-28.59516953582259
 30
0
 10
53.33748256042475
 20
-28.82678572768661
 30
0
 10
55.15945468261712
 20
-29.01617339248153
 30
0
 10
56.15323123291009
 20
-29.04887730712386
 30
0
  0
SPLINE
  5
6D
100
AcDbEntity
  8
0
  6
ByLayer
 62
  256
370
   -1
100
AcDbSpline
210
0
220
0
230
0
 70
    8
 71
    3
 72
    8
 73
    4
 74
    0
 42
1e-007
 43
1e-007
 40
-1
 40
-1
 40
-1
 40
-1
 40
0
 40
0
 40
0
 40
0
 10
56.15323123291009
 20
-29.04887730712386
 30
0
 10
57.24971711471552
 20
-29.08475447768661
 30
0
 10
57.58658366516107
 20
-29.14476050490828
 30
0
 10
57.58658366516107
 20
-29.30398770446273
 30
0
  0
SPLINE
  5
6E
100
AcDbEntity
  8
0
  6
ByLayer
 62
  256
370
   -1
100
AcDbSpline
210
0
220
0
230
0
 70
    8
 71
    3
 72
    8
 73
    4
 74
    0
 42
1e-007
 43
1e-007
 40
-1
 40
-1
 40
-1
 40
-1
 40
0
 40
0
 40
0
 40
0
 10
57.58658366516107
 20
-29.30398770446273
 30
0
 10
57.58658366516107
 20
-29.35208796615096
 30
0
 10
57.61404807403558
 20
-29.39145814055892
 30
0
 10
57.64770396545405
 20
-29.39145814055892
 30
0
  0
SPLINE
  5
6F
100
AcDbEntity
  8
0
  6
ByLayer
 62
  256
370
   -1
100
AcDbSpline
210
0
220
0
230
0
 70
    8
 71
    3
 72
    8
 73
    4
 74
    0
 42
1e-007
 43
1e-007
 40
-1
 40
-1
 40
-1
 40
-1
 40
0
 40
0
 40
0
 40
0
 10
57.64770396545405
 20
-29.39145814055892
 30
0
 10
57.99362035110468
 20
-29.39145814055892
 30
0
 10
57.82915364578241
 20
-31.44393944854232
 30
0
 10
57.41545312240595
 20
-32.28896538848373
 30
0
  0
SPLINE
  5
70
100
AcDbEntity
  8
0
  6
ByLayer
 62
  256
370
   -1
100
AcDbSpline
210
0
220
0
230
0
 70
    8
 71
    3
 72
    8
 73
    4
 74
    0
 42
1e-007
 43
1e-007
 40
-1
 40
-1
 40
-1
 40
-1
 40
0
 40
0
 40
0
 40
0
 10
57.41545312240595
 20
-32.28896538848373
 30
0
 10
56.56661685302728
 20
-34.02267254943343
 30
0
 10
55.29899800613397
 20
-33.06048806304428
 30
0
 10
54.53953612640375
 20
-30.10583314055892
 30
0
  0
SPLINE
  5
71
100
AcDbEntity
  8
0
  6
ByLayer
 62
  256
370
   -1
100
AcDbSpline
210
0
220
0
230
0
 70
    8
 71
    3
 72
    8
 73
    4
 74
    0
 42
1e-007
 43
1e-007
 40
-1
 40
-1
 40
-1
 40
-1
 40
0
 40
0
 40
0
 40
0
 10
54.53953612640375
 20
-30.10583314055892
 30
0
 10
54.47921277359002
 20
-29.8710436927745
 30
0
 10
54.44762070968622
 20
-29.83595862502547
 30
0
 10
54.29649136856072
 20
-29.83595862502547
 30
0
  0
SPLINE
  5
72
100
AcDbEntity
  8
0
  6
ByLayer
 62
  256
370
   -1
100
AcDbSpline
210
0
220
0
230
0
 70
    8
 71
    3
 72
    8
 73
    4
 74
    0
 42
1e-007
 43
1e-007
 40
-1
 40
-1
 40
-1
 40
-1
 40
0
 40
0
 40
0
 40
0
 10
54.29649136856072
 20
-29.83595862502547
 30
0
 10
53.48892922714228
 20
-29.83595862502547
 30
0
 10
50.96718634918207
 20
-29.42289275283309
 30
0
 10
50.82669226005549
 20
-29.26763333434554
 30
0
  0
SPLINE
  5
73
100
AcDbEntity
  8
0
  6
ByLayer
 62
  256
370
   -1
100
AcDbSpline
210
0
220
0
230
0
 70
    8
 71
    3
 72
    8
 73
    4
 74
    0
 42
1e-007
 43
1e-007
 40
-1
 40
-1
 40
-1
 40
-1
 40
0
 40
0
 40
0
 40
0
 10
50.82669226005549
 20
-29.26763333434554
 30
0
 10
50.66286262825006
 20
-29.08665843123885
 30
0
 10
50.71715437248224
 20
-28.68581565017195
 30
0
 10
50.91908487632746
 20
-28.58421574706527
 30
0
  0
SPLINE
  5
74
100
AcDbEntity
  8
0
  6
ByLayer
 62
  256
370
   -1
100
AcDbSpline
210
0
220
0
230
0
 70
    8
 71
    3
 72
    8
 73
    4
 74
    0
 42
1e-007
 43
1e-007
 40
-1
 40
-1
 40
-1
 40
-1
 40
0
 40
0
 40
0
 40
0
 10
55.80858414962763
 20
-6.633852568812094
 30
0
 10
56.45025283172602
 20
-6.579878150171956
 30
0
 10
58.48209344223017
 20
-6.650045863337239
 30
0
 10
59.14233414962762
 20
-6.748946076578816
 30
0
  0
SPLINE
  5
75
100
AcDbEntity
  8
0
  6
ByLayer
 62
  256
370
   -1
100
AcDbSpline
210
0
220
0
230
0
 70
    8
 71
    3
 72
    8
 73
    4
 74
    0
 42
1e-007
 43
1e-007
 40
-1
 40
-1
 40
-1
 40
-1
 40
0
 40
0
 40
0
 40
0
 10
59.14233414962762
 20
-6.748946076578816
 30
0
 10
60.70141776397699
 20
-6.982308770365437
 30
0
 10
61.14829940155023
 20
-7.064064923472129
 30
0
 10
61.96808463409418
 20
-7.26536077613326
 30
0
  0
SPLINE
  5
76
100
AcDbEntity
  8
0
  6
ByLayer
 62
  256
370
   -1
100
AcDbSpline
210
0
220
0
230
0
 70
    8
 71
    3
 72
    8
 73
    4
 74
    0
 42
1e-007
 43
1e-007
 40
-1
 40
-1
 40
-1
 40
-1
 40
0
 40
0
 40
0
 40
0
 10
61.96808463409418
 20
-7.26536077613326
 30
0
 10
63.69845866516108
 20
-7.690174962229452
 30
0
 10
65.22992041900629
 20
-8.329302617258749
 30
0
 10
66.77932196929926
 20
-9.273388644404134
 30
0
  0
SPLINE
  5
77
100
AcDbEntity
  8
0
  6
ByLayer
 62
  256
370
   -1
100
AcDbSpline
210
0
220
0
230
0
 70
    8
 71
    3
 72
    8
 73
    4
 74
    0
 42
1e-007
 43
1e-007
 40
-1
 40
-1
 40
-1
 40
-1
 40
0
 40
0
 40
0
 40
0
 10
66.77932196929926
 20
-9.273388644404134
 30
0
 10
66.99823787048334
 20
-9.406897937006672
 30
0
 10
67.22239327743524
 20
-9.515958625025473
 30
0
 10
67.27747954681391
 20
-9.515958625025473
 30
0
  0
SPLINE
  5
78
100
AcDbEntity
  8
0
  6
ByLayer
 62
  256
370
   -1
100
AcDbSpline
210
0
220
0
230
0
 70
    8
 71
    3
 72
    8
 73
    4
 74
    0
 42
1e-007
 43
1e-007
 40
-1
 40
-1
 40
-1
 40
-1
 40
0
 40
0
 40
0
 40
0
 10
67.27747954681391
 20
-9.515958625025473
 30
0
 10
68.48111974075312
 20
-9.515958625025473
 30
0
 10
71.80074269607537
 20
-10.82897925490828
 30
0
 10
74.19183463409418
 20
-12.25074566955062
 30
0
  0
SPLINE
  5
79
100
AcDbEntity
  8
0
  6
ByLayer
 62
  256
370
   -1
100
AcDbSpline
210
0
220
0
230
0
 70
    8
 71
    3
 72
    8
 73
    4
 74
    0
 42
1e-007
 43
1e-007
 40
-1
 40
-1
 40
-1
 40
-1
 40
0
 40
0
 40
0
 40
0
 10
74.19183463409418
 20
-12.25074566955062
 30
0
 10
81.53338748291009
 20
-16.61621079558822
 30
0
 10
84.71838687255854
 20
-23.71678271407577
 30
0
 10
82.32205542877193
 20
-30.37571007842513
 30
0
  0
SPLINE
  5
7A
100
AcDbEntity
  8
0
  6
ByLayer
 62
  256
370
   -1
100
AcDbSpline
210
0
220
0
230
0
 70
    8
 71
    3
 72
    8
 73
    4
 74
    0
 42
1e-007
 43
1e-007
 40
-1
 40
-1
 40
-1
 40
-1
 40
0
 40
0
 40
0
 40
0
 10
82.32205542877193
 20
-30.37571007842513
 30
0
 10
82.1963266690063
 20
-30.72495717162582
 30
0
 10
82.0844100506591
 20
-31.0392839157054
 30
0
 10
82.07345626190178
 20
-31.07420910949202
 30
0
  0
SPLINE
  5
7B
100
AcDbEntity
  8
0
  6
ByLayer
 62
  256
370
   -1
100
AcDbSpline
210
0
220
0
230
0
 70
    8
 71
    3
 72
    8
 73
    4
 74
    0
 42
1e-007
 43
1e-007
 40
-1
 40
-1
 40
-1
 40
-1
 40
0
 40
0
 40
0
 40
0
 10
82.07345626190178
 20
-31.07420910949202
 30
0
 10
81.93391536071772
 20
-31.51426461333724
 30
0
 10
81.66149981811517
 20
-32.04385438079329
 30
0
 10
81.30875487640374
 20
-32.56042653197738
 30
0
  0
SPLINE
  5
7C
100
AcDbEntity
  8
0
  6
ByLayer
 62
  256
370
   -1
100
AcDbSpline
210
0
220
0
230
0
 70
    8
 71
    3
 72
    8
 73
    4
 74
    0
 42
1e-007
 43
1e-007
 40
-1
 40
-1
 40
-1
 40
-1
 40
0
 40
0
 40
0
 40
0
 10
81.30875487640374
 20
-32.56042653197738
 30
0
 10
80.94823424652094
 20
-33.08874699706527
 30
0
 10
80.9452160198974
 20
-33.09700230712387
 30
0
 10
81.01300257995601
 20
-33.36639962310286
 30
0
  0
SPLINE
  5
7D
100
AcDbEntity
  8
0
  6
ByLayer
 62
  256
370
   -1
100
AcDbSpline
210
0
220
0
230
0
 70
    8
 71
    3
 72
    8
 73
    4
 74
    0
 42
1e-007
 43
1e-007
 40
-1
 40
-1
 40
-1
 40
-1
 40
0
 40
0
 40
0
 40
0
 10
81.01300257995601
 20
-33.36639962310286
 30
0
 10
81.31240775421136
 20
-34.55512066955062
 30
0
 10
80.05447097137446
 20
-35.59271237487288
 30
0
 10
79.29707534149165
 20
-34.78197213286849
 30
0
  0
LINE
  5
7E
100
AcDbEntity
  8
0
  6
ByLayer
 62
  256
370
   -1
100
AcDbLine
 10
79.29707534149165
 20
-34.78197213286849
 11
79.11498858764644
 21
-34.5870276367137
  0
LINE
  5
7F
100
AcDbEntity
  8
0
  6
ByLayer
 62
  256
370
   -1
100
AcDbLine
 10
79.11498858764644
 20
-34.5870276367137
 11
78.84828975036615
 21
-34.81515324706526
  0
SPLINE
  5
80
100
AcDbEntity
  8
0
  6
ByLayer
 62
  256
370
   -1
100
AcDbSpline
210
0
220
0
230
0
 70
    8
 71
    3
 72
    8
 73
    4
 74
    0
 42
1e-007
 43
1e-007
 40
-1
 40
-1
 40
-1
 40
-1
 40
0
 40
0
 40
0
 40
0
 10
78.84828975036615
 20
-34.81515324706527
 30
0
 10
78.07263942077631
 20
-35.47920186156723
 30
0
 10
77.21046820953363
 20
-35.13106419677229
 30
0
 10
77.09505374267573
 20
-34.10728463286848
 30
0
  0
SPLINE
  5
81
100
AcDbEntity
  8
0
  6
ByLayer
 62
  256
370
   -1
100
AcDbSpline
210
0
220
0
230
0
 70
    8
 71
    3
 72
    8
 73
    4
 74
    0
 42
1e-007
 43
1e-007
 40
-1
 40
-1
 40
-1
 40
-1
 40
0
 40
0
 40
0
 40
0
 10
77.09505374267573
 20
-34.10728463286848
 30
0
 10
77.07092246368403
 20
-33.89265626067611
 30
0
 10
77.04187384918207
 20
-33.83979127044174
 30
0
 10
76.96154445007318
 20
-33.86312802428694
 30
0
  0
SPLINE
  5
82
100
AcDbEntity
  8
0
  6
ByLayer
 62
  256
370
   -1
100
AcDbSpline
210
0
220
0
230
0
 70
    8
 71
    3
 72
    8
 73
    4
 74
    0
 42
1e-007
 43
1e-007
 40
-1
 40
-1
 40
-1
 40
-1
 40
0
 40
0
 40
0
 40
0
 10
76.96154445007318
 20
-33.86312802428694
 30
0
 10
75.04908366516108
 20
-34.41827824706527
 30
0
 10
73.71574450805659
 20
-33.59626931304427
 30
0
 10
74.81095866516108
 20
-32.53740952605697
 30
0
  0
SPLINE
  5
83
100
AcDbEntity
  8
0
  6
ByLayer
 62
  256
370
   -1
100
AcDbSpline
210
0
220
0
230
0
 70
    8
 71
    3
 72
    8
 73
    4
 74
    0
 42
1e-007
 43
1e-007
 40
-1
 40
-1
 40
-1
 40
-1
 40
0
 40
0
 40
0
 40
0
 10
74.81095866516108
 20
-32.53740952605697
 30
0
 10
75.02923991516107
 20
-32.32642918700668
 30
0
 10
75.44088145568841
 20
-32.02527993316146
 30
0
 10
75.72583499267571
 20
-31.86827885741683
 30
0
  0
LINE
  5
84
100
AcDbEntity
  8
0
  6
ByLayer
 62
  256
370
   -1
100
AcDbLine
 10
75.72583499267571
 20
-31.86827885741682
 11
76.24383632019037
 21
-31.58284569854231
  0
LINE
  5
85
100
AcDbEntity
  8
0
  6
ByLayer
 62
  256
370
   -1
100
AcDbLine
 10
76.24383632019037
 20
-31.58284569854231
 11
75.96459464385981
 21
-31.28423504943342
  0
SPLINE
  5
86
100
AcDbEntity
  8
0
  6
ByLayer
 62
  256
370
   -1
100
AcDbSpline
210
0
220
0
230
0
 70
    8
 71
    3
 72
    8
 73
    4
 74
    0
 42
1e-007
 43
1e-007
 40
-1
 40
-1
 40
-1
 40
-1
 40
0
 40
0
 40
0
 40
0
 10
75.96459464385981
 20
-31.28423504943343
 30
0
 10
75.81092669799799
 20
-31.11992821807357
 30
0
 10
75.63915908172602
 20
-30.8891089736888
 30
0
 10
75.58296096160883
 20
-30.77099602813216
 30
0
  0
LINE
  5
87
100
AcDbEntity
  8
0
  6
ByLayer
 62
  256
370
   -1
100
AcDbLine
 10
75.58296096160885
 20
-30.77099602813216
 11
75.48056895568843
 21
-30.55652510756941
  0
LINE
  5
88
100
AcDbEntity
  8
0
  6
ByLayer
 62
  256
370
   -1
100
AcDbLine
 10
75.48056895568843
 20
-30.55652510756941
 11
75.05845324829096
 21
-30.63605755919906
  0
SPLINE
  5
89
100
AcDbEntity
  8
0
  6
ByLayer
 62
  256
370
   -1
100
AcDbSpline
210
0
220
0
230
0
 70
    8
 71
    3
 72
    8
 73
    4
 74
    0
 42
1e-007
 43
1e-007
 40
-1
 40
-1
 40
-1
 40
-1
 40
0
 40
0
 40
0
 40
0
 10
75.05845324829096
 20
-30.63605755919905
 30
0
 10
74.61934729888911
 20
-30.71876568908187
 30
0
 10
71.79280471160882
 20
-31.00944077605697
 30
0
 10
70.71521060302729
 20
-31.08262429351302
 30
0
  0
LINE
  5
8A
100
AcDbEntity
  8
0
  6
ByLayer
 62
  256
370
   -1
100
AcDbLine
 10
70.71521060302729
 20
-31.08262429351302
 11
70.09608414962763
 21
-31.12469052428695
  0
LINE
  5
8B
100
AcDbEntity
  8
0
  6
ByLayer
 62
  256
370
   -1
100
AcDbLine
 10
70.09608414962763
 20
-31.12469052428695
 11
70.09608414962763
 21
-31.77223336333724
  0
SPLINE
  5
8C
100
AcDbEntity
  8
0
  6
ByLayer
 62
  256
370
   -1
100
AcDbSpline
210
0
220
0
230
0
 70
    8
 71
    3
 72
    8
 73
    4
 74
    0
 42
1e-007
 43
1e-007
 40
-1
 40
-1
 40
-1
 40
-1
 40
0
 40
0
 40
0
 40
0
 10
70.09608414962763
 20
-31.77223336333724
 30
0
 10
70.09608414962763
 20
-32.33246079558822
 30
0
 10
70.11275222137445
 20
-32.43485764617415
 30
0
 10
70.21927430465692
 20
-32.53121804351302
 30
0
  0
SPLINE
  5
8D
100
AcDbEntity
  8
0
  6
ByLayer
 62
  256
370
   -1
100
AcDbSpline
210
0
220
0
230
0
 70
    8
 71
    3
 72
    8
 73
    4
 74
    0
 42
1e-007
 43
1e-007
 40
-1
 40
-1
 40
-1
 40
-1
 40
0
 40
0
 40
0
 40
0
 10
70.21927430465692
 20
-32.53121804351302
 30
0
 10
70.93238000228877
 20
-33.17653718108627
 30
0
 10
70.4045367367553
 20
-34.79007241363021
 30
0
 10
69.45536986663812
 20
-34.86674893493148
 30
0
  0
SPLINE
  5
8E
100
AcDbEntity
  8
0
  6
ByLayer
 62
  256
370
   -1
100
AcDbSpline
210
0
220
0
230
0
 70
    8
 71
    3
 72
    8
 73
    4
 74
    0
 42
1e-007
 43
1e-007
 40
-1
 40
-1
 40
-1
 40
-1
 40
0
 40
0
 40
0
 40
0
 10
69.45536986663812
 20
-34.86674893493148
 30
0
 10
69.26217187240594
 20
-34.88230515593978
 30
0
 10
69.23041993453974
 20
-34.91230816955061
 30
0
 10
69.16041209533685
 20
-35.14392193908187
 30
0
  0
SPLINE
  5
8F
100
AcDbEntity
  8
0
  6
ByLayer
 62
  256
370
   -1
100
AcDbSpline
210
0
220
0
230
0
 70
    8
 71
    3
 72
    8
 73
    4
 74
    0
 42
1e-007
 43
1e-007
 40
-1
 40
-1
 40
-1
 40
-1
 40
0
 40
0
 40
0
 40
0
 10
69.16041209533685
 20
-35.14392193908187
 30
0
 10
68.79798508956904
 20
-36.345820475764
 30
0
 10
67.5154446728515
 20
-36.41487633819076
 30
0
 10
66.91187686279291
 20
-35.26520814055892
 30
0
  0
SPLINE
  5
90
100
AcDbEntity
  8
0
  6
ByLayer
 62
  256
370
   -1
100
AcDbSpline
210
0
220
0
230
0
 70
    8
 71
    3
 72
    8
 73
    4
 74
    0
 42
1e-007
 43
1e-007
 40
-1
 40
-1
 40
-1
 40
-1
 40
0
 40
0
 40
0
 40
0
 10
66.91187686279291
 20
-35.26520814055892
 30
0
 10
66.83853347137445
 20
-35.12550736541243
 30
0
 10
66.76916028335566
 20
-35.0007330047557
 30
0
 10
66.75788916900629
 20
-34.988030291743
 30
0
  0
SPLINE
  5
91
100
AcDbEntity
  8
0
  6
ByLayer
 62
  256
370
   -1
100
AcDbSpline
210
0
220
0
230
0
 70
    8
 71
    3
 72
    8
 73
    4
 74
    0
 42
1e-007
 43
1e-007
 40
-1
 40
-1
 40
-1
 40
-1
 40
0
 40
0
 40
0
 40
0
 10
66.75788916900629
 20
-34.988030291743
 30
0
 10
66.74646060302729
 20
-34.97533242339584
 30
0
 10
66.6429543240356
 20
-35.02184605712386
 30
0
 10
66.52754227951044
 20
-35.0913766967723
 30
0
  0
SPLINE
  5
92
100
AcDbEntity
  8
0
  6
ByLayer
 62
  256
370
   -1
100
AcDbSpline
210
0
220
0
230
0
 70
    8
 71
    3
 72
    8
 73
    4
 74
    0
 42
1e-007
 43
1e-007
 40
-1
 40
-1
 40
-1
 40
-1
 40
0
 40
0
 40
0
 40
0
 10
66.52754227951044
 20
-35.0913766967723
 30
0
 10
65.00814616516108
 20
-36.00736729735823
 30
0
 10
63.17267922714228
 20
-35.03041627044173
 30
0
 10
63.79418683364862
 20
-33.63659146422836
 30
0
  0
SPLINE
  5
93
100
AcDbEntity
  8
0
  6
ByLayer
 62
  256
370
   -1
100
AcDbSpline
210
0
220
0
230
0
 70
    8
 71
    3
 72
    8
 73
    4
 74
    0
 42
1e-007
 43
1e-007
 40
-1
 40
-1
 40
-1
 40
-1
 40
0
 40
0
 40
0
 40
0
 10
63.79418683364862
 20
-33.63659146422836
 30
0
 10
64.07501513793939
 20
-33.00651364440413
 30
0
 10
64.6842972309875
 20
-32.46707951659652
 30
0
 10
65.47709525421138
 20
-32.1464062606761
 30
0
  0
LINE
  5
94
100
AcDbEntity
  8
0
  6
ByLayer
 62
  256
370
   -1
100
AcDbLine
 10
65.47709525421138
 20
-32.1464062606761
 11
66.00033366516108
 21
-31.93479127044174
  0
LINE
  5
95
100
AcDbEntity
  8
0
  6
ByLayer
 62
  256
370
   -1
100
AcDbLine
 10
66.00033366516108
 20
-31.93479127044174
 11
66.00033366516108
 21
-30.9837204467723
  0
SPLINE
  5
96
100
AcDbEntity
  8
0
  6
ByLayer
 62
  256
370
   -1
100
AcDbSpline
210
0
220
0
230
0
 70
    8
 71
    3
 72
    8
 73
    4
 74
    0
 42
1e-007
 43
1e-007
 40
-1
 40
-1
 40
-1
 40
-1
 40
0
 40
0
 40
0
 40
0
 10
66.00033366516108
 20
-30.9837204467723
 30
0
 10
66.00033366516108
 20
-29.93533724898787
 30
0
 10
66.03478408172602
 20
-29.84262730712386
 30
0
 10
66.42641957595819
 20
-29.83802245254012
 30
0
  0
SPLINE
  5
97
100
AcDbEntity
  8
0
  6
ByLayer
 62
  256
370
   -1
100
AcDbSpline
210
0
220
0
230
0
 70
    8
 71
    3
 72
    8
 73
    4
 74
    0
 42
1e-007
 43
1e-007
 40
-1
 40
-1
 40
-1
 40
-1
 40
0
 40
0
 40
0
 40
0
 10
66.42641957595819
 20
-29.83802245254012
 30
0
 10
66.83996264770502
 20
-29.8331026946971
 30
0
 10
66.95283366516108
 20
-30.18219233626815
 30
0
 10
66.95283366516108
 20
-31.46679658050033
 30
0
  0
SPLINE
  5
98
100
AcDbEntity
  8
0
  6
ByLayer
 62
  256
370
   -1
100
AcDbSpline
210
0
220
0
230
0
 70
    8
 71
    3
 72
    8
 73
    4
 74
    0
 42
1e-007
 43
1e-007
 40
-1
 40
-1
 40
-1
 40
-1
 40
0
 40
0
 40
0
 40
0
 10
66.95283366516108
 20
-31.46679658050033
 30
0
 10
66.95283366516108
 20
-32.57090554351302
 30
0
 10
66.92299052551263
 20
-32.61900338286849
 30
0
 10
66.06034211471551
 20
-32.91158242339583
 30
0
  0
SPLINE
  5
99
100
AcDbEntity
  8
0
  6
ByLayer
 62
  256
370
   -1
100
AcDbSpline
210
0
220
0
230
0
 70
    8
 71
    3
 72
    8
 73
    4
 74
    0
 42
1e-007
 43
1e-007
 40
-1
 40
-1
 40
-1
 40
-1
 40
0
 40
0
 40
0
 40
0
 10
66.06034211471551
 20
-32.91158242339583
 30
0
 10
64.97322097137445
 20
-33.28019848937484
 30
0
 10
64.24312987640376
 20
-34.16666085357161
 30
0
 10
64.8273311360168
 20
-34.4085937606761
 30
0
  0
SPLINE
  5
9A
100
AcDbEntity
  8
0
  6
ByLayer
 62
  256
370
   -1
100
AcDbSpline
210
0
220
0
230
0
 70
    8
 71
    3
 72
    8
 73
    4
 74
    0
 42
1e-007
 43
1e-007
 40
-1
 40
-1
 40
-1
 40
-1
 40
0
 40
0
 40
0
 40
0
 10
64.8273311360168
 20
-34.4085937606761
 30
0
 10
65.36216040924066
 20
-34.63020814055892
 30
0
 10
65.94683644607539
 20
-34.45812562102767
 30
0
 10
66.53548026397699
 20
-33.90583375091048
 30
0
  0
SPLINE
  5
9B
100
AcDbEntity
  8
0
  6
ByLayer
 62
  256
370
   -1
100
AcDbSpline
210
0
220
0
230
0
 70
    8
 71
    3
 72
    8
 73
    4
 74
    0
 42
1e-007
 43
1e-007
 40
-1
 40
-1
 40
-1
 40
-1
 40
0
 40
0
 40
0
 40
0
 10
66.53548026397699
 20
-33.90583375091048
 30
0
 10
67.06983233764643
 20
-33.4044980728099
 30
0
 10
67.45321494415278
 20
-33.51721406096907
 30
0
 10
67.53401912048334
 20
-34.19936234588118
 30
0
  0
SPLINE
  5
9C
100
AcDbEntity
  8
0
  6
ByLayer
 62
  256
370
   -1
100
AcDbSpline
210
0
220
0
230
0
 70
    8
 71
    3
 72
    8
 73
    4
 74
    0
 42
1e-007
 43
1e-007
 40
-1
 40
-1
 40
-1
 40
-1
 40
0
 40
0
 40
0
 40
0
 10
67.53401912048334
 20
-34.19936234588118
 30
0
 10
67.60037650421137
 20
-34.75974965209456
 30
0
 10
67.95438832595819
 20
-35.30505551452133
 30
0
 10
68.13472857788079
 20
-35.12471768493148
 30
0
  0
SPLINE
  5
9D
100
AcDbEntity
  8
0
  6
ByLayer
 62
  256
370
   -1
100
AcDbSpline
210
0
220
0
230
0
 70
    8
 71
    3
 72
    8
 73
    4
 74
    0
 42
1e-007
 43
1e-007
 40
-1
 40
-1
 40
-1
 40
-1
 40
0
 40
0
 40
0
 40
0
 10
68.13472857788079
 20
-35.12471768493148
 30
0
 10
68.25410840347286
 20
-35.00533543700668
 30
0
 10
68.27617343261713
 20
-34.46590130919905
 30
0
 10
68.17187505081171
 20
-34.22190457457992
 30
0
  0
SPLINE
  5
9E
100
AcDbEntity
  8
0
  6
ByLayer
 62
  256
370
   -1
100
AcDbSpline
210
0
220
0
230
0
 70
    8
 71
    3
 72
    8
 73
    4
 74
    0
 42
1e-007
 43
1e-007
 40
-1
 40
-1
 40
-1
 40
-1
 40
0
 40
0
 40
0
 40
0
 10
68.17187505081171
 20
-34.22190457457992
 30
0
 10
67.9445463879394
 20
-33.69041085357161
 30
0
 10
68.42301766708368
 20
-33.35163792724104
 30
0
 10
68.90260321929927
 20
-33.70437802428695
 30
0
  0
SPLINE
  5
9F
100
AcDbEntity
  8
0
  6
ByLayer
 62
  256
370
   -1
100
AcDbSpline
210
0
220
0
230
0
 70
    8
 71
    3
 72
    8
 73
    4
 74
    0
 42
1e-007
 43
1e-007
 40
-1
 40
-1
 40
-1
 40
-1
 40
0
 40
0
 40
0
 40
0
 10
68.90260321929927
 20
-33.70437802428695
 30
0
 10
69.49680386856073
 20
-34.14142014617416
 30
0
 10
69.9189195759582
 20
-33.53261040801497
 30
0
 10
69.35789761856073
 20
-33.0476303207347
 30
0
  0
LINE
  5
A0
100
AcDbEntity
  8
0
  6
ByLayer
 62
  256
370
   -1
100
AcDbLine
 10
69.35789761856073
 20
-33.04763032073471
 11
69.12771060302728
 21
-32.84871804351302
  0
LINE
  5
A1
100
AcDbEntity
  8
0
  6
ByLayer
 62
  256
370
   -1
100
AcDbLine
 10
69.12771060302728
 20
-32.84871804351302
 11
69.13866439178462
 21
-31.80287102813216
  0
SPLINE
  5
A2
100
AcDbEntity
  8
0
  6
ByLayer
 62
  256
370
   -1
100
AcDbSpline
210
0
220
0
230
0
 70
    8
 71
    3
 72
    8
 73
    4
 74
    0
 42
1e-007
 43
1e-007
 40
-1
 40
-1
 40
-1
 40
-1
 40
0
 40
0
 40
0
 40
0
 10
69.13866439178462
 20
-31.80287102813217
 30
0
 10
69.15041028335565
 20
-30.66304719085189
 30
0
 10
69.18898593261713
 20
-30.51906130904647
 30
0
 10
69.51204276397699
 20
-30.40460124129744
 30
0
  0
SPLINE
  5
A3
100
AcDbEntity
  8
0
  6
ByLayer
 62
  256
370
   -1
100
AcDbSpline
210
0
220
0
230
0
 70
    8
 71
    3
 72
    8
 73
    4
 74
    0
 42
1e-007
 43
1e-007
 40
-1
 40
-1
 40
-1
 40
-1
 40
0
 40
0
 40
0
 40
0
 10
69.51204276397699
 20
-30.40460124129744
 30
0
 10
69.60618188217157
 20
-30.37126509780379
 30
0
 10
69.73778479888909
 20
-30.31236849898788
 30
0
 10
69.80430205657953
 20
-30.27379042739364
 30
0
  0
SPLINE
  5
A4
100
AcDbEntity
  8
0
  6
ByLayer
 62
  256
370
   -1
100
AcDbSpline
210
0
220
0
230
0
 70
    8
 71
    3
 72
    8
 73
    4
 74
    0
 42
1e-007
 43
1e-007
 40
-1
 40
-1
 40
-1
 40
-1
 40
0
 40
0
 40
0
 40
0
 10
69.80430205657953
 20
-30.27379042739364
 30
0
 10
69.87081931426997
 20
-30.23521477813216
 30
0
 10
70.51375487640374
 20
-30.15123734588119
 30
0
 10
71.23305205657954
 20
-30.08710124129745
 30
0
  0
SPLINE
  5
A5
100
AcDbEntity
  8
0
  6
ByLayer
 62
  256
370
   -1
100
AcDbSpline
210
0
220
0
230
0
 70
    8
 71
    3
 72
    8
 73
    4
 74
    0
 42
1e-007
 43
1e-007
 40
-1
 40
-1
 40
-1
 40
-1
 40
0
 40
0
 40
0
 40
0
 10
71.23305205657954
 20
-30.08710124129745
 30
0
 10
73.02724486663813
 20
-29.92708193892928
 30
0
 10
75.01765147521967
 20
-29.71705599898787
 30
0
 10
75.12338145568842
 20
-29.67641652221175
 30
0
  0
SPLINE
  5
A6
100
AcDbEntity
  8
0
  6
ByLayer
 62
  256
370
   -1
100
AcDbSpline
210
0
220
0
230
0
 70
    8
 71
    3
 72
    8
 73
    4
 74
    0
 42
1e-007
 43
1e-007
 40
-1
 40
-1
 40
-1
 40
-1
 40
0
 40
0
 40
0
 40
0
 10
75.12338145568842
 20
-29.67641652221175
 30
0
 10
75.19227744415278
 20
-29.65006396407577
 30
0
 10
75.20576983764643
 20
-29.50083857650252
 30
0
 10
75.18624583557124
 20
-28.97505671615096
 30
0
  0
SPLINE
  5
A7
100
AcDbEntity
  8
0
  6
ByLayer
 62
  256
370
   -1
100
AcDbSpline
210
0
220
0
230
0
 70
    8
 71
    3
 72
    8
 73
    4
 74
    0
 42
1e-007
 43
1e-007
 40
-1
 40
-1
 40
-1
 40
-1
 40
0
 40
0
 40
0
 40
0
 10
75.18624583557124
 20
-28.97505671615096
 30
0
 10
75.12877841308588
 20
-27.42279923552962
 30
0
 10
75.9207794888305
 20
-25.64495959395858
 30
0
 10
76.66991980865473
 20
-25.64495959395858
 30
0
  0
SPLINE
  5
A8
100
AcDbEntity
  8
0
  6
ByLayer
 62
  256
370
   -1
100
AcDbSpline
210
0
220
0
230
0
 70
    8
 71
    3
 72
    8
 73
    4
 74
    0
 42
1e-007
 43
1e-007
 40
-1
 40
-1
 40
-1
 40
-1
 40
0
 40
0
 40
0
 40
0
 10
76.66991980865473
 20
-25.64495959395858
 30
0
 10
77.11632666900628
 20
-25.64495959395858
 30
0
 10
77.26872531249994
 20
-26.11612996215316
 30
0
 10
76.92677913024896
 20
-26.43854971999617
 30
0
  0
SPLINE
  5
A9
100
AcDbEntity
  8
0
  6
ByLayer
 62
  256
370
   -1
100
AcDbSpline
210
0
220
0
230
0
 70
    8
 71
    3
 72
    8
 73
    4
 74
    0
 42
1e-007
 43
1e-007
 40
-1
 40
-1
 40
-1
 40
-1
 40
0
 40
0
 40
0
 40
0
 10
76.92677913024896
 20
-26.43854971999617
 30
0
 10
75.83013579681391
 20
-27.47280587310286
 30
0
 10
75.87299655273432
 20
-30.21298987502547
 30
0
 10
76.99694926574702
 20
-30.93434846038314
 30
0
  0
SPLINE
  5
AA
100
AcDbEntity
  8
0
  6
ByLayer
 62
  256
370
   -1
100
AcDbSpline
210
0
220
0
230
0
 70
    8
 71
    3
 72
    8
 73
    4
 74
    0
 42
1e-007
 43
1e-007
 40
-1
 40
-1
 40
-1
 40
-1
 40
0
 40
0
 40
0
 40
0
 10
76.99694926574702
 20
-30.93434846038314
 30
0
 10
77.51558524444575
 20
-31.26708977813216
 30
0
 10
77.56638156249994
 20
-31.32376267547102
 30
0
 10
77.61337481811518
 20
-31.623007975764
 30
0
  0
SPLINE
  5
AB
100
AcDbEntity
  8
0
  6
ByLayer
 62
  256
370
   -1
100
AcDbSpline
210
0
220
0
230
0
 70
    8
 71
    3
 72
    8
 73
    4
 74
    0
 42
1e-007
 43
1e-007
 40
-1
 40
-1
 40
-1
 40
-1
 40
0
 40
0
 40
0
 40
0
 10
77.61337481811518
 20
-31.623007975764
 30
0
 10
77.65496627166742
 20
-31.88764298552963
 30
0
 10
77.47430869415277
 20
-32.18545910949203
 30
0
 10
77.27221831634516
 20
-32.18545910949203
 30
0
  0
SPLINE
  5
AC
100
AcDbEntity
  8
0
  6
ByLayer
 62
  256
370
   -1
100
AcDbSpline
210
0
220
0
230
0
 70
    8
 71
    3
 72
    8
 73
    4
 74
    0
 42
1e-007
 43
1e-007
 40
-1
 40
-1
 40
-1
 40
-1
 40
0
 40
0
 40
0
 40
0
 10
77.27221831634516
 20
-32.18545910949203
 30
0
 10
77.0999759228515
 20
-32.18545910949203
 30
0
 10
75.79441607788081
 20
-32.85364022368881
 30
0
 10
75.64947821929925
 20
-33.01587838286849
 30
0
  0
LINE
  5
AD
100
AcDbEntity
  8
0
  6
ByLayer
 62
  256
370
   -1
100
AcDbLine
 10
75.64947821929925
 20
-33.0158783828685
 11
75.52533366516107
 21
-33.15494450683089
  0
LINE
  5
AE
100
AcDbEntity
  8
0
  6
ByLayer
 62
  256
370
   -1
100
AcDbLine
 10
75.52533366516107
 20
-33.15494450683089
 11
75.90633269622796
 21
-33.11033482665511
  0
SPLINE
  5
AF
100
AcDbEntity
  8
0
  6
ByLayer
 62
  256
370
   -1
100
AcDbSpline
210
0
220
0
230
0
 70
    8
 71
    3
 72
    8
 73
    4
 74
    0
 42
1e-007
 43
1e-007
 40
-1
 40
-1
 40
-1
 40
-1
 40
0
 40
0
 40
0
 40
0
 10
75.90633269622796
 20
-33.11033482665511
 30
0
 10
76.1158838589477
 20
-33.08572877044173
 30
0
 10
76.55625911071772
 20
-33.01048142547103
 30
0
 10
76.88486792877191
 20
-32.94301461333724
 30
0
  0
SPLINE
  5
B0
100
AcDbEntity
  8
0
  6
ByLayer
 62
  256
370
   -1
100
AcDbSpline
210
0
220
0
230
0
 70
    8
 71
    3
 72
    8
 73
    4
 74
    0
 42
1e-007
 43
1e-007
 40
-1
 40
-1
 40
-1
 40
-1
 40
0
 40
0
 40
0
 40
0
 10
76.88486792877191
 20
-32.94301461333724
 30
0
 10
77.98770758941644
 20
-32.71679295653793
 30
0
 10
78.135658829956
 20
-32.81093449706526
 30
0
 10
78.06232028320306
 20
-33.69199505919906
 30
0
  0
SPLINE
  5
B1
100
AcDbEntity
  8
0
  6
ByLayer
 62
  256
370
   -1
100
AcDbSpline
210
0
220
0
230
0
 70
    8
 71
    3
 72
    8
 73
    4
 74
    0
 42
1e-007
 43
1e-007
 40
-1
 40
-1
 40
-1
 40
-1
 40
0
 40
0
 40
0
 40
0
 10
78.06232028320306
 20
-33.69199505919906
 30
0
 10
78.03818900421136
 20
-33.98108109588119
 30
0
 10
78.03818900421136
 20
-34.21745717162581
 30
0
 10
78.06200053527826
 20
-34.21745717162581
 30
0
  0
SPLINE
  5
B2
100
AcDbEntity
  8
0
  6
ByLayer
 62
  256
370
   -1
100
AcDbSpline
210
0
220
0
230
0
 70
    8
 71
    3
 72
    8
 73
    4
 74
    0
 42
1e-007
 43
1e-007
 40
-1
 40
-1
 40
-1
 40
-1
 40
0
 40
0
 40
0
 40
0
 10
78.06200053527826
 20
-34.21745717162581
 30
0
 10
78.2080526669311
 20
-34.21745717162581
 30
0
 10
78.35219600036615
 20
-34.04759835357162
 30
0
 10
78.50411986663812
 20
-33.69675736541244
 30
0
  0
SPLINE
  5
B3
100
AcDbEntity
  8
0
  6
ByLayer
 62
  256
370
   -1
100
AcDbSpline
210
0
220
0
230
0
 70
    8
 71
    3
 72
    8
 73
    4
 74
    0
 42
1e-007
 43
1e-007
 40
-1
 40
-1
 40
-1
 40
-1
 40
0
 40
0
 40
0
 40
0
 10
78.50411986663812
 20
-33.69675736541244
 30
0
 10
78.78859862640375
 20
-33.040329409785
 30
0
 10
78.81876151397699
 20
-32.99492520446272
 30
0
 10
79.03021663024896
 20
-32.90650036925765
 30
0
  0
SPLINE
  5
B4
100
AcDbEntity
  8
0
  6
ByLayer
 62
  256
370
   -1
100
AcDbSpline
210
0
220
0
230
0
 70
    8
 71
    3
 72
    8
 73
    4
 74
    0
 42
1e-007
 43
1e-007
 40
-1
 40
-1
 40
-1
 40
-1
 40
0
 40
0
 40
0
 40
0
 10
79.03021663024896
 20
-32.90650036925765
 30
0
 10
79.33882666900628
 20
-32.77743847960921
 30
0
 10
79.68458560302729
 20
-32.98270211333724
 30
0
 10
79.68458560302729
 20
-33.29496502990218
 30
0
  0
SPLINE
  5
B5
100
AcDbEntity
  8
0
  6
ByLayer
 62
  256
370
   -1
100
AcDbSpline
210
0
220
0
230
0
 70
    8
 71
    3
 72
    8
 73
    4
 74
    0
 42
1e-007
 43
1e-007
 40
-1
 40
-1
 40
-1
 40
-1
 40
0
 40
0
 40
0
 40
0
 10
79.68458560302729
 20
-33.29496502990218
 30
0
 10
79.68458560302729
 20
-33.50943352813216
 30
0
 10
79.87286383941645
 20
-34.09045910949202
 30
0
 10
79.94239447906489
 20
-34.09045910949202
 30
0
  0
SPLINE
  5
B6
100
AcDbEntity
  8
0
  6
ByLayer
 62
  256
370
   -1
100
AcDbSpline
210
0
220
0
230
0
 70
    8
 71
    3
 72
    8
 73
    4
 74
    0
 42
1e-007
 43
1e-007
 40
-1
 40
-1
 40
-1
 40
-1
 40
0
 40
0
 40
0
 40
0
 10
79.94239447906489
 20
-34.09045910949202
 30
0
 10
80.08114085510246
 20
-34.09045910949202
 30
0
 10
80.14226115539545
 20
-33.78899495238754
 30
0
 10
80.08590316131585
 20
-33.38401967162581
 30
0
  0
SPLINE
  5
B7
100
AcDbEntity
  8
0
  6
ByLayer
 62
  256
370
   -1
100
AcDbSpline
210
0
220
0
230
0
 70
    8
 71
    3
 72
    8
 73
    4
 74
    0
 42
1e-007
 43
1e-007
 40
-1
 40
-1
 40
-1
 40
-1
 40
0
 40
0
 40
0
 40
0
 10
80.08590316131585
 20
-33.38401967162581
 30
0
 10
80.0216096051025
 20
-32.92253621215316
 30
0
 10
80.10749583557123
 20
-32.64789696807357
 30
0
 10
80.47913012817376
 20
-32.12751690978499
 30
0
  0
SPLINE
  5
B8
100
AcDbEntity
  8
0
  6
ByLayer
 62
  256
370
   -1
100
AcDbSpline
210
0
220
0
230
0
 70
    8
 71
    3
 72
    8
 73
    4
 74
    0
 42
1e-007
 43
1e-007
 40
-1
 40
-1
 40
-1
 40
-1
 40
0
 40
0
 40
0
 40
0
 10
80.47913012817376
 20
-32.12751690978499
 30
0
 10
82.20077407196041
 20
-29.71657879943343
 30
0
 10
82.61939677551266
 20
-25.25364142531844
 30
0
 10
81.4536927349853
 20
-21.74018582457991
 30
0
  0
SPLINE
  5
B9
100
AcDbEntity
  8
0
  6
ByLayer
 62
  256
370
   -1
100
AcDbSpline
210
0
220
0
230
0
 70
    8
 71
    3
 72
    8
 73
    4
 74
    0
 42
1e-007
 43
1e-007
 40
-1
 40
-1
 40
-1
 40
-1
 40
0
 40
0
 40
0
 40
0
 10
81.4536927349853
 20
-21.74018582457991
 30
0
 10
80.03574149444574
 20
-17.46647624129745
 30
0
 10
75.03812987640374
 20
-12.95607083434554
 30
0
 10
69.6644438298034
 20
-11.09996562118026
 30
0
  0
LINE
  5
BA
100
AcDbEntity
  8
0
  6
ByLayer
 62
  256
370
   -1
100
AcDbLine
 10
69.66444382980342
 20
-11.09996562118025
 11
68.94689315155024
 21
-10.85215855712386
  0
LINE
  5
BB
100
AcDbEntity
  8
0
  6
ByLayer
 62
  256
370
   -1
100
AcDbLine
 10
68.94689315155024
 20
-10.85215855712386
 11
69.95527394607539
 21
-11.85101231688948
  0
SPLINE
  5
BC
100
AcDbEntity
  8
0
  6
ByLayer
 62
  256
370
   -1
100
AcDbSpline
210
0
220
0
230
0
 70
    8
 71
    3
 72
    8
 73
    4
 74
    0
 42
1e-007
 43
1e-007
 40
-1
 40
-1
 40
-1
 40
-1
 40
0
 40
0
 40
0
 40
0
 10
69.95527394607538
 20
-11.85101231688948
 30
0
 10
71.52737517669672
 20
-13.4080321037242
 30
0
 10
72.67449992492671
 20
-14.94298686141463
 30
0
 10
73.52460791900629
 20
-16.6270071327159
 30
0
  0
SPLINE
  5
BD
100
AcDbEntity
  8
0
  6
ByLayer
 62
  256
370
   -1
100
AcDbSpline
210
0
220
0
230
0
 70
    8
 71
    3
 72
    8
 73
    4
 74
    0
 42
1e-007
 43
1e-007
 40
-1
 40
-1
 40
-1
 40
-1
 40
0
 40
0
 40
0
 40
0
 10
73.52460791900629
 20
-16.6270071327159
 30
0
 10
73.69590075805658
 20
-16.96641471023055
 30
0
 10
73.75161925628657
 20
-17.0197544776866
 30
0
 10
74.11865111663812
 20
-17.19485522384139
 30
0
  0
SPLINE
  5
BE
100
AcDbEntity
  8
0
  6
ByLayer
 62
  256
370
   -1
100
AcDbSpline
210
0
220
0
230
0
 70
    8
 71
    3
 72
    8
 73
    4
 74
    0
 42
1e-007
 43
1e-007
 40
-1
 40
-1
 40
-1
 40
-1
 40
0
 40
0
 40
0
 40
0
 10
74.11865111663812
 20
-17.19485522384139
 30
0
 10
76.14048991516108
 20
-18.15973818892928
 30
0
 10
77.45383029296869
 20
-21.48205720061751
 30
0
 10
76.64324992492669
 20
-23.58120959395858
 30
0
  0
SPLINE
  5
BF
100
AcDbEntity
  8
0
  6
ByLayer
 62
  256
370
   -1
100
AcDbSpline
210
0
220
0
230
0
 70
    8
 71
    3
 72
    8
 73
    4
 74
    0
 42
1e-007
 43
1e-007
 40
-1
 40
-1
 40
-1
 40
-1
 40
0
 40
0
 40
0
 40
0
 10
76.64324992492669
 20
-23.58120959395858
 30
0
 10
76.12366439178462
 20
-24.92677426452132
 30
0
 10
75.34356665924066
 20
-25.69877656096907
 30
0
 10
73.65811721160883
 20
-26.53538731688949
 30
0
  0
SPLINE
  5
C0
100
AcDbEntity
  8
0
  6
ByLayer
 62
  256
370
   -1
100
AcDbSpline
210
0
220
0
230
0
 70
    8
 71
    3
 72
    8
 73
    4
 74
    0
 42
1e-007
 43
1e-007
 40
-1
 40
-1
 40
-1
 40
-1
 40
0
 40
0
 40
0
 40
0
 10
73.65811721160883
 20
-26.53538731688949
 30
0
 10
71.62834042861932
 20
-27.54297358626815
 30
0
 10
70.81807980850213
 20
-27.46423323745223
 30
0
 10
70.70203311279292
 20
-26.24821007842513
 30
0
  0
SPLINE
  5
C1
100
AcDbEntity
  8
0
  6
ByLayer
 62
  256
370
   -1
100
AcDbSpline
210
0
220
0
230
0
 70
    8
 71
    3
 72
    8
 73
    4
 74
    0
 42
1e-007
 43
1e-007
 40
-1
 40
-1
 40
-1
 40
-1
 40
0
 40
0
 40
0
 40
0
 10
70.70203311279292
 20
-26.24821007842513
 30
0
 10
70.67869635894769
 20
-26.00373372191878
 30
0
 10
70.62011950805658
 20
-25.63225930327864
 30
0
 10
70.57201682403559
 20
-25.42270814055892
 30
0
  0
SPLINE
  5
C2
100
AcDbEntity
  8
0
  6
ByLayer
 62
  256
370
   -1
100
AcDbSpline
210
0
220
0
230
0
 70
    8
 71
    3
 72
    8
 73
    4
 74
    0
 42
1e-007
 43
1e-007
 40
-1
 40
-1
 40
-1
 40
-1
 40
0
 40
0
 40
0
 40
0
 10
70.57201682403559
 20
-25.42270814055892
 30
0
 10
70.52375668838495
 20
-25.21315940017196
 30
0
 10
70.43866740539545
 20
-24.67023469085188
 30
0
 10
70.38262915924066
 20
-24.21620959395858
 30
0
  0
SPLINE
  5
C3
100
AcDbEntity
  8
0
  6
ByLayer
 62
  256
370
   -1
100
AcDbSpline
210
0
220
0
230
0
 70
    8
 71
    3
 72
    8
 73
    4
 74
    0
 42
1e-007
 43
1e-007
 40
-1
 40
-1
 40
-1
 40
-1
 40
0
 40
0
 40
0
 40
0
 10
70.38262915924066
 20
-24.21620959395858
 30
0
 10
70.14164580657953
 20
-22.26310690993758
 30
0
 10
69.692542889862
 20
-19.92297358626815
 30
0
 10
69.50744033172602
 20
-19.65643220061752
 30
0
  0
SPLINE
  5
C4
100
AcDbEntity
  8
0
  6
ByLayer
 62
  256
370
   -1
100
AcDbSpline
210
0
220
0
230
0
 70
    8
 71
    3
 72
    8
 73
    4
 74
    0
 42
1e-007
 43
1e-007
 40
-1
 40
-1
 40
-1
 40
-1
 40
0
 40
0
 40
0
 40
0
 10
69.50744033172602
 20
-19.65643220061752
 30
0
 10
69.41171458557123
 20
-19.518320475764
 30
0
 10
69.38520215347283
 20
-19.37877957457992
 30
0
 10
69.39044165924066
 20
-19.03699084395858
 30
0
  0
SPLINE
  5
C5
100
AcDbEntity
  8
0
  6
ByLayer
 62
  256
370
   -1
100
AcDbSpline
210
0
220
0
230
0
 70
    8
 71
    3
 72
    8
 73
    4
 74
    0
 42
1e-007
 43
1e-007
 40
-1
 40
-1
 40
-1
 40
-1
 40
0
 40
0
 40
0
 40
0
 10
69.39044165924066
 20
-19.03699084395858
 30
0
 10
69.42727080657953
 20
-16.61906914824935
 30
0
 10
66.12019069030757
 20
-12.21455117339584
 30
0
 10
62.92058463409418
 20
-10.4200410377452
 30
0
  0
SPLINE
  5
C6
100
AcDbEntity
  8
0
  6
ByLayer
 62
  256
370
   -1
100
AcDbSpline
210
0
220
0
230
0
 70
    8
 71
    3
 72
    8
 73
    4
 74
    0
 42
1e-007
 43
1e-007
 40
-1
 40
-1
 40
-1
 40
-1
 40
0
 40
0
 40
0
 40
0
 10
62.92058463409418
 20
-10.4200410377452
 30
0
 10
60.82127478912348
 20
-9.242749768442831
 30
0
 10
56.72790545776362
 20
-8.515675688929282
 30
0
 10
53.91691909149165
 20
-8.820951386637411
 30
0
  0
SPLINE
  5
C7
100
AcDbEntity
  8
0
  6
ByLayer
 62
  256
370
   -1
100
AcDbSpline
210
0
220
0
230
0
 70
    8
 71
    3
 72
    8
 73
    4
 74
    0
 42
1e-007
 43
1e-007
 40
-1
 40
-1
 40
-1
 40
-1
 40
0
 40
0
 40
0
 40
0
 10
53.91691909149165
 20
-8.820951386637411
 30
0
 10
52.68104976013178
 20
-8.955095330424033
 30
0
 10
50.0380218918609
 20
-9.615177375025471
 30
0
 10
49.9105454190063
 20
-9.821394196696005
 30
0
  0
SPLINE
  5
C8
100
AcDbEntity
  8
0
  6
ByLayer
 62
  256
370
   -1
100
AcDbSpline
210
0
220
0
230
0
 70
    8
 71
    3
 72
    8
 73
    4
 74
    0
 42
1e-007
 43
1e-007
 40
-1
 40
-1
 40
-1
 40
-1
 40
0
 40
0
 40
0
 40
0
 10
49.9105454190063
 20
-9.821394196696005
 30
0
 10
49.88847917869562
 20
-9.857112704462729
 30
0
 10
49.59907823875422
 20
-9.961411086268148
 30
0
 10
49.26760864570612
 20
-10.05316905135604
 30
0
  0
SPLINE
  5
C9
100
AcDbEntity
  8
0
  6
ByLayer
 62
  256
370
   -1
100
AcDbSpline
210
0
220
0
230
0
 70
    8
 71
    3
 72
    8
 73
    4
 74
    0
 42
1e-007
 43
1e-007
 40
-1
 40
-1
 40
-1
 40
-1
 40
0
 40
0
 40
0
 40
0
 10
49.26760864570612
 20
-10.05316905135604
 30
0
 10
47.75710249259943
 20
-10.47099965209457
 30
0
 10
45.38394792869562
 20
-11.97388514632674
 30
0
 10
44.08775403335565
 20
-13.33373673552962
 30
0
  0
SPLINE
  5
CA
100
AcDbEntity
  8
0
  6
ByLayer
 62
  256
370
   -1
100
AcDbSpline
210
0
220
0
230
0
 70
    8
 71
    3
 72
    8
 73
    4
 74
    0
 42
1e-007
 43
1e-007
 40
-1
 40
-1
 40
-1
 40
-1
 40
0
 40
0
 40
0
 40
0
 10
44.08775403335565
 20
-13.33373673552962
 30
0
 10
42.06639122322077
 20
-15.45416205520125
 30
0
 10
41.03372230365747
 20
-18.7856883537242
 30
0
 10
41.70967971160883
 20
-21.00564974898787
 30
0
  0
SPLINE
  5
CB
100
AcDbEntity
  8
0
  6
ByLayer
 62
  256
370
   -1
100
AcDbSpline
210
0
220
0
230
0
 70
    8
 71
    3
 72
    8
 73
    4
 74
    0
 42
1e-007
 43
1e-007
 40
-1
 40
-1
 40
-1
 40
-1
 40
0
 40
0
 40
0
 40
0
 10
41.70967971160883
 20
-21.00564974898787
 30
0
 10
41.90462481334681
 20
-21.64556950683089
 30
0
 10
41.87541450813288
 20
-21.61636101836654
 30
0
 10
42.12750910118097
 20
-21.42411500091048
 30
0
  0
SPLINE
  5
CC
100
AcDbEntity
  8
0
  6
ByLayer
 62
  256
370
   -1
100
AcDbSpline
210
0
220
0
230
0
 70
    8
 71
    3
 72
    8
 73
    4
 74
    0
 42
1e-007
 43
1e-007
 40
-1
 40
-1
 40
-1
 40
-1
 40
0
 40
0
 40
0
 40
0
 10
42.12750910118097
 20
-21.42411500091048
 30
0
 10
44.56130555465693
 20
-19.56769246215316
 30
0
 10
50.24122169807428
 20
-21.25583796615096
 30
0
 10
50.95369153335565
 20
-24.04745778197737
 30
0
  0
SPLINE
  5
CD
100
AcDbEntity
  8
0
  6
ByLayer
 62
  256
370
   -1
100
AcDbSpline
210
0
220
0
230
0
 70
    8
 71
    3
 72
    8
 73
    4
 74
    0
 42
1e-007
 43
1e-007
 40
-1
 40
-1
 40
-1
 40
-1
 40
0
 40
0
 40
0
 40
0
 10
50.95369153335565
 20
-24.04745778197737
 30
0
 10
51.45772326782221
 20
-26.02262549514266
 30
0
 10
48.9002606709289
 20
-27.51058941955062
 30
0
 10
46.00291450813287
 20
-26.92750001067611
 30
0
  0
SPLINE
  5
CE
100
AcDbEntity
  8
0
  6
ByLayer
 62
  256
370
   -1
100
AcDbSpline
210
0
220
0
230
0
 70
    8
 71
    3
 72
    8
 73
    4
 74
    0
 42
1e-007
 43
1e-007
 40
-1
 40
-1
 40
-1
 40
-1
 40
0
 40
0
 40
0
 40
0
 10
46.00291450813287
 20
-26.92750001067611
 30
0
 10
45.79622169807428
 20
-26.88590855712386
 30
0
 10
45.61556412055963
 20
-26.86320645446273
 30
0
 10
45.60159452751154
 20
-26.87733592147323
 30
0
  0
SPLINE
  5
CF
100
AcDbEntity
  8
0
  6
ByLayer
 62
  256
370
   -1
100
AcDbSpline
210
0
220
0
230
0
 70
    8
 71
    3
 72
    8
 73
    4
 74
    0
 42
1e-007
 43
1e-007
 40
-1
 40
-1
 40
-1
 40
-1
 40
0
 40
0
 40
0
 40
0
 10
45.60159452751154
 20
-26.87733592147323
 30
0
 10
45.5566687329101
 20
-26.92210305327865
 30
0
 10
46.61124462440485
 20
-27.54900761718245
 30
0
 10
47.24846711471551
 20
-27.85634593123885
 30
0
  0
SPLINE
  5
D0
100
AcDbEntity
  8
0
  6
ByLayer
 62
  256
370
   -1
100
AcDbSpline
210
0
220
0
230
0
 70
    8
 71
    3
 72
    8
 73
    4
 74
    0
 42
1e-007
 43
1e-007
 40
-1
 40
-1
 40
-1
 40
-1
 40
0
 40
0
 40
0
 40
0
 10
47.24846711471551
 20
-27.85634593123885
 30
0
 10
47.87648231819147
 20
-28.15924168700668
 30
0
 10
47.99935514762873
 20
-28.28163731688949
 30
0
 10
47.95601598098749
 20
-28.56103886718245
 30
0
  0
SPLINE
  5
D1
100
AcDbEntity
  8
0
  6
ByLayer
 62
  256
370
   -1
100
AcDbSpline
210
0
220
0
230
0
 70
    8
 71
    3
 72
    8
 73
    4
 74
    0
 42
1e-007
 43
1e-007
 40
-1
 40
-1
 40
-1
 40
-1
 40
0
 40
0
 40
0
 40
0
 10
47.95601598098749
 20
-28.56103886718245
 30
0
 10
47.86409935310358
 20
-29.15222371215316
 30
0
 10
47.05796759918207
 20
-28.96696128005477
 30
0
 10
45.62318477943414
 20
-28.02478041762801
 30
0
  0
SPLINE
  5
D2
100
AcDbEntity
  8
0
  6
ByLayer
 62
  256
370
   -1
100
AcDbSpline
210
0
220
0
230
0
 70
    8
 71
    3
 72
    8
 73
    4
 74
    0
 42
1e-007
 43
1e-007
 40
-1
 40
-1
 40
-1
 40
-1
 40
0
 40
0
 40
0
 40
0
 10
45.62318477943414
 20
-28.02478041762801
 30
0
 10
45.44125668838495
 20
-27.90540059203597
 30
0
 10
45.43998738601679
 20
-27.90540059203597
 30
0
 10
45.50507425621027
 20
-28.02859074706527
 30
0
  0
SPLINE
  5
D3
100
AcDbEntity
  8
0
  6
ByLayer
 62
  256
370
   -1
100
AcDbSpline
210
0
220
0
230
0
 70
    8
 71
    3
 72
    8
 73
    4
 74
    0
 42
1e-007
 43
1e-007
 40
-1
 40
-1
 40
-1
 40
-1
 40
0
 40
0
 40
0
 40
0
 10
45.50507425621027
 20
-28.02859074706527
 30
0
 10
45.54126996353143
 20
-28.09716940993759
 30
0
 10
45.70303576782221
 20
-28.67279803389998
 30
0
 10
45.86464290931696
 20
-29.30779803389999
 30
0
  0
SPLINE
  5
D4
100
AcDbEntity
  8
0
  6
ByLayer
 62
  256
370
   -1
100
AcDbSpline
210
0
220
0
230
0
 70
    8
 71
    3
 72
    8
 73
    4
 74
    0
 42
1e-007
 43
1e-007
 40
-1
 40
-1
 40
-1
 40
-1
 40
0
 40
0
 40
0
 40
0
 10
45.86464290931696
 20
-29.30779803389999
 30
0
 10
46.42915787055964
 20
-31.52759713286849
 30
0
 10
46.42947640731806
 20
-31.52632783050032
 30
0
 10
45.29933463409418
 20
-31.61078488463851
 30
0
  0
SPLINE
  5
D5
100
AcDbEntity
  8
0
  6
ByLayer
 62
  256
370
   -1
100
AcDbSpline
210
0
220
0
230
0
 70
    8
 71
    3
 72
    8
 73
    4
 74
    0
 42
1e-007
 43
1e-007
 40
-1
 40
-1
 40
-1
 40
-1
 40
0
 40
0
 40
0
 40
0
 10
45.29933463409418
 20
-31.61078488463851
 30
0
 10
44.30047966316217
 20
-31.68539757842513
 30
0
 10
43.67611612632746
 20
-32.08734978789779
 30
0
 10
43.57308704689019
 20
-32.72203488463851
 30
0
  0
SPLINE
  5
D6
100
AcDbEntity
  8
0
  6
ByLayer
 62
  256
370
   -1
100
AcDbSpline
210
0
220
0
230
0
 70
    8
 71
    3
 72
    8
 73
    4
 74
    0
 42
1e-007
 43
1e-007
 40
-1
 40
-1
 40
-1
 40
-1
 40
0
 40
0
 40
0
 40
0
 10
43.57308704689019
 20
-32.72203488463851
 30
0
 10
43.50514182403558
 20
-33.14081746215316
 30
0
 10
43.91424112632745
 20
-33.29750363463851
 30
0
 10
44.56908487632745
 20
-33.10335366363021
 30
0
  0
SPLINE
  5
D7
100
AcDbEntity
  8
0
  6
ByLayer
 62
  256
370
   -1
100
AcDbSpline
210
0
220
0
230
0
 70
    8
 71
    3
 72
    8
 73
    4
 74
    0
 42
1e-007
 43
1e-007
 40
-1
 40
-1
 40
-1
 40
-1
 40
0
 40
0
 40
0
 40
0
 10
44.56908487632745
 20
-33.10335366363021
 30
0
 10
45.35362758949275
 20
-32.87078065032454
 30
0
 10
45.6012772019195
 20
-32.94555321807357
 30
0
 10
45.6814455158996
 20
-33.43926823729964
 30
0
  0
SPLINE
  5
D8
100
AcDbEntity
  8
0
  6
ByLayer
 62
  256
370
   -1
100
AcDbSpline
210
0
220
0
230
0
 70
    8
 71
    3
 72
    8
 73
    4
 74
    0
 42
1e-007
 43
1e-007
 40
-1
 40
-1
 40
-1
 40
-1
 40
0
 40
0
 40
0
 40
0
 10
45.6814455158996
 20
-33.43926823729964
 30
0
 10
45.83432257011408
 20
-34.38033482665511
 30
0
 10
46.42439556434626
 20
-34.85087296599837
 30
0
 10
46.74983354881281
 20
-34.29143521422836
 30
0
  0
SPLINE
  5
D9
100
AcDbEntity
  8
0
  6
ByLayer
 62
  256
370
   -1
100
AcDbSpline
210
0
220
0
230
0
 70
    8
 71
    3
 72
    8
 73
    4
 74
    0
 42
1e-007
 43
1e-007
 40
-1
 40
-1
 40
-1
 40
-1
 40
0
 40
0
 40
0
 40
0
 10
46.74983354881281
 20
-34.29143521422836
 30
0
 10
46.85111612632745
 20
-34.11744874114486
 30
0
 10
46.86143405273432
 20
-34.04188164824934
 30
0
 10
46.80809428527827
 20
-33.86789033050032
 30
0
  0
SPLINE
  5
DA
100
AcDbEntity
  8
0
  6
ByLayer
 62
  256
370
   -1
100
AcDbSpline
210
0
220
0
230
0
 70
    8
 71
    3
 72
    8
 73
    4
 74
    0
 42
1e-007
 43
1e-007
 40
-1
 40
-1
 40
-1
 40
-1
 40
0
 40
0
 40
0
 40
0
 10
46.80809428527827
 20
-33.86789033050032
 30
0
 10
46.61029264762873
 20
-33.22352559203597
 30
0
 10
47.21751091316217
 20
-33.03747105712386
 30
0
 10
47.73773473098749
 20
-33.58277691955062
 30
0
  0
SPLINE
  5
DB
100
AcDbEntity
  8
0
  6
ByLayer
 62
  256
370
   -1
100
AcDbSpline
210
0
220
0
230
0
 70
    8
 71
    3
 72
    8
 73
    4
 74
    0
 42
1e-007
 43
1e-007
 40
-1
 40
-1
 40
-1
 40
-1
 40
0
 40
0
 40
0
 40
0
 10
47.73773473098749
 20
-33.58277691955062
 30
0
 10
48.26176887825007
 20
-34.13237031096908
 30
0
 10
48.82358414962763
 20
-34.05394486541244
 30
0
 10
48.82358414962763
 20
-33.43132783050032
 30
0
  0
SPLINE
  5
DC
100
AcDbEntity
  8
0
  6
ByLayer
 62
  256
370
   -1
100
AcDbSpline
210
0
220
0
230
0
 70
    8
 71
    3
 72
    8
 73
    4
 74
    0
 42
1e-007
 43
1e-007
 40
-1
 40
-1
 40
-1
 40
-1
 40
0
 40
0
 40
0
 40
0
 10
48.82358414962763
 20
-33.43132783050032
 30
0
 10
48.82358414962763
 20
-33.08033181304427
 30
0
 10
48.67943960502618
 20
-32.82045910949202
 30
0
 10
48.18556834533686
 20
-32.28071007842513
 30
0
  0
SPLINE
  5
DD
100
AcDbEntity
  8
0
  6
ByLayer
 62
  256
370
   -1
100
AcDbSpline
210
0
220
0
230
0
 70
    8
 71
    3
 72
    8
 73
    4
 74
    0
 42
1e-007
 43
1e-007
 40
-1
 40
-1
 40
-1
 40
-1
 40
0
 40
0
 40
0
 40
0
 10
48.18556834533686
 20
-32.28071007842513
 30
0
 10
47.92363060310358
 20
-31.99448239440414
 30
0
 10
47.89188108757013
 20
-31.7379428207347
 30
0
 10
48.08952406242365
 20
-31.50315095061751
 30
0
  0
SPLINE
  5
DE
100
AcDbEntity
  8
0
  6
ByLayer
 62
  256
370
   -1
100
AcDbSpline
210
0
220
0
230
0
 70
    8
 71
    3
 72
    8
 73
    4
 74
    0
 42
1e-007
 43
1e-007
 40
-1
 40
-1
 40
-1
 40
-1
 40
0
 40
0
 40
0
 40
0
 10
48.08952406242365
 20
-31.50315095061751
 30
0
 10
48.37670372322076
 20
-31.16183941955062
 30
0
 10
48.76341824844354
 20
-31.20025761718246
 30
0
 10
48.92454940155023
 20
-31.58617882842513
 30
0
  0
SPLINE
  5
DF
100
AcDbEntity
  8
0
  6
ByLayer
 62
  256
370
   -1
100
AcDbSpline
210
0
220
0
230
0
 70
    8
 71
    3
 72
    8
 73
    4
 74
    0
 42
1e-007
 43
1e-007
 40
-1
 40
-1
 40
-1
 40
-1
 40
0
 40
0
 40
0
 40
0
 10
48.92454940155023
 20
-31.58617882842513
 30
0
 10
48.97709585502619
 20
-31.71174771422836
 30
0
 10
49.16743670776361
 20
-32.01718449706527
 30
0
 10
49.3476182968902
 20
-32.26483410949203
 30
0
  0
SPLINE
  5
E0
100
AcDbEntity
  8
0
  6
ByLayer
 62
  256
370
   -1
100
AcDbSpline
210
0
220
0
230
0
 70
    8
 71
    3
 72
    8
 73
    4
 74
    0
 42
1e-007
 43
1e-007
 40
-1
 40
-1
 40
-1
 40
-1
 40
0
 40
0
 40
0
 40
0
 10
49.3476182968902
 20
-32.26483410949203
 30
0
 10
50.3498076088714
 20
-33.6427829467723
 30
0
 10
49.40730820968622
 20
-35.34029561156722
 30
0
 10
47.9296634228515
 20
-34.81896115416976
 30
0
  0
LINE
  5
E1
100
AcDbEntity
  8
0
  6
ByLayer
 62
  256
370
   -1
100
AcDbLine
 10
47.9296634228515
 20
-34.81896115416977
 11
47.65470806434625
 21
-34.72196610564681
  0
LINE
  5
E2
100
AcDbEntity
  8
0
  6
ByLayer
 62
  256
370
   -1
100
AcDbLine
 10
47.65470806434625
 20
-34.72196610564681
 11
47.42960068061823
 21
-34.9683464157054
  0
SPLINE
  5
E3
100
AcDbEntity
  8
0
  6
ByLayer
 62
  256
370
   -1
100
AcDbSpline
210
0
220
0
230
0
 70
    8
 71
    3
 72
    8
 73
    4
 74
    0
 42
1e-007
 43
1e-007
 40
-1
 40
-1
 40
-1
 40
-1
 40
0
 40
0
 40
0
 40
0
 10
47.42960068061823
 20
-34.9683464157054
 30
0
 10
46.61870540931696
 20
-35.85544343108626
 30
0
 10
45.3201303608703
 20
-35.48857144469711
 30
0
 10
44.94040063217157
 20
-34.26508507842513
 30
0
  0
SPLINE
  5
E4
100
AcDbEntity
  8
0
  6
ByLayer
 62
  256
370
   -1
100
AcDbSpline
210
0
220
0
230
0
 70
    8
 71
    3
 72
    8
 73
    4
 74
    0
 42
1e-007
 43
1e-007
 40
-1
 40
-1
 40
-1
 40
-1
 40
0
 40
0
 40
0
 40
0
 10
44.94040063217157
 20
-34.26508507842513
 30
0
 10
44.89976115539545
 20
-34.13411439055892
 30
0
 10
44.84959585502619
 20
-34.02711995238754
 30
0
 10
44.82895879104609
 20
-34.02727498168441
 30
0
  0
SPLINE
  5
E5
100
AcDbEntity
  8
0
  6
ByLayer
 62
  256
370
   -1
100
AcDbSpline
210
0
220
0
230
0
 70
    8
 71
    3
 72
    8
 73
    4
 74
    0
 42
1e-007
 43
1e-007
 40
-1
 40
-1
 40
-1
 40
-1
 40
0
 40
0
 40
0
 40
0
 10
44.82895879104609
 20
-34.02727498168441
 30
0
 10
44.8083205158996
 20
-34.02759472960922
 30
0
 10
44.6198848278808
 20
-34.05632844085189
 30
0
 10
44.41033487632745
 20
-34.09125363463851
 30
0
  0
SPLINE
  5
E6
100
AcDbEntity
  8
0
  6
ByLayer
 62
  256
370
   -1
100
AcDbSpline
210
0
220
0
230
0
 70
    8
 71
    3
 72
    8
 73
    4
 74
    0
 42
1e-007
 43
1e-007
 40
-1
 40
-1
 40
-1
 40
-1
 40
0
 40
0
 40
0
 40
0
 10
44.41033487632745
 20
-34.09125363463851
 30
0
 10
42.35817331626886
 20
-34.43335969085189
 30
0
 10
41.91716583564752
 20
-32.028298159785
 30
0
 10
43.85280471160883
 20
-31.0515070068309
 30
0
  0
SPLINE
  5
E7
100
AcDbEntity
  8
0
  6
ByLayer
 62
  256
370
   -1
100
AcDbSpline
210
0
220
0
230
0
 70
    8
 71
    3
 72
    8
 73
    4
 74
    0
 42
1e-007
 43
1e-007
 40
-1
 40
-1
 40
-1
 40
-1
 40
0
 40
0
 40
0
 40
0
 10
43.85280471160883
 20
-31.0515070068309
 30
0
 10
44.2766669209289
 20
-30.8375132858226
 30
0
 10
44.8322919209289
 20
-30.66145814055892
 30
0
 10
45.0835931999969
 20
-30.66145814055892
 30
0
  0
LINE
  5
E8
100
AcDbEntity
  8
0
  6
ByLayer
 62
  256
370
   -1
100
AcDbLine
 10
45.0835931999969
 20
-30.66145814055892
 11
45.25758330657953
 21
-30.66145814055892
  0
LINE
  5
E9
100
AcDbEntity
  8
0
  6
ByLayer
 62
  256
370
   -1
100
AcDbLine
 10
45.25758330657953
 20
-30.66145814055892
 11
44.9680237038421
 21
-29.56608410949202
  0
SPLINE
  5
EA
100
AcDbEntity
  8
0
  6
ByLayer
 62
  256
370
   -1
100
AcDbSpline
210
0
220
0
230
0
 70
    8
 71
    3
 72
    8
 73
    4
 74
    0
 42
1e-007
 43
1e-007
 40
-1
 40
-1
 40
-1
 40
-1
 40
0
 40
0
 40
0
 40
0
 10
44.9680237038421
 20
-29.56608410949202
 30
0
 10
44.55876573875422
 20
-28.01795428389998
 30
0
 10
44.56829035118098
 20
-27.74045910949202
 30
0
 10
45.03104674652094
 20
-27.74045910949202
 30
0
  0
SPLINE
  5
EB
100
AcDbEntity
  8
0
  6
ByLayer
 62
  256
370
   -1
100
AcDbSpline
210
0
220
0
230
0
 70
    8
 71
    3
 72
    8
 73
    4
 74
    0
 42
1e-007
 43
1e-007
 40
-1
 40
-1
 40
-1
 40
-1
 40
0
 40
0
 40
0
 40
0
 10
45.03104674652094
 20
-27.74045910949202
 30
0
 10
45.11200958564753
 20
-27.74045910949202
 30
0
 10
45.04073123291009
 20
-27.66473456496688
 30
0
 10
44.82038615539545
 20
-27.51646357650252
 30
0
  0
SPLINE
  5
EC
100
AcDbEntity
  8
0
  6
ByLayer
 62
  256
370
   -1
100
AcDbSpline
210
0
220
0
230
0
 70
    8
 71
    3
 72
    8
 73
    4
 74
    0
 42
1e-007
 43
1e-007
 40
-1
 40
-1
 40
-1
 40
-1
 40
0
 40
0
 40
0
 40
0
 10
44.82038615539545
 20
-27.51646357650252
 30
0
 10
42.56089713409418
 20
-25.99579573745223
 30
0
 10
41.12278118446344
 20
-24.17286921615096
 30
0
 10
41.2207294209289
 20
-22.95351050490829
 30
0
  0
SPLINE
  5
ED
100
AcDbEntity
  8
0
  6
ByLayer
 62
  256
370
   -1
100
AcDbSpline
210
0
220
0
230
0
 70
    8
 71
    3
 72
    8
 73
    4
 74
    0
 42
1e-007
 43
1e-007
 40
-1
 40
-1
 40
-1
 40
-1
 40
0
 40
0
 40
0
 40
0
 10
41.2207294209289
 20
-22.95351050490829
 30
0
 10
41.24755857303613
 20
-22.62077160949202
 30
0
 10
41.21644310310358
 20
-22.45932313079329
 30
0
 10
41.00371868446344
 20
-21.82511765593978
 30
0
  0
SPLINE
  5
EE
100
AcDbEntity
  8
0
  6
ByLayer
 62
  256
370
   -1
100
AcDbSpline
210
0
220
0
230
0
 70
    8
 71
    3
 72
    8
 73
    4
 74
    0
 42
1e-007
 43
1e-007
 40
-1
 40
-1
 40
-1
 40
-1
 40
0
 40
0
 40
0
 40
0
 10
41.00371868446344
 20
-21.82511765593978
 30
0
 10
39.56480820968622
 20
-17.53759593123885
 30
0
 10
41.80588205173486
 20
-12.99147322768661
 30
0
 10
46.75427852943415
 20
-10.16064311141463
 30
0
  0
SPLINE
  5
EF
100
AcDbEntity
  8
0
  6
ByLayer
 62
  256
370
   -1
100
AcDbSpline
210
0
220
0
230
0
 70
    8
 71
    3
 72
    8
 73
    4
 74
    0
 42
1e-007
 43
1e-007
 40
-1
 40
-1
 40
-1
 40
-1
 40
0
 40
0
 40
0
 40
0
 10
46.75427852943415
 20
-10.16064311141463
 30
0
 10
47.24449812248224
 20
-9.880132132715902
 30
0
 10
47.35752780273431
 20
-9.781548033899984
 30
0
 10
47.59993912055963
 20
-9.423090020365439
 30
0
  0
SPLINE
  5
F0
100
AcDbEntity
  8
0
  6
ByLayer
 62
  256
370
   -1
100
AcDbSpline
210
0
220
0
230
0
 70
    8
 71
    3
 72
    8
 73
    4
 74
    0
 42
1e-007
 43
1e-007
 40
-1
 40
-1
 40
-1
 40
-1
 40
0
 40
0
 40
0
 40
0
 10
47.59993912055963
 20
-9.423090020365439
 30
0
 10
48.17636105850214
 20
-8.570920621103964
 30
0
 10
49.45334585502619
 20
-7.852100640482627
 30
0
 10
51.14879590347284
 20
-7.425856066889487
 30
0
  0
SPLINE
  5
F1
100
AcDbEntity
  8
0
  6
ByLayer
 62
  256
370
   -1
100
AcDbSpline
210
0
220
0
230
0
 70
    8
 71
    3
 72
    8
 73
    4
 74
    0
 42
1e-007
 43
1e-007
 40
-1
 40
-1
 40
-1
 40
-1
 40
0
 40
0
 40
0
 40
0
 10
51.14879590347284
 20
-7.425856066889487
 30
0
 10
52.9104446728515
 20
-6.9827847587535
 30
0
 10
54.13710671737665
 20
-6.774346657938681
 30
0
 10
55.80858414962763
 20
-6.633852568812094
 30
0
  0
CIRCLE
  5
F2
100
AcDbEntity
  8
0
  6
ByLayer
 62
  256
370
   -1
100
AcDbCircle
 10
121.75
 20
-39.55
 40
1.050000000000004
  0
CIRCLE
  5
F3
100
AcDbEntity
  8
0
  6
ByLayer
 62
  256
370
   -1
100
AcDbCircle
 10
121.75
 20
-3.500000000000117
 40
1.050000000000004
  0
CIRCLE
  5
F4
100
AcDbEntity
  8
0
  6
ByLayer
 62
  256
370
   -1
100
AcDbCircle
 10
3.499999999999994
 20
-39.55
 40
1.05
  0
CIRCLE
  5
F5
100
AcDbEntity
  8
0
  6
ByLayer
 62
  256
370
   -1
100
AcDbCircle
 10
3.499999999999994
 20
-3.499999999999996
 40
1.05
  0
LWPOLYLINE
  5
F6
100
AcDbEntity
  8
0
  6
ByLayer
 62
  256
370
   -1
100
AcDbPolyline
 90
    8
 70
    1
 43
0
 10
120.2499999999999
 20
-43.04999999999999
 42
0.4142135623730971
 10
125.2499999999999
 20
-38.04999999999998
 10
125.25
 20
-5.000000000000022
 42
0.414213562373092
 10
120.25
 20
4.440892098500626e-015
 10
5
 20
-1.77635683940025e-015
 42
0.4142135623730948
 10
-4.440892098500626e-015
 20
-4.999999999999999
 10
-9.769962616701378e-015
 20
-38.05
 42
0.414213562373095
 10
4.999999999999987
 20
-43.05
  0
ENDBLK
  5
4F
330
4D
100
AcDbEntity
  8
0
100
AcDbBlockEnd
  0
BLOCK
  5
51
330
50
100
AcDbEntity
  8
0
100
AcDbBlockBegin
  2
plate
 70
    0
 10
0
 20
0
  3
plate
  1

  0
LWPOLYLINE
  5
F7
100
AcDbEntity
  8
0
  6
ByLayer
 62
  256
370
   -1
100
AcDbPolyline
 90
    4
 70
    1
 43
0
 10
-101.2
 20
-41.05
 10
-101.2
 20
-27.05
 10
-87.19999999999999
 20
-27.05
 10
-87.19999999999999
 20
-41.05
  0
CIRCLE
  5
F8
100
AcDbEntity
  8
0
  6
ByLayer
 62
  256
370
   -1
100
AcDbCircle
 10
-6.499999999999993
 20
-42.55
 40
1.05
  0
CIRCLE
  5
F9
100
AcDbEntity
  8
0
  6
ByLayer
 62
  256
370
   -1
100
AcDbCircle
 10
-6.499999999999995
 20
-6.499999999999996
 40
1.05
  0
CIRCLE
  5
FA
100
AcDbEntity
  8
0
  6
ByLayer
 62
  256
370
   -1
100
AcDbCircle
 10
-124.75
 20
-42.55
 40
1.050000000000004
  0
LWPOLYLINE
  5
FB
100
AcDbEntity
  8
0
  6
ByLayer
 62
  256
370
   -1
100
AcDbPolyline
 90
    4
 70
    1
 43
0
 10
-44.04999999999998
 20
-27.05
 10
-30.04999999999997
 20
-27.05
 10
-30.04999999999997
 20
-41.05
 10
-44.04999999999998
 20
-41.05
  0
LWPOLYLINE
  5
FC
100
AcDbEntity
  8
0
  6
ByLayer
 62
  256
370
   -1
100
AcDbPolyline
 90
    4
 70
    1
 43
0
 10
-106.25
 20
-7.999999999999998
 10
-106.25
 20
-22
 10
-120.25
 20
-22
 10
-120.25
 20
-7.999999999999998
  0
LWPOLYLINE
  5
FD
100
AcDbEntity
  8
0
  6
ByLayer
 62
  256
370
   -1
100
AcDbPolyline
 90
    4
 70
    1
 43
0
 10
-87.19999999999999
 20
-22
 10
-101.2
 20
-22
 10
-101.2
 20
-7.999999999999998
 10
-87.19999999999999
 20
-7.999999999999998
  0
LWPOLYLINE
  5
FE
100
AcDbEntity
  8
0
  6
ByLayer
 62
  256
370
   -1
100
AcDbPolyline
 90
    4
 70
    1
 43
0
 10
-44.04999999999998
 20
-22
 10
-44.04999999999998
 20
-7.999999999999998
 10
-30.04999999999997
 20
-7.999999999999998
 10
-30.04999999999997
 20
-22
  0
LWPOLYLINE
  5
FF
100
AcDbEntity
  8
0
  6
ByLayer
 62
  256
370
   -1
100
AcDbPolyline
 90
    4
 70
    1
 43
0
 10
-24.99999999999997
 20
-7.999999999999998
 10
-10.99999999999998
 20
-7.999999999999998
 10
-10.99999999999998
 20
-22
 10
-24.99999999999997
 20
-22
  0
CIRCLE
  5
100
100
AcDbEntity
  8
0
  6
ByLayer
 62
  256
370
   -1
100
AcDbCircle
 10
-124.7499999999999
 20
-6.499999999999952
 40
1.050000000000004
  0
LWPOLYLINE
  5
101
100
AcDbEntity
  8
0
  6
ByLayer
 62
  256
370
   -1
100
AcDbPolyline
 90
    8
 70
    1
 43
0
 10
-126.25
 20
-1.77635683940025e-015
 42
0.4142135623730951
 10
-131.25
 20
-5.000000000000009
 10
-131.25
 20
-44.05
 42
0.4142135623730946
 10
-126.25
 20
-49.05
 10
-5.000000000000002
 20
-49.05
 42
0.4142135623730948
 10
1.243449787580175e-014
 20
-44.05
 10
0
 20
-4.999999999999991
 42
0.4142135623730952
 10
-4.999999999999999
 20
0
  0
ENDBLK
  5
52
330
50
100
AcDbEntity
  8
0
100
AcDbBlockEnd
  0
BLOCK
  5
54
330
53
100
AcDbEntity
  8
0
100
AcDbBlockBegin
  2
open3
 70
    0
 10
0
 20
0
  3
open3
  1

  0
CIRCLE
  5
102
100
AcDbEntity
  8
0
  6
ByLayer
 62
  256
370
   -1
100
AcDbCircle
 10
-6.499999999999996
 20
-6.499999999999999
 40
1.6
  0
CIRCLE
  5
103
100
AcDbEntity
  8
0
  6
ByLayer
 62
  256
370
   -1
100
AcDbCircle
 10
-124.7499999999999
 20
-6.500000000000043
 40
1.600000000000001
  0
CIRCLE
  5
104
100
AcDbEntity
  8
0
  6
ByLayer
 62
  256
370
   -1
100
AcDbCircle
 10
-124.75
 20
-42.55000000000001
 40
1.600000000000001
  0
CIRCLE
  5
105
100
AcDbEntity
  8
0
  6
ByLayer
 62
  256
370
   -1
100
AcDbCircle
 10
-6.499999999999988
 20
-42.55000000000001
 40
1.6
  0
LWPOLYLINE
  5
106
100
AcDbEntity
  8
0
  6
ByLayer
 62
  256
370
   -1
100
AcDbPolyline
 90
    4
 70
    1
 43
0
 10
-122.1249999999999
 20
-6.02500000000004
 10
-9.124999999999943
 20
-6.024999999999999
 10
-9.12499999999994
 20
-43.02499999999999
 10
-122.1249999999999
 20
-43.02500000000003
  0
LWPOLYLINE
  5
107
100
AcDbEntity
  8
0
  6
ByLayer
 62
  256
370
   -1
100
AcDbPolyline
 90
    8
 70
    1
 43
0
 10
-131.2499999999999
 20
-44.05
 42
0.414213562373095
 10
-126.2499999999999
 20
-49.05
 10
-4.999999999999983
 20
-49.05000000000002
 42
0.414213562373095
 10
1.332267629550188e-014
 20
-44.05
 10
8.881784197001252e-016
 20
-5
 42
0.414213562373095
 10
-4.999999999999999
 20
0
 10
-126.2499999999999
 20
0
 42
0.4142135623730951
 10
-131.25
 20
-5.000000000000062
  0
ENDBLK
  5
55
330
53
100
AcDbEntity
  8
0
100
AcDbBlockEnd
  0
BLOCK
  5
57
330
56
100
AcDbEntity
  8
0
100
AcDbBlockBegin
  2
open2_1
 70
    0
 10
0
 20
0
  3
open2_1
  1

  0
CIRCLE
  5
108
100
AcDbEntity
  8
0
  6
ByLayer
 62
  256
370
   -1
100
AcDbCircle
 10
-124.2500000000002
 20
-6.000000000000989
 40
1.600000000000001
  0
CIRCLE
  5
109
100
AcDbEntity
  8
0
  6
ByLayer
 62
  256
370
   -1
100
AcDbCircle
 10
-124.2499999999996
 20
-42.05
 40
1.600000000000001
  0
CIRCLE
  5
10A
100
AcDbEntity
  8
0
  6
ByLayer
 62
  256
370
   -1
100
AcDbCircle
 10
-5.999999999999631
 20
-42.05
 40
1.6
  0
CIRCLE
  5
10B
100
AcDbEntity
  8
0
  6
ByLayer
 62
  256
370
   -1
100
AcDbCircle
 10
-5.999999999999637
 20
-6.000000000000001
 40
1.6
  0
LWPOLYLINE
  5
10C
100
AcDbEntity
  8
0
  6
ByLayer
 62
  256
370
   -1
100
AcDbPolyline
 90
   16
 70
    1
 43
0
 10
-58.12499999999959
 20
-48.05
 10
-4.999999999999981
 20
-48.05
 42
0.4142135623730945
 10
1.06581410364015e-014
 20
-43.05
 10
-8.881784197001252e-016
 20
-5
 42
0.414213562373095
 10
-4.999999999999998
 20
-8.881784197001252e-016
 10
-125.2500000000008
 20
-8.881784197001252e-016
 42
0.4142135623730952
 10
-130.2500000000009
 20
-5.000000000000053
 10
-130.2499999999991
 20
-43.05
 42
0.4142135623730954
 10
-125.2499999999991
 20
-48.05
 10
-72.12499999999955
 20
-48.05
 10
-72.12499999999955
 20
-42.52500000000003
 10
-121.6249999999996
 20
-42.52500000000004
 10
-121.6249999999996
 20
-5.525000000000042
 10
-8.624999999999616
 20
-5.525000000000001
 10
-8.624999999999616
 20
-42.52500000000001
 10
-58.12499999999959
 20
-42.52500000000002
  0
ENDBLK
  5
58
330
56
100
AcDbEntity
  8
0
100
AcDbBlockEnd
  0
BLOCK
  5
5A
330
59
100
AcDbEntity
  8
0
100
AcDbBlockBegin
  2
open2
 70
    0
 10
0
 20
0
  3
open2
  1

  0
CIRCLE
  5
10D
100
AcDbEntity
  8
0
  6
ByLayer
 62
  256
370
   -1
100
AcDbCircle
 10
-123.7499999999992
 20
-41.55
 40
1.600000000000001
  0
CIRCLE
  5
10E
100
AcDbEntity
  8
0
  6
ByLayer
 62
  256
370
   -1
100
AcDbCircle
 10
-5.499999999999241
 20
-41.55
 40
1.6
  0
CIRCLE
  5
10F
100
AcDbEntity
  8
0
  6
ByLayer
 62
  256
370
   -1
100
AcDbCircle
 10
-5.499999999999248
 20
-5.499999999999996
 40
1.6
  0
CIRCLE
  5
110
100
AcDbEntity
  8
0
  6
ByLayer
 62
  256
370
   -1
100
AcDbCircle
 10
-123.7500000000005
 20
-5.500000000002067
 40
1.600000000000001
  0
LWPOLYLINE
  5
111
100
AcDbEntity
  8
0
  6
ByLayer
 62
  256
370
   -1
100
AcDbPolyline
 90
   16
 70
    1
 43
0
 10
-57.62499999999919
 20
-47.05
 10
-4.999999999999983
 20
-47.05
 42
0.4142135623730945
 10
9.769962616701378e-015
 20
-42.05
 10
-8.881784197001252e-016
 20
-5
 42
0.414213562373095
 10
-4.999999999999998
 20
-8.881784197001252e-016
 10
-124.2500000000016
 20
-1.77635683940025e-015
 42
0.4142135623730948
 10
-129.2500000000017
 20
-5.000000000000053
 10
-129.2499999999983
 20
-42.04999999999999
 42
0.414213562373095
 10
-124.2499999999983
 20
-47.04999999999999
 10
-71.62499999999909
 20
-47.04999999999999
 10
-71.62499999999909
 20
-42.02500000000002
 10
-121.1249999999992
 20
-42.02500000000003
 10
-121.1249999999992
 20
-5.025000000000039
 10
-8.124999999999218
 20
-5.024999999999999
 10
-8.124999999999218
 20
-42.025
 10
-57.62499999999919
 20
-42.02500000000001
  0
ENDBLK
  5
5B
330
59
100
AcDbEntity
  8
0
100
AcDbBlockEnd
  0
BLOCK
  5
5D
330
5C
100
AcDbEntity
  8
0
100
AcDbBlockBegin
  2
open1_2
 70
    0
 10
0
 20
0
  3
open1_2
  1

  0
CIRCLE
  5
112
100
AcDbEntity
  8
0
  6
ByLayer
 62
  256
370
   -1
100
AcDbCircle
 10
-123.25
 20
-5.000000000000417
 40
1.600000000000001
  0
CIRCLE
  5
113
100
AcDbEntity
  8
0
  6
ByLayer
 62
  256
370
   -1
100
AcDbCircle
 10
-4.999999999999826
 20
-5.000000000000002
 40
1.6
  0
CIRCLE
  5
114
100
AcDbEntity
  8
0
  6
ByLayer
 62
  256
370
   -1
100
AcDbCircle
 10
-4.999999999999817
 20
-41.05
 40
1.6
  0
CIRCLE
  5
115
100
AcDbEntity
  8
0
  6
ByLayer
 62
  256
370
   -1
100
AcDbCircle
 10
-123.2499999999998
 20
-41.05
 40
1.600000000000001
  0
LWPOLYLINE
  5
116
100
AcDbEntity
  8
0
  6
ByLayer
 62
  256
370
   -1
100
AcDbPolyline
 90
   16
 70
    1
 43
0
 10
-57.1249999999998
 20
-46.05
 10
-4.999999999999984
 20
-46.05
 42
0.4142135623731046
 10
1.06581410364015e-014
 20
-41.05
 10
0
 20
-5
 42
0.4142135623731049
 10
-4.999999999999999
 20
0
 10
-123.2500000000003
 20
0
 42
0.414213562373061
 10
-128.2500000000004
 20
-5.000000000000071
 10
-128.2499999999996
 20
-41.05
 42
0.4142135623731066
 10
-123.2499999999996
 20
-46.05
 10
-71.12499999999979
 20
-46.05
 10
-71.12499999999979
 20
-41.52500000000003
 10
-120.6249999999998
 20
-41.52500000000003
 10
-120.6249999999998
 20
-4.525000000000046
 10
-7.624999999999797
 20
-4.525000000000002
 10
-7.624999999999797
 20
-41.525
 10
-57.1249999999998
 20
-41.52500000000002
  0
ENDBLK
  5
5E
330
5C
100
AcDbEntity
  8
0
100
AcDbBlockEnd
  0
BLOCK
  5
60
330
5F
100
AcDbEntity
  8
0
100
AcDbBlockBegin
  2
open1_1
 70
    0
 10
0
 20
0
  3
open1_1
  1

  0
CIRCLE
  5
117
100
AcDbEntity
  8
0
  6
ByLayer
 62
  256
370
   -1
100
AcDbCircle
 10
-4.499999999999831
 20
-4.499999999999998
 40
1.6
  0
CIRCLE
  5
118
100
AcDbEntity
  8
0
  6
ByLayer
 62
  256
370
   -1
100
AcDbCircle
 10
-122.7499999999998
 20
-40.55
 40
1.600000000000001
  0
CIRCLE
  5
119
100
AcDbEntity
  8
0
  6
ByLayer
 62
  256
370
   -1
100
AcDbCircle
 10
-122.75
 20
-4.500000000000425
 40
1.600000000000001
  0
CIRCLE
  5
11A
100
AcDbEntity
  8
0
  6
ByLayer
 62
  256
370
   -1
100
AcDbCircle
 10
-4.499999999999822
 20
-40.55
 40
1.6
  0
LWPOLYLINE
  5
11B
100
AcDbEntity
  8
0
  6
ByLayer
 62
  256
370
   -1
100
AcDbPolyline
 90
   16
 70
    1
 43
0
 10
-56.6249999999998
 20
-45.05
 10
-4.99999999999999
 20
-45.05
 42
0.414213562373095
 10
1.06581410364015e-014
 20
-40.05
 10
8.881784197001252e-016
 20
-5
 42
0.414213562373095
 10
-4.999999999999999
 20
0
 10
-122.2500000000003
 20
-8.881784197001252e-016
 42
0.4142135623730949
 10
-127.2500000000004
 20
-5.00000000000007
 10
-127.2499999999996
 20
-40.04999999999999
 42
0.414213562373095
 10
-122.2499999999996
 20
-45.04999999999999
 10
-70.62499999999979
 20
-45.04999999999999
 10
-70.62499999999979
 20
-41.02500000000002
 10
-120.1249999999998
 20
-41.02500000000003
 10
-120.1249999999998
 20
-4.025000000000039
 10
-7.12499999999979
 20
-4.024999999999998
 10
-7.124999999999799
 20
-41.025
 10
-56.6249999999998
 20
-41.02500000000002
  0
ENDBLK
  5
61
330
5F
100
AcDbEntity
  8
0
100
AcDbBlockEnd
  0
BLOCK
  5
63
330
62
100
AcDbEntity
  8
0
100
AcDbBlockBegin
  2
open1
 70
    0
 10
0
 20
0
  3
open1
  1

  0
CIRCLE
  5
11C
100
AcDbEntity
  8
0
  6
ByLayer
 62
  256
370
   -1
100
AcDbCircle
 10
-4.000000000000023
 20
-3.999999999999999
 40
1.6
  0
CIRCLE
  5
11D
100
AcDbEntity
  8
0
  6
ByLayer
 62
  256
370
   -1
100
AcDbCircle
 10
-4.000000000000014
 20
-40.05000000000001
 40
1.6
  0
CIRCLE
  5
11E
100
AcDbEntity
  8
0
  6
ByLayer
 62
  256
370
   -1
100
AcDbCircle
 10
-122.2500000000004
 20
-4.00000000000069
 40
1.600000000000001
  0
CIRCLE
  5
11F
100
AcDbEntity
  8
0
  6
ByLayer
 62
  256
370
   -1
100
AcDbCircle
 10
-122.25
 20
-40.05000000000001
 40
1.600000000000001
  0
LWPOLYLINE
  5
120
100
AcDbEntity
  8
0
  6
ByLayer
 62
  256
370
   -1
100
AcDbPolyline
 90
   16
 70
    1
 43
0
 10
-56.125
 20
-44.05
 10
-4.99999999999999
 20
-44.05
 42
0.414213562373095
 10
1.06581410364015e-014
 20
-39.05
 10
8.881784197001252e-016
 20
-5
 42
0.414213562373095
 10
-4.999999999999999
 20
0
 10
-121.2500000000005
 20
-8.881784197001252e-016
 42
0.4142135623730949
 10
-126.2500000000006
 20
-5.00000000000007
 10
-126.25
 20
-39.04999999999999
 42
0.4142135623730954
 10
-121.25
 20
-44.05
 10
-70.12499999999999
 20
-44.05
 10
-70.12499999999999
 20
-40.52500000000002
 10
-119.625
 20
-40.52500000000003
 10
-119.625
 20
-3.52500000000004
 10
-6.624999999999996
 20
-3.524999999999997
 10
-6.625000000000004
 20
-40.52500000000001
 10
-56.125
 20
-40.52500000000002
  0
ENDBLK
  5
64
330
62
100
AcDbEntity
  8
0
100
AcDbBlockEnd
  0
BLOCK
  5
66
330
65
100
AcDbEntity
  8
0
100
AcDbBlockBegin
  2
bottom-0
 70
    0
 10
0
 20
0
  3
bottom-0
  1

  0
CIRCLE
  5
121
100
AcDbEntity
  8
0
  6
ByLayer
 62
  256
370
   -1
100
AcDbCircle
 10
121.75
 20
-39.55
 40
1.050000000000004
  0
CIRCLE
  5
122
100
AcDbEntity
  8
0
  6
ByLayer
 62
  256
370
   -1
100
AcDbCircle
 10
121.75
 20
-3.500000000000117
 40
1.050000000000004
  0
CIRCLE
  5
123
100
AcDbEntity
  8
0
  6
ByLayer
 62
  256
370
   -1
100
AcDbCircle
 10
3.499999999999994
 20
-39.55
 40
1.05
  0
CIRCLE
  5
124
100
AcDbEntity
  8
0
  6
ByLayer
 62
  256
370
   -1
100
AcDbCircle
 10
3.499999999999994
 20
-3.499999999999996
 40
1.05
  0
LWPOLYLINE
  5
125
100
AcDbEntity
  8
0
  6
ByLayer
 62
  256
370
   -1
100
AcDbPolyline
 90
    8
 70
    1
 43
0
 10
120.2499999999999
 20
-43.04999999999999
 42
0.4142135623730971
 10
125.2499999999999
 20
-38.04999999999998
 10
125.25
 20
-5.000000000000022
 42
0.414213562373092
 10
120.25
 20
4.440892098500626e-015
 10
5
 20
-1.77635683940025e-015
 42
0.4142135623730948
 10
-4.440892098500626e-015
 20
-4.999999999999999
 10
-9.769962616701378e-015
 20
-38.05
 42
0.414213562373095
 10
4.999999999999987
 20
-43.05
  0
SPLINE
  5
126
100
AcDbEntity
  8
0
  6
ByLayer
 62
  256
370
   -1
100
AcDbSpline
210
0
220
0
230
0
 70
    8
 71
    3
 72
    8
 73
    4
 74
    0
 42
1e-007
 43
1e-007
 40
0
 40
0
 40
0
 40
0
 40
1
 40
1
 40
1
 40
1
 10
55.81526063127187
 20
-6.639882512093063
 30
0
 10
54.1437831990209
 20
-6.78037660121965
 30
0
 10
52.91712115449575
 20
-6.988814702034469
 30
0
 10
51.15547238511709
 20
-7.431886010170457
 30
0
  0
SPLINE
  5
127
100
AcDbEntity
  8
0
  6
ByLayer
 62
  256
370
   -1
100
AcDbSpline
210
0
220
0
230
0
 70
    8
 71
    3
 72
    8
 73
    4
 74
    0
 42
1e-007
 43
1e-007
 40
0
 40
0
 40
0
 40
0
 40
1
 40
1
 40
1
 40
1
 10
51.15547238511709
 20
-7.431886010170457
 30
0
 10
49.46002233667043
 20
-7.858130583763597
 30
0
 10
48.18303754014639
 20
-8.576950564384934
 30
0
 10
47.60661560220388
 20
-9.429119963646409
 30
0
  0
SPLINE
  5
128
100
AcDbEntity
  8
0
  6
ByLayer
 62
  256
370
   -1
100
AcDbSpline
210
0
220
0
230
0
 70
    8
 71
    3
 72
    8
 73
    4
 74
    0
 42
1e-007
 43
1e-007
 40
0
 40
0
 40
0
 40
0
 40
1
 40
1
 40
1
 40
1
 10
47.60661560220388
 20
-9.429119963646409
 30
0
 10
47.36420428437856
 20
-9.787577977180955
 30
0
 10
47.25117460412648
 20
-9.886162075996872
 30
0
 10
46.76095501107839
 20
-10.1666730546956
 30
0
  0
SPLINE
  5
129
100
AcDbEntity
  8
0
  6
ByLayer
 62
  256
370
   -1
100
AcDbSpline
210
0
220
0
230
0
 70
    8
 71
    3
 72
    8
 73
    4
 74
    0
 42
1e-007
 43
1e-007
 40
0
 40
0
 40
0
 40
0
 40
1
 40
1
 40
1
 40
1
 10
46.76095501107839
 20
-10.1666730546956
 30
0
 10
41.8125585333791
 20
-12.99750317096758
 30
0
 10
39.57148469133046
 20
-17.54362587451982
 30
0
 10
41.01039516610768
 20
-21.83114759922075
 30
0
  0
SPLINE
  5
12A
100
AcDbEntity
  8
0
  6
ByLayer
 62
  256
370
   -1
100
AcDbSpline
210
0
220
0
230
0
 70
    8
 71
    3
 72
    8
 73
    4
 74
    0
 42
1e-007
 43
1e-007
 40
0
 40
0
 40
0
 40
0
 40
1
 40
1
 40
1
 40
1
 10
41.01039516610768
 20
-21.83114759922075
 30
0
 10
41.22311958474782
 20
-22.46535307407427
 30
0
 10
41.25423505468038
 20
-22.626801552773
 30
0
 10
41.22740590257314
 20
-22.95954044818926
 30
0
  0
SPLINE
  5
12B
100
AcDbEntity
  8
0
  6
ByLayer
 62
  256
370
   -1
100
AcDbSpline
210
0
220
0
230
0
 70
    8
 71
    3
 72
    8
 73
    4
 74
    0
 42
1e-007
 43
1e-007
 40
0
 40
0
 40
0
 40
0
 40
1
 40
1
 40
1
 40
1
 10
41.22740590257314
 20
-22.95954044818926
 30
0
 10
41.12945766610768
 20
-24.17889915943193
 30
0
 10
42.56757361573843
 20
-26.0018256807332
 30
0
 10
44.82706263703969
 20
-27.5224935197835
 30
0
  0
SPLINE
  5
12C
100
AcDbEntity
  8
0
  6
ByLayer
 62
  256
370
   -1
100
AcDbSpline
210
0
220
0
230
0
 70
    8
 71
    3
 72
    8
 73
    4
 74
    0
 42
1e-007
 43
1e-007
 40
0
 40
0
 40
0
 40
0
 40
1
 40
1
 40
1
 40
1
 10
44.82706263703969
 20
-27.5224935197835
 30
0
 10
45.04740771455435
 20
-27.67076450824785
 30
0
 10
45.11868606729177
 20
-27.74648905277299
 30
0
 10
45.03772322816518
 20
-27.74648905277299
 30
0
  0
SPLINE
  5
12D
100
AcDbEntity
  8
0
  6
ByLayer
 62
  256
370
   -1
100
AcDbSpline
210
0
220
0
230
0
 70
    8
 71
    3
 72
    8
 73
    4
 74
    0
 42
1e-007
 43
1e-007
 40
0
 40
0
 40
0
 40
0
 40
1
 40
1
 40
1
 40
1
 10
45.03772322816518
 20
-27.74648905277299
 30
0
 10
44.57496683282521
 20
-27.74648905277299
 30
0
 10
44.56544222039845
 20
-28.02398422718095
 30
0
 10
44.97470018548634
 20
-29.57211405277299
 30
0
  0
LINE
  5
12E
100
AcDbEntity
  8
0
  6
ByLayer
 62
  256
370
   -1
100
AcDbLine
 10
44.97470018548634
 20
-29.57211405277299
 11
45.26425978822378
 21
-30.66748808383988
  0
LINE
  5
12F
100
AcDbEntity
  8
0
  6
ByLayer
 62
  256
370
   -1
100
AcDbLine
 10
45.26425978822378
 20
-30.66748808383988
 11
45.09026968164114
 21
-30.66748808383988
  0
SPLINE
  5
130
100
AcDbEntity
  8
0
  6
ByLayer
 62
  256
370
   -1
100
AcDbSpline
210
0
220
0
230
0
 70
    8
 71
    3
 72
    8
 73
    4
 74
    0
 42
1e-007
 43
1e-007
 40
0
 40
0
 40
0
 40
0
 40
1
 40
1
 40
1
 40
1
 10
45.09026968164113
 20
-30.66748808383988
 30
0
 10
44.83896840257314
 20
-30.66748808383988
 30
0
 10
44.28334340257314
 20
-30.84354322910357
 30
0
 10
43.85948119325307
 20
-31.05753695011186
 30
0
  0
SPLINE
  5
131
100
AcDbEntity
  8
0
  6
ByLayer
 62
  256
370
   -1
100
AcDbSpline
210
0
220
0
230
0
 70
    8
 71
    3
 72
    8
 73
    4
 74
    0
 42
1e-007
 43
1e-007
 40
0
 40
0
 40
0
 40
0
 40
1
 40
1
 40
1
 40
1
 10
43.85948119325307
 20
-31.05753695011186
 30
0
 10
41.92384231729177
 20
-32.03432810306596
 30
0
 10
42.3648497979131
 20
-34.43938963413287
 30
0
 10
44.4170113579717
 20
-34.09728357791948
 30
0
  0
SPLINE
  5
132
100
AcDbEntity
  8
0
  6
ByLayer
 62
  256
370
   -1
100
AcDbSpline
210
0
220
0
230
0
 70
    8
 71
    3
 72
    8
 73
    4
 74
    0
 42
1e-007
 43
1e-007
 40
0
 40
0
 40
0
 40
0
 40
1
 40
1
 40
1
 40
1
 10
44.4170113579717
 20
-34.09728357791948
 30
0
 10
44.62656130952504
 20
-34.06235838413286
 30
0
 10
44.81499699754384
 20
-34.03362467289018
 30
0
 10
44.83563527269033
 20
-34.03330492496538
 30
0
  0
SPLINE
  5
133
100
AcDbEntity
  8
0
  6
ByLayer
 62
  256
370
   -1
100
AcDbSpline
210
0
220
0
230
0
 70
    8
 71
    3
 72
    8
 73
    4
 74
    0
 42
1e-007
 43
1e-007
 40
0
 40
0
 40
0
 40
0
 40
1
 40
1
 40
1
 40
1
 10
44.83563527269033
 20
-34.03330492496538
 30
0
 10
44.85627233667043
 20
-34.03314989566851
 30
0
 10
44.9064376370397
 20
-34.14014433383989
 30
0
 10
44.94707711381581
 20
-34.2711150217061
 30
0
  0
SPLINE
  5
134
100
AcDbEntity
  8
0
  6
ByLayer
 62
  256
370
   -1
100
AcDbSpline
210
0
220
0
230
0
 70
    8
 71
    3
 72
    8
 73
    4
 74
    0
 42
1e-007
 43
1e-007
 40
0
 40
0
 40
0
 40
0
 40
1
 40
1
 40
1
 40
1
 10
44.94707711381581
 20
-34.2711150217061
 30
0
 10
45.32680684251454
 20
-35.49460138797808
 30
0
 10
46.62538189096119
 20
-35.86147337436724
 30
0
 10
47.43627716226247
 20
-34.97437635898638
 30
0
  0
LINE
  5
135
100
AcDbEntity
  8
0
  6
ByLayer
 62
  256
370
   -1
100
AcDbLine
 10
47.43627716226247
 20
-34.97437635898638
 11
47.6613845459905
 21
-34.72799604892778
  0
LINE
  5
136
100
AcDbEntity
  8
0
  6
ByLayer
 62
  256
370
   -1
100
AcDbLine
 10
47.6613845459905
 20
-34.72799604892778
 11
47.93633990449575
 21
-34.82499109745073
  0
SPLINE
  5
137
100
AcDbEntity
  8
0
  6
ByLayer
 62
  256
370
   -1
100
AcDbSpline
210
0
220
0
230
0
 70
    8
 71
    3
 72
    8
 73
    4
 74
    0
 42
1e-007
 43
1e-007
 40
0
 40
0
 40
0
 40
0
 40
1
 40
1
 40
1
 40
1
 10
47.93633990449575
 20
-34.82499109745073
 30
0
 10
49.41398469133047
 20
-35.34632555484819
 30
0
 10
50.35648409051564
 20
-33.64881289005326
 30
0
 10
49.35429477853445
 20
-32.27086405277299
 30
0
  0
SPLINE
  5
138
100
AcDbEntity
  8
0
  6
ByLayer
 62
  256
370
   -1
100
AcDbSpline
210
0
220
0
230
0
 70
    8
 71
    3
 72
    8
 73
    4
 74
    0
 42
1e-007
 43
1e-007
 40
0
 40
0
 40
0
 40
0
 40
1
 40
1
 40
1
 40
1
 10
49.35429477853445
 20
-32.27086405277299
 30
0
 10
49.17411318940786
 20
-32.02321444034624
 30
0
 10
48.98377233667043
 20
-31.71777765750932
 30
0
 10
48.93122588319449
 20
-31.5922087717061
 30
0
  0
SPLINE
  5
139
100
AcDbEntity
  8
0
  6
ByLayer
 62
  256
370
   -1
100
AcDbSpline
210
0
220
0
230
0
 70
    8
 71
    3
 72
    8
 73
    4
 74
    0
 42
1e-007
 43
1e-007
 40
0
 40
0
 40
0
 40
0
 40
1
 40
1
 40
1
 40
1
 10
48.93122588319449
 20
-31.5922087717061
 30
0
 10
48.77009473008779
 20
-31.20628756046343
 30
0
 10
48.38338020486501
 20
-31.16786936283159
 30
0
 10
48.09620054406789
 20
-31.50918089389848
 30
0
  0
SPLINE
  5
13A
100
AcDbEntity
  8
0
  6
ByLayer
 62
  256
370
   -1
100
AcDbSpline
210
0
220
0
230
0
 70
    8
 71
    3
 72
    8
 73
    4
 74
    0
 42
1e-007
 43
1e-007
 40
0
 40
0
 40
0
 40
0
 40
1
 40
1
 40
1
 40
1
 10
48.09620054406789
 20
-31.50918089389848
 30
0
 10
47.89855756921438
 20
-31.74397276401567
 30
0
 10
47.93030708474782
 20
-32.00051233768511
 30
0
 10
48.1922448269811
 20
-32.2867400217061
 30
0
  0
SPLINE
  5
13B
100
AcDbEntity
  8
0
  6
ByLayer
 62
  256
370
   -1
100
AcDbSpline
210
0
220
0
230
0
 70
    8
 71
    3
 72
    8
 73
    4
 74
    0
 42
1e-007
 43
1e-007
 40
0
 40
0
 40
0
 40
0
 40
1
 40
1
 40
1
 40
1
 10
48.1922448269811
 20
-32.2867400217061
 30
0
 10
48.68611608667044
 20
-32.82648905277299
 30
0
 10
48.83026063127187
 20
-33.08636175632525
 30
0
 10
48.83026063127187
 20
-33.43735777378129
 30
0
  0
SPLINE
  5
13C
100
AcDbEntity
  8
0
  6
ByLayer
 62
  256
370
   -1
100
AcDbSpline
210
0
220
0
230
0
 70
    8
 71
    3
 72
    8
 73
    4
 74
    0
 42
1e-007
 43
1e-007
 40
0
 40
0
 40
0
 40
0
 40
1
 40
1
 40
1
 40
1
 10
48.83026063127187
 20
-33.43735777378129
 30
0
 10
48.83026063127187
 20
-34.05997480869341
 30
0
 10
48.26844535989431
 20
-34.13840025425004
 30
0
 10
47.74441121263173
 20
-33.58880686283159
 30
0
  0
SPLINE
  5
13D
100
AcDbEntity
  8
0
  6
ByLayer
 62
  256
370
   -1
100
AcDbSpline
210
0
220
0
230
0
 70
    8
 71
    3
 72
    8
 73
    4
 74
    0
 42
1e-007
 43
1e-007
 40
0
 40
0
 40
0
 40
0
 40
1
 40
1
 40
1
 40
1
 10
47.74441121263173
 20
-33.58880686283159
 30
0
 10
47.22418739480641
 20
-33.04350100040483
 30
0
 10
46.61696912927297
 20
-33.22955553531693
 30
0
 10
46.8147707669225
 20
-33.87392027378129
 30
0
  0
SPLINE
  5
13E
100
AcDbEntity
  8
0
  6
ByLayer
 62
  256
370
   -1
100
AcDbSpline
210
0
220
0
230
0
 70
    8
 71
    3
 72
    8
 73
    4
 74
    0
 42
1e-007
 43
1e-007
 40
0
 40
0
 40
0
 40
0
 40
1
 40
1
 40
1
 40
1
 10
46.8147707669225
 20
-33.87392027378129
 30
0
 10
46.86811053437856
 20
-34.04791159153032
 30
0
 10
46.8577926079717
 20
-34.12347868442582
 30
0
 10
46.75651003045705
 20
-34.29746515750932
 30
0
  0
SPLINE
  5
13F
100
AcDbEntity
  8
0
  6
ByLayer
 62
  256
370
   -1
100
AcDbSpline
210
0
220
0
230
0
 70
    8
 71
    3
 72
    8
 73
    4
 74
    0
 42
1e-007
 43
1e-007
 40
0
 40
0
 40
0
 40
0
 40
1
 40
1
 40
1
 40
1
 10
46.75651003045705
 20
-34.29746515750932
 30
0
 10
46.43107204599049
 20
-34.85690290927934
 30
0
 10
45.84099905175832
 20
-34.38636476993608
 30
0
 10
45.68812199754384
 20
-33.44529818058061
 30
0
  0
SPLINE
  5
140
100
AcDbEntity
  8
0
  6
ByLayer
 62
  256
370
   -1
100
AcDbSpline
210
0
220
0
230
0
 70
    8
 71
    3
 72
    8
 73
    4
 74
    0
 42
1e-007
 43
1e-007
 40
0
 40
0
 40
0
 40
0
 40
1
 40
1
 40
1
 40
1
 10
45.68812199754384
 20
-33.44529818058061
 30
0
 10
45.60795368356374
 20
-32.95158316135453
 30
0
 10
45.36030407113699
 20
-32.87681059360551
 30
0
 10
44.5757613579717
 20
-33.10938360691118
 30
0
  0
SPLINE
  5
141
100
AcDbEntity
  8
0
  6
ByLayer
 62
  256
370
   -1
100
AcDbSpline
210
0
220
0
230
0
 70
    8
 71
    3
 72
    8
 73
    4
 74
    0
 42
1e-007
 43
1e-007
 40
0
 40
0
 40
0
 40
0
 40
1
 40
1
 40
1
 40
1
 10
44.5757613579717
 20
-33.10938360691118
 30
0
 10
43.9209176079717
 20
-33.30353357791948
 30
0
 10
43.51181830567982
 20
-33.14684740543413
 30
0
 10
43.57976352853444
 20
-32.72806482791948
 30
0
  0
SPLINE
  5
142
100
AcDbEntity
  8
0
  6
ByLayer
 62
  256
370
   -1
100
AcDbSpline
210
0
220
0
230
0
 70
    8
 71
    3
 72
    8
 73
    4
 74
    0
 42
1e-007
 43
1e-007
 40
0
 40
0
 40
0
 40
0
 40
1
 40
1
 40
1
 40
1
 10
43.57976352853444
 20
-32.72806482791948
 30
0
 10
43.6827926079717
 20
-32.09337973117876
 30
0
 10
44.30715614480641
 20
-31.6914275217061
 30
0
 10
45.30601111573843
 20
-31.61681482791948
 30
0
  0
SPLINE
  5
143
100
AcDbEntity
  8
0
  6
ByLayer
 62
  256
370
   -1
100
AcDbSpline
210
0
220
0
230
0
 70
    8
 71
    3
 72
    8
 73
    4
 74
    0
 42
1e-007
 43
1e-007
 40
0
 40
0
 40
0
 40
0
 40
1
 40
1
 40
1
 40
1
 10
45.30601111573843
 20
-31.61681482791948
 30
0
 10
46.4361528889623
 20
-31.53235777378129
 30
0
 10
46.43583435220387
 20
-31.53362707614946
 30
0
 10
45.8713193909612
 20
-29.31382797718095
 30
0
  0
SPLINE
  5
144
100
AcDbEntity
  8
0
  6
ByLayer
 62
  256
370
   -1
100
AcDbSpline
210
0
220
0
230
0
 70
    8
 71
    3
 72
    8
 73
    4
 74
    0
 42
1e-007
 43
1e-007
 40
0
 40
0
 40
0
 40
0
 40
1
 40
1
 40
1
 40
1
 10
45.8713193909612
 20
-29.31382797718095
 30
0
 10
45.70971224946645
 20
-28.67882797718095
 30
0
 10
45.54794644517568
 20
-28.10319935321855
 30
0
 10
45.51175073785451
 20
-28.03462069034624
 30
0
  0
SPLINE
  5
145
100
AcDbEntity
  8
0
  6
ByLayer
 62
  256
370
   -1
100
AcDbSpline
210
0
220
0
230
0
 70
    8
 71
    3
 72
    8
 73
    4
 74
    0
 42
1e-007
 43
1e-007
 40
0
 40
0
 40
0
 40
0
 40
1
 40
1
 40
1
 40
1
 10
45.51175073785451
 20
-28.03462069034624
 30
0
 10
45.44666386766103
 20
-27.91143053531694
 30
0
 10
45.4479331700292
 20
-27.91143053531694
 30
0
 10
45.62986126107839
 20
-28.03081036090898
 30
0
  0
SPLINE
  5
146
100
AcDbEntity
  8
0
  6
ByLayer
 62
  256
370
   -1
100
AcDbSpline
210
0
220
0
230
0
 70
    8
 71
    3
 72
    8
 73
    4
 74
    0
 42
1e-007
 43
1e-007
 40
0
 40
0
 40
0
 40
0
 40
1
 40
1
 40
1
 40
1
 10
45.62986126107839
 20
-28.03081036090898
 30
0
 10
47.06464408082631
 20
-28.97299122333574
 30
0
 10
47.87077583474782
 20
-29.15825365543413
 30
0
 10
47.96269246263173
 20
-28.56706881046343
 30
0
  0
SPLINE
  5
147
100
AcDbEntity
  8
0
  6
ByLayer
 62
  256
370
   -1
100
AcDbSpline
210
0
220
0
230
0
 70
    8
 71
    3
 72
    8
 73
    4
 74
    0
 42
1e-007
 43
1e-007
 40
0
 40
0
 40
0
 40
0
 40
1
 40
1
 40
1
 40
1
 10
47.96269246263173
 20
-28.56706881046343
 30
0
 10
48.00603162927297
 20
-28.28766726017045
 30
0
 10
47.88315879983571
 20
-28.16527163028764
 30
0
 10
47.25514359635977
 20
-27.86237587451982
 30
0
  0
SPLINE
  5
148
100
AcDbEntity
  8
0
  6
ByLayer
 62
  256
370
   -1
100
AcDbSpline
210
0
220
0
230
0
 70
    8
 71
    3
 72
    8
 73
    4
 74
    0
 42
1e-007
 43
1e-007
 40
0
 40
0
 40
0
 40
0
 40
1
 40
1
 40
1
 40
1
 10
47.25514359635977
 20
-27.86237587451982
 30
0
 10
46.6179211060491
 20
-27.55503756046343
 30
0
 10
45.56334521455434
 20
-26.92813299655962
 30
0
 10
45.60827100915578
 20
-26.8833658647542
 30
0
  0
SPLINE
  5
149
100
AcDbEntity
  8
0
  6
ByLayer
 62
  256
370
   -1
100
AcDbSpline
210
0
220
0
230
0
 70
    8
 71
    3
 72
    8
 73
    4
 74
    0
 42
1e-007
 43
1e-007
 40
0
 40
0
 40
0
 40
0
 40
1
 40
1
 40
1
 40
1
 10
45.60827100915578
 20
-26.8833658647542
 30
0
 10
45.62224060220387
 20
-26.8692363977437
 30
0
 10
45.80289817971853
 20
-26.89193850040483
 30
0
 10
46.00959098977712
 20
-26.93352995395708
 30
0
  0
SPLINE
  5
14A
100
AcDbEntity
  8
0
  6
ByLayer
 62
  256
370
   -1
100
AcDbSpline
210
0
220
0
230
0
 70
    8
 71
    3
 72
    8
 73
    4
 74
    0
 42
1e-007
 43
1e-007
 40
0
 40
0
 40
0
 40
0
 40
1
 40
1
 40
1
 40
1
 10
46.00959098977712
 20
-26.93352995395708
 30
0
 10
48.90693715257314
 20
-27.51661936283159
 30
0
 10
51.46439974946645
 20
-26.02865543842363
 30
0
 10
50.9603680149999
 20
-24.05348772525834
 30
0
  0
SPLINE
  5
14B
100
AcDbEntity
  8
0
  6
ByLayer
 62
  256
370
   -1
100
AcDbSpline
210
0
220
0
230
0
 70
    8
 71
    3
 72
    8
 73
    4
 74
    0
 42
1e-007
 43
1e-007
 40
0
 40
0
 40
0
 40
0
 40
1
 40
1
 40
1
 40
1
 10
50.9603680149999
 20
-24.05348772525834
 30
0
 10
50.24789817971852
 20
-21.26186790943193
 30
0
 10
44.56798203630116
 20
-19.57372240543413
 30
0
 10
42.13418558282521
 20
-21.43014494419145
 30
0
  0
SPLINE
  5
14C
100
AcDbEntity
  8
0
  6
ByLayer
 62
  256
370
   -1
100
AcDbSpline
210
0
220
0
230
0
 70
    8
 71
    3
 72
    8
 73
    4
 74
    0
 42
1e-007
 43
1e-007
 40
0
 40
0
 40
0
 40
0
 40
1
 40
1
 40
1
 40
1
 10
42.13418558282521
 20
-21.43014494419145
 30
0
 10
41.88209098977712
 20
-21.62239096164751
 30
0
 10
41.91130129499105
 20
-21.65159945011186
 30
0
 10
41.71635619325307
 20
-21.01167969226884
 30
0
  0
SPLINE
  5
14D
100
AcDbEntity
  8
0
  6
ByLayer
 62
  256
370
   -1
100
AcDbSpline
210
0
220
0
230
0
 70
    8
 71
    3
 72
    8
 73
    4
 74
    0
 42
1e-007
 43
1e-007
 40
0
 40
0
 40
0
 40
0
 40
1
 40
1
 40
1
 40
1
 10
41.71635619325307
 20
-21.01167969226884
 30
0
 10
41.04039878530172
 20
-18.79171829700517
 30
0
 10
42.07306770486501
 20
-15.46019199848222
 30
0
 10
44.0944305149999
 20
-13.33976667881059
 30
0
  0
SPLINE
  5
14E
100
AcDbEntity
  8
0
  6
ByLayer
 62
  256
370
   -1
100
AcDbSpline
210
0
220
0
230
0
 70
    8
 71
    3
 72
    8
 73
    4
 74
    0
 42
1e-007
 43
1e-007
 40
0
 40
0
 40
0
 40
0
 40
1
 40
1
 40
1
 40
1
 10
44.0944305149999
 20
-13.33976667881059
 30
0
 10
45.39062441033987
 20
-11.97991508960771
 30
0
 10
47.76377897424367
 20
-10.47702959537554
 30
0
 10
49.27428512735035
 20
-10.05919899463701
 30
0
  0
SPLINE
  5
14F
100
AcDbEntity
  8
0
  6
ByLayer
 62
  256
370
   -1
100
AcDbSpline
210
0
220
0
230
0
 70
    8
 71
    3
 72
    8
 73
    4
 74
    0
 42
1e-007
 43
1e-007
 40
0
 40
0
 40
0
 40
0
 40
1
 40
1
 40
1
 40
1
 10
49.27428512735035
 20
-10.05919899463701
 30
0
 10
49.60575472039846
 20
-9.967441029549118
 30
0
 10
49.89515566033987
 20
-9.863142647743699
 30
0
 10
49.91722190065053
 20
-9.827424139976975
 30
0
  0
SPLINE
  5
150
100
AcDbEntity
  8
0
  6
ByLayer
 62
  256
370
   -1
100
AcDbSpline
210
0
220
0
230
0
 70
    8
 71
    3
 72
    8
 73
    4
 74
    0
 42
1e-007
 43
1e-007
 40
0
 40
0
 40
0
 40
0
 40
1
 40
1
 40
1
 40
1
 10
49.91722190065053
 20
-9.827424139976975
 30
0
 10
50.04469837350514
 20
-9.621207318306443
 30
0
 10
52.68772624177602
 20
-8.961125273705001
 30
0
 10
53.92359557313588
 20
-8.826981329918379
 30
0
  0
SPLINE
  5
151
100
AcDbEntity
  8
0
  6
ByLayer
 62
  256
370
   -1
100
AcDbSpline
210
0
220
0
230
0
 70
    8
 71
    3
 72
    8
 73
    4
 74
    0
 42
1e-007
 43
1e-007
 40
0
 40
0
 40
0
 40
0
 40
1
 40
1
 40
1
 40
1
 10
53.92359557313588
 20
-8.826981329918379
 30
0
 10
56.73458193940785
 20
-8.521705632210249
 30
0
 10
60.82795127076772
 20
-9.248779711723801
 30
0
 10
62.92726111573842
 20
-10.42607098102617
 30
0
  0
SPLINE
  5
152
100
AcDbEntity
  8
0
  6
ByLayer
 62
  256
370
   -1
100
AcDbSpline
210
0
220
0
230
0
 70
    8
 71
    3
 72
    8
 73
    4
 74
    0
 42
1e-007
 43
1e-007
 40
0
 40
0
 40
0
 40
0
 40
1
 40
1
 40
1
 40
1
 10
62.92726111573842
 20
-10.42607098102617
 30
0
 10
66.1268671719518
 20
-12.2205811166768
 30
0
 10
69.43394728822378
 20
-16.62509909153032
 30
0
 10
69.39711814088491
 20
-19.04302078723955
 30
0
  0
SPLINE
  5
153
100
AcDbEntity
  8
0
  6
ByLayer
 62
  256
370
   -1
100
AcDbSpline
210
0
220
0
230
0
 70
    8
 71
    3
 72
    8
 73
    4
 74
    0
 42
1e-007
 43
1e-007
 40
0
 40
0
 40
0
 40
0
 40
1
 40
1
 40
1
 40
1
 10
69.39711814088491
 20
-19.04302078723955
 30
0
 10
69.39187863511708
 20
-19.38480951786088
 30
0
 10
69.41839106721547
 20
-19.52435041904497
 30
0
 10
69.51411681337026
 20
-19.66246214389848
 30
0
  0
SPLINE
  5
154
100
AcDbEntity
  8
0
  6
ByLayer
 62
  256
370
   -1
100
AcDbSpline
210
0
220
0
230
0
 70
    8
 71
    3
 72
    8
 73
    4
 74
    0
 42
1e-007
 43
1e-007
 40
0
 40
0
 40
0
 40
0
 40
1
 40
1
 40
1
 40
1
 10
69.51411681337026
 20
-19.66246214389848
 30
0
 10
69.69921937150625
 20
-19.92900352954912
 30
0
 10
70.14832228822378
 20
-22.26913685321855
 30
0
 10
70.3893056408849
 20
-24.22223953723955
 30
0
  0
SPLINE
  5
155
100
AcDbEntity
  8
0
  6
ByLayer
 62
  256
370
   -1
100
AcDbSpline
210
0
220
0
230
0
 70
    8
 71
    3
 72
    8
 73
    4
 74
    0
 42
1e-007
 43
1e-007
 40
0
 40
0
 40
0
 40
0
 40
1
 40
1
 40
1
 40
1
 10
70.3893056408849
 20
-24.22223953723955
 30
0
 10
70.44534388703968
 20
-24.67626463413286
 30
0
 10
70.5304331700292
 20
-25.21918934345292
 30
0
 10
70.57869330567983
 20
-25.42873808383989
 30
0
  0
SPLINE
  5
156
100
AcDbEntity
  8
0
  6
ByLayer
 62
  256
370
   -1
100
AcDbSpline
210
0
220
0
230
0
 70
    8
 71
    3
 72
    8
 73
    4
 74
    0
 42
1e-007
 43
1e-007
 40
0
 40
0
 40
0
 40
0
 40
1
 40
1
 40
1
 40
1
 10
70.57869330567983
 20
-25.42873808383989
 30
0
 10
70.62679598970082
 20
-25.63828924655962
 30
0
 10
70.68537284059194
 20
-26.00976366519976
 30
0
 10
70.70870959443715
 20
-26.2542400217061
 30
0
  0
SPLINE
  5
157
100
AcDbEntity
  8
0
  6
ByLayer
 62
  256
370
   -1
100
AcDbSpline
210
0
220
0
230
0
 70
    8
 71
    3
 72
    8
 73
    4
 74
    0
 42
1e-007
 43
1e-007
 40
0
 40
0
 40
0
 40
0
 40
1
 40
1
 40
1
 40
1
 10
70.70870959443715
 20
-26.2542400217061
 30
0
 10
70.82475629014638
 20
-27.4702631807332
 30
0
 10
71.63501691026357
 20
-27.54900352954912
 30
0
 10
73.66479369325307
 20
-26.54141726017045
 30
0
  0
SPLINE
  5
158
100
AcDbEntity
  8
0
  6
ByLayer
 62
  256
370
   -1
100
AcDbSpline
210
0
220
0
230
0
 70
    8
 71
    3
 72
    8
 73
    4
 74
    0
 42
1e-007
 43
1e-007
 40
0
 40
0
 40
0
 40
0
 40
1
 40
1
 40
1
 40
1
 10
73.66479369325307
 20
-26.54141726017045
 30
0
 10
75.35024314088491
 20
-25.70480650425004
 30
0
 10
76.13034087342885
 20
-24.93280420780229
 30
0
 10
76.64992640657094
 20
-23.58723953723955
 30
0
  0
SPLINE
  5
159
100
AcDbEntity
  8
0
  6
ByLayer
 62
  256
370
   -1
100
AcDbSpline
210
0
220
0
230
0
 70
    8
 71
    3
 72
    8
 73
    4
 74
    0
 42
1e-007
 43
1e-007
 40
0
 40
0
 40
0
 40
0
 40
1
 40
1
 40
1
 40
1
 10
76.64992640657094
 20
-23.58723953723955
 30
0
 10
77.46050677461294
 20
-21.48808714389848
 30
0
 10
76.14716639680532
 20
-18.16576813221025
 30
0
 10
74.12532759828237
 20
-17.20088516712236
 30
0
  0
SPLINE
  5
15A
100
AcDbEntity
  8
0
  6
ByLayer
 62
  256
370
   -1
100
AcDbSpline
210
0
220
0
230
0
 70
    8
 71
    3
 72
    8
 73
    4
 74
    0
 42
1e-007
 43
1e-007
 40
0
 40
0
 40
0
 40
0
 40
1
 40
1
 40
1
 40
1
 10
74.12532759828237
 20
-17.20088516712236
 30
0
 10
73.75829573793081
 20
-17.02578442096758
 30
0
 10
73.70257723970083
 20
-16.97244465351152
 30
0
 10
73.53128440065053
 20
-16.63303707599687
 30
0
  0
SPLINE
  5
15B
100
AcDbEntity
  8
0
  6
ByLayer
 62
  256
370
   -1
100
AcDbSpline
210
0
220
0
230
0
 70
    8
 71
    3
 72
    8
 73
    4
 74
    0
 42
1e-007
 43
1e-007
 40
0
 40
0
 40
0
 40
0
 40
1
 40
1
 40
1
 40
1
 10
73.53128440065053
 20
-16.63303707599687
 30
0
 10
72.68117640657094
 20
-14.9490168046956
 30
0
 10
71.53405165834096
 20
-13.41406204700517
 30
0
 10
69.96195042771961
 20
-11.85704226017045
 30
0
  0
LINE
  5
15C
100
AcDbEntity
  8
0
  6
ByLayer
 62
  256
370
   -1
100
AcDbLine
 10
69.96195042771963
 20
-11.85704226017045
 11
68.95356963319448
 21
-10.85818850040483
  0
LINE
  5
15D
100
AcDbEntity
  8
0
  6
ByLayer
 62
  256
370
   -1
100
AcDbLine
 10
68.95356963319448
 20
-10.85818850040483
 11
69.67112031144765
 21
-11.10599556446123
  0
SPLINE
  5
15E
100
AcDbEntity
  8
0
  6
ByLayer
 62
  256
370
   -1
100
AcDbSpline
210
0
220
0
230
0
 70
    8
 71
    3
 72
    8
 73
    4
 74
    0
 42
1e-007
 43
1e-007
 40
0
 40
0
 40
0
 40
0
 40
1
 40
1
 40
1
 40
1
 10
69.67112031144765
 20
-11.10599556446123
 30
0
 10
75.04480635804799
 20
-12.96210077762651
 30
0
 10
80.04241797608998
 20
-17.47250618457841
 30
0
 10
81.46036921662954
 20
-21.74621576786088
 30
0
  0
SPLINE
  5
15F
100
AcDbEntity
  8
0
  6
ByLayer
 62
  256
370
   -1
100
AcDbSpline
210
0
220
0
230
0
 70
    8
 71
    3
 72
    8
 73
    4
 74
    0
 42
1e-007
 43
1e-007
 40
0
 40
0
 40
0
 40
0
 40
1
 40
1
 40
1
 40
1
 10
81.46036921662954
 20
-21.74621576786088
 30
0
 10
82.62607325715689
 20
-25.25967136859941
 30
0
 10
82.20745055360464
 20
-29.7226087427144
 30
0
 10
80.48580660981801
 20
-32.13354685306597
 30
0
  0
SPLINE
  5
160
100
AcDbEntity
  8
0
  6
ByLayer
 62
  256
370
   -1
100
AcDbSpline
210
0
220
0
230
0
 70
    8
 71
    3
 72
    8
 73
    4
 74
    0
 42
1e-007
 43
1e-007
 40
0
 40
0
 40
0
 40
0
 40
1
 40
1
 40
1
 40
1
 10
80.48580660981801
 20
-32.13354685306597
 30
0
 10
80.11417231721549
 20
-32.65392691135454
 30
0
 10
80.02828608674673
 20
-32.92856615543413
 30
0
 10
80.0925796429601
 20
-33.39004961490679
 30
0
  0
SPLINE
  5
161
100
AcDbEntity
  8
0
  6
ByLayer
 62
  256
370
   -1
100
AcDbSpline
210
0
220
0
230
0
 70
    8
 71
    3
 72
    8
 73
    4
 74
    0
 42
1e-007
 43
1e-007
 40
0
 40
0
 40
0
 40
0
 40
1
 40
1
 40
1
 40
1
 10
80.0925796429601
 20
-33.39004961490679
 30
0
 10
80.14893763703969
 20
-33.7950248956685
 30
0
 10
80.08781733674672
 20
-34.09648905277299
 30
0
 10
79.94907096070912
 20
-34.09648905277299
 30
0
  0
SPLINE
  5
162
100
AcDbEntity
  8
0
  6
ByLayer
 62
  256
370
   -1
100
AcDbSpline
210
0
220
0
230
0
 70
    8
 71
    3
 72
    8
 73
    4
 74
    0
 42
1e-007
 43
1e-007
 40
0
 40
0
 40
0
 40
0
 40
1
 40
1
 40
1
 40
1
 10
79.94907096070912
 20
-34.09648905277299
 30
0
 10
79.87954032106069
 20
-34.09648905277299
 30
0
 10
79.69126208467154
 20
-33.51546347141313
 30
0
 10
79.69126208467154
 20
-33.30099497318315
 30
0
  0
SPLINE
  5
163
100
AcDbEntity
  8
0
  6
ByLayer
 62
  256
370
   -1
100
AcDbSpline
210
0
220
0
230
0
 70
    8
 71
    3
 72
    8
 73
    4
 74
    0
 42
1e-007
 43
1e-007
 40
0
 40
0
 40
0
 40
0
 40
1
 40
1
 40
1
 40
1
 10
79.69126208467154
 20
-33.30099497318315
 30
0
 10
79.69126208467154
 20
-32.98873205661821
 30
0
 10
79.34550315065053
 20
-32.78346842289018
 30
0
 10
79.03689311189321
 20
-32.91253031253862
 30
0
  0
SPLINE
  5
164
100
AcDbEntity
  8
0
  6
ByLayer
 62
  256
370
   -1
100
AcDbSpline
210
0
220
0
230
0
 70
    8
 71
    3
 72
    8
 73
    4
 74
    0
 42
1e-007
 43
1e-007
 40
0
 40
0
 40
0
 40
0
 40
1
 40
1
 40
1
 40
1
 10
79.03689311189321
 20
-32.91253031253862
 30
0
 10
78.82543799562123
 20
-33.0009551477437
 30
0
 10
78.795275108048
 20
-33.04635935306597
 30
0
 10
78.51079634828237
 20
-33.70278730869341
 30
0
  0
SPLINE
  5
165
100
AcDbEntity
  8
0
  6
ByLayer
 62
  256
370
   -1
100
AcDbSpline
210
0
220
0
230
0
 70
    8
 71
    3
 72
    8
 73
    4
 74
    0
 42
1e-007
 43
1e-007
 40
0
 40
0
 40
0
 40
0
 40
1
 40
1
 40
1
 40
1
 10
78.51079634828237
 20
-33.70278730869341
 30
0
 10
78.3588724820104
 20
-34.05362829685259
 30
0
 10
78.21472914857534
 20
-34.22348711490678
 30
0
 10
78.06867701692251
 20
-34.22348711490678
 30
0
  0
SPLINE
  5
166
100
AcDbEntity
  8
0
  6
ByLayer
 62
  256
370
   -1
100
AcDbSpline
210
0
220
0
230
0
 70
    8
 71
    3
 72
    8
 73
    4
 74
    0
 42
1e-007
 43
1e-007
 40
0
 40
0
 40
0
 40
0
 40
1
 40
1
 40
1
 40
1
 10
78.06867701692251
 20
-34.22348711490678
 30
0
 10
78.04486548585561
 20
-34.22348711490678
 30
0
 10
78.04486548585561
 20
-33.98711103916216
 30
0
 10
78.06899676484731
 20
-33.69802500248003
 30
0
  0
SPLINE
  5
167
100
AcDbEntity
  8
0
  6
ByLayer
 62
  256
370
   -1
100
AcDbSpline
210
0
220
0
230
0
 70
    8
 71
    3
 72
    8
 73
    4
 74
    0
 42
1e-007
 43
1e-007
 40
0
 40
0
 40
0
 40
0
 40
1
 40
1
 40
1
 40
1
 10
78.06899676484731
 20
-33.69802500248003
 30
0
 10
78.14233531160025
 20
-32.81696444034623
 30
0
 10
77.99438407106069
 20
-32.72282289981889
 30
0
 10
76.89154441041616
 20
-32.94904455661821
 30
0
  0
SPLINE
  5
168
100
AcDbEntity
  8
0
  6
ByLayer
 62
  256
370
   -1
100
AcDbSpline
210
0
220
0
230
0
 70
    8
 71
    3
 72
    8
 73
    4
 74
    0
 42
1e-007
 43
1e-007
 40
0
 40
0
 40
0
 40
0
 40
1
 40
1
 40
1
 40
1
 10
76.89154441041616
 20
-32.94904455661821
 30
0
 10
76.56293559236195
 20
-33.016511368752
 30
0
 10
76.12256034059195
 20
-33.0917587137227
 30
0
 10
75.91300917787221
 20
-33.11636476993608
 30
0
  0
LINE
  5
169
100
AcDbEntity
  8
0
  6
ByLayer
 62
  256
370
   -1
100
AcDbLine
 10
75.91300917787221
 20
-33.11636476993608
 11
75.53201014680531
 21
-33.16097445011187
  0
LINE
  5
16A
100
AcDbEntity
  8
0
  6
ByLayer
 62
  256
370
   -1
100
AcDbLine
 10
75.53201014680531
 20
-33.16097445011187
 11
75.6561547009435
 21
-33.02190832614946
  0
SPLINE
  5
16B
100
AcDbEntity
  8
0
  6
ByLayer
 62
  256
370
   -1
100
AcDbSpline
210
0
220
0
230
0
 70
    8
 71
    3
 72
    8
 73
    4
 74
    0
 42
1e-007
 43
1e-007
 40
0
 40
0
 40
0
 40
0
 40
1
 40
1
 40
1
 40
1
 10
75.6561547009435
 20
-33.02190832614946
 30
0
 10
75.80109255952505
 20
-32.85967016696978
 30
0
 10
77.10665240449575
 20
-32.191489052773
 30
0
 10
77.27889479798941
 20
-32.191489052773
 30
0
  0
SPLINE
  5
16C
100
AcDbEntity
  8
0
  6
ByLayer
 62
  256
370
   -1
100
AcDbSpline
210
0
220
0
230
0
 70
    8
 71
    3
 72
    8
 73
    4
 74
    0
 42
1e-007
 43
1e-007
 40
0
 40
0
 40
0
 40
0
 40
1
 40
1
 40
1
 40
1
 10
77.27889479798941
 20
-32.191489052773
 30
0
 10
77.48098517579702
 20
-32.191489052773
 30
0
 10
77.66164275331167
 20
-31.8936729288106
 30
0
 10
77.62005129975942
 20
-31.62903791904497
 30
0
  0
SPLINE
  5
16D
100
AcDbEntity
  8
0
  6
ByLayer
 62
  256
370
   -1
100
AcDbSpline
210
0
220
0
230
0
 70
    8
 71
    3
 72
    8
 73
    4
 74
    0
 42
1e-007
 43
1e-007
 40
0
 40
0
 40
0
 40
0
 40
1
 40
1
 40
1
 40
1
 10
77.62005129975942
 20
-31.62903791904497
 30
0
 10
77.57305804414418
 20
-31.32979261875199
 30
0
 10
77.52226172608998
 20
-31.27311972141313
 30
0
 10
77.00362574739125
 20
-30.94037840366411
 30
0
  0
SPLINE
  5
16E
100
AcDbEntity
  8
0
  6
ByLayer
 62
  256
370
   -1
100
AcDbSpline
210
0
220
0
230
0
 70
    8
 71
    3
 72
    8
 73
    4
 74
    0
 42
1e-007
 43
1e-007
 40
0
 40
0
 40
0
 40
0
 40
1
 40
1
 40
1
 40
1
 10
77.00362574739125
 20
-30.94037840366411
 30
0
 10
75.87967303437856
 20
-30.21901981830644
 30
0
 10
75.83681227845814
 20
-27.47883581638384
 30
0
 10
76.93345561189321
 20
-26.44457966327714
 30
0
  0
SPLINE
  5
16F
100
AcDbEntity
  8
0
  6
ByLayer
 62
  256
370
   -1
100
AcDbSpline
210
0
220
0
230
0
 70
    8
 71
    3
 72
    8
 73
    4
 74
    0
 42
1e-007
 43
1e-007
 40
0
 40
0
 40
0
 40
0
 40
1
 40
1
 40
1
 40
1
 10
76.93345561189321
 20
-26.44457966327714
 30
0
 10
77.27540179414419
 20
-26.12215990543412
 30
0
 10
77.12300315065053
 20
-25.65098953723955
 30
0
 10
76.67659629029897
 20
-25.65098953723955
 30
0
  0
SPLINE
  5
170
100
AcDbEntity
  8
0
  6
ByLayer
 62
  256
370
   -1
100
AcDbSpline
210
0
220
0
230
0
 70
    8
 71
    3
 72
    8
 73
    4
 74
    0
 42
1e-007
 43
1e-007
 40
0
 40
0
 40
0
 40
0
 40
1
 40
1
 40
1
 40
1
 10
76.67659629029897
 20
-25.65098953723955
 30
0
 10
75.92745597047475
 20
-25.65098953723955
 30
0
 10
75.13545489473012
 20
-27.4288291788106
 30
0
 10
75.19292231721548
 20
-28.98108665943193
 30
0
  0
SPLINE
  5
171
100
AcDbEntity
  8
0
  6
ByLayer
 62
  256
370
   -1
100
AcDbSpline
210
0
220
0
230
0
 70
    8
 71
    3
 72
    8
 73
    4
 74
    0
 42
1e-007
 43
1e-007
 40
0
 40
0
 40
0
 40
0
 40
1
 40
1
 40
1
 40
1
 10
75.19292231721548
 20
-28.98108665943193
 30
0
 10
75.21244631929066
 20
-29.5068685197835
 30
0
 10
75.19895392579701
 20
-29.65609390735674
 30
0
 10
75.13005793733267
 20
-29.68244646549272
 30
0
  0
SPLINE
  5
172
100
AcDbEntity
  8
0
  6
ByLayer
 62
  256
370
   -1
100
AcDbSpline
210
0
220
0
230
0
 70
    8
 71
    3
 72
    8
 73
    4
 74
    0
 42
1e-007
 43
1e-007
 40
0
 40
0
 40
0
 40
0
 40
1
 40
1
 40
1
 40
1
 10
75.13005793733267
 20
-29.68244646549272
 30
0
 10
75.02432795686391
 20
-29.72308594226885
 30
0
 10
73.03392134828238
 20
-29.93311188221025
 30
0
 10
71.23972853822377
 20
-30.09313118457841
 30
0
  0
SPLINE
  5
173
100
AcDbEntity
  8
0
  6
ByLayer
 62
  256
370
   -1
100
AcDbSpline
210
0
220
0
230
0
 70
    8
 71
    3
 72
    8
 73
    4
 74
    0
 42
1e-007
 43
1e-007
 40
0
 40
0
 40
0
 40
0
 40
1
 40
1
 40
1
 40
1
 10
71.23972853822377
 20
-30.09313118457841
 30
0
 10
70.520431358048
 20
-30.15726728916215
 30
0
 10
69.87749579591421
 20
-30.24124472141313
 30
0
 10
69.81097853822378
 20
-30.27982037067461
 30
0
  0
SPLINE
  5
174
100
AcDbEntity
  8
0
  6
ByLayer
 62
  256
370
   -1
100
AcDbSpline
210
0
220
0
230
0
 70
    8
 71
    3
 72
    8
 73
    4
 74
    0
 42
1e-007
 43
1e-007
 40
0
 40
0
 40
0
 40
0
 40
1
 40
1
 40
1
 40
1
 10
69.81097853822378
 20
-30.27982037067461
 30
0
 10
69.74446128053334
 20
-30.31839844226884
 30
0
 10
69.6128583638158
 20
-30.37729504108476
 30
0
 10
69.51871924562124
 20
-30.41063118457841
 30
0
  0
SPLINE
  5
175
100
AcDbEntity
  8
0
  6
ByLayer
 62
  256
370
   -1
100
AcDbSpline
210
0
220
0
230
0
 70
    8
 71
    3
 72
    8
 73
    4
 74
    0
 42
1e-007
 43
1e-007
 40
0
 40
0
 40
0
 40
0
 40
1
 40
1
 40
1
 40
1
 10
69.51871924562124
 20
-30.41063118457841
 30
0
 10
69.19566241426138
 20
-30.52509125232744
 30
0
 10
69.1570867649999
 20
-30.66907713413286
 30
0
 10
69.14534087342885
 20
-31.80890097141313
 30
0
  0
LINE
  5
176
100
AcDbEntity
  8
0
  6
ByLayer
 62
  256
370
   -1
100
AcDbLine
 10
69.14534087342885
 20
-31.80890097141313
 11
69.13438708467152
 21
-32.854747986794
  0
LINE
  5
177
100
AcDbEntity
  8
0
  6
ByLayer
 62
  256
370
   -1
100
AcDbLine
 10
69.13438708467152
 20
-32.854747986794
 11
69.36457410020498
 21
-33.05366026401567
  0
SPLINE
  5
178
100
AcDbEntity
  8
0
  6
ByLayer
 62
  256
370
   -1
100
AcDbSpline
210
0
220
0
230
0
 70
    8
 71
    3
 72
    8
 73
    4
 74
    0
 42
1e-007
 43
1e-007
 40
0
 40
0
 40
0
 40
0
 40
1
 40
1
 40
1
 40
1
 10
69.36457410020498
 20
-33.05366026401568
 30
0
 10
69.92559605760243
 20
-33.53864035129594
 30
0
 10
69.50348035020498
 20
-34.14745008945513
 30
0
 10
68.9092797009435
 20
-33.71040796756792
 30
0
  0
SPLINE
  5
179
100
AcDbEntity
  8
0
  6
ByLayer
 62
  256
370
   -1
100
AcDbSpline
210
0
220
0
230
0
 70
    8
 71
    3
 72
    8
 73
    4
 74
    0
 42
1e-007
 43
1e-007
 40
0
 40
0
 40
0
 40
0
 40
1
 40
1
 40
1
 40
1
 10
68.9092797009435
 20
-33.71040796756792
 30
0
 10
68.42969414872792
 20
-33.35766787052201
 30
0
 10
67.95122286958363
 20
-33.69644079685258
 30
0
 10
68.17855153245596
 20
-34.22793451786089
 30
0
  0
SPLINE
  5
17A
100
AcDbEntity
  8
0
  6
ByLayer
 62
  256
370
   -1
100
AcDbSpline
210
0
220
0
230
0
 70
    8
 71
    3
 72
    8
 73
    4
 74
    0
 42
1e-007
 43
1e-007
 40
0
 40
0
 40
0
 40
0
 40
1
 40
1
 40
1
 40
1
 10
68.17855153245596
 20
-34.22793451786089
 30
0
 10
68.28284991426138
 20
-34.47193125248003
 30
0
 10
68.26078488511709
 20
-35.01136538028764
 30
0
 10
68.14140505952506
 20
-35.13074762821245
 30
0
  0
SPLINE
  5
17B
100
AcDbEntity
  8
0
  6
ByLayer
 62
  256
370
   -1
100
AcDbSpline
210
0
220
0
230
0
 70
    8
 71
    3
 72
    8
 73
    4
 74
    0
 42
1e-007
 43
1e-007
 40
0
 40
0
 40
0
 40
0
 40
1
 40
1
 40
1
 40
1
 10
68.14140505952506
 20
-35.13074762821245
 30
0
 10
67.96106480760244
 20
-35.31108545780229
 30
0
 10
67.60705298585562
 20
-34.76577959537553
 30
0
 10
67.54069560212758
 20
-34.20539228916216
 30
0
  0
SPLINE
  5
17C
100
AcDbEntity
  8
0
  6
ByLayer
 62
  256
370
   -1
100
AcDbSpline
210
0
220
0
230
0
 70
    8
 71
    3
 72
    8
 73
    4
 74
    0
 42
1e-007
 43
1e-007
 40
0
 40
0
 40
0
 40
0
 40
1
 40
1
 40
1
 40
1
 10
67.54069560212758
 20
-34.20539228916216
 30
0
 10
67.45989142579701
 20
-33.52324400425005
 30
0
 10
67.07650881929067
 20
-33.41052801609087
 30
0
 10
66.54215674562124
 20
-33.91186369419145
 30
0
  0
SPLINE
  5
17D
100
AcDbEntity
  8
0
  6
ByLayer
 62
  256
370
   -1
100
AcDbSpline
210
0
220
0
230
0
 70
    8
 71
    3
 72
    8
 73
    4
 74
    0
 42
1e-007
 43
1e-007
 40
0
 40
0
 40
0
 40
0
 40
1
 40
1
 40
1
 40
1
 10
66.54215674562124
 20
-33.91186369419145
 30
0
 10
65.95351292771963
 20
-34.46415556430864
 30
0
 10
65.36883689088491
 20
-34.63623808383989
 30
0
 10
64.83400761766103
 20
-34.41462370395708
 30
0
  0
SPLINE
  5
17E
100
AcDbEntity
  8
0
  6
ByLayer
 62
  256
370
   -1
100
AcDbSpline
210
0
220
0
230
0
 70
    8
 71
    3
 72
    8
 73
    4
 74
    0
 42
1e-007
 43
1e-007
 40
0
 40
0
 40
0
 40
0
 40
1
 40
1
 40
1
 40
1
 10
64.83400761766103
 20
-34.41462370395708
 30
0
 10
64.24980635804799
 20
-34.17269079685259
 30
0
 10
64.97989745301869
 20
-33.28622843265581
 30
0
 10
66.06701859635976
 20
-32.91761236667681
 30
0
  0
SPLINE
  5
17F
100
AcDbEntity
  8
0
  6
ByLayer
 62
  256
370
   -1
100
AcDbSpline
210
0
220
0
230
0
 70
    8
 71
    3
 72
    8
 73
    4
 74
    0
 42
1e-007
 43
1e-007
 40
0
 40
0
 40
0
 40
0
 40
1
 40
1
 40
1
 40
1
 10
66.06701859635976
 20
-32.91761236667681
 30
0
 10
66.92966700715688
 20
-32.62503332614946
 30
0
 10
66.95951014680531
 20
-32.57693548679399
 30
0
 10
66.95951014680531
 20
-31.4728265237813
 30
0
  0
SPLINE
  5
180
100
AcDbEntity
  8
0
  6
ByLayer
 62
  256
370
   -1
100
AcDbSpline
210
0
220
0
230
0
 70
    8
 71
    3
 72
    8
 73
    4
 74
    0
 42
1e-007
 43
1e-007
 40
0
 40
0
 40
0
 40
0
 40
1
 40
1
 40
1
 40
1
 10
66.95951014680531
 20
-31.4728265237813
 30
0
 10
66.95951014680531
 20
-30.18822227954912
 30
0
 10
66.84663912934926
 20
-29.83913263797808
 30
0
 10
66.43309605760244
 20
-29.84405239582109
 30
0
  0
SPLINE
  5
181
100
AcDbEntity
  8
0
  6
ByLayer
 62
  256
370
   -1
100
AcDbSpline
210
0
220
0
230
0
 70
    8
 71
    3
 72
    8
 73
    4
 74
    0
 42
1e-007
 43
1e-007
 40
0
 40
0
 40
0
 40
0
 40
1
 40
1
 40
1
 40
1
 10
66.43309605760244
 20
-29.84405239582109
 30
0
 10
66.04146056337026
 20
-29.84865725040483
 30
0
 10
66.00701014680531
 20
-29.94136719226884
 30
0
 10
66.00701014680531
 20
-30.98975039005327
 30
0
  0
LINE
  5
182
100
AcDbEntity
  8
0
  6
ByLayer
 62
  256
370
   -1
100
AcDbLine
 10
66.00701014680531
 20
-30.98975039005327
 11
66.00701014680531
 21
-31.94082121372271
  0
LINE
  5
183
100
AcDbEntity
  8
0
  6
ByLayer
 62
  256
370
   -1
100
AcDbLine
 10
66.00701014680531
 20
-31.94082121372271
 11
65.48377173585561
 21
-32.15243620395708
  0
SPLINE
  5
184
100
AcDbEntity
  8
0
  6
ByLayer
 62
  256
370
   -1
100
AcDbSpline
210
0
220
0
230
0
 70
    8
 71
    3
 72
    8
 73
    4
 74
    0
 42
1e-007
 43
1e-007
 40
0
 40
0
 40
0
 40
0
 40
1
 40
1
 40
1
 40
1
 10
65.48377173585561
 20
-32.15243620395707
 30
0
 10
64.69097371263173
 20
-32.47310945987749
 30
0
 10
64.08169161958364
 20
-33.0125435876851
 30
0
 10
63.80086331529286
 20
-33.64262140750932
 30
0
  0
SPLINE
  5
185
100
AcDbEntity
  8
0
  6
ByLayer
 62
  256
370
   -1
100
AcDbSpline
210
0
220
0
230
0
 70
    8
 71
    3
 72
    8
 73
    4
 74
    0
 42
1e-007
 43
1e-007
 40
0
 40
0
 40
0
 40
0
 40
1
 40
1
 40
1
 40
1
 10
63.80086331529286
 20
-33.64262140750932
 30
0
 10
63.17935570878652
 20
-35.03644621372271
 30
0
 10
65.01482264680531
 20
-36.0133972406392
 30
0
 10
66.53421876115468
 20
-35.09740664005327
 30
0
  0
SPLINE
  5
186
100
AcDbEntity
  8
0
  6
ByLayer
 62
  256
370
   -1
100
AcDbSpline
210
0
220
0
230
0
 70
    8
 71
    3
 72
    8
 73
    4
 74
    0
 42
1e-007
 43
1e-007
 40
0
 40
0
 40
0
 40
0
 40
1
 40
1
 40
1
 40
1
 10
66.53421876115468
 20
-35.09740664005327
 30
0
 10
66.64963080567983
 20
-35.02787600040483
 30
0
 10
66.75313708467152
 20
-34.98136236667681
 30
0
 10
66.76456565065054
 20
-34.99406023502397
 30
0
  0
SPLINE
  5
187
100
AcDbEntity
  8
0
  6
ByLayer
 62
  256
370
   -1
100
AcDbSpline
210
0
220
0
230
0
 70
    8
 71
    3
 72
    8
 73
    4
 74
    0
 42
1e-007
 43
1e-007
 40
0
 40
0
 40
0
 40
0
 40
1
 40
1
 40
1
 40
1
 10
66.76456565065054
 20
-34.99406023502397
 30
0
 10
66.77583676499989
 20
-35.00676294803667
 30
0
 10
66.8452099530187
 20
-35.1315373086934
 30
0
 10
66.91855334443716
 20
-35.27123808383989
 30
0
  0
SPLINE
  5
188
100
AcDbEntity
  8
0
  6
ByLayer
 62
  256
370
   -1
100
AcDbSpline
210
0
220
0
230
0
 70
    8
 71
    3
 72
    8
 73
    4
 74
    0
 42
1e-007
 43
1e-007
 40
0
 40
0
 40
0
 40
0
 40
1
 40
1
 40
1
 40
1
 10
66.91855334443716
 20
-35.27123808383989
 30
0
 10
67.52212115449575
 20
-36.42090628147173
 30
0
 10
68.80466157121327
 20
-36.35185041904496
 30
0
 10
69.1670885769811
 20
-35.14995188236284
 30
0
  0
SPLINE
  5
189
100
AcDbEntity
  8
0
  6
ByLayer
 62
  256
370
   -1
100
AcDbSpline
210
0
220
0
230
0
 70
    8
 71
    3
 72
    8
 73
    4
 74
    0
 42
1e-007
 43
1e-007
 40
0
 40
0
 40
0
 40
0
 40
1
 40
1
 40
1
 40
1
 10
69.1670885769811
 20
-35.14995188236284
 30
0
 10
69.23709641618399
 20
-34.91833811283158
 30
0
 10
69.26884835405019
 20
-34.88833509922075
 30
0
 10
69.46204634828237
 20
-34.87277887821244
 30
0
  0
SPLINE
  5
18A
100
AcDbEntity
  8
0
  6
ByLayer
 62
  256
370
   -1
100
AcDbSpline
210
0
220
0
230
0
 70
    8
 71
    3
 72
    8
 73
    4
 74
    0
 42
1e-007
 43
1e-007
 40
0
 40
0
 40
0
 40
0
 40
1
 40
1
 40
1
 40
1
 10
69.46204634828237
 20
-34.87277887821244
 30
0
 10
70.41121321839955
 20
-34.79610235691118
 30
0
 10
70.939056483933
 20
-33.18256712436724
 30
0
 10
70.22595078630117
 20
-32.53724798679399
 30
0
  0
SPLINE
  5
18B
100
AcDbEntity
  8
0
  6
ByLayer
 62
  256
370
   -1
100
AcDbSpline
210
0
220
0
230
0
 70
    8
 71
    3
 72
    8
 73
    4
 74
    0
 42
1e-007
 43
1e-007
 40
0
 40
0
 40
0
 40
0
 40
1
 40
1
 40
1
 40
1
 10
70.22595078630117
 20
-32.53724798679399
 30
0
 10
70.11942870301868
 20
-32.44088758945512
 30
0
 10
70.10276063127188
 20
-32.33849073886919
 30
0
 10
70.10276063127188
 20
-31.77826330661821
 30
0
  0
LINE
  5
18C
100
AcDbEntity
  8
0
  6
ByLayer
 62
  256
370
   -1
100
AcDbLine
 10
70.10276063127188
 20
-31.77826330661821
 11
70.10276063127188
 21
-31.13072046756792
  0
LINE
  5
18D
100
AcDbEntity
  8
0
  6
ByLayer
 62
  256
370
   -1
100
AcDbLine
 10
70.10276063127188
 20
-31.13072046756792
 11
70.72188708467154
 21
-31.08865423679399
  0
SPLINE
  5
18E
100
AcDbEntity
  8
0
  6
ByLayer
 62
  256
370
   -1
100
AcDbSpline
210
0
220
0
230
0
 70
    8
 71
    3
 72
    8
 73
    4
 74
    0
 42
1e-007
 43
1e-007
 40
0
 40
0
 40
0
 40
0
 40
1
 40
1
 40
1
 40
1
 10
70.72188708467154
 20
-31.08865423679399
 30
0
 10
71.79948119325306
 20
-31.01547071933794
 30
0
 10
74.62602378053334
 20
-30.72479563236284
 30
0
 10
75.06512972993521
 20
-30.64208750248002
 30
0
  0
LINE
  5
18F
100
AcDbEntity
  8
0
  6
ByLayer
 62
  256
370
   -1
100
AcDbLine
 10
75.06512972993521
 20
-30.64208750248003
 11
75.48724543733266
 21
-30.56255505085038
  0
LINE
  5
190
100
AcDbEntity
  8
0
  6
ByLayer
 62
  256
370
   -1
100
AcDbLine
 10
75.48724543733266
 20
-30.56255505085038
 11
75.58963744325308
 21
-30.77702597141313
  0
SPLINE
  5
191
100
AcDbEntity
  8
0
  6
ByLayer
 62
  256
370
   -1
100
AcDbSpline
210
0
220
0
230
0
 70
    8
 71
    3
 72
    8
 73
    4
 74
    0
 42
1e-007
 43
1e-007
 40
0
 40
0
 40
0
 40
0
 40
1
 40
1
 40
1
 40
1
 10
75.58963744325308
 20
-30.77702597141313
 30
0
 10
75.64583556337026
 20
-30.89513891696977
 30
0
 10
75.81760317964223
 20
-31.12595816135454
 30
0
 10
75.97127112550405
 20
-31.2902649927144
 30
0
  0
LINE
  5
192
100
AcDbEntity
  8
0
  6
ByLayer
 62
  256
370
   -1
100
AcDbLine
 10
75.97127112550405
 20
-31.29026499271439
 11
76.25051280183462
 21
-31.58887564182329
  0
LINE
  5
193
100
AcDbEntity
  8
0
  6
ByLayer
 62
  256
370
   -1
100
AcDbLine
 10
76.25051280183462
 20
-31.58887564182329
 11
75.73251147431996
 21
-31.8743088006978
  0
SPLINE
  5
194
100
AcDbEntity
  8
0
  6
ByLayer
 62
  256
370
   -1
100
AcDbSpline
210
0
220
0
230
0
 70
    8
 71
    3
 72
    8
 73
    4
 74
    0
 42
1e-007
 43
1e-007
 40
0
 40
0
 40
0
 40
0
 40
1
 40
1
 40
1
 40
1
 10
75.73251147431996
 20
-31.8743088006978
 30
0
 10
75.44755793733266
 20
-32.03130987644243
 30
0
 10
75.03591639680532
 20
-32.33245913028765
 30
0
 10
74.81763514680532
 20
-32.54343946933794
 30
0
  0
SPLINE
  5
195
100
AcDbEntity
  8
0
  6
ByLayer
 62
  256
370
   -1
100
AcDbSpline
210
0
220
0
230
0
 70
    8
 71
    3
 72
    8
 73
    4
 74
    0
 42
1e-007
 43
1e-007
 40
0
 40
0
 40
0
 40
0
 40
1
 40
1
 40
1
 40
1
 10
74.81763514680532
 20
-32.54343946933794
 30
0
 10
73.72242098970082
 20
-33.60229925632524
 30
0
 10
75.05576014680531
 20
-34.42430819034624
 30
0
 10
76.96822093171743
 20
-33.86915796756792
 30
0
  0
SPLINE
  5
196
100
AcDbEntity
  8
0
  6
ByLayer
 62
  256
370
   -1
100
AcDbSpline
210
0
220
0
230
0
 70
    8
 71
    3
 72
    8
 73
    4
 74
    0
 42
1e-007
 43
1e-007
 40
0
 40
0
 40
0
 40
0
 40
1
 40
1
 40
1
 40
1
 10
76.96822093171743
 20
-33.86915796756792
 30
0
 10
77.04855033082632
 20
-33.8458212137227
 30
0
 10
77.07759894532826
 20
-33.89868620395708
 30
0
 10
77.10173022431997
 20
-34.11331457614946
 30
0
  0
SPLINE
  5
197
100
AcDbEntity
  8
0
  6
ByLayer
 62
  256
370
   -1
100
AcDbSpline
210
0
220
0
230
0
 70
    8
 71
    3
 72
    8
 73
    4
 74
    0
 42
1e-007
 43
1e-007
 40
0
 40
0
 40
0
 40
0
 40
1
 40
1
 40
1
 40
1
 10
77.10173022431997
 20
-34.11331457614946
 30
0
 10
77.21714469117788
 20
-35.13709414005326
 30
0
 10
78.07931590242055
 20
-35.4852318048482
 30
0
 10
78.8549662320104
 20
-34.82118319034623
 30
0
  0
LINE
  5
198
100
AcDbEntity
  8
0
  6
ByLayer
 62
  256
370
   -1
100
AcDbLine
 10
78.8549662320104
 20
-34.82118319034623
 11
79.12166506929067
 21
-34.59305757999467
  0
LINE
  5
199
100
AcDbEntity
  8
0
  6
ByLayer
 62
  256
370
   -1
100
AcDbLine
 10
79.12166506929067
 20
-34.59305757999467
 11
79.30375182313588
 21
-34.78800207614946
  0
SPLINE
  5
19A
100
AcDbEntity
  8
0
  6
ByLayer
 62
  256
370
   -1
100
AcDbSpline
210
0
220
0
230
0
 70
    8
 71
    3
 72
    8
 73
    4
 74
    0
 42
1e-007
 43
1e-007
 40
0
 40
0
 40
0
 40
0
 40
1
 40
1
 40
1
 40
1
 10
79.30375182313588
 20
-34.78800207614946
 30
0
 10
80.06114745301869
 20
-35.59874231815385
 30
0
 10
81.3190842358556
 20
-34.56115061283158
 30
0
 10
81.01967906160024
 20
-33.37242956638384
 30
0
  0
SPLINE
  5
19B
100
AcDbEntity
  8
0
  6
ByLayer
 62
  256
370
   -1
100
AcDbSpline
210
0
220
0
230
0
 70
    8
 71
    3
 72
    8
 73
    4
 74
    0
 42
1e-007
 43
1e-007
 40
0
 40
0
 40
0
 40
0
 40
1
 40
1
 40
1
 40
1
 10
81.01967906160024
 20
-33.37242956638384
 30
0
 10
80.95189250154164
 20
-33.10303225040484
 30
0
 10
80.95491072816517
 20
-33.09477694034624
 30
0
 10
81.31543135804799
 20
-32.56645647525835
 30
0
  0
SPLINE
  5
19C
100
AcDbEntity
  8
0
  6
ByLayer
 62
  256
370
   -1
100
AcDbSpline
210
0
220
0
230
0
 70
    8
 71
    3
 72
    8
 73
    4
 74
    0
 42
1e-007
 43
1e-007
 40
0
 40
0
 40
0
 40
0
 40
1
 40
1
 40
1
 40
1
 10
81.31543135804799
 20
-32.56645647525835
 30
0
 10
81.66817629975941
 20
-32.04988432407426
 30
0
 10
81.94059184236195
 20
-31.52029455661821
 30
0
 10
82.08013274354605
 20
-31.080239052773
 30
0
  0
SPLINE
  5
19D
100
AcDbEntity
  8
0
  6
ByLayer
 62
  256
370
   -1
100
AcDbSpline
210
0
220
0
230
0
 70
    8
 71
    3
 72
    8
 73
    4
 74
    0
 42
1e-007
 43
1e-007
 40
0
 40
0
 40
0
 40
0
 40
1
 40
1
 40
1
 40
1
 10
82.08013274354605
 20
-31.080239052773
 30
0
 10
82.09108653230336
 20
-31.04531385898637
 30
0
 10
82.20300315065053
 20
-30.73098711490679
 30
0
 10
82.32873191041617
 20
-30.3817400217061
 30
0
  0
SPLINE
  5
19E
100
AcDbEntity
  8
0
  6
ByLayer
 62
  256
370
   -1
100
AcDbSpline
210
0
220
0
230
0
 70
    8
 71
    3
 72
    8
 73
    4
 74
    0
 42
1e-007
 43
1e-007
 40
0
 40
0
 40
0
 40
0
 40
1
 40
1
 40
1
 40
1
 10
82.32873191041617
 20
-30.3817400217061
 30
0
 10
84.72506335420277
 20
-23.72281265735673
 30
0
 10
81.54006396455435
 20
-16.62224073886918
 30
0
 10
74.19851111573843
 20
-12.25677561283159
 30
0
  0
SPLINE
  5
19F
100
AcDbEntity
  8
0
  6
ByLayer
 62
  256
370
   -1
100
AcDbSpline
210
0
220
0
230
0
 70
    8
 71
    3
 72
    8
 73
    4
 74
    0
 42
1e-007
 43
1e-007
 40
0
 40
0
 40
0
 40
0
 40
1
 40
1
 40
1
 40
1
 10
74.19851111573843
 20
-12.25677561283159
 30
0
 10
71.80741917771962
 20
-10.83500919818925
 30
0
 10
68.48779622239735
 20
-9.521988568306444
 30
0
 10
67.28415602845816
 20
-9.521988568306444
 30
0
  0
SPLINE
  5
1A0
100
AcDbEntity
  8
0
  6
ByLayer
 62
  256
370
   -1
100
AcDbSpline
210
0
220
0
230
0
 70
    8
 71
    3
 72
    8
 73
    4
 74
    0
 42
1e-007
 43
1e-007
 40
0
 40
0
 40
0
 40
0
 40
1
 40
1
 40
1
 40
1
 10
67.28415602845816
 20
-9.521988568306444
 30
0
 10
67.22906975907948
 20
-9.521988568306444
 30
0
 10
67.00491435212757
 20
-9.412927880287643
 30
0
 10
66.78599845094351
 20
-9.279418587685104
 30
0
  0
SPLINE
  5
1A1
100
AcDbEntity
  8
0
  6
ByLayer
 62
  256
370
   -1
100
AcDbSpline
210
0
220
0
230
0
 70
    8
 71
    3
 72
    8
 73
    4
 74
    0
 42
1e-007
 43
1e-007
 40
0
 40
0
 40
0
 40
0
 40
1
 40
1
 40
1
 40
1
 10
66.78599845094351
 20
-9.279418587685104
 30
0
 10
65.23659690065054
 20
-8.335332560539719
 30
0
 10
63.70513514680532
 20
-7.696204905510422
 30
0
 10
61.97476111573842
 20
-7.27139071941423
 30
0
  0
SPLINE
  5
1A2
100
AcDbEntity
  8
0
  6
ByLayer
 62
  256
370
   -1
100
AcDbSpline
210
0
220
0
230
0
 70
    8
 71
    3
 72
    8
 73
    4
 74
    0
 42
1e-007
 43
1e-007
 40
0
 40
0
 40
0
 40
0
 40
1
 40
1
 40
1
 40
1
 10
61.97476111573842
 20
-7.27139071941423
 30
0
 10
61.15497588319448
 20
-7.070094866753099
 30
0
 10
60.70809424562123
 20
-6.988338713646407
 30
0
 10
59.14901063127188
 20
-6.754976019859786
 30
0
  0
SPLINE
  5
1A3
100
AcDbEntity
  8
0
  6
ByLayer
 62
  256
370
   -1
100
AcDbSpline
210
0
220
0
230
0
 70
    8
 71
    3
 72
    8
 73
    4
 74
    0
 42
1e-007
 43
1e-007
 40
0
 40
0
 40
0
 40
0
 40
1
 40
1
 40
1
 40
1
 10
59.14901063127188
 20
-6.754976019859786
 30
0
 10
58.4887699238744
 20
-6.656075806618209
 30
0
 10
56.45692931337025
 20
-6.585908093452925
 30
0
 10
55.81526063127187
 20
-6.639882512093063
 30
0
  0
SPLINE
  5
1A4
100
AcDbEntity
  8
0
  6
ByLayer
 62
  256
370
   -1
100
AcDbSpline
210
0
220
0
230
0
 70
    8
 71
    3
 72
    8
 73
    4
 74
    0
 42
1e-007
 43
1e-007
 40
0
 40
0
 40
0
 40
0
 40
1
 40
1
 40
1
 40
1
 10
58.81182675523427
 20
-7.668741707802291
 30
0
 10
63.47415602845815
 20
-8.113876843452928
 30
0
 10
66.79107808274892
 20
-9.799325079918383
 30
0
 10
70.15768944902089
 20
-13.43422312259722
 30
0
  0
SPLINE
  5
1A5
100
AcDbEntity
  8
0
  6
ByLayer
 62
  256
370
   -1
100
AcDbSpline
210
0
220
0
230
0
 70
    8
 71
    3
 72
    8
 73
    4
 74
    0
 42
1e-007
 43
1e-007
 40
0
 40
0
 40
0
 40
0
 40
1
 40
1
 40
1
 40
1
 10
70.15768944902089
 20
-13.43422312259722
 30
0
 10
71.10717122239735
 20
-14.45943186283159
 30
0
 10
71.77868546647694
 20
-15.40462852954912
 30
0
 10
72.66133265657095
 20
-16.95752066135454
 30
0
  0
LINE
  5
1A6
100
AcDbEntity
  8
0
  6
ByLayer
 62
  256
370
   -1
100
AcDbLine
 10
72.66133265657095
 20
-16.95752066135454
 11
72.82706866426138
 21
-17.2493051767354
  0
LINE
  5
1A7
100
AcDbEntity
  8
0
  6
ByLayer
 62
  256
370
   -1
100
AcDbLine
 10
72.82706866426138
 20
-17.2493051767354
 11
72.25779139680532
 21
-17.52902163028764
  0
SPLINE
  5
1A8
100
AcDbEntity
  8
0
  6
ByLayer
 62
  256
370
   -1
100
AcDbSpline
210
0
220
0
230
0
 70
    8
 71
    3
 72
    8
 73
    4
 74
    0
 42
1e-007
 43
1e-007
 40
0
 40
0
 40
0
 40
0
 40
1
 40
1
 40
1
 40
1
 10
72.25779139680532
 20
-17.52902163028764
 30
0
 10
71.5799306408849
 20
-17.86207785129594
 30
0
 10
71.40482747239736
 20
-18.13989035129595
 30
0
 10
71.68502354783682
 20
-18.43818367481279
 30
0
  0
SPLINE
  5
1A9
100
AcDbEntity
  8
0
  6
ByLayer
 62
  256
370
   -1
100
AcDbSpline
210
0
220
0
230
0
 70
    8
 71
    3
 72
    8
 73
    4
 74
    0
 42
1e-007
 43
1e-007
 40
0
 40
0
 40
0
 40
0
 40
1
 40
1
 40
1
 40
1
 10
71.68502354783682
 20
-18.43818367481279
 30
0
 10
71.93140143556265
 20
-18.70043753147172
 30
0
 10
72.09158061189321
 20
-18.68234028339433
 30
0
 10
72.83977137727406
 20
-18.30785006046343
 30
0
  0
SPLINE
  5
1AA
100
AcDbEntity
  8
0
  6
ByLayer
 62
  256
370
   -1
100
AcDbSpline
210
0
220
0
230
0
 70
    8
 71
    3
 72
    8
 73
    4
 74
    0
 42
1e-007
 43
1e-007
 40
0
 40
0
 40
0
 40
0
 40
1
 40
1
 40
1
 40
1
 10
72.83977137727406
 20
-18.30785006046343
 30
0
 10
73.64225146455433
 20
-17.90621275425004
 30
0
 10
73.67670188111929
 20
-17.90732218265581
 30
0
 10
74.20295851869253
 20
-18.35229986667681
 30
0
  0
SPLINE
  5
1AB
100
AcDbEntity
  8
0
  6
ByLayer
 62
  256
370
   -1
100
AcDbSpline
210
0
220
0
230
0
 70
    8
 71
    3
 72
    8
 73
    4
 74
    0
 42
1e-007
 43
1e-007
 40
0
 40
0
 40
0
 40
0
 40
1
 40
1
 40
1
 40
1
 10
74.20295851869253
 20
-18.35229986667681
 30
0
 10
76.37163912934926
 20
-20.186020302773
 30
0
 10
76.53562621278432
 20
-23.47913082599687
 30
0
 10
74.5333162610021
 20
-24.98519199848222
 30
0
  0
SPLINE
  5
1AC
100
AcDbEntity
  8
0
  6
ByLayer
 62
  256
370
   -1
100
AcDbSpline
210
0
220
0
230
0
 70
    8
 71
    3
 72
    8
 73
    4
 74
    0
 42
1e-007
 43
1e-007
 40
0
 40
0
 40
0
 40
0
 40
1
 40
1
 40
1
 40
1
 10
74.5333162610021
 20
-24.98519199848222
 30
0
 10
73.74750182313589
 20
-25.57621696949052
 30
0
 10
71.78043196839955
 20
-26.43061007022905
 30
0
 10
71.66533724946645
 20
-26.23074339389848
 30
0
  0
SPLINE
  5
1AD
100
AcDbEntity
  8
0
  6
ByLayer
 62
  256
370
   -1
100
AcDbSpline
210
0
220
0
230
0
 70
    8
 71
    3
 72
    8
 73
    4
 74
    0
 42
1e-007
 43
1e-007
 40
0
 40
0
 40
0
 40
0
 40
1
 40
1
 40
1
 40
1
 10
71.66533724946645
 20
-26.23074339389848
 30
0
 10
71.65263695878652
 20
-26.20883581638383
 30
0
 10
71.62199929399159
 20
-25.9621381807332
 30
0
 10
71.59723336381582
 20
-25.68273905277299
 30
0
  0
SPLINE
  5
1AE
100
AcDbEntity
  8
0
  6
ByLayer
 62
  256
370
   -1
100
AcDbSpline
210
0
220
0
230
0
 70
    8
 71
    3
 72
    8
 73
    4
 74
    0
 42
1e-007
 43
1e-007
 40
0
 40
0
 40
0
 40
0
 40
1
 40
1
 40
1
 40
1
 10
71.59723336381582
 20
-25.68273905277299
 30
0
 10
71.57246743364004
 20
-25.40333992481279
 30
0
 10
71.51468268556265
 20
-25.04615242481279
 30
0
 10
71.46880370301869
 20
-24.888989052773
 30
0
  0
SPLINE
  5
1AF
100
AcDbEntity
  8
0
  6
ByLayer
 62
  256
370
   -1
100
AcDbSpline
210
0
220
0
230
0
 70
    8
 71
    3
 72
    8
 73
    4
 74
    0
 42
1e-007
 43
1e-007
 40
0
 40
0
 40
0
 40
0
 40
1
 40
1
 40
1
 40
1
 10
71.46880370301869
 20
-24.888989052773
 30
0
 10
71.42276726884511
 20
-24.7318256807332
 30
0
 10
71.32259654206899
 20
-24.13175087451982
 30
0
 10
71.24592002076773
 20
-23.5554900217061
 30
0
  0
SPLINE
  5
1B0
100
AcDbEntity
  8
0
  6
ByLayer
 62
  256
370
   -1
100
AcDbSpline
210
0
220
0
230
0
 70
    8
 71
    3
 72
    8
 73
    4
 74
    0
 42
1e-007
 43
1e-007
 40
0
 40
0
 40
0
 40
0
 40
1
 40
1
 40
1
 40
1
 10
71.24592002076773
 20
-23.5554900217061
 30
0
 10
71.12256999177602
 20
-22.62807085514116
 30
0
 10
70.55011946839956
 20
-19.4891078996663
 30
0
 10
70.34850629014639
 20
-18.6342400217061
 30
0
  0
SPLINE
  5
1B1
100
AcDbEntity
  8
0
  6
ByLayer
 62
  256
370
   -1
100
AcDbSpline
210
0
220
0
230
0
 70
    8
 71
    3
 72
    8
 73
    4
 74
    0
 42
1e-007
 43
1e-007
 40
0
 40
0
 40
0
 40
0
 40
1
 40
1
 40
1
 40
1
 10
70.34850629014639
 20
-18.6342400217061
 30
0
 10
69.3358403889623
 20
-14.34275051593828
 30
0
 10
65.49964528245596
 20
-10.09999834537553
 30
0
 10
61.39373553437856
 20
-8.730619721413131
 30
0
  0
SPLINE
  5
1B2
100
AcDbEntity
  8
0
  6
ByLayer
 62
  256
370
   -1
100
AcDbSpline
210
0
220
0
230
0
 70
    8
 71
    3
 72
    8
 73
    4
 74
    0
 42
1e-007
 43
1e-007
 40
0
 40
0
 40
0
 40
0
 40
1
 40
1
 40
1
 40
1
 10
61.39373553437856
 20
-8.730619721413131
 30
0
 10
59.2453734509435
 20
-8.014022231102462
 30
0
 10
56.14466639680532
 20
-7.676202492714401
 30
0
 10
53.78326014680532
 20
-7.901627202034469
 30
0
  0
SPLINE
  5
1B3
100
AcDbEntity
  8
0
  6
ByLayer
 62
  256
370
   -1
100
AcDbSpline
210
0
220
0
230
0
 70
    8
 71
    3
 72
    8
 73
    4
 74
    0
 42
1e-007
 43
1e-007
 40
0
 40
0
 40
0
 40
0
 40
1
 40
1
 40
1
 40
1
 10
53.78326014680532
 20
-7.901627202034469
 30
0
 10
53.55656613511709
 20
-7.923217453957077
 30
0
 10
53.58291869325307
 20
-7.909723849297043
 30
0
 10
53.91026063127187
 20
-7.836857657433029
 30
0
  0
SPLINE
  5
1B4
100
AcDbEntity
  8
0
  6
ByLayer
 62
  256
370
   -1
100
AcDbSpline
210
0
220
0
230
0
 70
    8
 71
    3
 72
    8
 73
    4
 74
    0
 42
1e-007
 43
1e-007
 40
0
 40
0
 40
0
 40
0
 40
1
 40
1
 40
1
 40
1
 10
53.91026063127187
 20
-7.836857657433029
 30
0
 10
55.01071671647695
 20
-7.591747860908981
 30
0
 10
57.21273831529287
 20
-7.516183190346237
 30
0
 10
58.81182675523427
 20
-7.668741707802291
 30
0
  0
SPLINE
  5
1B5
100
AcDbEntity
  8
0
  6
ByLayer
 62
  256
370
   -1
100
AcDbSpline
210
0
220
0
230
0
 70
    8
 71
    3
 72
    8
 73
    4
 74
    0
 42
1e-007
 43
1e-007
 40
0
 40
0
 40
0
 40
0
 40
1
 40
1
 40
1
 40
1
 10
46.06801160020497
 20
-21.68049303531694
 30
0
 10
48.67341579599049
 20
-22.10419537067461
 30
0
 10
50.71335305375722
 20
-23.91791460514116
 30
0
 10
49.93500182313588
 20
-25.11854141712236
 30
0
  0
SPLINE
  5
1B6
100
AcDbEntity
  8
0
  6
ByLayer
 62
  256
370
   -1
100
AcDbSpline
210
0
220
0
230
0
 70
    8
 71
    3
 72
    8
 73
    4
 74
    0
 42
1e-007
 43
1e-007
 40
0
 40
0
 40
0
 40
0
 40
1
 40
1
 40
1
 40
1
 10
49.93500182313588
 20
-25.11854141712236
 30
0
 10
48.78596948785451
 20
-26.89050932407426
 30
0
 10
43.75534147424367
 20
-26.10723591327714
 30
0
 10
42.38961451692251
 20
-23.94379238605547
 30
0
  0
SPLINE
  5
1B7
100
AcDbEntity
  8
0
  6
ByLayer
 62
  256
370
   -1
100
AcDbSpline
210
0
220
0
230
0
 70
    8
 71
    3
 72
    8
 73
    4
 74
    0
 42
1e-007
 43
1e-007
 40
0
 40
0
 40
0
 40
0
 40
1
 40
1
 40
1
 40
1
 10
42.38961451692251
 20
-23.94379238605547
 30
0
 10
41.42631999654439
 20
-22.41788746357011
 30
0
 10
43.34481420678762
 20
-21.23757917881059
 30
0
 10
46.06801160020497
 20
-21.68049303531694
 30
0
  0
SPLINE
  5
1B8
100
AcDbEntity
  8
0
  6
ByLayer
 62
  256
370
   -1
100
AcDbSpline
210
0
220
0
230
0
 70
    8
 71
    3
 72
    8
 73
    4
 74
    0
 42
1e-007
 43
1e-007
 40
0
 40
0
 40
0
 40
0
 40
1
 40
1
 40
1
 40
1
 10
61.07703005952505
 20
-22.66728357791948
 30
0
 10
56.32389722032217
 20
-23.41594669818925
 30
0
 10
55.72143883866933
 20
-27.0794222116475
 30
0
 10
60.13326014680531
 20
-28.40593765735674
 30
0
  0
SPLINE
  5
1B9
100
AcDbEntity
  8
0
  6
ByLayer
 62
  256
370
   -1
100
AcDbSpline
210
0
220
0
230
0
 70
    8
 71
    3
 72
    8
 73
    4
 74
    0
 42
1e-007
 43
1e-007
 40
0
 40
0
 40
0
 40
0
 40
1
 40
1
 40
1
 40
1
 10
60.13326014680531
 20
-28.40593765735674
 30
0
 10
65.04228705567984
 20
-29.88183594226884
 30
0
 10
70.12323903245596
 20
-27.14054008960771
 30
0
 10
67.70817568940785
 20
-24.31907713413286
 30
0
  0
SPLINE
  5
1BA
100
AcDbEntity
  8
0
  6
ByLayer
 62
  256
370
   -1
100
AcDbSpline
210
0
220
0
230
0
 70
    8
 71
    3
 72
    8
 73
    4
 74
    0
 42
1e-007
 43
1e-007
 40
0
 40
0
 40
0
 40
0
 40
1
 40
1
 40
1
 40
1
 10
67.70817568940785
 20
-24.31907713413286
 30
0
 10
66.66757060212758
 20
-23.10336887836504
 30
0
 10
63.42922902269032
 20
-22.29676113605547
 30
0
 10
61.07703005952505
 20
-22.66728357791948
 30
0
  0
SPLINE
  5
1BB
100
AcDbEntity
  8
0
  6
ByLayer
 62
  256
370
   -1
100
AcDbSpline
210
0
220
0
230
0
 70
    8
 71
    3
 72
    8
 73
    4
 74
    0
 42
1e-007
 43
1e-007
 40
0
 40
0
 40
0
 40
0
 40
1
 40
1
 40
1
 40
1
 10
46.31010438127187
 20
-23.55977512836504
 30
0
 10
45.61414516610768
 20
-23.76868921756792
 30
0
 10
45.71241072816518
 20
-24.61578140735674
 30
0
 10
46.46044161958364
 20
-24.85469851017045
 30
0
  0
SPLINE
  5
1BC
100
AcDbEntity
  8
0
  6
ByLayer
 62
  256
370
   -1
100
AcDbSpline
210
0
220
0
230
0
 70
    8
 71
    3
 72
    8
 73
    4
 74
    0
 42
1e-007
 43
1e-007
 40
0
 40
0
 40
0
 40
0
 40
1
 40
1
 40
1
 40
1
 10
46.46044161958364
 20
-24.85469851017045
 30
0
 10
47.54803754014638
 20
-25.20204407215166
 30
0
 10
48.36909207505849
 20
-24.64007013797807
 30
0
 10
47.8368038289037
 20
-23.91236019611406
 30
0
  0
SPLINE
  5
1BD
100
AcDbEntity
  8
0
  6
ByLayer
 62
  256
370
   -1
100
AcDbSpline
210
0
220
0
230
0
 70
    8
 71
    3
 72
    8
 73
    4
 74
    0
 42
1e-007
 43
1e-007
 40
0
 40
0
 40
0
 40
0
 40
1
 40
1
 40
1
 40
1
 10
47.8368038289037
 20
-23.91236019611406
 30
0
 10
47.62106239480642
 20
-23.61724255085038
 30
0
 10
46.7717501370397
 20
-23.42118620395708
 30
0
 10
46.31010438127187
 20
-23.55977512836504
 30
0
  0
SPLINE
  5
1BE
100
AcDbEntity
  8
0
  6
ByLayer
 62
  256
370
   -1
100
AcDbSpline
210
0
220
0
230
0
 70
    8
 71
    3
 72
    8
 73
    4
 74
    0
 42
1e-007
 43
1e-007
 40
0
 40
0
 40
0
 40
0
 40
1
 40
1
 40
1
 40
1
 10
63.56829272431996
 20
-23.55564747333574
 30
0
 10
66.565016299912
 20
-23.89902525425004
 30
0
 10
68.24173566026357
 20
-25.53938782215166
 30
0
 10
66.84489262742666
 20
-26.76128756046342
 30
0
  0
SPLINE
  5
1BF
100
AcDbEntity
  8
0
  6
ByLayer
 62
  256
370
   -1
100
AcDbSpline
210
0
220
0
230
0
 70
    8
 71
    3
 72
    8
 73
    4
 74
    0
 42
1e-007
 43
1e-007
 40
0
 40
0
 40
0
 40
0
 40
1
 40
1
 40
1
 40
1
 10
66.84489262742666
 20
-26.76128756046342
 30
0
 10
64.72780285997059
 20
-28.61326511859941
 30
0
 10
58.67831746263172
 20
-27.98445417881059
 30
0
 10
58.1042778889623
 20
-25.85292004108476
 30
0
  0
SPLINE
  5
1C0
100
AcDbEntity
  8
0
  6
ByLayer
 62
  256
370
   -1
100
AcDbSpline
210
0
220
0
230
0
 70
    8
 71
    3
 72
    8
 73
    4
 74
    0
 42
1e-007
 43
1e-007
 40
0
 40
0
 40
0
 40
0
 40
1
 40
1
 40
1
 40
1
 10
58.1042778889623
 20
-25.85292004108476
 30
0
 10
57.72152993364003
 20
-24.43131350040483
 30
0
 10
60.6104645459142
 20
-23.21655722141313
 30
0
 10
63.56829272431996
 20
-23.55564747333574
 30
0
  0
SPLINE
  5
1C1
100
AcDbEntity
  8
0
  6
ByLayer
 62
  256
370
   -1
100
AcDbSpline
210
0
220
0
230
0
 70
    8
 71
    3
 72
    8
 73
    4
 74
    0
 42
1e-007
 43
1e-007
 40
0
 40
0
 40
0
 40
0
 40
1
 40
1
 40
1
 40
1
 10
61.623922549912
 20
-25.48557085514116
 30
0
 10
61.29864443940786
 20
-25.62733545780229
 30
0
 10
61.16339106721547
 20
-26.16010090351152
 30
0
 10
61.37579816026356
 20
-26.46331398487138
 30
0
  0
SPLINE
  5
1C2
100
AcDbEntity
  8
0
  6
ByLayer
 62
  256
370
   -1
100
AcDbSpline
210
0
220
0
230
0
 70
    8
 71
    3
 72
    8
 73
    4
 74
    0
 42
1e-007
 43
1e-007
 40
0
 40
0
 40
0
 40
0
 40
1
 40
1
 40
1
 40
1
 10
61.37579816026356
 20
-26.46331398487138
 30
0
 10
61.70472672624257
 20
-26.9330551767354
 30
0
 10
63.05060872239736
 20
-26.97686790943193
 30
0
 10
63.28397141618397
 20
-26.52554371357011
 30
0
  0
SPLINE
  5
1C3
100
AcDbEntity
  8
0
  6
ByLayer
 62
  256
370
   -1
100
AcDbSpline
210
0
220
0
230
0
 70
    8
 71
    3
 72
    8
 73
    4
 74
    0
 42
1e-007
 43
1e-007
 40
0
 40
0
 40
0
 40
0
 40
1
 40
1
 40
1
 40
1
 10
63.28397141618397
 20
-26.52554371357011
 30
0
 10
63.64211331529287
 20
-25.83307629108477
 30
0
 10
62.48704816026357
 20
-25.10965145587969
 30
0
 10
61.623922549912
 20
-25.48557085514116
 30
0
  0
SPLINE
  5
1C4
100
AcDbEntity
  8
0
  6
ByLayer
 62
  256
370
   -1
100
AcDbSpline
210
0
220
0
230
0
 70
    8
 71
    3
 72
    8
 73
    4
 74
    0
 42
1e-007
 43
1e-007
 40
0
 40
0
 40
0
 40
0
 40
1
 40
1
 40
1
 40
1
 10
50.9257613579717
 20
-28.59024569034624
 30
0
 10
50.72383085412648
 20
-28.69184559345292
 30
0
 10
50.6695391098943
 20
-29.09268837451982
 30
0
 10
50.83336874169973
 20
-29.27366327762651
 30
0
  0
SPLINE
  5
1C5
100
AcDbEntity
  8
0
  6
ByLayer
 62
  256
370
   -1
100
AcDbSpline
210
0
220
0
230
0
 70
    8
 71
    3
 72
    8
 73
    4
 74
    0
 42
1e-007
 43
1e-007
 40
0
 40
0
 40
0
 40
0
 40
1
 40
1
 40
1
 40
1
 10
50.83336874169973
 20
-29.27366327762651
 30
0
 10
50.97386283082631
 20
-29.42892269611406
 30
0
 10
53.49560570878651
 20
-29.84198856830644
 30
0
 10
54.30316785020498
 20
-29.84198856830644
 30
0
  0
SPLINE
  5
1C6
100
AcDbEntity
  8
0
  6
ByLayer
 62
  256
370
   -1
100
AcDbSpline
210
0
220
0
230
0
 70
    8
 71
    3
 72
    8
 73
    4
 74
    0
 42
1e-007
 43
1e-007
 40
0
 40
0
 40
0
 40
0
 40
1
 40
1
 40
1
 40
1
 10
54.30316785020498
 20
-29.84198856830644
 30
0
 10
54.45429719133046
 20
-29.84198856830644
 30
0
 10
54.48588925523428
 20
-29.87707363605546
 30
0
 10
54.54621260804799
 20
-30.11186308383989
 30
0
  0
SPLINE
  5
1C7
100
AcDbEntity
  8
0
  6
ByLayer
 62
  256
370
   -1
100
AcDbSpline
210
0
220
0
230
0
 70
    8
 71
    3
 72
    8
 73
    4
 74
    0
 42
1e-007
 43
1e-007
 40
0
 40
0
 40
0
 40
0
 40
1
 40
1
 40
1
 40
1
 10
54.54621260804799
 20
-30.11186308383989
 30
0
 10
55.30567448777822
 20
-33.06651800632524
 30
0
 10
56.57329333467153
 20
-34.0287024927144
 30
0
 10
57.42212960405019
 20
-32.2949953317647
 30
0
  0
SPLINE
  5
1C8
100
AcDbEntity
  8
0
  6
ByLayer
 62
  256
370
   -1
100
AcDbSpline
210
0
220
0
230
0
 70
    8
 71
    3
 72
    8
 73
    4
 74
    0
 42
1e-007
 43
1e-007
 40
0
 40
0
 40
0
 40
0
 40
1
 40
1
 40
1
 40
1
 10
57.42212960405019
 20
-32.2949953317647
 30
0
 10
57.83583012742666
 20
-31.44996939182329
 30
0
 10
58.00029683274892
 20
-29.39748808383989
 30
0
 10
57.65438044709828
 20
-29.39748808383989
 30
0
  0
SPLINE
  5
1C9
100
AcDbEntity
  8
0
  6
ByLayer
 62
  256
370
   -1
100
AcDbSpline
210
0
220
0
230
0
 70
    8
 71
    3
 72
    8
 73
    4
 74
    0
 42
1e-007
 43
1e-007
 40
0
 40
0
 40
0
 40
0
 40
1
 40
1
 40
1
 40
1
 10
57.65438044709828
 20
-29.39748808383989
 30
0
 10
57.62072455567983
 20
-29.39748808383989
 30
0
 10
57.59326014680532
 20
-29.35811790943193
 30
0
 10
57.59326014680532
 20
-29.3100176477437
 30
0
  0
SPLINE
  5
1CA
100
AcDbEntity
  8
0
  6
ByLayer
 62
  256
370
   -1
100
AcDbSpline
210
0
220
0
230
0
 70
    8
 71
    3
 72
    8
 73
    4
 74
    0
 42
1e-007
 43
1e-007
 40
0
 40
0
 40
0
 40
0
 40
1
 40
1
 40
1
 40
1
 10
57.59326014680532
 20
-29.3100176477437
 30
0
 10
57.59326014680532
 20
-29.15079044818926
 30
0
 10
57.25639359635976
 20
-29.09078442096757
 30
0
 10
56.15990771455435
 20
-29.05490725040483
 30
0
  0
SPLINE
  5
1CB
100
AcDbEntity
  8
0
  6
ByLayer
 62
  256
370
   -1
100
AcDbSpline
210
0
220
0
230
0
 70
    8
 71
    3
 72
    8
 73
    4
 74
    0
 42
1e-007
 43
1e-007
 40
0
 40
0
 40
0
 40
0
 40
1
 40
1
 40
1
 40
1
 10
56.15990771455435
 20
-29.05490725040483
 30
0
 10
55.16613116426137
 20
-29.02220333576249
 30
0
 10
53.34415904206899
 20
-28.83281567096757
 30
0
 10
51.79936234635976
 20
-28.60119947910356
 30
0
  0
SPLINE
  5
1CC
100
AcDbEntity
  8
0
  6
ByLayer
 62
  256
370
   -1
100
AcDbSpline
210
0
220
0
230
0
 70
    8
 71
    3
 72
    8
 73
    4
 74
    0
 42
1e-007
 43
1e-007
 40
0
 40
0
 40
0
 40
0
 40
1
 40
1
 40
1
 40
1
 10
51.79936234635976
 20
-28.60119947910356
 30
0
 10
51.06101594133047
 20
-28.49054974079179
 30
0
 10
51.12229369325307
 20
-28.49134426593828
 30
0
 10
50.9257613579717
 20
-28.59024569034624
 30
0
  0
SPLINE
  5
1CD
100
AcDbEntity
  8
0
  6
ByLayer
 62
  256
370
   -1
100
AcDbSpline
210
0
220
0
230
0
 70
    8
 71
    3
 72
    8
 73
    4
 74
    0
 42
1e-007
 43
1e-007
 40
0
 40
0
 40
0
 40
0
 40
1
 40
1
 40
1
 40
1
 10
56.86824868364003
 20
-30.048364052773
 30
0
 10
57.02477740449574
 20
-30.20489035129595
 30
0
 10
56.61393281144765
 20
-32.04385271549272
 30
0
 10
56.4073974530187
 20
-32.11115965366411
 30
0
  0
SPLINE
  5
1CE
100
AcDbEntity
  8
0
  6
ByLayer
 62
  256
370
   -1
100
AcDbSpline
210
0
220
0
230
0
 70
    8
 71
    3
 72
    8
 73
    4
 74
    0
 42
1e-007
 43
1e-007
 40
0
 40
0
 40
0
 40
0
 40
1
 40
1
 40
1
 40
1
 10
56.4073974530187
 20
-32.11115965366411
 30
0
 10
56.25722008866934
 20
-32.1600568628316
 30
0
 10
55.49776063127187
 20
-30.44254057407427
 30
0
 10
55.49776063127187
 20
-30.05360355854082
 30
0
  0
SPLINE
  5
1CF
100
AcDbEntity
  8
0
  6
ByLayer
 62
  256
370
   -1
100
AcDbSpline
210
0
220
0
230
0
 70
    8
 71
    3
 72
    8
 73
    4
 74
    0
 42
1e-007
 43
1e-007
 40
0
 40
0
 40
0
 40
0
 40
1
 40
1
 40
1
 40
1
 10
55.49776063127187
 20
-30.05360355854082
 30
0
 10
55.49776063127187
 20
-29.94946262836504
 30
0
 10
56.76458495301869
 20
-29.94470032215166
 30
0
 10
56.86824868364003
 20
-30.048364052773
 30
0
  0
ENDBLK
  5
67
330
65
100
AcDbEntity
  8
0
100
AcDbBlockEnd
  0
ENDSEC
  0
SECTION
  2
ENTITIES
  0
INSERT
  5
1D0
100
AcDbEntity
  8
0
  6
ByLayer
 62
  256
370
   -1
100
AcDbBlockReference
  2
plate
 10
132.493957477854
 20
-0.6803284081019461
 30
0
 41
1
 42
1
 43
0
 50
0
 70
    1
 71
    1
 44
0
 45
0
  0
INSERT
  5
1D1
100
AcDbEntity
  8
0
  6
ByLayer
 62
  256
370
   -1
100
AcDbBlockReference
  2
open3
 10
131.6378626054777
 20
-51.3088487200896
 30
0
 41
1
 42
1
 43
0
 50
0
 70
    1
 71
    1
 44
0
 45
0
  0
INSERT
  5
1D2
100
AcDbEntity
  8
0
  6
ByLayer
 62
  256
370
   -1
100
AcDbBlockReference
  2
open2_1
 10
130.5907432438432
 20
-102.0193435192452
 30
0
 41
1
 42
1
 43
0
 50
0
 70
    1
 71
    1
 44
0
 45
0
  0
INSERT
  5
1D3
100
AcDbEntity
  8
0
  6
ByLayer
 62
  256
370
   -1
100
AcDbBlockReference
  2
open2
 10
129.6932123624422
 20
-151.3835419962993
 30
0
 41
1
 42
1
 43
0
 50
0
 70
    1
 71
    1
 44
0
 45
0
  0
INSERT
  5
1D4
100
AcDbEntity
  8
0
  6
ByLayer
 62
  256
370
   -1
100
AcDbBlockReference
  2
open1_2
 10
128.4080914687775
 20
-200.0879507475814
 30
0
 41
1
 42
1
 43
0
 50
0
 70
    1
 71
    1
 44
0
 45
0
  0
INSERT
  5
1D5
100
AcDbEntity
  8
0
  6
ByLayer
 62
  256
370
   -1
100
AcDbBlockReference
  2
open1_1
 10
127.528583992964
 20
-247.1416007036061
 30
0
 41
1
 42
1
 43
0
 50
0
 70
    1
 71
    1
 44
0
 45
0
  0
INSERT
  5
1D6
100
AcDbEntity
  8
0
  6
ByLayer
 62
  256
370
   -1
100
AcDbBlockReference
  2
open1
 10
126.4291996481971
 20
-293.7554969217239
 30
0
 41
1
 42
1
 43
0
 50
0
 70
    1
 71
    1
 44
0
 45
0
  0
INSERT
  5
1D7
100
AcDbEntity
  8
0
  6
ByLayer
 62
  256
370
   -1
100
AcDbBlockReference
  2
bottom-0
 10
140.7408522997501
 20
-2.572287117750001
 30
0
 41
1
 42
1
 43
0
 50
0
 70
    1
 71
    1
 44
0
 45
0
  0
ENDSEC
  0
SECTION
  2
OBJECTS
  0
DICTIONARY
  5
C
330
0
100
AcDbDictionary
281
    1
  3
ACAD_GROUP
350
D
  0
DICTIONARY
  5
D
330
C
100
AcDbDictionary
281
    1
  0
ENDSEC
  0
EOF
