G04 #@! TF.GenerationSoftware,KiCad,Pcbnew,(6.0.0)*
G04 #@! TF.CreationDate,2023-06-02T21:34:00-07:00*
G04 #@! TF.ProjectId,stepad,73746570-6164-42e6-9b69-6361645f7063,rev?*
G04 #@! TF.SameCoordinates,Original*
G04 #@! TF.FileFunction,Soldermask,Bot*
G04 #@! TF.FilePolarity,Negative*
%FSLAX46Y46*%
G04 Gerber Fmt 4.6, Leading zero omitted, Abs format (unit mm)*
G04 Created by KiCad (PCBNEW (6.0.0)) date 2023-06-02 21:34:00*
%MOMM*%
%LPD*%
G01*
G04 APERTURE LIST*
G04 Aperture macros list*
%AMRoundRect*
0 Rectangle with rounded corners*
0 $1 Rounding radius*
0 $2 $3 $4 $5 $6 $7 $8 $9 X,Y pos of 4 corners*
0 Add a 4 corners polygon primitive as box body*
4,1,4,$2,$3,$4,$5,$6,$7,$8,$9,$2,$3,0*
0 Add four circle primitives for the rounded corners*
1,1,$1+$1,$2,$3*
1,1,$1+$1,$4,$5*
1,1,$1+$1,$6,$7*
1,1,$1+$1,$8,$9*
0 Add four rect primitives between the rounded corners*
20,1,$1+$1,$2,$3,$4,$5,0*
20,1,$1+$1,$4,$5,$6,$7,0*
20,1,$1+$1,$6,$7,$8,$9,0*
20,1,$1+$1,$8,$9,$2,$3,0*%
%AMOutline5P*
0 Free polygon, 5 corners , with rotation*
0 The origin of the aperture is its center*
0 number of corners: always 5*
0 $1 to $10 corner X, Y*
0 $11 Rotation angle, in degrees counterclockwise*
0 create outline with 5 corners*
4,1,5,$1,$2,$3,$4,$5,$6,$7,$8,$9,$10,$1,$2,$11*%
%AMOutline6P*
0 Free polygon, 6 corners , with rotation*
0 The origin of the aperture is its center*
0 number of corners: always 6*
0 $1 to $12 corner X, Y*
0 $13 Rotation angle, in degrees counterclockwise*
0 create outline with 6 corners*
4,1,6,$1,$2,$3,$4,$5,$6,$7,$8,$9,$10,$11,$12,$1,$2,$13*%
%AMOutline7P*
0 Free polygon, 7 corners , with rotation*
0 The origin of the aperture is its center*
0 number of corners: always 7*
0 $1 to $14 corner X, Y*
0 $15 Rotation angle, in degrees counterclockwise*
0 create outline with 7 corners*
4,1,7,$1,$2,$3,$4,$5,$6,$7,$8,$9,$10,$11,$12,$13,$14,$1,$2,$15*%
%AMOutline8P*
0 Free polygon, 8 corners , with rotation*
0 The origin of the aperture is its center*
0 number of corners: always 8*
0 $1 to $16 corner X, Y*
0 $17 Rotation angle, in degrees counterclockwise*
0 create outline with 8 corners*
4,1,8,$1,$2,$3,$4,$5,$6,$7,$8,$9,$10,$11,$12,$13,$14,$15,$16,$1,$2,$17*%
G04 Aperture macros list end*
%ADD10C,1.750000*%
%ADD11C,1.701800*%
%ADD12C,3.000000*%
%ADD13C,3.987800*%
%ADD14RoundRect,0.200000X1.075000X1.050000X-1.075000X1.050000X-1.075000X-1.050000X1.075000X-1.050000X0*%
%ADD15RoundRect,0.237500X0.237500X-0.250000X0.237500X0.250000X-0.237500X0.250000X-0.237500X-0.250000X0*%
%ADD16RoundRect,0.237500X-0.250000X-0.237500X0.250000X-0.237500X0.250000X0.237500X-0.250000X0.237500X0*%
%ADD17R,0.800000X1.900000*%
%ADD18R,1.200000X0.900000*%
%ADD19R,1.500000X1.500000*%
%ADD20RoundRect,0.237500X-0.237500X0.300000X-0.237500X-0.300000X0.237500X-0.300000X0.237500X0.300000X0*%
%ADD21Outline5P,-0.750000X0.180000X-0.480000X0.450000X0.750000X0.450000X0.750000X-0.450000X-0.750000X-0.450000X180.000000*%
%ADD22R,1.500000X0.900000*%
%ADD23RoundRect,0.237500X0.300000X0.237500X-0.300000X0.237500X-0.300000X-0.237500X0.300000X-0.237500X0*%
%ADD24RoundRect,0.237500X-0.237500X0.250000X-0.237500X-0.250000X0.237500X-0.250000X0.237500X0.250000X0*%
%ADD25C,0.650000*%
%ADD26R,0.600000X2.450000*%
%ADD27R,0.300000X2.450000*%
%ADD28RoundRect,0.237500X0.250000X0.237500X-0.250000X0.237500X-0.250000X-0.237500X0.250000X-0.237500X0*%
%ADD29RoundRect,0.237500X-0.300000X-0.237500X0.300000X-0.237500X0.300000X0.237500X-0.300000X0.237500X0*%
%ADD30RoundRect,0.150000X-0.150000X0.650000X-0.150000X-0.650000X0.150000X-0.650000X0.150000X0.650000X0*%
%ADD31R,1.400000X1.200000*%
%ADD32RoundRect,0.237500X0.237500X-0.300000X0.237500X0.300000X-0.237500X0.300000X-0.237500X-0.300000X0*%
%ADD33R,1.800000X1.100000*%
%ADD34R,1.700000X1.700000*%
%ADD35O,1.700000X1.700000*%
%ADD36RoundRect,0.050000X0.387500X0.050000X-0.387500X0.050000X-0.387500X-0.050000X0.387500X-0.050000X0*%
%ADD37RoundRect,0.050000X0.050000X0.387500X-0.050000X0.387500X-0.050000X-0.387500X0.050000X-0.387500X0*%
%ADD38RoundRect,0.144000X1.456000X1.456000X-1.456000X1.456000X-1.456000X-1.456000X1.456000X-1.456000X0*%
%ADD39RoundRect,0.150000X-0.150000X0.512500X-0.150000X-0.512500X0.150000X-0.512500X0.150000X0.512500X0*%
%ADD40R,2.000000X1.500000*%
%ADD41R,2.000000X3.800000*%
G04 APERTURE END LIST*
D10*
X164370000Y-72000000D03*
X174530000Y-72000000D03*
X250730000Y-72000000D03*
X240570000Y-72000000D03*
D11*
X231680000Y-52950000D03*
D12*
X230410000Y-55490000D03*
X224060000Y-58030000D03*
D13*
X226600000Y-52950000D03*
D11*
X221520000Y-52950000D03*
D14*
X233685000Y-55490000D03*
X220758000Y-58030000D03*
D10*
X145320000Y-72000000D03*
X155480000Y-72000000D03*
X231680000Y-72000000D03*
X221520000Y-72000000D03*
D13*
X169450000Y-52950000D03*
D12*
X166910000Y-58030000D03*
D11*
X164370000Y-52950000D03*
D12*
X173260000Y-55490000D03*
D11*
X174530000Y-52950000D03*
D14*
X176535000Y-55490000D03*
X163608000Y-58030000D03*
D15*
X198150000Y-61212500D03*
X198150000Y-59387500D03*
D16*
X217712500Y-65050000D03*
X219537500Y-65050000D03*
D17*
X246600000Y-73500000D03*
X244700000Y-73500000D03*
X245650000Y-70500000D03*
D18*
X161775000Y-52325000D03*
X161775000Y-55625000D03*
D16*
X184912500Y-69225000D03*
X186737500Y-69225000D03*
D19*
X184550000Y-78100000D03*
D20*
X192200000Y-70712500D03*
X192200000Y-72437500D03*
X229500000Y-73537500D03*
X229500000Y-75262500D03*
D21*
X172000000Y-67250000D03*
D22*
X166900000Y-67250000D03*
X166900000Y-65750000D03*
X172000000Y-65750000D03*
D21*
X248200000Y-67250000D03*
D22*
X243100000Y-67250000D03*
X243100000Y-65750000D03*
X248200000Y-65750000D03*
D23*
X166837500Y-77575000D03*
X165112500Y-77575000D03*
D18*
X218900000Y-52350000D03*
X218900000Y-55650000D03*
D24*
X196450000Y-59387500D03*
X196450000Y-61212500D03*
D16*
X217712500Y-66750000D03*
X219537500Y-66750000D03*
D25*
X200865000Y-49715000D03*
X195085000Y-49715000D03*
D26*
X194750000Y-51660000D03*
X195525000Y-51660000D03*
D27*
X196225000Y-51660000D03*
X196725000Y-51660000D03*
X197225000Y-51660000D03*
X197725000Y-51660000D03*
X198225000Y-51660000D03*
X198725000Y-51660000D03*
X199225000Y-51660000D03*
X199725000Y-51660000D03*
D26*
X200425000Y-51660000D03*
X201200000Y-51660000D03*
D17*
X227550000Y-73500000D03*
X225650000Y-73500000D03*
X226600000Y-70500000D03*
D24*
X244700000Y-75737500D03*
X244700000Y-77562500D03*
D17*
X170400000Y-73500000D03*
X168500000Y-73500000D03*
X169450000Y-70500000D03*
D28*
X219537500Y-68450000D03*
X217712500Y-68450000D03*
D29*
X227362500Y-77575000D03*
X229087500Y-77575000D03*
D28*
X212337500Y-51475000D03*
X210512500Y-51475000D03*
D24*
X225650000Y-75737500D03*
X225650000Y-77562500D03*
D20*
X206650000Y-59362500D03*
X206650000Y-61087500D03*
D30*
X208595000Y-53725000D03*
X209865000Y-53725000D03*
X211135000Y-53725000D03*
X212405000Y-53725000D03*
X212405000Y-60925000D03*
X211135000Y-60925000D03*
X209865000Y-60925000D03*
X208595000Y-60925000D03*
D31*
X196450000Y-75690000D03*
X198650000Y-75690000D03*
X198650000Y-77390000D03*
X196450000Y-77390000D03*
D24*
X168500000Y-75737500D03*
X168500000Y-77562500D03*
D32*
X193825000Y-77412500D03*
X193825000Y-75687500D03*
D29*
X246462500Y-77575000D03*
X248187500Y-77575000D03*
D24*
X149450000Y-75737500D03*
X149450000Y-77562500D03*
D33*
X181050000Y-64275000D03*
X187250000Y-60575000D03*
X181050000Y-60575000D03*
X187250000Y-64275000D03*
D34*
X208375000Y-77350000D03*
D35*
X210915000Y-77350000D03*
X213455000Y-77350000D03*
D33*
X186850000Y-71175000D03*
X180650000Y-74875000D03*
X186850000Y-74875000D03*
X180650000Y-71175000D03*
D20*
X248400000Y-73537500D03*
X248400000Y-75262500D03*
X153100000Y-73537500D03*
X153100000Y-75262500D03*
D15*
X201750000Y-57187500D03*
X201750000Y-55362500D03*
D19*
X207275000Y-47225000D03*
X187050000Y-78100000D03*
D23*
X147762500Y-77575000D03*
X146037500Y-77575000D03*
D28*
X214037500Y-73100000D03*
X212212500Y-73100000D03*
D24*
X194650000Y-55387500D03*
X194650000Y-57212500D03*
D21*
X152950000Y-67250000D03*
D22*
X147850000Y-67250000D03*
X147850000Y-65750000D03*
X152950000Y-65750000D03*
D28*
X208637500Y-51450000D03*
X206812500Y-51450000D03*
D32*
X200050000Y-57137500D03*
X200050000Y-55412500D03*
D19*
X189550000Y-78100000D03*
D28*
X214037500Y-74675000D03*
X212212500Y-74675000D03*
D29*
X188662500Y-55100000D03*
X190387500Y-55100000D03*
D36*
X200787500Y-67100000D03*
X200787500Y-67500000D03*
X200787500Y-67900000D03*
X200787500Y-68300000D03*
X200787500Y-68700000D03*
X200787500Y-69100000D03*
X200787500Y-69500000D03*
X200787500Y-69900000D03*
X200787500Y-70300000D03*
X200787500Y-70700000D03*
X200787500Y-71100000D03*
X200787500Y-71500000D03*
X200787500Y-71900000D03*
X200787500Y-72300000D03*
D37*
X199950000Y-73137500D03*
X199550000Y-73137500D03*
X199150000Y-73137500D03*
X198750000Y-73137500D03*
X198350000Y-73137500D03*
X197950000Y-73137500D03*
X197550000Y-73137500D03*
X197150000Y-73137500D03*
X196750000Y-73137500D03*
X196350000Y-73137500D03*
X195950000Y-73137500D03*
X195550000Y-73137500D03*
X195150000Y-73137500D03*
X194750000Y-73137500D03*
D36*
X193912500Y-72300000D03*
X193912500Y-71900000D03*
X193912500Y-71500000D03*
X193912500Y-71100000D03*
X193912500Y-70700000D03*
X193912500Y-70300000D03*
X193912500Y-69900000D03*
X193912500Y-69500000D03*
X193912500Y-69100000D03*
X193912500Y-68700000D03*
X193912500Y-68300000D03*
X193912500Y-67900000D03*
X193912500Y-67500000D03*
X193912500Y-67100000D03*
D37*
X194750000Y-66262500D03*
X195150000Y-66262500D03*
X195550000Y-66262500D03*
X195950000Y-66262500D03*
X196350000Y-66262500D03*
X196750000Y-66262500D03*
X197150000Y-66262500D03*
X197550000Y-66262500D03*
X197950000Y-66262500D03*
X198350000Y-66262500D03*
X198750000Y-66262500D03*
X199150000Y-66262500D03*
X199550000Y-66262500D03*
X199950000Y-66262500D03*
D38*
X197350000Y-69700000D03*
D21*
X229150000Y-67250000D03*
D22*
X224050000Y-67250000D03*
X224050000Y-65750000D03*
X229150000Y-65750000D03*
D17*
X151350000Y-73500000D03*
X149450000Y-73500000D03*
X150400000Y-70500000D03*
D20*
X172150000Y-73487500D03*
X172150000Y-75212500D03*
X201350000Y-75787500D03*
X201350000Y-77512500D03*
D39*
X196400000Y-55312500D03*
X197350000Y-55312500D03*
X198300000Y-55312500D03*
X198300000Y-57587500D03*
X197350000Y-57587500D03*
X196400000Y-57587500D03*
D40*
X189900000Y-48225000D03*
D41*
X183600000Y-50525000D03*
D40*
X189900000Y-50525000D03*
X189900000Y-52825000D03*
M02*
