G04 #@! TF.GenerationSoftware,KiCad,Pcbnew,(6.0.0)*
G04 #@! TF.CreationDate,2023-06-03T10:37:20-07:00*
G04 #@! TF.ProjectId,stepad,73746570-6164-42e6-9b69-6361645f7063,rev?*
G04 #@! TF.SameCoordinates,Original*
G04 #@! TF.FileFunction,Soldermask,Top*
G04 #@! TF.FilePolarity,Negative*
%FSLAX46Y46*%
G04 Gerber Fmt 4.6, Leading zero omitted, Abs format (unit mm)*
G04 Created by KiCad (PCBNEW (6.0.0)) date 2023-06-03 10:37:20*
%MOMM*%
%LPD*%
G01*
G04 APERTURE LIST*
G04 Aperture macros list*
%AMRoundRect*
0 Rectangle with rounded corners*
0 $1 Rounding radius*
0 $2 $3 $4 $5 $6 $7 $8 $9 X,Y pos of 4 corners*
0 Add a 4 corners polygon primitive as box body*
4,1,4,$2,$3,$4,$5,$6,$7,$8,$9,$2,$3,0*
0 Add four circle primitives for the rounded corners*
1,1,$1+$1,$2,$3*
1,1,$1+$1,$4,$5*
1,1,$1+$1,$6,$7*
1,1,$1+$1,$8,$9*
0 Add four rect primitives between the rounded corners*
20,1,$1+$1,$2,$3,$4,$5,0*
20,1,$1+$1,$4,$5,$6,$7,0*
20,1,$1+$1,$6,$7,$8,$9,0*
20,1,$1+$1,$8,$9,$2,$3,0*%
G04 Aperture macros list end*
%ADD10RoundRect,0.237500X-0.237500X0.300000X-0.237500X-0.300000X0.237500X-0.300000X0.237500X0.300000X0*%
%ADD11C,1.750000*%
%ADD12RoundRect,0.237500X0.237500X-0.300000X0.237500X0.300000X-0.237500X0.300000X-0.237500X-0.300000X0*%
%ADD13C,1.701800*%
%ADD14C,3.000000*%
%ADD15C,3.987800*%
%ADD16RoundRect,0.237500X-0.300000X-0.237500X0.300000X-0.237500X0.300000X0.237500X-0.300000X0.237500X0*%
%ADD17C,0.650000*%
%ADD18O,1.000000X1.600000*%
%ADD19O,1.000000X2.100000*%
%ADD20R,1.700000X1.700000*%
%ADD21O,1.700000X1.700000*%
G04 APERTURE END LIST*
D10*
X196725000Y-73237500D03*
X196725000Y-74962500D03*
D11*
X164370000Y-72000000D03*
X174530000Y-72000000D03*
D10*
X200800000Y-70987500D03*
X200800000Y-72712500D03*
D11*
X250730000Y-72000000D03*
X240570000Y-72000000D03*
D10*
X198325000Y-73237500D03*
X198325000Y-74962500D03*
D12*
X194075000Y-66187500D03*
X194075000Y-64462500D03*
D13*
X231680000Y-52950000D03*
D14*
X230410000Y-55490000D03*
X224060000Y-58030000D03*
D15*
X226600000Y-52950000D03*
D13*
X221520000Y-52950000D03*
D16*
X198987500Y-65950000D03*
X200712500Y-65950000D03*
D10*
X200800000Y-67587500D03*
X200800000Y-69312500D03*
D11*
X145320000Y-72000000D03*
X155480000Y-72000000D03*
D12*
X192500000Y-66187500D03*
X192500000Y-64462500D03*
X197250000Y-66162500D03*
X197250000Y-64437500D03*
D16*
X198987500Y-64425000D03*
X200712500Y-64425000D03*
D11*
X231680000Y-72000000D03*
X221520000Y-72000000D03*
D16*
X192475000Y-67825000D03*
X194200000Y-67825000D03*
D15*
X169450000Y-52950000D03*
D14*
X166910000Y-58030000D03*
D13*
X164370000Y-52950000D03*
D14*
X173260000Y-55490000D03*
D13*
X174530000Y-52950000D03*
D17*
X200865000Y-49715000D03*
X195085000Y-49715000D03*
D18*
X202295000Y-46065000D03*
D19*
X202295000Y-50245000D03*
D18*
X193655000Y-46065000D03*
D19*
X193655000Y-50245000D03*
D20*
X208375000Y-77350000D03*
D21*
X210915000Y-77350000D03*
X213455000Y-77350000D03*
M02*
