M48
; DRILL file {KiCad (6.0.0)} date Sat Jun  3 10:37:21 2023
; FORMAT={-:-/ absolute / metric / decimal}
; #@! TF.CreationDate,2023-06-03T10:37:21-07:00
; #@! TF.GenerationSoftware,Kicad,Pcbnew,(6.0.0)
; #@! TF.FileFunction,Plated,1,2,PTH
FMAT,2
METRIC
; #@! TA.AperFunction,Plated,PTH,ViaDrill
T1C0.300
; #@! TA.AperFunction,Plated,PTH,ComponentDrill
T2C0.350
; #@! TA.AperFunction,Plated,PTH,ComponentDrill
T3C0.600
; #@! TA.AperFunction,Plated,PTH,ComponentDrill
T4C1.000
%
G90
G05
T1
X145.375Y-76.3
X151.25Y-70.025
X154.3Y-75.5
X154.6Y-67.25
X154.6Y-68.827
X155.325Y-65.775
X161.775Y-50.4
X163.875Y-77.55
X170.475Y-70.1
X173.275Y-75.625
X174.025Y-67.3
X175.1Y-65.775
X176.3Y-67.2
X178.43Y-74.9
X178.44Y-71.14
X180.9Y-65.425
X185.325Y-72.75
X186.075Y-55.425
X187.55Y-55.05
X187.825Y-73.9
X189.55Y-72.975
X189.925Y-46.4
X190.4Y-69.85
X190.85Y-78.1
X191.2Y-69.05
X191.3Y-66.025
X192.4Y-58.7
X192.6Y-57.8
X192.86Y-69.63
X192.95Y-79.025
X193.325Y-57.45
X193.725Y-56.4
X195.35Y-65.025
X196.375Y-71.95
X196.9Y-56.45
X197.35Y-67.4
X197.74Y-71.94
X198.175Y-63.7
X199.325Y-71.875
X199.4Y-54.1
X199.6Y-67.55
X202.25Y-68.8
X202.575Y-74.85
X202.8Y-70.7
X202.975Y-69.0
X203.1Y-71.525
X204.475Y-69.75
X205.3Y-65.65
X205.3Y-69.9
X205.475Y-59.625
X206.975Y-70.65
X210.85Y-73.6
X212.35Y-55.325
X214.475Y-61.525
X217.575Y-51.25
X222.425Y-65.725
X222.425Y-67.25
X222.6Y-68.15
X223.875Y-77.85
X227.725Y-70.5
X230.225Y-77.575
X230.525Y-67.25
X230.6Y-75.7
X231.125Y-68.85
X232.3Y-67.675
X243.375Y-78.15
X246.725Y-70.075
X249.325Y-77.575
X249.525Y-75.9
X249.825Y-65.9
T2
X196.075Y-68.425
X196.075Y-69.7
X196.075Y-70.975
X197.35Y-68.425
X197.35Y-69.7
X197.35Y-70.975
X198.625Y-68.425
X198.625Y-69.7
X198.625Y-70.975
T4
X208.375Y-77.35
X210.915Y-77.35
X213.455Y-77.35
T3
X193.655Y-45.765G85X193.655Y-46.365
G05
X193.655Y-49.695G85X193.655Y-50.795
G05
X202.295Y-45.765G85X202.295Y-46.365
G05
X202.295Y-49.695G85X202.295Y-50.795
G05
T0
M30
