G04 #@! TF.GenerationSoftware,KiCad,Pcbnew,(6.0.0)*
G04 #@! TF.CreationDate,2023-06-02T21:34:00-07:00*
G04 #@! TF.ProjectId,stepad,73746570-6164-42e6-9b69-6361645f7063,rev?*
G04 #@! TF.SameCoordinates,Original*
G04 #@! TF.FileFunction,Legend,Bot*
G04 #@! TF.FilePolarity,Positive*
%FSLAX46Y46*%
G04 Gerber Fmt 4.6, Leading zero omitted, Abs format (unit mm)*
G04 Created by KiCad (PCBNEW (6.0.0)) date 2023-06-02 21:34:00*
%MOMM*%
%LPD*%
G01*
G04 APERTURE LIST*
G04 Aperture macros list*
%AMRoundRect*
0 Rectangle with rounded corners*
0 $1 Rounding radius*
0 $2 $3 $4 $5 $6 $7 $8 $9 X,Y pos of 4 corners*
0 Add a 4 corners polygon primitive as box body*
4,1,4,$2,$3,$4,$5,$6,$7,$8,$9,$2,$3,0*
0 Add four circle primitives for the rounded corners*
1,1,$1+$1,$2,$3*
1,1,$1+$1,$4,$5*
1,1,$1+$1,$6,$7*
1,1,$1+$1,$8,$9*
0 Add four rect primitives between the rounded corners*
20,1,$1+$1,$2,$3,$4,$5,0*
20,1,$1+$1,$4,$5,$6,$7,0*
20,1,$1+$1,$6,$7,$8,$9,0*
20,1,$1+$1,$8,$9,$2,$3,0*%
%AMOutline5P*
0 Free polygon, 5 corners , with rotation*
0 The origin of the aperture is its center*
0 number of corners: always 5*
0 $1 to $10 corner X, Y*
0 $11 Rotation angle, in degrees counterclockwise*
0 create outline with 5 corners*
4,1,5,$1,$2,$3,$4,$5,$6,$7,$8,$9,$10,$1,$2,$11*%
%AMOutline6P*
0 Free polygon, 6 corners , with rotation*
0 The origin of the aperture is its center*
0 number of corners: always 6*
0 $1 to $12 corner X, Y*
0 $13 Rotation angle, in degrees counterclockwise*
0 create outline with 6 corners*
4,1,6,$1,$2,$3,$4,$5,$6,$7,$8,$9,$10,$11,$12,$1,$2,$13*%
%AMOutline7P*
0 Free polygon, 7 corners , with rotation*
0 The origin of the aperture is its center*
0 number of corners: always 7*
0 $1 to $14 corner X, Y*
0 $15 Rotation angle, in degrees counterclockwise*
0 create outline with 7 corners*
4,1,7,$1,$2,$3,$4,$5,$6,$7,$8,$9,$10,$11,$12,$13,$14,$1,$2,$15*%
%AMOutline8P*
0 Free polygon, 8 corners , with rotation*
0 The origin of the aperture is its center*
0 number of corners: always 8*
0 $1 to $16 corner X, Y*
0 $17 Rotation angle, in degrees counterclockwise*
0 create outline with 8 corners*
4,1,8,$1,$2,$3,$4,$5,$6,$7,$8,$9,$10,$11,$12,$13,$14,$15,$16,$1,$2,$17*%
G04 Aperture macros list end*
%ADD10C,0.150000*%
%ADD11C,0.120000*%
%ADD12C,1.750000*%
%ADD13C,1.701800*%
%ADD14C,3.000000*%
%ADD15C,3.987800*%
%ADD16RoundRect,0.200000X1.075000X1.050000X-1.075000X1.050000X-1.075000X-1.050000X1.075000X-1.050000X0*%
%ADD17RoundRect,0.237500X0.237500X-0.250000X0.237500X0.250000X-0.237500X0.250000X-0.237500X-0.250000X0*%
%ADD18RoundRect,0.237500X-0.250000X-0.237500X0.250000X-0.237500X0.250000X0.237500X-0.250000X0.237500X0*%
%ADD19R,0.800000X1.900000*%
%ADD20R,1.200000X0.900000*%
%ADD21R,1.500000X1.500000*%
%ADD22RoundRect,0.237500X-0.237500X0.300000X-0.237500X-0.300000X0.237500X-0.300000X0.237500X0.300000X0*%
%ADD23Outline5P,-0.750000X0.180000X-0.480000X0.450000X0.750000X0.450000X0.750000X-0.450000X-0.750000X-0.450000X180.000000*%
%ADD24R,1.500000X0.900000*%
%ADD25RoundRect,0.237500X0.300000X0.237500X-0.300000X0.237500X-0.300000X-0.237500X0.300000X-0.237500X0*%
%ADD26RoundRect,0.237500X-0.237500X0.250000X-0.237500X-0.250000X0.237500X-0.250000X0.237500X0.250000X0*%
%ADD27C,0.650000*%
%ADD28R,0.600000X2.450000*%
%ADD29R,0.300000X2.450000*%
%ADD30RoundRect,0.237500X0.250000X0.237500X-0.250000X0.237500X-0.250000X-0.237500X0.250000X-0.237500X0*%
%ADD31RoundRect,0.237500X-0.300000X-0.237500X0.300000X-0.237500X0.300000X0.237500X-0.300000X0.237500X0*%
%ADD32RoundRect,0.150000X-0.150000X0.650000X-0.150000X-0.650000X0.150000X-0.650000X0.150000X0.650000X0*%
%ADD33R,1.400000X1.200000*%
%ADD34RoundRect,0.237500X0.237500X-0.300000X0.237500X0.300000X-0.237500X0.300000X-0.237500X-0.300000X0*%
%ADD35R,1.800000X1.100000*%
%ADD36R,1.700000X1.700000*%
%ADD37O,1.700000X1.700000*%
%ADD38RoundRect,0.050000X0.387500X0.050000X-0.387500X0.050000X-0.387500X-0.050000X0.387500X-0.050000X0*%
%ADD39RoundRect,0.050000X0.050000X0.387500X-0.050000X0.387500X-0.050000X-0.387500X0.050000X-0.387500X0*%
%ADD40RoundRect,0.144000X1.456000X1.456000X-1.456000X1.456000X-1.456000X-1.456000X1.456000X-1.456000X0*%
%ADD41RoundRect,0.150000X-0.150000X0.512500X-0.150000X-0.512500X0.150000X-0.512500X0.150000X0.512500X0*%
%ADD42R,2.000000X1.500000*%
%ADD43R,2.000000X3.800000*%
G04 APERTURE END LIST*
D10*
X200032380Y-60133333D02*
X199556190Y-59800000D01*
X200032380Y-59561904D02*
X199032380Y-59561904D01*
X199032380Y-59942857D01*
X199080000Y-60038095D01*
X199127619Y-60085714D01*
X199222857Y-60133333D01*
X199365714Y-60133333D01*
X199460952Y-60085714D01*
X199508571Y-60038095D01*
X199556190Y-59942857D01*
X199556190Y-59561904D01*
X199460952Y-60704761D02*
X199413333Y-60609523D01*
X199365714Y-60561904D01*
X199270476Y-60514285D01*
X199222857Y-60514285D01*
X199127619Y-60561904D01*
X199080000Y-60609523D01*
X199032380Y-60704761D01*
X199032380Y-60895238D01*
X199080000Y-60990476D01*
X199127619Y-61038095D01*
X199222857Y-61085714D01*
X199270476Y-61085714D01*
X199365714Y-61038095D01*
X199413333Y-60990476D01*
X199460952Y-60895238D01*
X199460952Y-60704761D01*
X199508571Y-60609523D01*
X199556190Y-60561904D01*
X199651428Y-60514285D01*
X199841904Y-60514285D01*
X199937142Y-60561904D01*
X199984761Y-60609523D01*
X200032380Y-60704761D01*
X200032380Y-60895238D01*
X199984761Y-60990476D01*
X199937142Y-61038095D01*
X199841904Y-61085714D01*
X199651428Y-61085714D01*
X199556190Y-61038095D01*
X199508571Y-60990476D01*
X199460952Y-60895238D01*
X216627380Y-64733333D02*
X216151190Y-64400000D01*
X216627380Y-64161904D02*
X215627380Y-64161904D01*
X215627380Y-64542857D01*
X215675000Y-64638095D01*
X215722619Y-64685714D01*
X215817857Y-64733333D01*
X215960714Y-64733333D01*
X216055952Y-64685714D01*
X216103571Y-64638095D01*
X216151190Y-64542857D01*
X216151190Y-64161904D01*
X215627380Y-65638095D02*
X215627380Y-65161904D01*
X216103571Y-65114285D01*
X216055952Y-65161904D01*
X216008333Y-65257142D01*
X216008333Y-65495238D01*
X216055952Y-65590476D01*
X216103571Y-65638095D01*
X216198809Y-65685714D01*
X216436904Y-65685714D01*
X216532142Y-65638095D01*
X216579761Y-65590476D01*
X216627380Y-65495238D01*
X216627380Y-65257142D01*
X216579761Y-65161904D01*
X216532142Y-65114285D01*
X249111904Y-69502380D02*
X249111904Y-70311904D01*
X249064285Y-70407142D01*
X249016666Y-70454761D01*
X248921428Y-70502380D01*
X248730952Y-70502380D01*
X248635714Y-70454761D01*
X248588095Y-70407142D01*
X248540476Y-70311904D01*
X248540476Y-69502380D01*
X247635714Y-69835714D02*
X247635714Y-70502380D01*
X247873809Y-69454761D02*
X248111904Y-70169047D01*
X247492857Y-70169047D01*
X160227380Y-53236904D02*
X159227380Y-53236904D01*
X159227380Y-53475000D01*
X159275000Y-53617857D01*
X159370238Y-53713095D01*
X159465476Y-53760714D01*
X159655952Y-53808333D01*
X159798809Y-53808333D01*
X159989285Y-53760714D01*
X160084523Y-53713095D01*
X160179761Y-53617857D01*
X160227380Y-53475000D01*
X160227380Y-53236904D01*
X159227380Y-54713095D02*
X159227380Y-54236904D01*
X159703571Y-54189285D01*
X159655952Y-54236904D01*
X159608333Y-54332142D01*
X159608333Y-54570238D01*
X159655952Y-54665476D01*
X159703571Y-54713095D01*
X159798809Y-54760714D01*
X160036904Y-54760714D01*
X160132142Y-54713095D01*
X160179761Y-54665476D01*
X160227380Y-54570238D01*
X160227380Y-54332142D01*
X160179761Y-54236904D01*
X160132142Y-54189285D01*
X183367857Y-69677380D02*
X183701190Y-69201190D01*
X183939285Y-69677380D02*
X183939285Y-68677380D01*
X183558333Y-68677380D01*
X183463095Y-68725000D01*
X183415476Y-68772619D01*
X183367857Y-68867857D01*
X183367857Y-69010714D01*
X183415476Y-69105952D01*
X183463095Y-69153571D01*
X183558333Y-69201190D01*
X183939285Y-69201190D01*
X182415476Y-69677380D02*
X182986904Y-69677380D01*
X182701190Y-69677380D02*
X182701190Y-68677380D01*
X182796428Y-68820238D01*
X182891666Y-68915476D01*
X182986904Y-68963095D01*
X181558333Y-68677380D02*
X181748809Y-68677380D01*
X181844047Y-68725000D01*
X181891666Y-68772619D01*
X181986904Y-68915476D01*
X182034523Y-69105952D01*
X182034523Y-69486904D01*
X181986904Y-69582142D01*
X181939285Y-69629761D01*
X181844047Y-69677380D01*
X181653571Y-69677380D01*
X181558333Y-69629761D01*
X181510714Y-69582142D01*
X181463095Y-69486904D01*
X181463095Y-69248809D01*
X181510714Y-69153571D01*
X181558333Y-69105952D01*
X181653571Y-69058333D01*
X181844047Y-69058333D01*
X181939285Y-69105952D01*
X181986904Y-69153571D01*
X182034523Y-69248809D01*
X191057142Y-70932142D02*
X191104761Y-70884523D01*
X191152380Y-70741666D01*
X191152380Y-70646428D01*
X191104761Y-70503571D01*
X191009523Y-70408333D01*
X190914285Y-70360714D01*
X190723809Y-70313095D01*
X190580952Y-70313095D01*
X190390476Y-70360714D01*
X190295238Y-70408333D01*
X190200000Y-70503571D01*
X190152380Y-70646428D01*
X190152380Y-70741666D01*
X190200000Y-70884523D01*
X190247619Y-70932142D01*
X191152380Y-71884523D02*
X191152380Y-71313095D01*
X191152380Y-71598809D02*
X190152380Y-71598809D01*
X190295238Y-71503571D01*
X190390476Y-71408333D01*
X190438095Y-71313095D01*
X190485714Y-72741666D02*
X191152380Y-72741666D01*
X190104761Y-72503571D02*
X190819047Y-72265476D01*
X190819047Y-72884523D01*
X231357142Y-74233333D02*
X231404761Y-74185714D01*
X231452380Y-74042857D01*
X231452380Y-73947619D01*
X231404761Y-73804761D01*
X231309523Y-73709523D01*
X231214285Y-73661904D01*
X231023809Y-73614285D01*
X230880952Y-73614285D01*
X230690476Y-73661904D01*
X230595238Y-73709523D01*
X230500000Y-73804761D01*
X230452380Y-73947619D01*
X230452380Y-74042857D01*
X230500000Y-74185714D01*
X230547619Y-74233333D01*
X230452380Y-74566666D02*
X230452380Y-75185714D01*
X230833333Y-74852380D01*
X230833333Y-74995238D01*
X230880952Y-75090476D01*
X230928571Y-75138095D01*
X231023809Y-75185714D01*
X231261904Y-75185714D01*
X231357142Y-75138095D01*
X231404761Y-75090476D01*
X231452380Y-74995238D01*
X231452380Y-74709523D01*
X231404761Y-74614285D01*
X231357142Y-74566666D01*
X170188095Y-63752380D02*
X170188095Y-62752380D01*
X169950000Y-62752380D01*
X169807142Y-62800000D01*
X169711904Y-62895238D01*
X169664285Y-62990476D01*
X169616666Y-63180952D01*
X169616666Y-63323809D01*
X169664285Y-63514285D01*
X169711904Y-63609523D01*
X169807142Y-63704761D01*
X169950000Y-63752380D01*
X170188095Y-63752380D01*
X169235714Y-62847619D02*
X169188095Y-62800000D01*
X169092857Y-62752380D01*
X168854761Y-62752380D01*
X168759523Y-62800000D01*
X168711904Y-62847619D01*
X168664285Y-62942857D01*
X168664285Y-63038095D01*
X168711904Y-63180952D01*
X169283333Y-63752380D01*
X168664285Y-63752380D01*
X246388095Y-63752380D02*
X246388095Y-62752380D01*
X246150000Y-62752380D01*
X246007142Y-62800000D01*
X245911904Y-62895238D01*
X245864285Y-62990476D01*
X245816666Y-63180952D01*
X245816666Y-63323809D01*
X245864285Y-63514285D01*
X245911904Y-63609523D01*
X246007142Y-63704761D01*
X246150000Y-63752380D01*
X246388095Y-63752380D01*
X244959523Y-63085714D02*
X244959523Y-63752380D01*
X245197619Y-62704761D02*
X245435714Y-63419047D01*
X244816666Y-63419047D01*
X166141666Y-76502142D02*
X166189285Y-76549761D01*
X166332142Y-76597380D01*
X166427380Y-76597380D01*
X166570238Y-76549761D01*
X166665476Y-76454523D01*
X166713095Y-76359285D01*
X166760714Y-76168809D01*
X166760714Y-76025952D01*
X166713095Y-75835476D01*
X166665476Y-75740238D01*
X166570238Y-75645000D01*
X166427380Y-75597380D01*
X166332142Y-75597380D01*
X166189285Y-75645000D01*
X166141666Y-75692619D01*
X165808333Y-75597380D02*
X165141666Y-75597380D01*
X165570238Y-76597380D01*
X219613095Y-51352380D02*
X219613095Y-50352380D01*
X219375000Y-50352380D01*
X219232142Y-50400000D01*
X219136904Y-50495238D01*
X219089285Y-50590476D01*
X219041666Y-50780952D01*
X219041666Y-50923809D01*
X219089285Y-51114285D01*
X219136904Y-51209523D01*
X219232142Y-51304761D01*
X219375000Y-51352380D01*
X219613095Y-51352380D01*
X218184523Y-50352380D02*
X218375000Y-50352380D01*
X218470238Y-50400000D01*
X218517857Y-50447619D01*
X218613095Y-50590476D01*
X218660714Y-50780952D01*
X218660714Y-51161904D01*
X218613095Y-51257142D01*
X218565476Y-51304761D01*
X218470238Y-51352380D01*
X218279761Y-51352380D01*
X218184523Y-51304761D01*
X218136904Y-51257142D01*
X218089285Y-51161904D01*
X218089285Y-50923809D01*
X218136904Y-50828571D01*
X218184523Y-50780952D01*
X218279761Y-50733333D01*
X218470238Y-50733333D01*
X218565476Y-50780952D01*
X218613095Y-50828571D01*
X218660714Y-50923809D01*
X195472380Y-60133333D02*
X194996190Y-59800000D01*
X195472380Y-59561904D02*
X194472380Y-59561904D01*
X194472380Y-59942857D01*
X194520000Y-60038095D01*
X194567619Y-60085714D01*
X194662857Y-60133333D01*
X194805714Y-60133333D01*
X194900952Y-60085714D01*
X194948571Y-60038095D01*
X194996190Y-59942857D01*
X194996190Y-59561904D01*
X195472380Y-60609523D02*
X195472380Y-60800000D01*
X195424761Y-60895238D01*
X195377142Y-60942857D01*
X195234285Y-61038095D01*
X195043809Y-61085714D01*
X194662857Y-61085714D01*
X194567619Y-61038095D01*
X194520000Y-60990476D01*
X194472380Y-60895238D01*
X194472380Y-60704761D01*
X194520000Y-60609523D01*
X194567619Y-60561904D01*
X194662857Y-60514285D01*
X194900952Y-60514285D01*
X194996190Y-60561904D01*
X195043809Y-60609523D01*
X195091428Y-60704761D01*
X195091428Y-60895238D01*
X195043809Y-60990476D01*
X194996190Y-61038095D01*
X194900952Y-61085714D01*
X216652380Y-66583333D02*
X216176190Y-66250000D01*
X216652380Y-66011904D02*
X215652380Y-66011904D01*
X215652380Y-66392857D01*
X215700000Y-66488095D01*
X215747619Y-66535714D01*
X215842857Y-66583333D01*
X215985714Y-66583333D01*
X216080952Y-66535714D01*
X216128571Y-66488095D01*
X216176190Y-66392857D01*
X216176190Y-66011904D01*
X215652380Y-67440476D02*
X215652380Y-67250000D01*
X215700000Y-67154761D01*
X215747619Y-67107142D01*
X215890476Y-67011904D01*
X216080952Y-66964285D01*
X216461904Y-66964285D01*
X216557142Y-67011904D01*
X216604761Y-67059523D01*
X216652380Y-67154761D01*
X216652380Y-67345238D01*
X216604761Y-67440476D01*
X216557142Y-67488095D01*
X216461904Y-67535714D01*
X216223809Y-67535714D01*
X216128571Y-67488095D01*
X216080952Y-67440476D01*
X216033333Y-67345238D01*
X216033333Y-67154761D01*
X216080952Y-67059523D01*
X216128571Y-67011904D01*
X216223809Y-66964285D01*
X204633333Y-45902380D02*
X204633333Y-46616666D01*
X204680952Y-46759523D01*
X204776190Y-46854761D01*
X204919047Y-46902380D01*
X205014285Y-46902380D01*
X203633333Y-46902380D02*
X204204761Y-46902380D01*
X203919047Y-46902380D02*
X203919047Y-45902380D01*
X204014285Y-46045238D01*
X204109523Y-46140476D01*
X204204761Y-46188095D01*
X230136904Y-69727380D02*
X230136904Y-70536904D01*
X230089285Y-70632142D01*
X230041666Y-70679761D01*
X229946428Y-70727380D01*
X229755952Y-70727380D01*
X229660714Y-70679761D01*
X229613095Y-70632142D01*
X229565476Y-70536904D01*
X229565476Y-69727380D01*
X229184523Y-69727380D02*
X228565476Y-69727380D01*
X228898809Y-70108333D01*
X228755952Y-70108333D01*
X228660714Y-70155952D01*
X228613095Y-70203571D01*
X228565476Y-70298809D01*
X228565476Y-70536904D01*
X228613095Y-70632142D01*
X228660714Y-70679761D01*
X228755952Y-70727380D01*
X229041666Y-70727380D01*
X229136904Y-70679761D01*
X229184523Y-70632142D01*
X243727380Y-76483333D02*
X243251190Y-76150000D01*
X243727380Y-75911904D02*
X242727380Y-75911904D01*
X242727380Y-76292857D01*
X242775000Y-76388095D01*
X242822619Y-76435714D01*
X242917857Y-76483333D01*
X243060714Y-76483333D01*
X243155952Y-76435714D01*
X243203571Y-76388095D01*
X243251190Y-76292857D01*
X243251190Y-75911904D01*
X243060714Y-77340476D02*
X243727380Y-77340476D01*
X242679761Y-77102380D02*
X243394047Y-76864285D01*
X243394047Y-77483333D01*
X173161904Y-69552380D02*
X173161904Y-70361904D01*
X173114285Y-70457142D01*
X173066666Y-70504761D01*
X172971428Y-70552380D01*
X172780952Y-70552380D01*
X172685714Y-70504761D01*
X172638095Y-70457142D01*
X172590476Y-70361904D01*
X172590476Y-69552380D01*
X172161904Y-69647619D02*
X172114285Y-69600000D01*
X172019047Y-69552380D01*
X171780952Y-69552380D01*
X171685714Y-69600000D01*
X171638095Y-69647619D01*
X171590476Y-69742857D01*
X171590476Y-69838095D01*
X171638095Y-69980952D01*
X172209523Y-70552380D01*
X171590476Y-70552380D01*
X216652380Y-68383333D02*
X216176190Y-68050000D01*
X216652380Y-67811904D02*
X215652380Y-67811904D01*
X215652380Y-68192857D01*
X215700000Y-68288095D01*
X215747619Y-68335714D01*
X215842857Y-68383333D01*
X215985714Y-68383333D01*
X216080952Y-68335714D01*
X216128571Y-68288095D01*
X216176190Y-68192857D01*
X216176190Y-67811904D01*
X215652380Y-68716666D02*
X215652380Y-69383333D01*
X216652380Y-68954761D01*
X227891666Y-76457142D02*
X227939285Y-76504761D01*
X228082142Y-76552380D01*
X228177380Y-76552380D01*
X228320238Y-76504761D01*
X228415476Y-76409523D01*
X228463095Y-76314285D01*
X228510714Y-76123809D01*
X228510714Y-75980952D01*
X228463095Y-75790476D01*
X228415476Y-75695238D01*
X228320238Y-75600000D01*
X228177380Y-75552380D01*
X228082142Y-75552380D01*
X227939285Y-75600000D01*
X227891666Y-75647619D01*
X227320238Y-75980952D02*
X227415476Y-75933333D01*
X227463095Y-75885714D01*
X227510714Y-75790476D01*
X227510714Y-75742857D01*
X227463095Y-75647619D01*
X227415476Y-75600000D01*
X227320238Y-75552380D01*
X227129761Y-75552380D01*
X227034523Y-75600000D01*
X226986904Y-75647619D01*
X226939285Y-75742857D01*
X226939285Y-75790476D01*
X226986904Y-75885714D01*
X227034523Y-75933333D01*
X227129761Y-75980952D01*
X227320238Y-75980952D01*
X227415476Y-76028571D01*
X227463095Y-76076190D01*
X227510714Y-76171428D01*
X227510714Y-76361904D01*
X227463095Y-76457142D01*
X227415476Y-76504761D01*
X227320238Y-76552380D01*
X227129761Y-76552380D01*
X227034523Y-76504761D01*
X226986904Y-76457142D01*
X226939285Y-76361904D01*
X226939285Y-76171428D01*
X226986904Y-76076190D01*
X227034523Y-76028571D01*
X227129761Y-75980952D01*
X212117857Y-50427380D02*
X212451190Y-49951190D01*
X212689285Y-50427380D02*
X212689285Y-49427380D01*
X212308333Y-49427380D01*
X212213095Y-49475000D01*
X212165476Y-49522619D01*
X212117857Y-49617857D01*
X212117857Y-49760714D01*
X212165476Y-49855952D01*
X212213095Y-49903571D01*
X212308333Y-49951190D01*
X212689285Y-49951190D01*
X211165476Y-50427380D02*
X211736904Y-50427380D01*
X211451190Y-50427380D02*
X211451190Y-49427380D01*
X211546428Y-49570238D01*
X211641666Y-49665476D01*
X211736904Y-49713095D01*
X210213095Y-50427380D02*
X210784523Y-50427380D01*
X210498809Y-50427380D02*
X210498809Y-49427380D01*
X210594047Y-49570238D01*
X210689285Y-49665476D01*
X210784523Y-49713095D01*
X224752380Y-76483333D02*
X224276190Y-76150000D01*
X224752380Y-75911904D02*
X223752380Y-75911904D01*
X223752380Y-76292857D01*
X223800000Y-76388095D01*
X223847619Y-76435714D01*
X223942857Y-76483333D01*
X224085714Y-76483333D01*
X224180952Y-76435714D01*
X224228571Y-76388095D01*
X224276190Y-76292857D01*
X224276190Y-75911904D01*
X223752380Y-76816666D02*
X223752380Y-77435714D01*
X224133333Y-77102380D01*
X224133333Y-77245238D01*
X224180952Y-77340476D01*
X224228571Y-77388095D01*
X224323809Y-77435714D01*
X224561904Y-77435714D01*
X224657142Y-77388095D01*
X224704761Y-77340476D01*
X224752380Y-77245238D01*
X224752380Y-76959523D01*
X224704761Y-76864285D01*
X224657142Y-76816666D01*
X205457142Y-59607142D02*
X205504761Y-59559523D01*
X205552380Y-59416666D01*
X205552380Y-59321428D01*
X205504761Y-59178571D01*
X205409523Y-59083333D01*
X205314285Y-59035714D01*
X205123809Y-58988095D01*
X204980952Y-58988095D01*
X204790476Y-59035714D01*
X204695238Y-59083333D01*
X204600000Y-59178571D01*
X204552380Y-59321428D01*
X204552380Y-59416666D01*
X204600000Y-59559523D01*
X204647619Y-59607142D01*
X204647619Y-59988095D02*
X204600000Y-60035714D01*
X204552380Y-60130952D01*
X204552380Y-60369047D01*
X204600000Y-60464285D01*
X204647619Y-60511904D01*
X204742857Y-60559523D01*
X204838095Y-60559523D01*
X204980952Y-60511904D01*
X205552380Y-59940476D01*
X205552380Y-60559523D01*
X205552380Y-61511904D02*
X205552380Y-60940476D01*
X205552380Y-61226190D02*
X204552380Y-61226190D01*
X204695238Y-61130952D01*
X204790476Y-61035714D01*
X204838095Y-60940476D01*
X206392380Y-56563095D02*
X207201904Y-56563095D01*
X207297142Y-56610714D01*
X207344761Y-56658333D01*
X207392380Y-56753571D01*
X207392380Y-56944047D01*
X207344761Y-57039285D01*
X207297142Y-57086904D01*
X207201904Y-57134523D01*
X206392380Y-57134523D01*
X206392380Y-58039285D02*
X206392380Y-57848809D01*
X206440000Y-57753571D01*
X206487619Y-57705952D01*
X206630476Y-57610714D01*
X206820952Y-57563095D01*
X207201904Y-57563095D01*
X207297142Y-57610714D01*
X207344761Y-57658333D01*
X207392380Y-57753571D01*
X207392380Y-57944047D01*
X207344761Y-58039285D01*
X207297142Y-58086904D01*
X207201904Y-58134523D01*
X206963809Y-58134523D01*
X206868571Y-58086904D01*
X206820952Y-58039285D01*
X206773333Y-57944047D01*
X206773333Y-57753571D01*
X206820952Y-57658333D01*
X206868571Y-57610714D01*
X206963809Y-57563095D01*
X198026190Y-78966190D02*
X198026190Y-79442380D01*
X198359523Y-78442380D02*
X198026190Y-78966190D01*
X197692857Y-78442380D01*
X196835714Y-79442380D02*
X197407142Y-79442380D01*
X197121428Y-79442380D02*
X197121428Y-78442380D01*
X197216666Y-78585238D01*
X197311904Y-78680476D01*
X197407142Y-78728095D01*
X170402380Y-76483333D02*
X169926190Y-76150000D01*
X170402380Y-75911904D02*
X169402380Y-75911904D01*
X169402380Y-76292857D01*
X169450000Y-76388095D01*
X169497619Y-76435714D01*
X169592857Y-76483333D01*
X169735714Y-76483333D01*
X169830952Y-76435714D01*
X169878571Y-76388095D01*
X169926190Y-76292857D01*
X169926190Y-75911904D01*
X169497619Y-76864285D02*
X169450000Y-76911904D01*
X169402380Y-77007142D01*
X169402380Y-77245238D01*
X169450000Y-77340476D01*
X169497619Y-77388095D01*
X169592857Y-77435714D01*
X169688095Y-77435714D01*
X169830952Y-77388095D01*
X170402380Y-76816666D01*
X170402380Y-77435714D01*
X192657142Y-75907142D02*
X192704761Y-75859523D01*
X192752380Y-75716666D01*
X192752380Y-75621428D01*
X192704761Y-75478571D01*
X192609523Y-75383333D01*
X192514285Y-75335714D01*
X192323809Y-75288095D01*
X192180952Y-75288095D01*
X191990476Y-75335714D01*
X191895238Y-75383333D01*
X191800000Y-75478571D01*
X191752380Y-75621428D01*
X191752380Y-75716666D01*
X191800000Y-75859523D01*
X191847619Y-75907142D01*
X191847619Y-76288095D02*
X191800000Y-76335714D01*
X191752380Y-76430952D01*
X191752380Y-76669047D01*
X191800000Y-76764285D01*
X191847619Y-76811904D01*
X191942857Y-76859523D01*
X192038095Y-76859523D01*
X192180952Y-76811904D01*
X192752380Y-76240476D01*
X192752380Y-76859523D01*
X191752380Y-77192857D02*
X191752380Y-77811904D01*
X192133333Y-77478571D01*
X192133333Y-77621428D01*
X192180952Y-77716666D01*
X192228571Y-77764285D01*
X192323809Y-77811904D01*
X192561904Y-77811904D01*
X192657142Y-77764285D01*
X192704761Y-77716666D01*
X192752380Y-77621428D01*
X192752380Y-77335714D01*
X192704761Y-77240476D01*
X192657142Y-77192857D01*
X246766666Y-76457142D02*
X246814285Y-76504761D01*
X246957142Y-76552380D01*
X247052380Y-76552380D01*
X247195238Y-76504761D01*
X247290476Y-76409523D01*
X247338095Y-76314285D01*
X247385714Y-76123809D01*
X247385714Y-75980952D01*
X247338095Y-75790476D01*
X247290476Y-75695238D01*
X247195238Y-75600000D01*
X247052380Y-75552380D01*
X246957142Y-75552380D01*
X246814285Y-75600000D01*
X246766666Y-75647619D01*
X246290476Y-76552380D02*
X246100000Y-76552380D01*
X246004761Y-76504761D01*
X245957142Y-76457142D01*
X245861904Y-76314285D01*
X245814285Y-76123809D01*
X245814285Y-75742857D01*
X245861904Y-75647619D01*
X245909523Y-75600000D01*
X246004761Y-75552380D01*
X246195238Y-75552380D01*
X246290476Y-75600000D01*
X246338095Y-75647619D01*
X246385714Y-75742857D01*
X246385714Y-75980952D01*
X246338095Y-76076190D01*
X246290476Y-76123809D01*
X246195238Y-76171428D01*
X246004761Y-76171428D01*
X245909523Y-76123809D01*
X245861904Y-76076190D01*
X245814285Y-75980952D01*
X151427380Y-76408333D02*
X150951190Y-76075000D01*
X151427380Y-75836904D02*
X150427380Y-75836904D01*
X150427380Y-76217857D01*
X150475000Y-76313095D01*
X150522619Y-76360714D01*
X150617857Y-76408333D01*
X150760714Y-76408333D01*
X150855952Y-76360714D01*
X150903571Y-76313095D01*
X150951190Y-76217857D01*
X150951190Y-75836904D01*
X151427380Y-77360714D02*
X151427380Y-76789285D01*
X151427380Y-77075000D02*
X150427380Y-77075000D01*
X150570238Y-76979761D01*
X150665476Y-76884523D01*
X150713095Y-76789285D01*
X185483333Y-66354761D02*
X185340476Y-66402380D01*
X185102380Y-66402380D01*
X185007142Y-66354761D01*
X184959523Y-66307142D01*
X184911904Y-66211904D01*
X184911904Y-66116666D01*
X184959523Y-66021428D01*
X185007142Y-65973809D01*
X185102380Y-65926190D01*
X185292857Y-65878571D01*
X185388095Y-65830952D01*
X185435714Y-65783333D01*
X185483333Y-65688095D01*
X185483333Y-65592857D01*
X185435714Y-65497619D01*
X185388095Y-65450000D01*
X185292857Y-65402380D01*
X185054761Y-65402380D01*
X184911904Y-65450000D01*
X184578571Y-65402380D02*
X184340476Y-66402380D01*
X184150000Y-65688095D01*
X183959523Y-66402380D01*
X183721428Y-65402380D01*
X182864285Y-65402380D02*
X183340476Y-65402380D01*
X183388095Y-65878571D01*
X183340476Y-65830952D01*
X183245238Y-65783333D01*
X183007142Y-65783333D01*
X182911904Y-65830952D01*
X182864285Y-65878571D01*
X182816666Y-65973809D01*
X182816666Y-66211904D01*
X182864285Y-66307142D01*
X182911904Y-66354761D01*
X183007142Y-66402380D01*
X183245238Y-66402380D01*
X183340476Y-66354761D01*
X183388095Y-66307142D01*
X205352380Y-77016666D02*
X206066666Y-77016666D01*
X206209523Y-76969047D01*
X206304761Y-76873809D01*
X206352380Y-76730952D01*
X206352380Y-76635714D01*
X205447619Y-77445238D02*
X205400000Y-77492857D01*
X205352380Y-77588095D01*
X205352380Y-77826190D01*
X205400000Y-77921428D01*
X205447619Y-77969047D01*
X205542857Y-78016666D01*
X205638095Y-78016666D01*
X205780952Y-77969047D01*
X206352380Y-77397619D01*
X206352380Y-78016666D01*
X180733333Y-73854761D02*
X180590476Y-73902380D01*
X180352380Y-73902380D01*
X180257142Y-73854761D01*
X180209523Y-73807142D01*
X180161904Y-73711904D01*
X180161904Y-73616666D01*
X180209523Y-73521428D01*
X180257142Y-73473809D01*
X180352380Y-73426190D01*
X180542857Y-73378571D01*
X180638095Y-73330952D01*
X180685714Y-73283333D01*
X180733333Y-73188095D01*
X180733333Y-73092857D01*
X180685714Y-72997619D01*
X180638095Y-72950000D01*
X180542857Y-72902380D01*
X180304761Y-72902380D01*
X180161904Y-72950000D01*
X179828571Y-72902380D02*
X179590476Y-73902380D01*
X179400000Y-73188095D01*
X179209523Y-73902380D01*
X178971428Y-72902380D01*
X178161904Y-72902380D02*
X178352380Y-72902380D01*
X178447619Y-72950000D01*
X178495238Y-72997619D01*
X178590476Y-73140476D01*
X178638095Y-73330952D01*
X178638095Y-73711904D01*
X178590476Y-73807142D01*
X178542857Y-73854761D01*
X178447619Y-73902380D01*
X178257142Y-73902380D01*
X178161904Y-73854761D01*
X178114285Y-73807142D01*
X178066666Y-73711904D01*
X178066666Y-73473809D01*
X178114285Y-73378571D01*
X178161904Y-73330952D01*
X178257142Y-73283333D01*
X178447619Y-73283333D01*
X178542857Y-73330952D01*
X178590476Y-73378571D01*
X178638095Y-73473809D01*
X250257142Y-74233333D02*
X250304761Y-74185714D01*
X250352380Y-74042857D01*
X250352380Y-73947619D01*
X250304761Y-73804761D01*
X250209523Y-73709523D01*
X250114285Y-73661904D01*
X249923809Y-73614285D01*
X249780952Y-73614285D01*
X249590476Y-73661904D01*
X249495238Y-73709523D01*
X249400000Y-73804761D01*
X249352380Y-73947619D01*
X249352380Y-74042857D01*
X249400000Y-74185714D01*
X249447619Y-74233333D01*
X249685714Y-75090476D02*
X250352380Y-75090476D01*
X249304761Y-74852380D02*
X250019047Y-74614285D01*
X250019047Y-75233333D01*
X154907142Y-74233333D02*
X154954761Y-74185714D01*
X155002380Y-74042857D01*
X155002380Y-73947619D01*
X154954761Y-73804761D01*
X154859523Y-73709523D01*
X154764285Y-73661904D01*
X154573809Y-73614285D01*
X154430952Y-73614285D01*
X154240476Y-73661904D01*
X154145238Y-73709523D01*
X154050000Y-73804761D01*
X154002380Y-73947619D01*
X154002380Y-74042857D01*
X154050000Y-74185714D01*
X154097619Y-74233333D01*
X155002380Y-75185714D02*
X155002380Y-74614285D01*
X155002380Y-74900000D02*
X154002380Y-74900000D01*
X154145238Y-74804761D01*
X154240476Y-74709523D01*
X154288095Y-74614285D01*
X203677380Y-55632142D02*
X203201190Y-55298809D01*
X203677380Y-55060714D02*
X202677380Y-55060714D01*
X202677380Y-55441666D01*
X202725000Y-55536904D01*
X202772619Y-55584523D01*
X202867857Y-55632142D01*
X203010714Y-55632142D01*
X203105952Y-55584523D01*
X203153571Y-55536904D01*
X203201190Y-55441666D01*
X203201190Y-55060714D01*
X203677380Y-56584523D02*
X203677380Y-56013095D01*
X203677380Y-56298809D02*
X202677380Y-56298809D01*
X202820238Y-56203571D01*
X202915476Y-56108333D01*
X202963095Y-56013095D01*
X202677380Y-57489285D02*
X202677380Y-57013095D01*
X203153571Y-56965476D01*
X203105952Y-57013095D01*
X203058333Y-57108333D01*
X203058333Y-57346428D01*
X203105952Y-57441666D01*
X203153571Y-57489285D01*
X203248809Y-57536904D01*
X203486904Y-57536904D01*
X203582142Y-57489285D01*
X203629761Y-57441666D01*
X203677380Y-57346428D01*
X203677380Y-57108333D01*
X203629761Y-57013095D01*
X203582142Y-56965476D01*
X147066666Y-76502142D02*
X147114285Y-76549761D01*
X147257142Y-76597380D01*
X147352380Y-76597380D01*
X147495238Y-76549761D01*
X147590476Y-76454523D01*
X147638095Y-76359285D01*
X147685714Y-76168809D01*
X147685714Y-76025952D01*
X147638095Y-75835476D01*
X147590476Y-75740238D01*
X147495238Y-75645000D01*
X147352380Y-75597380D01*
X147257142Y-75597380D01*
X147114285Y-75645000D01*
X147066666Y-75692619D01*
X146209523Y-75597380D02*
X146400000Y-75597380D01*
X146495238Y-75645000D01*
X146542857Y-75692619D01*
X146638095Y-75835476D01*
X146685714Y-76025952D01*
X146685714Y-76406904D01*
X146638095Y-76502142D01*
X146590476Y-76549761D01*
X146495238Y-76597380D01*
X146304761Y-76597380D01*
X146209523Y-76549761D01*
X146161904Y-76502142D01*
X146114285Y-76406904D01*
X146114285Y-76168809D01*
X146161904Y-76073571D01*
X146209523Y-76025952D01*
X146304761Y-75978333D01*
X146495238Y-75978333D01*
X146590476Y-76025952D01*
X146638095Y-76073571D01*
X146685714Y-76168809D01*
X217042857Y-73527380D02*
X217376190Y-73051190D01*
X217614285Y-73527380D02*
X217614285Y-72527380D01*
X217233333Y-72527380D01*
X217138095Y-72575000D01*
X217090476Y-72622619D01*
X217042857Y-72717857D01*
X217042857Y-72860714D01*
X217090476Y-72955952D01*
X217138095Y-73003571D01*
X217233333Y-73051190D01*
X217614285Y-73051190D01*
X216090476Y-73527380D02*
X216661904Y-73527380D01*
X216376190Y-73527380D02*
X216376190Y-72527380D01*
X216471428Y-72670238D01*
X216566666Y-72765476D01*
X216661904Y-72813095D01*
X215709523Y-72622619D02*
X215661904Y-72575000D01*
X215566666Y-72527380D01*
X215328571Y-72527380D01*
X215233333Y-72575000D01*
X215185714Y-72622619D01*
X215138095Y-72717857D01*
X215138095Y-72813095D01*
X215185714Y-72955952D01*
X215757142Y-73527380D01*
X215138095Y-73527380D01*
X194767857Y-54327380D02*
X195101190Y-53851190D01*
X195339285Y-54327380D02*
X195339285Y-53327380D01*
X194958333Y-53327380D01*
X194863095Y-53375000D01*
X194815476Y-53422619D01*
X194767857Y-53517857D01*
X194767857Y-53660714D01*
X194815476Y-53755952D01*
X194863095Y-53803571D01*
X194958333Y-53851190D01*
X195339285Y-53851190D01*
X193815476Y-54327380D02*
X194386904Y-54327380D01*
X194101190Y-54327380D02*
X194101190Y-53327380D01*
X194196428Y-53470238D01*
X194291666Y-53565476D01*
X194386904Y-53613095D01*
X192958333Y-53660714D02*
X192958333Y-54327380D01*
X193196428Y-53279761D02*
X193434523Y-53994047D01*
X192815476Y-53994047D01*
X151138095Y-63752380D02*
X151138095Y-62752380D01*
X150900000Y-62752380D01*
X150757142Y-62800000D01*
X150661904Y-62895238D01*
X150614285Y-62990476D01*
X150566666Y-63180952D01*
X150566666Y-63323809D01*
X150614285Y-63514285D01*
X150661904Y-63609523D01*
X150757142Y-63704761D01*
X150900000Y-63752380D01*
X151138095Y-63752380D01*
X149614285Y-63752380D02*
X150185714Y-63752380D01*
X149900000Y-63752380D02*
X149900000Y-62752380D01*
X149995238Y-62895238D01*
X150090476Y-62990476D01*
X150185714Y-63038095D01*
X208367857Y-50477380D02*
X208701190Y-50001190D01*
X208939285Y-50477380D02*
X208939285Y-49477380D01*
X208558333Y-49477380D01*
X208463095Y-49525000D01*
X208415476Y-49572619D01*
X208367857Y-49667857D01*
X208367857Y-49810714D01*
X208415476Y-49905952D01*
X208463095Y-49953571D01*
X208558333Y-50001190D01*
X208939285Y-50001190D01*
X207415476Y-50477380D02*
X207986904Y-50477380D01*
X207701190Y-50477380D02*
X207701190Y-49477380D01*
X207796428Y-49620238D01*
X207891666Y-49715476D01*
X207986904Y-49763095D01*
X206796428Y-49477380D02*
X206701190Y-49477380D01*
X206605952Y-49525000D01*
X206558333Y-49572619D01*
X206510714Y-49667857D01*
X206463095Y-49858333D01*
X206463095Y-50096428D01*
X206510714Y-50286904D01*
X206558333Y-50382142D01*
X206605952Y-50429761D01*
X206701190Y-50477380D01*
X206796428Y-50477380D01*
X206891666Y-50429761D01*
X206939285Y-50382142D01*
X206986904Y-50286904D01*
X207034523Y-50096428D01*
X207034523Y-49858333D01*
X206986904Y-49667857D01*
X206939285Y-49572619D01*
X206891666Y-49525000D01*
X206796428Y-49477380D01*
X200892857Y-54132142D02*
X200940476Y-54179761D01*
X201083333Y-54227380D01*
X201178571Y-54227380D01*
X201321428Y-54179761D01*
X201416666Y-54084523D01*
X201464285Y-53989285D01*
X201511904Y-53798809D01*
X201511904Y-53655952D01*
X201464285Y-53465476D01*
X201416666Y-53370238D01*
X201321428Y-53275000D01*
X201178571Y-53227380D01*
X201083333Y-53227380D01*
X200940476Y-53275000D01*
X200892857Y-53322619D01*
X200511904Y-53322619D02*
X200464285Y-53275000D01*
X200369047Y-53227380D01*
X200130952Y-53227380D01*
X200035714Y-53275000D01*
X199988095Y-53322619D01*
X199940476Y-53417857D01*
X199940476Y-53513095D01*
X199988095Y-53655952D01*
X200559523Y-54227380D01*
X199940476Y-54227380D01*
X199083333Y-53560714D02*
X199083333Y-54227380D01*
X199321428Y-53179761D02*
X199559523Y-53894047D01*
X198940476Y-53894047D01*
X217067857Y-75127380D02*
X217401190Y-74651190D01*
X217639285Y-75127380D02*
X217639285Y-74127380D01*
X217258333Y-74127380D01*
X217163095Y-74175000D01*
X217115476Y-74222619D01*
X217067857Y-74317857D01*
X217067857Y-74460714D01*
X217115476Y-74555952D01*
X217163095Y-74603571D01*
X217258333Y-74651190D01*
X217639285Y-74651190D01*
X216115476Y-75127380D02*
X216686904Y-75127380D01*
X216401190Y-75127380D02*
X216401190Y-74127380D01*
X216496428Y-74270238D01*
X216591666Y-74365476D01*
X216686904Y-74413095D01*
X215782142Y-74127380D02*
X215163095Y-74127380D01*
X215496428Y-74508333D01*
X215353571Y-74508333D01*
X215258333Y-74555952D01*
X215210714Y-74603571D01*
X215163095Y-74698809D01*
X215163095Y-74936904D01*
X215210714Y-75032142D01*
X215258333Y-75079761D01*
X215353571Y-75127380D01*
X215639285Y-75127380D01*
X215734523Y-75079761D01*
X215782142Y-75032142D01*
X189691666Y-56887142D02*
X189739285Y-56934761D01*
X189882142Y-56982380D01*
X189977380Y-56982380D01*
X190120238Y-56934761D01*
X190215476Y-56839523D01*
X190263095Y-56744285D01*
X190310714Y-56553809D01*
X190310714Y-56410952D01*
X190263095Y-56220476D01*
X190215476Y-56125238D01*
X190120238Y-56030000D01*
X189977380Y-55982380D01*
X189882142Y-55982380D01*
X189739285Y-56030000D01*
X189691666Y-56077619D01*
X188786904Y-55982380D02*
X189263095Y-55982380D01*
X189310714Y-56458571D01*
X189263095Y-56410952D01*
X189167857Y-56363333D01*
X188929761Y-56363333D01*
X188834523Y-56410952D01*
X188786904Y-56458571D01*
X188739285Y-56553809D01*
X188739285Y-56791904D01*
X188786904Y-56887142D01*
X188834523Y-56934761D01*
X188929761Y-56982380D01*
X189167857Y-56982380D01*
X189263095Y-56934761D01*
X189310714Y-56887142D01*
X203536904Y-65702380D02*
X203536904Y-66511904D01*
X203489285Y-66607142D01*
X203441666Y-66654761D01*
X203346428Y-66702380D01*
X203155952Y-66702380D01*
X203060714Y-66654761D01*
X203013095Y-66607142D01*
X202965476Y-66511904D01*
X202965476Y-65702380D01*
X202584523Y-65702380D02*
X201917857Y-65702380D01*
X202346428Y-66702380D01*
X227338095Y-63752380D02*
X227338095Y-62752380D01*
X227100000Y-62752380D01*
X226957142Y-62800000D01*
X226861904Y-62895238D01*
X226814285Y-62990476D01*
X226766666Y-63180952D01*
X226766666Y-63323809D01*
X226814285Y-63514285D01*
X226861904Y-63609523D01*
X226957142Y-63704761D01*
X227100000Y-63752380D01*
X227338095Y-63752380D01*
X226433333Y-62752380D02*
X225814285Y-62752380D01*
X226147619Y-63133333D01*
X226004761Y-63133333D01*
X225909523Y-63180952D01*
X225861904Y-63228571D01*
X225814285Y-63323809D01*
X225814285Y-63561904D01*
X225861904Y-63657142D01*
X225909523Y-63704761D01*
X226004761Y-63752380D01*
X226290476Y-63752380D01*
X226385714Y-63704761D01*
X226433333Y-63657142D01*
X153936904Y-69652380D02*
X153936904Y-70461904D01*
X153889285Y-70557142D01*
X153841666Y-70604761D01*
X153746428Y-70652380D01*
X153555952Y-70652380D01*
X153460714Y-70604761D01*
X153413095Y-70557142D01*
X153365476Y-70461904D01*
X153365476Y-69652380D01*
X152365476Y-70652380D02*
X152936904Y-70652380D01*
X152651190Y-70652380D02*
X152651190Y-69652380D01*
X152746428Y-69795238D01*
X152841666Y-69890476D01*
X152936904Y-69938095D01*
X174007142Y-74183333D02*
X174054761Y-74135714D01*
X174102380Y-73992857D01*
X174102380Y-73897619D01*
X174054761Y-73754761D01*
X173959523Y-73659523D01*
X173864285Y-73611904D01*
X173673809Y-73564285D01*
X173530952Y-73564285D01*
X173340476Y-73611904D01*
X173245238Y-73659523D01*
X173150000Y-73754761D01*
X173102380Y-73897619D01*
X173102380Y-73992857D01*
X173150000Y-74135714D01*
X173197619Y-74183333D01*
X173197619Y-74564285D02*
X173150000Y-74611904D01*
X173102380Y-74707142D01*
X173102380Y-74945238D01*
X173150000Y-75040476D01*
X173197619Y-75088095D01*
X173292857Y-75135714D01*
X173388095Y-75135714D01*
X173530952Y-75088095D01*
X174102380Y-74516666D01*
X174102380Y-75135714D01*
X203182142Y-76007142D02*
X203229761Y-75959523D01*
X203277380Y-75816666D01*
X203277380Y-75721428D01*
X203229761Y-75578571D01*
X203134523Y-75483333D01*
X203039285Y-75435714D01*
X202848809Y-75388095D01*
X202705952Y-75388095D01*
X202515476Y-75435714D01*
X202420238Y-75483333D01*
X202325000Y-75578571D01*
X202277380Y-75721428D01*
X202277380Y-75816666D01*
X202325000Y-75959523D01*
X202372619Y-76007142D01*
X202372619Y-76388095D02*
X202325000Y-76435714D01*
X202277380Y-76530952D01*
X202277380Y-76769047D01*
X202325000Y-76864285D01*
X202372619Y-76911904D01*
X202467857Y-76959523D01*
X202563095Y-76959523D01*
X202705952Y-76911904D01*
X203277380Y-76340476D01*
X203277380Y-76959523D01*
X202372619Y-77340476D02*
X202325000Y-77388095D01*
X202277380Y-77483333D01*
X202277380Y-77721428D01*
X202325000Y-77816666D01*
X202372619Y-77864285D01*
X202467857Y-77911904D01*
X202563095Y-77911904D01*
X202705952Y-77864285D01*
X203277380Y-77292857D01*
X203277380Y-77911904D01*
X198011904Y-53252380D02*
X198011904Y-54061904D01*
X197964285Y-54157142D01*
X197916666Y-54204761D01*
X197821428Y-54252380D01*
X197630952Y-54252380D01*
X197535714Y-54204761D01*
X197488095Y-54157142D01*
X197440476Y-54061904D01*
X197440476Y-53252380D01*
X196821428Y-53680952D02*
X196916666Y-53633333D01*
X196964285Y-53585714D01*
X197011904Y-53490476D01*
X197011904Y-53442857D01*
X196964285Y-53347619D01*
X196916666Y-53300000D01*
X196821428Y-53252380D01*
X196630952Y-53252380D01*
X196535714Y-53300000D01*
X196488095Y-53347619D01*
X196440476Y-53442857D01*
X196440476Y-53490476D01*
X196488095Y-53585714D01*
X196535714Y-53633333D01*
X196630952Y-53680952D01*
X196821428Y-53680952D01*
X196916666Y-53728571D01*
X196964285Y-53776190D01*
X197011904Y-53871428D01*
X197011904Y-54061904D01*
X196964285Y-54157142D01*
X196916666Y-54204761D01*
X196821428Y-54252380D01*
X196630952Y-54252380D01*
X196535714Y-54204761D01*
X196488095Y-54157142D01*
X196440476Y-54061904D01*
X196440476Y-53871428D01*
X196488095Y-53776190D01*
X196535714Y-53728571D01*
X196630952Y-53680952D01*
X187511904Y-45477380D02*
X187511904Y-46286904D01*
X187464285Y-46382142D01*
X187416666Y-46429761D01*
X187321428Y-46477380D01*
X187130952Y-46477380D01*
X187035714Y-46429761D01*
X186988095Y-46382142D01*
X186940476Y-46286904D01*
X186940476Y-45477380D01*
X185988095Y-45477380D02*
X186464285Y-45477380D01*
X186511904Y-45953571D01*
X186464285Y-45905952D01*
X186369047Y-45858333D01*
X186130952Y-45858333D01*
X186035714Y-45905952D01*
X185988095Y-45953571D01*
X185940476Y-46048809D01*
X185940476Y-46286904D01*
X185988095Y-46382142D01*
X186035714Y-46429761D01*
X186130952Y-46477380D01*
X186369047Y-46477380D01*
X186464285Y-46429761D01*
X186511904Y-46382142D01*
D11*
X198672500Y-60554724D02*
X198672500Y-60045276D01*
X197627500Y-60554724D02*
X197627500Y-60045276D01*
X218370276Y-64527500D02*
X218879724Y-64527500D01*
X218370276Y-65572500D02*
X218879724Y-65572500D01*
X247230000Y-71240000D02*
X246300000Y-71240000D01*
X244070000Y-71240000D02*
X244070000Y-72700000D01*
X244070000Y-71240000D02*
X245000000Y-71240000D01*
X247230000Y-71240000D02*
X247230000Y-74400000D01*
X162775000Y-51725000D02*
X162775000Y-55625000D01*
X160775000Y-51725000D02*
X160775000Y-55625000D01*
X160775000Y-51725000D02*
X162775000Y-51725000D01*
X185570276Y-68702500D02*
X186079724Y-68702500D01*
X185570276Y-69747500D02*
X186079724Y-69747500D01*
X185500000Y-77150000D02*
X183600000Y-77150000D01*
X183600000Y-77150000D02*
X183600000Y-79050000D01*
X183600000Y-79050000D02*
X185500000Y-79050000D01*
X185500000Y-79050000D02*
X185500000Y-77150000D01*
X192710000Y-71428733D02*
X192710000Y-71721267D01*
X191690000Y-71428733D02*
X191690000Y-71721267D01*
X230010000Y-74253733D02*
X230010000Y-74546267D01*
X228990000Y-74253733D02*
X228990000Y-74546267D01*
X166121267Y-78085000D02*
X165828733Y-78085000D01*
X166121267Y-77065000D02*
X165828733Y-77065000D01*
X217900000Y-51750000D02*
X217900000Y-55650000D01*
X217900000Y-51750000D02*
X219900000Y-51750000D01*
X219900000Y-51750000D02*
X219900000Y-55650000D01*
X196972500Y-60045276D02*
X196972500Y-60554724D01*
X195927500Y-60045276D02*
X195927500Y-60554724D01*
X218370276Y-67272500D02*
X218879724Y-67272500D01*
X218370276Y-66227500D02*
X218879724Y-66227500D01*
X225020000Y-71240000D02*
X225020000Y-72700000D01*
X228180000Y-71240000D02*
X228180000Y-74400000D01*
X225020000Y-71240000D02*
X225950000Y-71240000D01*
X228180000Y-71240000D02*
X227250000Y-71240000D01*
X245222500Y-76395276D02*
X245222500Y-76904724D01*
X244177500Y-76395276D02*
X244177500Y-76904724D01*
X171030000Y-71240000D02*
X170100000Y-71240000D01*
X171030000Y-71240000D02*
X171030000Y-74400000D01*
X167870000Y-71240000D02*
X168800000Y-71240000D01*
X167870000Y-71240000D02*
X167870000Y-72700000D01*
X218879724Y-67927500D02*
X218370276Y-67927500D01*
X218879724Y-68972500D02*
X218370276Y-68972500D01*
X228078733Y-78085000D02*
X228371267Y-78085000D01*
X228078733Y-77065000D02*
X228371267Y-77065000D01*
X211679724Y-50952500D02*
X211170276Y-50952500D01*
X211679724Y-51997500D02*
X211170276Y-51997500D01*
X225127500Y-76395276D02*
X225127500Y-76904724D01*
X226172500Y-76395276D02*
X226172500Y-76904724D01*
X207160000Y-60078733D02*
X207160000Y-60371267D01*
X206140000Y-60078733D02*
X206140000Y-60371267D01*
X213225000Y-54600000D02*
X212965000Y-54600000D01*
X213225000Y-60050000D02*
X212965000Y-60050000D01*
X213225000Y-57325000D02*
X213225000Y-54600000D01*
X207775000Y-60050000D02*
X208035000Y-60050000D01*
X207775000Y-54600000D02*
X208035000Y-54600000D01*
X213225000Y-57325000D02*
X213225000Y-60050000D01*
X208035000Y-54600000D02*
X208035000Y-52925000D01*
X207775000Y-57325000D02*
X207775000Y-60050000D01*
X207775000Y-57325000D02*
X207775000Y-54600000D01*
X195550000Y-78190000D02*
X195550000Y-74890000D01*
X195550000Y-74890000D02*
X199550000Y-74890000D01*
X167977500Y-76395276D02*
X167977500Y-76904724D01*
X169022500Y-76395276D02*
X169022500Y-76904724D01*
X194335000Y-76696267D02*
X194335000Y-76403733D01*
X193315000Y-76696267D02*
X193315000Y-76403733D01*
X247178733Y-78085000D02*
X247471267Y-78085000D01*
X247178733Y-77065000D02*
X247471267Y-77065000D01*
X149972500Y-76395276D02*
X149972500Y-76904724D01*
X148927500Y-76395276D02*
X148927500Y-76904724D01*
D10*
X186750000Y-59825000D02*
X181550000Y-59825000D01*
X181550000Y-59825000D02*
X181550000Y-65025000D01*
X181550000Y-65025000D02*
X186750000Y-65025000D01*
X186750000Y-65025000D02*
X186750000Y-59825000D01*
X185150000Y-62425000D02*
G75*
G03*
X185150000Y-62425000I-1000000J0D01*
G01*
D11*
X209645000Y-76020000D02*
X209645000Y-78680000D01*
X209645000Y-76020000D02*
X214785000Y-76020000D01*
X208375000Y-76020000D02*
X207045000Y-76020000D01*
X209645000Y-78680000D02*
X214785000Y-78680000D01*
X207045000Y-76020000D02*
X207045000Y-77350000D01*
X214785000Y-76020000D02*
X214785000Y-78680000D01*
D10*
X181150000Y-75625000D02*
X186350000Y-75625000D01*
X186350000Y-75625000D02*
X186350000Y-70425000D01*
X181150000Y-70425000D02*
X181150000Y-75625000D01*
X186350000Y-70425000D02*
X181150000Y-70425000D01*
X184750000Y-73025000D02*
G75*
G03*
X184750000Y-73025000I-1000000J0D01*
G01*
D11*
X247890000Y-74253733D02*
X247890000Y-74546267D01*
X248910000Y-74253733D02*
X248910000Y-74546267D01*
X153610000Y-74253733D02*
X153610000Y-74546267D01*
X152590000Y-74253733D02*
X152590000Y-74546267D01*
X202272500Y-56529724D02*
X202272500Y-56020276D01*
X201227500Y-56529724D02*
X201227500Y-56020276D01*
X206325000Y-48175000D02*
X208225000Y-48175000D01*
X208225000Y-46275000D02*
X206325000Y-46275000D01*
X208225000Y-48175000D02*
X208225000Y-46275000D01*
X206325000Y-46275000D02*
X206325000Y-48175000D01*
X186100000Y-79050000D02*
X188000000Y-79050000D01*
X188000000Y-79050000D02*
X188000000Y-77150000D01*
X188000000Y-77150000D02*
X186100000Y-77150000D01*
X186100000Y-77150000D02*
X186100000Y-79050000D01*
X147046267Y-77065000D02*
X146753733Y-77065000D01*
X147046267Y-78085000D02*
X146753733Y-78085000D01*
X213379724Y-73622500D02*
X212870276Y-73622500D01*
X213379724Y-72577500D02*
X212870276Y-72577500D01*
X195172500Y-56045276D02*
X195172500Y-56554724D01*
X194127500Y-56045276D02*
X194127500Y-56554724D01*
X207979724Y-50927500D02*
X207470276Y-50927500D01*
X207979724Y-51972500D02*
X207470276Y-51972500D01*
X199540000Y-56421267D02*
X199540000Y-56128733D01*
X200560000Y-56421267D02*
X200560000Y-56128733D01*
X190500000Y-79050000D02*
X190500000Y-77150000D01*
X190500000Y-77150000D02*
X188600000Y-77150000D01*
X188600000Y-79050000D02*
X190500000Y-79050000D01*
X188600000Y-77150000D02*
X188600000Y-79050000D01*
X213379724Y-75197500D02*
X212870276Y-75197500D01*
X213379724Y-74152500D02*
X212870276Y-74152500D01*
X189378733Y-54590000D02*
X189671267Y-54590000D01*
X189378733Y-55610000D02*
X189671267Y-55610000D01*
X193740000Y-66090000D02*
X193740000Y-66740000D01*
X200960000Y-73310000D02*
X200960000Y-72660000D01*
X194390000Y-73310000D02*
X193740000Y-73310000D01*
X200310000Y-73310000D02*
X200960000Y-73310000D01*
X193740000Y-73310000D02*
X193740000Y-72660000D01*
X194390000Y-66090000D02*
X193740000Y-66090000D01*
X200310000Y-66090000D02*
X200960000Y-66090000D01*
X151980000Y-71240000D02*
X151050000Y-71240000D01*
X148820000Y-71240000D02*
X148820000Y-72700000D01*
X151980000Y-71240000D02*
X151980000Y-74400000D01*
X148820000Y-71240000D02*
X149750000Y-71240000D01*
X171640000Y-74203733D02*
X171640000Y-74496267D01*
X172660000Y-74203733D02*
X172660000Y-74496267D01*
X201860000Y-76503733D02*
X201860000Y-76796267D01*
X200840000Y-76503733D02*
X200840000Y-76796267D01*
X195790000Y-56450000D02*
X195790000Y-57250000D01*
X198910000Y-56450000D02*
X198910000Y-57250000D01*
X195790000Y-56450000D02*
X195790000Y-54650000D01*
X198910000Y-56450000D02*
X198910000Y-55650000D01*
X188600000Y-53935000D02*
X184840000Y-53935000D01*
X184840000Y-53935000D02*
X184840000Y-52675000D01*
X184840000Y-47115000D02*
X184840000Y-48375000D01*
X190850000Y-47115000D02*
X184840000Y-47115000D01*
%LPC*%
D12*
X164370000Y-72000000D03*
X174530000Y-72000000D03*
X250730000Y-72000000D03*
X240570000Y-72000000D03*
D13*
X231680000Y-52950000D03*
D14*
X230410000Y-55490000D03*
X224060000Y-58030000D03*
D15*
X226600000Y-52950000D03*
D13*
X221520000Y-52950000D03*
D16*
X233685000Y-55490000D03*
X220758000Y-58030000D03*
D12*
X145320000Y-72000000D03*
X155480000Y-72000000D03*
X231680000Y-72000000D03*
X221520000Y-72000000D03*
D15*
X169450000Y-52950000D03*
D14*
X166910000Y-58030000D03*
D13*
X164370000Y-52950000D03*
D14*
X173260000Y-55490000D03*
D13*
X174530000Y-52950000D03*
D16*
X176535000Y-55490000D03*
X163608000Y-58030000D03*
D17*
X198150000Y-61212500D03*
X198150000Y-59387500D03*
D18*
X217712500Y-65050000D03*
X219537500Y-65050000D03*
D19*
X246600000Y-73500000D03*
X244700000Y-73500000D03*
X245650000Y-70500000D03*
D20*
X161775000Y-52325000D03*
X161775000Y-55625000D03*
D18*
X184912500Y-69225000D03*
X186737500Y-69225000D03*
D21*
X184550000Y-78100000D03*
D22*
X192200000Y-70712500D03*
X192200000Y-72437500D03*
X229500000Y-73537500D03*
X229500000Y-75262500D03*
D23*
X172000000Y-67250000D03*
D24*
X166900000Y-67250000D03*
X166900000Y-65750000D03*
X172000000Y-65750000D03*
D23*
X248200000Y-67250000D03*
D24*
X243100000Y-67250000D03*
X243100000Y-65750000D03*
X248200000Y-65750000D03*
D25*
X166837500Y-77575000D03*
X165112500Y-77575000D03*
D20*
X218900000Y-52350000D03*
X218900000Y-55650000D03*
D26*
X196450000Y-59387500D03*
X196450000Y-61212500D03*
D18*
X217712500Y-66750000D03*
X219537500Y-66750000D03*
D27*
X200865000Y-49715000D03*
X195085000Y-49715000D03*
D28*
X194750000Y-51660000D03*
X195525000Y-51660000D03*
D29*
X196225000Y-51660000D03*
X196725000Y-51660000D03*
X197225000Y-51660000D03*
X197725000Y-51660000D03*
X198225000Y-51660000D03*
X198725000Y-51660000D03*
X199225000Y-51660000D03*
X199725000Y-51660000D03*
D28*
X200425000Y-51660000D03*
X201200000Y-51660000D03*
D19*
X227550000Y-73500000D03*
X225650000Y-73500000D03*
X226600000Y-70500000D03*
D26*
X244700000Y-75737500D03*
X244700000Y-77562500D03*
D19*
X170400000Y-73500000D03*
X168500000Y-73500000D03*
X169450000Y-70500000D03*
D30*
X219537500Y-68450000D03*
X217712500Y-68450000D03*
D31*
X227362500Y-77575000D03*
X229087500Y-77575000D03*
D30*
X212337500Y-51475000D03*
X210512500Y-51475000D03*
D26*
X225650000Y-75737500D03*
X225650000Y-77562500D03*
D22*
X206650000Y-59362500D03*
X206650000Y-61087500D03*
D32*
X208595000Y-53725000D03*
X209865000Y-53725000D03*
X211135000Y-53725000D03*
X212405000Y-53725000D03*
X212405000Y-60925000D03*
X211135000Y-60925000D03*
X209865000Y-60925000D03*
X208595000Y-60925000D03*
D33*
X196450000Y-75690000D03*
X198650000Y-75690000D03*
X198650000Y-77390000D03*
X196450000Y-77390000D03*
D26*
X168500000Y-75737500D03*
X168500000Y-77562500D03*
D34*
X193825000Y-77412500D03*
X193825000Y-75687500D03*
D31*
X246462500Y-77575000D03*
X248187500Y-77575000D03*
D26*
X149450000Y-75737500D03*
X149450000Y-77562500D03*
D35*
X181050000Y-64275000D03*
X187250000Y-60575000D03*
X181050000Y-60575000D03*
X187250000Y-64275000D03*
D36*
X208375000Y-77350000D03*
D37*
X210915000Y-77350000D03*
X213455000Y-77350000D03*
D35*
X186850000Y-71175000D03*
X180650000Y-74875000D03*
X186850000Y-74875000D03*
X180650000Y-71175000D03*
D22*
X248400000Y-73537500D03*
X248400000Y-75262500D03*
X153100000Y-73537500D03*
X153100000Y-75262500D03*
D17*
X201750000Y-57187500D03*
X201750000Y-55362500D03*
D21*
X207275000Y-47225000D03*
X187050000Y-78100000D03*
D25*
X147762500Y-77575000D03*
X146037500Y-77575000D03*
D30*
X214037500Y-73100000D03*
X212212500Y-73100000D03*
D26*
X194650000Y-55387500D03*
X194650000Y-57212500D03*
D23*
X152950000Y-67250000D03*
D24*
X147850000Y-67250000D03*
X147850000Y-65750000D03*
X152950000Y-65750000D03*
D30*
X208637500Y-51450000D03*
X206812500Y-51450000D03*
D34*
X200050000Y-57137500D03*
X200050000Y-55412500D03*
D21*
X189550000Y-78100000D03*
D30*
X214037500Y-74675000D03*
X212212500Y-74675000D03*
D31*
X188662500Y-55100000D03*
X190387500Y-55100000D03*
D38*
X200787500Y-67100000D03*
X200787500Y-67500000D03*
X200787500Y-67900000D03*
X200787500Y-68300000D03*
X200787500Y-68700000D03*
X200787500Y-69100000D03*
X200787500Y-69500000D03*
X200787500Y-69900000D03*
X200787500Y-70300000D03*
X200787500Y-70700000D03*
X200787500Y-71100000D03*
X200787500Y-71500000D03*
X200787500Y-71900000D03*
X200787500Y-72300000D03*
D39*
X199950000Y-73137500D03*
X199550000Y-73137500D03*
X199150000Y-73137500D03*
X198750000Y-73137500D03*
X198350000Y-73137500D03*
X197950000Y-73137500D03*
X197550000Y-73137500D03*
X197150000Y-73137500D03*
X196750000Y-73137500D03*
X196350000Y-73137500D03*
X195950000Y-73137500D03*
X195550000Y-73137500D03*
X195150000Y-73137500D03*
X194750000Y-73137500D03*
D38*
X193912500Y-72300000D03*
X193912500Y-71900000D03*
X193912500Y-71500000D03*
X193912500Y-71100000D03*
X193912500Y-70700000D03*
X193912500Y-70300000D03*
X193912500Y-69900000D03*
X193912500Y-69500000D03*
X193912500Y-69100000D03*
X193912500Y-68700000D03*
X193912500Y-68300000D03*
X193912500Y-67900000D03*
X193912500Y-67500000D03*
X193912500Y-67100000D03*
D39*
X194750000Y-66262500D03*
X195150000Y-66262500D03*
X195550000Y-66262500D03*
X195950000Y-66262500D03*
X196350000Y-66262500D03*
X196750000Y-66262500D03*
X197150000Y-66262500D03*
X197550000Y-66262500D03*
X197950000Y-66262500D03*
X198350000Y-66262500D03*
X198750000Y-66262500D03*
X199150000Y-66262500D03*
X199550000Y-66262500D03*
X199950000Y-66262500D03*
D40*
X197350000Y-69700000D03*
D23*
X229150000Y-67250000D03*
D24*
X224050000Y-67250000D03*
X224050000Y-65750000D03*
X229150000Y-65750000D03*
D19*
X151350000Y-73500000D03*
X149450000Y-73500000D03*
X150400000Y-70500000D03*
D22*
X172150000Y-73487500D03*
X172150000Y-75212500D03*
X201350000Y-75787500D03*
X201350000Y-77512500D03*
D41*
X196400000Y-55312500D03*
X197350000Y-55312500D03*
X198300000Y-55312500D03*
X198300000Y-57587500D03*
X197350000Y-57587500D03*
X196400000Y-57587500D03*
D42*
X189900000Y-48225000D03*
D43*
X183600000Y-50525000D03*
D42*
X189900000Y-50525000D03*
X189900000Y-52825000D03*
M02*
