G04 #@! TF.GenerationSoftware,KiCad,Pcbnew,(6.0.0)*
G04 #@! TF.CreationDate,2023-06-03T10:37:20-07:00*
G04 #@! TF.ProjectId,stepad,73746570-6164-42e6-9b69-6361645f7063,rev?*
G04 #@! TF.SameCoordinates,Original*
G04 #@! TF.FileFunction,Legend,Top*
G04 #@! TF.FilePolarity,Positive*
%FSLAX46Y46*%
G04 Gerber Fmt 4.6, Leading zero omitted, Abs format (unit mm)*
G04 Created by KiCad (PCBNEW (6.0.0)) date 2023-06-03 10:37:20*
%MOMM*%
%LPD*%
G01*
G04 APERTURE LIST*
G04 Aperture macros list*
%AMRoundRect*
0 Rectangle with rounded corners*
0 $1 Rounding radius*
0 $2 $3 $4 $5 $6 $7 $8 $9 X,Y pos of 4 corners*
0 Add a 4 corners polygon primitive as box body*
4,1,4,$2,$3,$4,$5,$6,$7,$8,$9,$2,$3,0*
0 Add four circle primitives for the rounded corners*
1,1,$1+$1,$2,$3*
1,1,$1+$1,$4,$5*
1,1,$1+$1,$6,$7*
1,1,$1+$1,$8,$9*
0 Add four rect primitives between the rounded corners*
20,1,$1+$1,$2,$3,$4,$5,0*
20,1,$1+$1,$4,$5,$6,$7,0*
20,1,$1+$1,$6,$7,$8,$9,0*
20,1,$1+$1,$8,$9,$2,$3,0*%
G04 Aperture macros list end*
%ADD10C,0.150000*%
%ADD11C,0.120000*%
%ADD12RoundRect,0.237500X-0.237500X0.300000X-0.237500X-0.300000X0.237500X-0.300000X0.237500X0.300000X0*%
%ADD13C,1.750000*%
%ADD14RoundRect,0.237500X0.237500X-0.300000X0.237500X0.300000X-0.237500X0.300000X-0.237500X-0.300000X0*%
%ADD15C,1.701800*%
%ADD16C,3.000000*%
%ADD17C,3.987800*%
%ADD18RoundRect,0.237500X-0.300000X-0.237500X0.300000X-0.237500X0.300000X0.237500X-0.300000X0.237500X0*%
%ADD19C,0.650000*%
%ADD20O,1.000000X1.600000*%
%ADD21O,1.000000X2.100000*%
%ADD22R,1.700000X1.700000*%
%ADD23O,1.700000X1.700000*%
G04 APERTURE END LIST*
D10*
X195557142Y-74767857D02*
X195604761Y-74815476D01*
X195652380Y-74958333D01*
X195652380Y-75053571D01*
X195604761Y-75196428D01*
X195509523Y-75291666D01*
X195414285Y-75339285D01*
X195223809Y-75386904D01*
X195080952Y-75386904D01*
X194890476Y-75339285D01*
X194795238Y-75291666D01*
X194700000Y-75196428D01*
X194652380Y-75053571D01*
X194652380Y-74958333D01*
X194700000Y-74815476D01*
X194747619Y-74767857D01*
X195652380Y-73815476D02*
X195652380Y-74386904D01*
X195652380Y-74101190D02*
X194652380Y-74101190D01*
X194795238Y-74196428D01*
X194890476Y-74291666D01*
X194938095Y-74386904D01*
X195652380Y-72863095D02*
X195652380Y-73434523D01*
X195652380Y-73148809D02*
X194652380Y-73148809D01*
X194795238Y-73244047D01*
X194890476Y-73339285D01*
X194938095Y-73434523D01*
X168166666Y-79504761D02*
X168309523Y-79552380D01*
X168547619Y-79552380D01*
X168642857Y-79504761D01*
X168690476Y-79457142D01*
X168738095Y-79361904D01*
X168738095Y-79266666D01*
X168690476Y-79171428D01*
X168642857Y-79123809D01*
X168547619Y-79076190D01*
X168357142Y-79028571D01*
X168261904Y-78980952D01*
X168214285Y-78933333D01*
X168166666Y-78838095D01*
X168166666Y-78742857D01*
X168214285Y-78647619D01*
X168261904Y-78600000D01*
X168357142Y-78552380D01*
X168595238Y-78552380D01*
X168738095Y-78600000D01*
X169071428Y-78552380D02*
X169309523Y-79552380D01*
X169500000Y-78838095D01*
X169690476Y-79552380D01*
X169928571Y-78552380D01*
X170261904Y-78647619D02*
X170309523Y-78600000D01*
X170404761Y-78552380D01*
X170642857Y-78552380D01*
X170738095Y-78600000D01*
X170785714Y-78647619D01*
X170833333Y-78742857D01*
X170833333Y-78838095D01*
X170785714Y-78980952D01*
X170214285Y-79552380D01*
X170833333Y-79552380D01*
X202657142Y-73742857D02*
X202704761Y-73790476D01*
X202752380Y-73933333D01*
X202752380Y-74028571D01*
X202704761Y-74171428D01*
X202609523Y-74266666D01*
X202514285Y-74314285D01*
X202323809Y-74361904D01*
X202180952Y-74361904D01*
X201990476Y-74314285D01*
X201895238Y-74266666D01*
X201800000Y-74171428D01*
X201752380Y-74028571D01*
X201752380Y-73933333D01*
X201800000Y-73790476D01*
X201847619Y-73742857D01*
X202752380Y-72790476D02*
X202752380Y-73361904D01*
X202752380Y-73076190D02*
X201752380Y-73076190D01*
X201895238Y-73171428D01*
X201990476Y-73266666D01*
X202038095Y-73361904D01*
X201847619Y-72409523D02*
X201800000Y-72361904D01*
X201752380Y-72266666D01*
X201752380Y-72028571D01*
X201800000Y-71933333D01*
X201847619Y-71885714D01*
X201942857Y-71838095D01*
X202038095Y-71838095D01*
X202180952Y-71885714D01*
X202752380Y-72457142D01*
X202752380Y-71838095D01*
X245316666Y-79654761D02*
X245459523Y-79702380D01*
X245697619Y-79702380D01*
X245792857Y-79654761D01*
X245840476Y-79607142D01*
X245888095Y-79511904D01*
X245888095Y-79416666D01*
X245840476Y-79321428D01*
X245792857Y-79273809D01*
X245697619Y-79226190D01*
X245507142Y-79178571D01*
X245411904Y-79130952D01*
X245364285Y-79083333D01*
X245316666Y-78988095D01*
X245316666Y-78892857D01*
X245364285Y-78797619D01*
X245411904Y-78750000D01*
X245507142Y-78702380D01*
X245745238Y-78702380D01*
X245888095Y-78750000D01*
X246221428Y-78702380D02*
X246459523Y-79702380D01*
X246650000Y-78988095D01*
X246840476Y-79702380D01*
X247078571Y-78702380D01*
X247888095Y-79035714D02*
X247888095Y-79702380D01*
X247650000Y-78654761D02*
X247411904Y-79369047D01*
X248030952Y-79369047D01*
X200132142Y-74717857D02*
X200179761Y-74765476D01*
X200227380Y-74908333D01*
X200227380Y-75003571D01*
X200179761Y-75146428D01*
X200084523Y-75241666D01*
X199989285Y-75289285D01*
X199798809Y-75336904D01*
X199655952Y-75336904D01*
X199465476Y-75289285D01*
X199370238Y-75241666D01*
X199275000Y-75146428D01*
X199227380Y-75003571D01*
X199227380Y-74908333D01*
X199275000Y-74765476D01*
X199322619Y-74717857D01*
X200227380Y-73765476D02*
X200227380Y-74336904D01*
X200227380Y-74051190D02*
X199227380Y-74051190D01*
X199370238Y-74146428D01*
X199465476Y-74241666D01*
X199513095Y-74336904D01*
X199227380Y-73432142D02*
X199227380Y-72765476D01*
X200227380Y-73194047D01*
X194432142Y-62642857D02*
X194479761Y-62690476D01*
X194527380Y-62833333D01*
X194527380Y-62928571D01*
X194479761Y-63071428D01*
X194384523Y-63166666D01*
X194289285Y-63214285D01*
X194098809Y-63261904D01*
X193955952Y-63261904D01*
X193765476Y-63214285D01*
X193670238Y-63166666D01*
X193575000Y-63071428D01*
X193527380Y-62928571D01*
X193527380Y-62833333D01*
X193575000Y-62690476D01*
X193622619Y-62642857D01*
X194527380Y-61690476D02*
X194527380Y-62261904D01*
X194527380Y-61976190D02*
X193527380Y-61976190D01*
X193670238Y-62071428D01*
X193765476Y-62166666D01*
X193813095Y-62261904D01*
X194527380Y-61214285D02*
X194527380Y-61023809D01*
X194479761Y-60928571D01*
X194432142Y-60880952D01*
X194289285Y-60785714D01*
X194098809Y-60738095D01*
X193717857Y-60738095D01*
X193622619Y-60785714D01*
X193575000Y-60833333D01*
X193527380Y-60928571D01*
X193527380Y-61119047D01*
X193575000Y-61214285D01*
X193622619Y-61261904D01*
X193717857Y-61309523D01*
X193955952Y-61309523D01*
X194051190Y-61261904D01*
X194098809Y-61214285D01*
X194146428Y-61119047D01*
X194146428Y-60928571D01*
X194098809Y-60833333D01*
X194051190Y-60785714D01*
X193955952Y-60738095D01*
X202407142Y-66232142D02*
X202359523Y-66279761D01*
X202216666Y-66327380D01*
X202121428Y-66327380D01*
X201978571Y-66279761D01*
X201883333Y-66184523D01*
X201835714Y-66089285D01*
X201788095Y-65898809D01*
X201788095Y-65755952D01*
X201835714Y-65565476D01*
X201883333Y-65470238D01*
X201978571Y-65375000D01*
X202121428Y-65327380D01*
X202216666Y-65327380D01*
X202359523Y-65375000D01*
X202407142Y-65422619D01*
X203359523Y-66327380D02*
X202788095Y-66327380D01*
X203073809Y-66327380D02*
X203073809Y-65327380D01*
X202978571Y-65470238D01*
X202883333Y-65565476D01*
X202788095Y-65613095D01*
X203978571Y-65327380D02*
X204073809Y-65327380D01*
X204169047Y-65375000D01*
X204216666Y-65422619D01*
X204264285Y-65517857D01*
X204311904Y-65708333D01*
X204311904Y-65946428D01*
X204264285Y-66136904D01*
X204216666Y-66232142D01*
X204169047Y-66279761D01*
X204073809Y-66327380D01*
X203978571Y-66327380D01*
X203883333Y-66279761D01*
X203835714Y-66232142D01*
X203788095Y-66136904D01*
X203740476Y-65946428D01*
X203740476Y-65708333D01*
X203788095Y-65517857D01*
X203835714Y-65422619D01*
X203883333Y-65375000D01*
X203978571Y-65327380D01*
X202282142Y-68232142D02*
X202234523Y-68279761D01*
X202091666Y-68327380D01*
X201996428Y-68327380D01*
X201853571Y-68279761D01*
X201758333Y-68184523D01*
X201710714Y-68089285D01*
X201663095Y-67898809D01*
X201663095Y-67755952D01*
X201710714Y-67565476D01*
X201758333Y-67470238D01*
X201853571Y-67375000D01*
X201996428Y-67327380D01*
X202091666Y-67327380D01*
X202234523Y-67375000D01*
X202282142Y-67422619D01*
X203234523Y-68327380D02*
X202663095Y-68327380D01*
X202948809Y-68327380D02*
X202948809Y-67327380D01*
X202853571Y-67470238D01*
X202758333Y-67565476D01*
X202663095Y-67613095D01*
X203567857Y-67327380D02*
X204186904Y-67327380D01*
X203853571Y-67708333D01*
X203996428Y-67708333D01*
X204091666Y-67755952D01*
X204139285Y-67803571D01*
X204186904Y-67898809D01*
X204186904Y-68136904D01*
X204139285Y-68232142D01*
X204091666Y-68279761D01*
X203996428Y-68327380D01*
X203710714Y-68327380D01*
X203615476Y-68279761D01*
X203567857Y-68232142D01*
X149066666Y-79504761D02*
X149209523Y-79552380D01*
X149447619Y-79552380D01*
X149542857Y-79504761D01*
X149590476Y-79457142D01*
X149638095Y-79361904D01*
X149638095Y-79266666D01*
X149590476Y-79171428D01*
X149542857Y-79123809D01*
X149447619Y-79076190D01*
X149257142Y-79028571D01*
X149161904Y-78980952D01*
X149114285Y-78933333D01*
X149066666Y-78838095D01*
X149066666Y-78742857D01*
X149114285Y-78647619D01*
X149161904Y-78600000D01*
X149257142Y-78552380D01*
X149495238Y-78552380D01*
X149638095Y-78600000D01*
X149971428Y-78552380D02*
X150209523Y-79552380D01*
X150400000Y-78838095D01*
X150590476Y-79552380D01*
X150828571Y-78552380D01*
X151733333Y-79552380D02*
X151161904Y-79552380D01*
X151447619Y-79552380D02*
X151447619Y-78552380D01*
X151352380Y-78695238D01*
X151257142Y-78790476D01*
X151161904Y-78838095D01*
X192832142Y-62717857D02*
X192879761Y-62765476D01*
X192927380Y-62908333D01*
X192927380Y-63003571D01*
X192879761Y-63146428D01*
X192784523Y-63241666D01*
X192689285Y-63289285D01*
X192498809Y-63336904D01*
X192355952Y-63336904D01*
X192165476Y-63289285D01*
X192070238Y-63241666D01*
X191975000Y-63146428D01*
X191927380Y-63003571D01*
X191927380Y-62908333D01*
X191975000Y-62765476D01*
X192022619Y-62717857D01*
X192022619Y-62336904D02*
X191975000Y-62289285D01*
X191927380Y-62194047D01*
X191927380Y-61955952D01*
X191975000Y-61860714D01*
X192022619Y-61813095D01*
X192117857Y-61765476D01*
X192213095Y-61765476D01*
X192355952Y-61813095D01*
X192927380Y-62384523D01*
X192927380Y-61765476D01*
X191927380Y-61146428D02*
X191927380Y-61051190D01*
X191975000Y-60955952D01*
X192022619Y-60908333D01*
X192117857Y-60860714D01*
X192308333Y-60813095D01*
X192546428Y-60813095D01*
X192736904Y-60860714D01*
X192832142Y-60908333D01*
X192879761Y-60955952D01*
X192927380Y-61051190D01*
X192927380Y-61146428D01*
X192879761Y-61241666D01*
X192832142Y-61289285D01*
X192736904Y-61336904D01*
X192546428Y-61384523D01*
X192308333Y-61384523D01*
X192117857Y-61336904D01*
X192022619Y-61289285D01*
X191975000Y-61241666D01*
X191927380Y-61146428D01*
X196082142Y-63307142D02*
X196034523Y-63354761D01*
X195891666Y-63402380D01*
X195796428Y-63402380D01*
X195653571Y-63354761D01*
X195558333Y-63259523D01*
X195510714Y-63164285D01*
X195463095Y-62973809D01*
X195463095Y-62830952D01*
X195510714Y-62640476D01*
X195558333Y-62545238D01*
X195653571Y-62450000D01*
X195796428Y-62402380D01*
X195891666Y-62402380D01*
X196034523Y-62450000D01*
X196082142Y-62497619D01*
X197034523Y-63402380D02*
X196463095Y-63402380D01*
X196748809Y-63402380D02*
X196748809Y-62402380D01*
X196653571Y-62545238D01*
X196558333Y-62640476D01*
X196463095Y-62688095D01*
X197605952Y-62830952D02*
X197510714Y-62783333D01*
X197463095Y-62735714D01*
X197415476Y-62640476D01*
X197415476Y-62592857D01*
X197463095Y-62497619D01*
X197510714Y-62450000D01*
X197605952Y-62402380D01*
X197796428Y-62402380D01*
X197891666Y-62450000D01*
X197939285Y-62497619D01*
X197986904Y-62592857D01*
X197986904Y-62640476D01*
X197939285Y-62735714D01*
X197891666Y-62783333D01*
X197796428Y-62830952D01*
X197605952Y-62830952D01*
X197510714Y-62878571D01*
X197463095Y-62926190D01*
X197415476Y-63021428D01*
X197415476Y-63211904D01*
X197463095Y-63307142D01*
X197510714Y-63354761D01*
X197605952Y-63402380D01*
X197796428Y-63402380D01*
X197891666Y-63354761D01*
X197939285Y-63307142D01*
X197986904Y-63211904D01*
X197986904Y-63021428D01*
X197939285Y-62926190D01*
X197891666Y-62878571D01*
X197796428Y-62830952D01*
X202407142Y-64782142D02*
X202359523Y-64829761D01*
X202216666Y-64877380D01*
X202121428Y-64877380D01*
X201978571Y-64829761D01*
X201883333Y-64734523D01*
X201835714Y-64639285D01*
X201788095Y-64448809D01*
X201788095Y-64305952D01*
X201835714Y-64115476D01*
X201883333Y-64020238D01*
X201978571Y-63925000D01*
X202121428Y-63877380D01*
X202216666Y-63877380D01*
X202359523Y-63925000D01*
X202407142Y-63972619D01*
X203359523Y-64877380D02*
X202788095Y-64877380D01*
X203073809Y-64877380D02*
X203073809Y-63877380D01*
X202978571Y-64020238D01*
X202883333Y-64115476D01*
X202788095Y-64163095D01*
X204264285Y-63877380D02*
X203788095Y-63877380D01*
X203740476Y-64353571D01*
X203788095Y-64305952D01*
X203883333Y-64258333D01*
X204121428Y-64258333D01*
X204216666Y-64305952D01*
X204264285Y-64353571D01*
X204311904Y-64448809D01*
X204311904Y-64686904D01*
X204264285Y-64782142D01*
X204216666Y-64829761D01*
X204121428Y-64877380D01*
X203883333Y-64877380D01*
X203788095Y-64829761D01*
X203740476Y-64782142D01*
X225266666Y-79554761D02*
X225409523Y-79602380D01*
X225647619Y-79602380D01*
X225742857Y-79554761D01*
X225790476Y-79507142D01*
X225838095Y-79411904D01*
X225838095Y-79316666D01*
X225790476Y-79221428D01*
X225742857Y-79173809D01*
X225647619Y-79126190D01*
X225457142Y-79078571D01*
X225361904Y-79030952D01*
X225314285Y-78983333D01*
X225266666Y-78888095D01*
X225266666Y-78792857D01*
X225314285Y-78697619D01*
X225361904Y-78650000D01*
X225457142Y-78602380D01*
X225695238Y-78602380D01*
X225838095Y-78650000D01*
X226171428Y-78602380D02*
X226409523Y-79602380D01*
X226600000Y-78888095D01*
X226790476Y-79602380D01*
X227028571Y-78602380D01*
X227314285Y-78602380D02*
X227933333Y-78602380D01*
X227600000Y-78983333D01*
X227742857Y-78983333D01*
X227838095Y-79030952D01*
X227885714Y-79078571D01*
X227933333Y-79173809D01*
X227933333Y-79411904D01*
X227885714Y-79507142D01*
X227838095Y-79554761D01*
X227742857Y-79602380D01*
X227457142Y-79602380D01*
X227361904Y-79554761D01*
X227314285Y-79507142D01*
X190782142Y-68167857D02*
X190829761Y-68215476D01*
X190877380Y-68358333D01*
X190877380Y-68453571D01*
X190829761Y-68596428D01*
X190734523Y-68691666D01*
X190639285Y-68739285D01*
X190448809Y-68786904D01*
X190305952Y-68786904D01*
X190115476Y-68739285D01*
X190020238Y-68691666D01*
X189925000Y-68596428D01*
X189877380Y-68453571D01*
X189877380Y-68358333D01*
X189925000Y-68215476D01*
X189972619Y-68167857D01*
X190877380Y-67215476D02*
X190877380Y-67786904D01*
X190877380Y-67501190D02*
X189877380Y-67501190D01*
X190020238Y-67596428D01*
X190115476Y-67691666D01*
X190163095Y-67786904D01*
X189877380Y-66358333D02*
X189877380Y-66548809D01*
X189925000Y-66644047D01*
X189972619Y-66691666D01*
X190115476Y-66786904D01*
X190305952Y-66834523D01*
X190686904Y-66834523D01*
X190782142Y-66786904D01*
X190829761Y-66739285D01*
X190877380Y-66644047D01*
X190877380Y-66453571D01*
X190829761Y-66358333D01*
X190782142Y-66310714D01*
X190686904Y-66263095D01*
X190448809Y-66263095D01*
X190353571Y-66310714D01*
X190305952Y-66358333D01*
X190258333Y-66453571D01*
X190258333Y-66644047D01*
X190305952Y-66739285D01*
X190353571Y-66786904D01*
X190448809Y-66834523D01*
D11*
X196215000Y-73953733D02*
X196215000Y-74246267D01*
X197235000Y-73953733D02*
X197235000Y-74246267D01*
X200290000Y-71703733D02*
X200290000Y-71996267D01*
X201310000Y-71703733D02*
X201310000Y-71996267D01*
X197815000Y-73953733D02*
X197815000Y-74246267D01*
X198835000Y-73953733D02*
X198835000Y-74246267D01*
X193565000Y-65471267D02*
X193565000Y-65178733D01*
X194585000Y-65471267D02*
X194585000Y-65178733D01*
X199703733Y-66460000D02*
X199996267Y-66460000D01*
X199703733Y-65440000D02*
X199996267Y-65440000D01*
X200290000Y-68303733D02*
X200290000Y-68596267D01*
X201310000Y-68303733D02*
X201310000Y-68596267D01*
X191990000Y-65471267D02*
X191990000Y-65178733D01*
X193010000Y-65471267D02*
X193010000Y-65178733D01*
X197760000Y-65446267D02*
X197760000Y-65153733D01*
X196740000Y-65446267D02*
X196740000Y-65153733D01*
X199703733Y-63915000D02*
X199996267Y-63915000D01*
X199703733Y-64935000D02*
X199996267Y-64935000D01*
X193191233Y-68335000D02*
X193483767Y-68335000D01*
X193191233Y-67315000D02*
X193483767Y-67315000D01*
%LPC*%
D12*
X196725000Y-73237500D03*
X196725000Y-74962500D03*
D13*
X164370000Y-72000000D03*
X174530000Y-72000000D03*
D12*
X200800000Y-70987500D03*
X200800000Y-72712500D03*
D13*
X250730000Y-72000000D03*
X240570000Y-72000000D03*
D12*
X198325000Y-73237500D03*
X198325000Y-74962500D03*
D14*
X194075000Y-66187500D03*
X194075000Y-64462500D03*
D15*
X231680000Y-52950000D03*
D16*
X230410000Y-55490000D03*
X224060000Y-58030000D03*
D17*
X226600000Y-52950000D03*
D15*
X221520000Y-52950000D03*
D18*
X198987500Y-65950000D03*
X200712500Y-65950000D03*
D12*
X200800000Y-67587500D03*
X200800000Y-69312500D03*
D13*
X145320000Y-72000000D03*
X155480000Y-72000000D03*
D14*
X192500000Y-66187500D03*
X192500000Y-64462500D03*
X197250000Y-66162500D03*
X197250000Y-64437500D03*
D18*
X198987500Y-64425000D03*
X200712500Y-64425000D03*
D13*
X231680000Y-72000000D03*
X221520000Y-72000000D03*
D18*
X192475000Y-67825000D03*
X194200000Y-67825000D03*
D17*
X169450000Y-52950000D03*
D16*
X166910000Y-58030000D03*
D15*
X164370000Y-52950000D03*
D16*
X173260000Y-55490000D03*
D15*
X174530000Y-52950000D03*
D19*
X200865000Y-49715000D03*
X195085000Y-49715000D03*
D20*
X202295000Y-46065000D03*
D21*
X202295000Y-50245000D03*
D20*
X193655000Y-46065000D03*
D21*
X193655000Y-50245000D03*
D22*
X208375000Y-77350000D03*
D23*
X210915000Y-77350000D03*
X213455000Y-77350000D03*
M02*
